<svg xmlns="http://www.w3.org/2000/svg" xmlns:xlink="http://www.w3.org/1999/xlink" viewBox="0 0 87.475 87.475">
  <defs>
    <style>
      .cls-1 {
        clip-path: url(#clip-path);
      }

      .cls-2 {
        fill: #74706f;
      }

      .cls-3 {
        fill: #4c4846;
      }

      .cls-4 {
        fill: #ffcd28;
      }

      .cls-5 {
        fill: #f39400;
      }
    </style>
    <clipPath id="clip-path">
      <rect id="Rectangle_182" data-name="Rectangle 182" width="87.475" height="87.475"/>
    </clipPath>
  </defs>
  <g id="Symbol_7_1" data-name="Symbol 7 – 1" transform="translate(-239.137 -310.346)">
    <g id="Group_295" data-name="Group 295" transform="translate(239.137 310.346)">
      <g id="Group_293" data-name="Group 293" class="cls-1">
        <path id="Path_66" data-name="Path 66" class="cls-2" d="M43.756,87.494a12.011,12.011,0,0,1-8.5-3.524L3.543,52.252a12.079,12.079,0,0,1,0-16.992L35.26,3.543a12.079,12.079,0,0,1,16.992,0L83.97,35.26a12.079,12.079,0,0,1,0,16.992h0L52.252,83.97a12.011,12.011,0,0,1-8.5,3.524Z" transform="translate(-0.019 -0.019)"/>
      </g>
      <g id="Group_294" data-name="Group 294" class="cls-1">
        <path id="Path_67" data-name="Path 67" class="cls-3" d="M81.326,49.546,49.609,81.264a8.037,8.037,0,0,1-5.79,2.391,8.189,8.189,0,0,1-5.79-2.391L6.186,49.546a8.166,8.166,0,0,1,0-11.579L37.966,6.186a8.2,8.2,0,0,1,11.579,0L81.264,37.9a8.3,8.3,0,0,1,.063,11.642ZM83.97,35.26,52.252,3.543a12.079,12.079,0,0,0-16.992,0L3.543,35.26a12.079,12.079,0,0,0,0,16.992L35.26,83.97a12,12,0,0,0,16.992,0L83.97,52.252a11.965,11.965,0,0,0,0-16.992Z" transform="translate(-0.019 -0.019)"/>
      </g>
    </g>
    <path id="Path_68" data-name="Path 68" class="cls-4" d="M51.286,13.9,83,45.613a3.988,3.988,0,0,1,0,5.664L51.286,82.995a3.988,3.988,0,0,1-5.664,0L13.9,51.277a3.988,3.988,0,0,1,0-5.664L45.623,13.9a4.117,4.117,0,0,1,2.832-1.2,3.857,3.857,0,0,1,2.832,1.2Z" transform="translate(234.42 305.638)"/>
    <path id="Path_69" data-name="Path 69" class="cls-5" d="M109.054,55.355,83,81.408l18.061-24.921a7.041,7.041,0,0,0,0-7.8l-18-24.984,25.991,25.991a3.988,3.988,0,0,1,0,5.664Z" transform="translate(208.37 301.561)"/>
    <path id="Path_70" data-name="Path 70" class="cls-2" d="M66.683,30.2A4.781,4.781,0,0,0,61.9,34.983V55.876a4.783,4.783,0,0,0,9.566,0V34.983A4.781,4.781,0,0,0,66.683,30.2Zm4.783,42.794a4.783,4.783,0,1,1-4.783-4.783,4.781,4.781,0,0,1,4.783,4.783Z" transform="translate(216.191 299.151)"/>
    <path id="Path_71" data-name="Path 71" class="cls-3" d="M68.091,68.31a5.007,5.007,0,0,0-2.391.629,4.694,4.694,0,0,1,0,8.181,5.007,5.007,0,0,0,2.391.629,4.781,4.781,0,0,0,4.783-4.783,4.715,4.715,0,0,0-4.783-4.657Zm4.783-33.291V55.912A4.781,4.781,0,0,1,68.091,60.7a5.007,5.007,0,0,1-2.391-.629,4.659,4.659,0,0,0,2.391-4.091V35.019A4.659,4.659,0,0,0,65.7,30.929a5.007,5.007,0,0,1,2.391-.629,4.688,4.688,0,0,1,4.783,4.72Z" transform="translate(214.783 299.115)"/>
  </g>
</svg>
