<svg id="Layer_1" data-name="Layer 1" xmlns="http://www.w3.org/2000/svg" viewBox="0 0 400 400"><defs><style>.cls-1{fill:#ffd15c;}.cls-2{fill:#84dbff;}.cls-3{fill:#ff7058;}.cls-4{fill:#cdd6e0;}.cls-5{fill:#acb3ba;}</style></defs><title>torta</title><path class="cls-1" d="M227.45,85.76s20.21-31.1,63.74-27.21V67.1S264,60.88,227.45,85.76Z"/><path class="cls-2" d="M218.12,46.89s20.21-32.66,62.19-31.1v8.55C281.09,24.34,255.43,18.12,218.12,46.89Z"/><path class="cls-1" d="M173,85.76s-20.22-31.1-63.75-27.21V67.1S136.49,60.88,173,85.76Z"/><path class="cls-2" d="M181.58,45.33s-21-31.87-63.75-28.76v8.55S143.48,18.12,181.58,45.33Z"/><path class="cls-2" d="M286.53,97.42H278l6.22-6.22a1.65,1.65,0,0,0-2.33-2.33l-6.22,6.22V87.31a1.56,1.56,0,0,0-3.11,0v8.55l-6.22-6.22A1.65,1.65,0,1,0,264,92l6.21,6.21h-7.77a1.67,1.67,0,0,0-1.55,1.56c0,.78.77.78,1.55.78H271l-6.22,6.22a1.45,1.45,0,0,0,0,2.33l.78.78a.76.76,0,0,0,.78-.78l6.22-6.22v8.55a1.56,1.56,0,1,0,3.11,0v-8.55l6.21,6.22.78.78a.76.76,0,0,0,.78-.78,1.45,1.45,0,0,0,0-2.33L278,100.53h8.55a1.56,1.56,0,0,0,0-3.11Z"/><path class="cls-1" d="M148.15,127H139.6l6.22-6.22a1.65,1.65,0,0,0-2.34-2.33l-5.44,7v-8.55a1.56,1.56,0,0,0-3.11,0v8.55l-6.22-6.21a1.65,1.65,0,1,0-2.33,2.33l6.22,6.22h-8.55a1.56,1.56,0,0,0,0,3.11h8.55l-6.22,6.21a1.46,1.46,0,0,0,0,2.34l.78.77a.76.76,0,0,0,.78-.77l6.22-6.22v8.55a1.56,1.56,0,0,0,3.11,0v-8.55l6.21,6.22.78.78a.76.76,0,0,0,.78-.78,1.45,1.45,0,0,0,0-2.33l-6.22-6.22h8.55a1.68,1.68,0,0,0,1.56-1.56C148.93,128.51,148.93,127,148.15,127Z"/><polygon class="cls-3" points="309.85 121.13 309.85 130.46 316.85 135.12 308.3 138.23 305.97 146.78 300.52 139.79 291.19 139.79 296.64 132.79 293.53 124.24 302.08 126.57 309.85 121.13"/><polygon class="cls-3" points="94.88 94.31 94.88 102.86 102.66 108.3 94.11 111.41 91 119.96 85.55 112.19 77 112.97 82.44 105.19 79.33 96.64 87.89 99.75 94.88 94.31"/><polygon class="cls-2" points="253.1 125.41 253.1 131.62 257.76 134.73 252.32 136.29 250.77 142.51 246.88 137.84 241.44 137.84 244.55 133.18 243 127.74 248.44 129.29 253.1 125.41"/><polygon class="cls-2" points="134.16 82.65 134.16 88.87 138.82 91.98 133.38 93.53 131.82 98.97 128.71 94.31 122.49 94.31 126.38 89.64 124.05 84.2 129.49 86.53 134.16 82.65"/><rect class="cls-1" x="36.46" y="276.22" width="328.07" height="45.87"/><rect class="cls-3" x="36.46" y="322.09" width="328.07" height="36.54"/><path class="cls-1" d="M337.84,239.69H62.63V181.38a15.6,15.6,0,0,1,15.55-15.55H322.29a15.6,15.6,0,0,1,15.55,15.55v58.31Z"/><path class="cls-3" d="M364.53,276.22H36.46v-21A15.58,15.58,0,0,1,52,239.69H349a15.59,15.59,0,0,1,15.55,15.54v21Z"/><path class="cls-3" d="M322.55,165.83H78.44a15.6,15.6,0,0,0-15.55,15.55v31.87h0c18.66,0,35.76-6.22,49-19.43,11.66-10.89,29.54-12.44,40.42-.78,20.21,20.21,50.53,26.43,80.08,13.21,6.22-3.11,11.66-7.77,16.32-12.43,14-14,38.87-10.89,47.42,10.1,7,17.11,28.77,23.33,42,9.33h0V181.38A15.61,15.61,0,0,0,322.55,165.83Z"/><path class="cls-4" d="M217.34,165.83H183.13V109.76c0-4.61,3.11-7.68,7.78-7.68h18.66c4.66,0,7.77,3.07,7.77,7.68v56.07Z"/><path class="cls-1" d="M215.77,78.76A14.76,14.76,0,0,1,201,93.53c-7.77,0-14.77-7-14.77-14.77S189.34,71,201,51.55C205.66,44.55,215.77,64,215.77,78.76Z"/><path class="cls-5" d="M372.81,387.39H29.19a14.76,14.76,0,0,1-14.77-14.77h0a14.76,14.76,0,0,1,14.77-14.77H372.81a14.76,14.76,0,0,1,14.77,14.77h0A14.29,14.29,0,0,1,372.81,387.39Z"/></svg>