<svg id="Capa_1" data-name="Capa 1" xmlns="http://www.w3.org/2000/svg" viewBox="0 0 200 200"><defs><style>.cls-1{fill:#707487;}.cls-2{fill:#5b5d6e;}.cls-3{fill:#ff5050;}.cls-4{fill:#e4eaf8;}.cls-5{fill:#fff;}.cls-6{fill:#c84146;}</style></defs><title>ENFERMO</title><path class="cls-1" d="M114,21.55H87.18A13.44,13.44,0,0,0,73.75,35V51.76h6.71V38.33a6.72,6.72,0,0,1,6.72-6.71H114a6.73,6.73,0,0,1,6.72,6.71V51.76h6.71V35A13.44,13.44,0,0,0,114,21.55Z"/><rect class="cls-2" x="73.75" y="41.69" width="6.71" height="10.07"/><rect class="cls-2" x="120.75" y="41.69" width="6.71" height="10.07"/><path class="cls-3" d="M181.17,182.68H20A10.07,10.07,0,0,1,10,172.61V58.47A10.07,10.07,0,0,1,20,48.4H181.17a10.07,10.07,0,0,1,10.07,10.07V172.61A10.07,10.07,0,0,1,181.17,182.68Z"/><circle class="cls-4" cx="100.6" cy="112.19" r="47"/><circle class="cls-5" cx="100.6" cy="112.19" r="40.28" transform="matrix(0.08, -1, 1, 0.08, -19.5, 203.19)"/><path class="cls-3" d="M120.75,105.47H107.32V92A3.36,3.36,0,0,0,104,88.69H97.25A3.35,3.35,0,0,0,93.89,92v13.43H80.46a3.37,3.37,0,0,0-3.36,3.36v6.71a3.36,3.36,0,0,0,3.36,3.36H93.89v13.43a3.35,3.35,0,0,0,3.36,3.35H104a3.36,3.36,0,0,0,3.36-3.35V118.9h13.43a3.35,3.35,0,0,0,3.35-3.36v-6.71A3.36,3.36,0,0,0,120.75,105.47Z"/><path class="cls-6" d="M181.17,172.61H20A10.07,10.07,0,0,1,10,162.54v10.07A10.07,10.07,0,0,0,20,182.68H181.17a10.07,10.07,0,0,0,10.07-10.07V162.54A10.07,10.07,0,0,1,181.17,172.61Z"/></svg>