<svg id="Capa_1" data-name="Capa 1" xmlns="http://www.w3.org/2000/svg" viewBox="0 0 200 200"><defs><style>.cls-1{fill:#ffdc64;}.cls-2{fill:#ffc850;}.cls-3{fill:#fff082;}.cls-4{fill:#adadad;}.cls-5{fill:#ffa227;}.cls-6{fill:#088aff;}.cls-7{fill:#0076ce;}.cls-8{fill:#f78b0b;}</style></defs><title>EPP</title><path class="cls-1" d="M99.87,15.33A80.09,80.09,0,0,0,19.78,95.42V113.9H180V95.42A80.09,80.09,0,0,0,99.87,15.33Z"/><path class="cls-2" d="M183,113.9H62.91a3.08,3.08,0,0,1-3.09-3.08V95.42a107.83,107.83,0,0,1,7.45-40,1.92,1.92,0,0,1,3.67.42l6.49,37.59A6.15,6.15,0,0,0,83.5,98.5h32.74a6.16,6.16,0,0,0,6.07-5.11l12.11-70.24a80.1,80.1,0,0,0-67.62-.66h0l-1.47.74a80,80,0,0,0-45.55,72.2V113.9H16.7A3.08,3.08,0,0,0,13.62,117v3.93a3.06,3.06,0,0,0,2.1,2.93c22,7.21,51.61,11.62,84.15,11.62S162,131.05,184,123.85a3.09,3.09,0,0,0,2.1-2.94V117A3.08,3.08,0,0,0,183,113.9Z"/><path class="cls-3" d="M106.24,98.5H93.5a6.17,6.17,0,0,1-6.16-6l-2.65-77a6.16,6.16,0,0,1,6.15-6.37h18a6.16,6.16,0,0,1,6.16,6.37l-2.66,77A6.15,6.15,0,0,1,106.24,98.5Z"/><path class="cls-1" d="M184,117.92c-22,5.15-51.61,8.3-84.15,8.3s-62.12-3.15-84.15-8.3a2.64,2.64,0,0,1-2-1.54,3,3,0,0,0-.12.6v3.93a3.08,3.08,0,0,0,2.1,2.94c22,7.2,51.61,11.61,84.15,11.61S162,131.05,184,123.85a3.09,3.09,0,0,0,2.1-2.94V117a3,3,0,0,0-.12-.6A2.64,2.64,0,0,1,184,117.92Z"/><path class="cls-1" d="M95.6,92.55l-1.89-77c-.08-3.48,1.9-6.37,4.37-6.37H90.84a6.16,6.16,0,0,0-6.15,6.37l2.65,77a6.17,6.17,0,0,0,6.16,6H100C97.61,98.5,95.68,95.87,95.6,92.55Z"/><path class="cls-4" d="M188.12,172.45H181V140.28h7.14a4.87,4.87,0,0,1,4.88,4.87v22.42A4.88,4.88,0,0,1,188.12,172.45Z"/><path class="cls-4" d="M11.82,172.45H19V140.28H11.82A4.87,4.87,0,0,0,7,145.15v22.42A4.88,4.88,0,0,0,11.82,172.45Z"/><path class="cls-5" d="M17.37,140.12V172.6a16.13,16.13,0,0,0,16.12,16.13H70.85a21.27,21.27,0,0,0,20.38-15.16l2.33-7.76a6.49,6.49,0,0,1,6.22-4.63h0a6.52,6.52,0,0,1,6.2,4.54l2.58,8.15a21.28,21.28,0,0,0,20.29,14.86h37.61a16.13,16.13,0,0,0,16.12-16.13V140.12A16.12,16.12,0,0,0,166.46,124h-133A16.12,16.12,0,0,0,17.37,140.12Z"/><path class="cls-6" d="M128.85,177.76a10.28,10.28,0,0,1-9.84-7.2l-2.51-7.91a17.61,17.61,0,0,0-16.43-12.43h-.29a17.35,17.35,0,0,0-16.72,12.44l-2.33,7.75a10.26,10.26,0,0,1-9.88,7.36H33.49a5.17,5.17,0,0,1-5.16-5.17V140.12A5.17,5.17,0,0,1,33.49,135h133a5.17,5.17,0,0,1,5.16,5.16V172.6a5.17,5.17,0,0,1-5.16,5.17H128.85Z"/><path class="cls-7" d="M88,150.22h-.29a17.37,17.37,0,0,0-16.73,12.44l-2.32,7.75a10.26,10.26,0,0,1-9.88,7.36H70.85a10.26,10.26,0,0,0,9.88-7.36l2.33-7.75A17.39,17.39,0,0,1,93.68,151.3,17.13,17.13,0,0,0,88,150.22Z"/><path class="cls-7" d="M166.46,135H154.34a5.17,5.17,0,0,1,5.16,5.16V172.6a5.16,5.16,0,0,1-5.16,5.16h12.12a5.17,5.17,0,0,0,5.16-5.16V140.12A5.17,5.17,0,0,0,166.46,135Z"/><path class="cls-8" d="M166.46,124H154.34a16.12,16.12,0,0,1,16.12,16.12V172.6a16.13,16.13,0,0,1-16.12,16.13h12.12a16.13,16.13,0,0,0,16.12-16.13V140.12A16.12,16.12,0,0,0,166.46,124Z"/></svg>