<?xml version="1.0" encoding="utf-8"?>
<!-- Generator: Adobe Illustrator 21.1.0, SVG Export Plug-In . SVG Version: 6.00 Build 0)  -->
<svg version="1.1" id="Capa_1" xmlns="http://www.w3.org/2000/svg" xmlns:xlink="http://www.w3.org/1999/xlink" x="0px" y="0px"
	 viewBox="0 0 350 350" style="enable-background:new 0 0 350 350;" xml:space="preserve">
<style type="text/css">
	.st0{fill:#DD5151;}
	.st1{fill:#F5F6FB;}
	.st2{fill:#D2D4E6;}
	.st3{fill:#BBBED5;}
	.st4{fill:#E56F0E;}
	.st5{fill:#BDC0D6;}
	.st6{fill:#D3D5E7;}
</style>
<title>PERMISOS</title>
<path class="st0" d="M235.5,262.7H114.5c-7.9,0-14.2-6.4-14.2-14.2V84.8c0-7.9,6.4-14.2,14.2-14.2h120.9c7.9,0,14.2,6.4,14.2,14.2
	v163.6C249.7,256.3,243.3,262.7,235.5,262.7"/>
<path class="st1" d="M235.5,252H114.5c-1.9,0-3.5-1.6-3.5-3.5l0,0V84.8c0-1.9,1.6-3.5,3.5-3.5h120.9c1.9,0,3.5,1.6,3.5,3.5l0,0
	v163.6C239.1,250.4,237.5,252,235.5,252L235.5,252"/>
<path class="st2" d="M175,70.6c-1.9,0-3.5-1.6-3.5-3.5c0-1.9,1.6-3.5,3.5-3.5c1.9,0,3.5,1.6,3.5,3.5C178.5,69,176.9,70.6,175,70.6
	L175,70.6z M196.4,70.6h-10.7V67c0.2-5.9-4.5-10.8-10.3-11c-5.9-0.2-10.8,4.5-11,10.3c0,0.2,0,0.4,0,0.6v3.6h-10.7
	c-4,0-7.1,3.2-7.1,7.1l0,0v7.1h56.9v-7.1C203.4,73.8,200.3,70.6,196.4,70.6z"/>
<path class="st3" d="M203.5,88.3h-56.9c-1.9,0.1-3.7-1.4-3.7-3.4c-0.1-1.9,1.4-3.7,3.4-3.7c0.1,0,0.2,0,0.4,0h56.9
	c1.9-0.1,3.7,1.4,3.7,3.4c0.1,1.9-1.4,3.7-3.4,3.7C203.7,88.3,203.6,88.3,203.5,88.3z"/>
<path class="st4" d="M139.5,138.1c-0.9,0-1.8-0.4-2.5-1.1l-10.7-10.7c-1.4-1.4-1.4-3.7,0-5c1.4-1.4,3.7-1.4,5,0l8.1,8.1l15.3-15.3
	c1.4-1.4,3.7-1.3,5,0.1c1.3,1.4,1.3,3.5,0,4.9L141.9,137C141.3,137.8,140.4,138.1,139.5,138.1L139.5,138.1z"/>
<path class="st5" d="M199.9,123.9h-28.5c-1.9,0.1-3.7-1.4-3.7-3.4c-0.1-1.9,1.4-3.7,3.4-3.7c0.1,0,0.2,0,0.4,0h28.5
	c1.9-0.1,3.7,1.4,3.7,3.4s-1.4,3.7-3.4,3.7C200.2,123.9,200,123.9,199.9,123.9"/>
<path class="st6" d="M217.7,138.1h-46.2c-1.9,0.1-3.7-1.4-3.7-3.4c-0.1-1.9,1.4-3.7,3.4-3.7c0.1,0,0.2,0,0.4,0h46.2
	c1.9-0.1,3.7,1.4,3.7,3.4c0.1,1.9-1.4,3.7-3.4,3.7C217.9,138.1,217.8,138.1,217.7,138.1"/>
<path class="st4" d="M139.5,223.5c-0.9,0-1.8-0.4-2.5-1.1l-10.7-10.6c-1.4-1.4-1.4-3.7,0-5c1.4-1.4,3.7-1.4,5,0l8.1,8.1l15.3-15.3
	c1.4-1.4,3.7-1.3,5,0.1c1.3,1.4,1.3,3.5,0,4.9l-17.8,17.8C141.3,223.2,140.4,223.5,139.5,223.5L139.5,223.5z"/>
<path class="st5" d="M199.9,209.3h-28.5c-1.9,0.1-3.7-1.4-3.7-3.4c-0.1-1.9,1.4-3.7,3.4-3.7c0.1,0,0.2,0,0.4,0h28.5
	c1.9-0.1,3.7,1.4,3.7,3.4c0.1,1.9-1.4,3.7-3.4,3.7C200.2,209.3,200,209.3,199.9,209.3"/>
<path class="st6" d="M217.7,223.5h-46.2c-1.9,0.1-3.7-1.4-3.7-3.4c-0.1-1.9,1.4-3.7,3.4-3.7c0.1,0,0.2,0,0.4,0h46.2
	c1.9-0.1,3.7,1.4,3.7,3.4c0.1,1.9-1.4,3.7-3.4,3.7C217.9,223.5,217.8,223.5,217.7,223.5"/>
<path class="st4" d="M139.5,180.8c-0.9,0-1.8-0.4-2.5-1.1l-10.7-10.7c-1.4-1.4-1.4-3.7,0-5c1.4-1.4,3.7-1.4,5,0l0,0l8.1,8.1
	l15.3-15.2c1.4-1.4,3.7-1.3,5,0.1c1.3,1.4,1.3,3.5,0,4.9l-17.8,17.8C141.3,180.5,140.4,180.8,139.5,180.8L139.5,180.8z"/>
<path class="st5" d="M199.9,166.7h-28.5c-1.9,0.1-3.7-1.4-3.7-3.4c-0.1-1.9,1.4-3.7,3.4-3.7c0.1,0,0.2,0,0.4,0h28.5
	c1.9-0.1,3.7,1.4,3.7,3.4c0.1,1.9-1.4,3.7-3.4,3.7C200.2,166.7,200,166.7,199.9,166.7"/>
<path class="st6" d="M217.7,180.8h-46.2c-1.9,0.1-3.7-1.4-3.7-3.4c-0.1-1.9,1.4-3.7,3.4-3.7c0.1,0,0.2,0,0.4,0h46.2
	c1.9,0.1,3.5,1.8,3.4,3.7C221,179.3,219.5,180.7,217.7,180.8"/>
</svg>
