<svg id="Capa_1" data-name="Capa 1" xmlns="http://www.w3.org/2000/svg" viewBox="0 0 350 350"><defs><style>.cls-1{fill:#e3e5e5;}.cls-2{fill:#68b04a;}.cls-3{fill:#8bea63;}.cls-4{fill:#f5f5f5;}.cls-5{fill:#474b63;}</style></defs><title>saleantes</title><path class="cls-1" d="M124.84,151.49a3.13,3.13,0,0,1-3.14-3.13V109.9a3.14,3.14,0,0,1,6.28,0v38.46A3.14,3.14,0,0,1,124.84,151.49Z"/><path class="cls-1" d="M224.16,151.49a3.14,3.14,0,0,1-3.14-3.13V109.9a3.14,3.14,0,0,1,6.28,0v38.46A3.13,3.13,0,0,1,224.16,151.49Z"/><path class="cls-2" d="M267.22,149.19H81.78A11.29,11.29,0,0,0,70.5,160.47V267.23a11.29,11.29,0,0,0,11.28,11.28H267.22a11.29,11.29,0,0,0,11.28-11.28V160.47A11.29,11.29,0,0,0,267.22,149.19Z"/><path class="cls-3" d="M266.81,261.79a5,5,0,0,1-5,5H87.22a5,5,0,0,1-5-5V165.91a5,5,0,0,1,5-5H261.78a5,5,0,0,1,5,5Z"/><path class="cls-4" d="M131.56,225.14h-17.3v-6.83h14.07a1.68,1.68,0,0,0,1.67-1.68v-5.46a1.67,1.67,0,0,0-1.67-1.67H114.26v-6.94H131a1.68,1.68,0,0,0,1.68-1.68v-7a1.68,1.68,0,0,0-1.68-1.67H104a1.68,1.68,0,0,0-1.68,1.67v40a1.68,1.68,0,0,0,1.68,1.68h27.53a1.68,1.68,0,0,0,1.68-1.68v-7A1.68,1.68,0,0,0,131.56,225.14Z"/><path class="cls-4" d="M179,192.18h-8.75a1.67,1.67,0,0,0-1.45.84l-7.39,12.83L154,193a1.67,1.67,0,0,0-1.45-.84h-8.81a1.68,1.68,0,0,0-1.4,2.6l12.76,19.38-12.28,18.77a1.64,1.64,0,0,0-.07,1.71,1.66,1.66,0,0,0,1.47.88h8.81a1.67,1.67,0,0,0,1.45-.85l6.91-12.21,6.9,12.21a1.7,1.7,0,0,0,1.46.85h8.75a1.68,1.68,0,0,0,1.4-2.59l-12.29-18.77,12.76-19.38a1.67,1.67,0,0,0-1.39-2.6Z"/><path class="cls-4" d="M200,192.18h-8.56a1.68,1.68,0,0,0-1.67,1.68v40a1.67,1.67,0,0,0,1.67,1.67H200a1.67,1.67,0,0,0,1.67-1.67v-40A1.68,1.68,0,0,0,200,192.18Z"/><path class="cls-4" d="M245,192.18H211.45a1.68,1.68,0,0,0-1.67,1.68v7a1.68,1.68,0,0,0,1.67,1.68h10.84v31.29a1.68,1.68,0,0,0,1.68,1.67h8.55a1.68,1.68,0,0,0,1.68-1.67V202.56H245a1.68,1.68,0,0,0,1.68-1.68v-7A1.68,1.68,0,0,0,245,192.18Z"/><path class="cls-5" d="M124.84,70.51a19.31,19.31,0,1,0,19.3,19.3A19.3,19.3,0,0,0,124.84,70.51Zm0,27.12a7.82,7.82,0,1,1,7.82-7.82A7.82,7.82,0,0,1,124.84,97.63Z"/><path class="cls-5" d="M224.16,70.51a19.31,19.31,0,1,0,19.31,19.3A19.3,19.3,0,0,0,224.16,70.51Zm0,27.12A7.82,7.82,0,1,1,232,89.81,7.82,7.82,0,0,1,224.16,97.63Z"/></svg>