<?xml version="1.0" encoding="utf-8"?>
<!-- Generator: Adobe Illustrator 21.1.0, SVG Export Plug-In . SVG Version: 6.00 Build 0)  -->
<svg version="1.1" id="Capa_1" xmlns="http://www.w3.org/2000/svg" xmlns:xlink="http://www.w3.org/1999/xlink" x="0px" y="0px"
	 viewBox="0 0 350 350" style="enable-background:new 0 0 350 350;" xml:space="preserve">
<style type="text/css">
	.st0{fill:#D8DCE6;}
	.st1{fill:#163780;}
	.st2{fill:#DD5151;}
	.st3{fill:#FFFFFF;}
	.st4{fill:#F6F7F7;}
</style>
<title>CAMBIO DE HORA</title>
<polygon class="st0" points="249,157 260.5,157 260.5,183 249,183 "/>
<path class="st1" d="M204.8,79.7c-0.7-4.9-4.9-8.6-9.9-8.7h-48c-5,0.1-9.2,3.7-9.9,8.7l-12.4,90.5l12.4,90.5
	c0.7,4.9,4.9,8.6,9.9,8.7h48.4c5-0.1,9.2-3.7,9.9-8.7l12.5-90.5L204.8,79.7L204.8,79.7z"/>
<path class="st0" d="M210.9,82.2h-80.2c-4.5,0-8.3,3.7-8.3,8.3V250c0,4.5,3.7,8.3,8.3,8.3h80.6c4.5,0,8.3-3.7,8.3-8.3V90.4
	C219.3,85.9,215.5,82.3,210.9,82.2z"/>
<path class="st2" d="M170.9,88.8c45,0,81.4,36.5,81.4,81.4s-36.5,81.4-81.4,81.4s-81.4-36.5-81.4-81.5S125.9,88.8,170.9,88.8z"/>
<path class="st3" d="M170.9,236.4c-36.5,0-66.2-29.6-66.2-66.2s29.6-66.2,66.2-66.2s66.2,29.6,66.2,66.2l0,0
	C236.9,206.7,207.3,236.2,170.9,236.4z"/>
<path class="st4" d="M170.9,216.5c-25.6,0-46.3-20.7-46.3-46.3s20.7-46.3,46.3-46.3s46.3,20.7,46.3,46.3l0,0
	c0.1,25.5-20.6,46.3-46.1,46.3C171,216.5,170.9,216.5,170.9,216.5z"/>
<path class="st2" d="M170.9,108.6c2.9,0,5.4,2.4,5.4,5.4c0,2.9-2.4,5.4-5.4,5.4c-2.9,0-5.4-2.4-5.4-5.4l0,0
	C165.5,111,167.9,108.6,170.9,108.6L170.9,108.6L170.9,108.6z"/>
<path class="st2" d="M170.9,221.1c2.9,0,5.4,2.4,5.4,5.4s-2.4,5.4-5.4,5.4c-3,0-5.4-2.4-5.4-5.4l0,0
	C165.5,223.4,167.9,221.1,170.9,221.1z"/>
<path class="st2" d="M227.1,164.8c2.9,0,5.4,2.4,5.4,5.4c0,2.9-2.4,5.4-5.4,5.4c-2.9,0-5.4-2.4-5.4-5.4
	C221.7,167.3,224.1,164.8,227.1,164.8L227.1,164.8z"/>
<path class="st2" d="M114.6,164.8c2.9,0,5.4,2.4,5.4,5.4c0,2.9-2.4,5.4-5.4,5.4s-5.4-2.4-5.4-5.4
	C109.2,167.3,111.7,164.8,114.6,164.8L114.6,164.8z"/>
<path class="st1" d="M198.6,170.2c-0.1,2.9-2.4,5.3-5.4,5.4h-22.7c-2.9-0.1-5.3-2.4-5.4-5.4v-35.9c0.1-2.9,2.4-5.3,5.4-5.4
	c2.8,0.1,5,2.4,5,5.3c0,0.1,0,0.1,0,0.1v31h18.2C196.5,164.8,198.6,167.3,198.6,170.2L198.6,170.2z"/>
</svg>
