<svg id="Capa_1" data-name="Capa 1" xmlns="http://www.w3.org/2000/svg" viewBox="0 0 200 200"><defs><style>.cls-1{fill:#90a4ae;}.cls-2{fill:#fff9c5;}.cls-3{opacity:0.1;isolation:isolate;}.cls-4{fill:#ffca28;}.cls-5{fill:#1eb8e8;}.cls-6{fill:#ef495b;}.cls-7{fill:#ff9800;}</style></defs><title>VACAIONES</title><path class="cls-1" d="M100.14,159.85l33-82.79a6.75,6.75,0,0,1,12.54,5l-31.51,79.07Z"/><path class="cls-2" d="M113.15,87.8v0h0Z"/><path class="cls-3" d="M141.91,73.29a6.75,6.75,0,0,0-8.77,3.77L124.5,98.74a30.49,30.49,0,0,1,6.54,1.81,31.26,31.26,0,0,1,6,3.18l8.63-21.67A6.74,6.74,0,0,0,141.91,73.29Z"/><path class="cls-2" d="M153.86,43.31,129,46,113.15,64.4V87.77h0a41.08,41.08,0,0,1,39.57,15.7l.08.13,13-12.88,1.45-32.14Z"/><path class="cls-4" d="M177,174.41c-9.06-14.48-39.75-25.14-76.21-25.14S33.6,159.93,24.54,174.41h5.09l11.05,7.09,11.62,1.26L60.48,178l13-4.74,7,1.89,14.84,7.58,9.79-1.58,12.62-4.71,9.16-2.86,11.68,2.86,9.47,6.29,15.15-1.89Z"/><path class="cls-3" d="M164.22,180.37l12.75-6c-9.06-14.48-39.75-25.14-76.21-25.14a175.89,175.89,0,0,0-24.05,1.61C114.33,155.19,145.79,166,164.22,180.37Z"/><path class="cls-5" d="M194.5,176A26.14,26.14,0,0,0,165,176a20.58,20.58,0,0,1-23.19,0,26.14,26.14,0,0,0-29.48,0,20.58,20.58,0,0,1-23.19,0,26.14,26.14,0,0,0-29.48,0,20.58,20.58,0,0,1-23.19,0A26.14,26.14,0,0,0,7,176a2.8,2.8,0,0,0,3.15,4.64,20.54,20.54,0,0,1,23.19,0,26.14,26.14,0,0,0,29.48,0,20.53,20.53,0,0,1,23.18,0,26.15,26.15,0,0,0,29.49,0,20.53,20.53,0,0,1,23.18,0,26.15,26.15,0,0,0,29.48,0,20.54,20.54,0,0,1,23.19,0A2.8,2.8,0,0,0,194.5,176Z"/><path class="cls-6" d="M113.15,87.77A41.18,41.18,0,0,0,73.48,72S107,24.63,153.86,43.31c0,0-24.57,6.57-40.71,44.49Z"/><path class="cls-6" d="M152.82,103.59a41.13,41.13,0,0,1,39.67,15.81S200.72,62,153.86,43.31c0,0,13.31,21.67-1.05,60.3Z"/><circle class="cls-4" cx="37.03" cy="48.79" r="15.27"/><path class="cls-7" d="M37,28.13a2.81,2.81,0,0,1-2.81-2.8V19.69a2.81,2.81,0,1,1,5.61,0v5.64A2.81,2.81,0,0,1,37,28.13Z"/><path class="cls-7" d="M53.61,35a2.81,2.81,0,0,1-2-4.79l4-4a2.8,2.8,0,0,1,4,4l-4,4A2.8,2.8,0,0,1,53.61,35Z"/><path class="cls-7" d="M66.12,51.59H60.49a2.81,2.81,0,1,1,0-5.61h5.63a2.81,2.81,0,1,1,0,5.61Z"/><path class="cls-7" d="M57.6,72.17a2.79,2.79,0,0,1-2-.83l-4-4a2.81,2.81,0,0,1,4-4l4,4a2.81,2.81,0,0,1-2,4.79Z"/><path class="cls-7" d="M37,80.69a2.81,2.81,0,0,1-2.81-2.81V72.25a2.81,2.81,0,1,1,5.61,0v5.63A2.81,2.81,0,0,1,37,80.69Z"/><path class="cls-7" d="M16.45,72.17a2.81,2.81,0,0,1-2-4.79l4-4a2.81,2.81,0,1,1,4,4l-4,4A2.79,2.79,0,0,1,16.45,72.17Z"/><path class="cls-7" d="M13.57,51.59H7.93a2.81,2.81,0,1,1,0-5.61h5.64a2.81,2.81,0,0,1,0,5.61Z"/><path class="cls-7" d="M20.44,35a2.8,2.8,0,0,1-2-.82l-4-4a2.8,2.8,0,1,1,4-4l4,4a2.8,2.8,0,0,1-2,4.78Z"/></svg>