<svg id="Capa_1" data-name="Capa 1" xmlns="http://www.w3.org/2000/svg" viewBox="0 0 200 200"><defs><style>.cls-1{fill:#fff;}</style></defs><title>Novedades</title><path class="cls-1" d="M65.66,137.32l-1-.3L61.48,149l25.68,32.87L100,155c-13.48,0-25.68-7.17-34.34-17.63"/><path class="cls-1" d="M134.34,137.32C125.68,147.78,113.48,155,100,155l12.84,26.89L138.52,149,135.31,137Z"/><path class="cls-1" d="M51.85,76.8v16c0,28.24,21.51,57.77,48.15,57.77s48.15-29.53,48.15-57.77v-16Z"/><path class="cls-1" d="M112.84,12.6V9.39A6.44,6.44,0,0,0,106.42,3H93.58a6.44,6.44,0,0,0-6.42,6.42V12.6C63.09,18.38,45.43,38.28,45.43,64v6.42H154.57V64c0-25.68-17.66-45.58-41.73-51.36"/><path class="cls-1" d="M161,73.59H39a3.21,3.21,0,0,1,0-6.42H161a3.21,3.21,0,1,1,0,6.42"/><path class="cls-1" d="M185.38,171.25c-17.65-9.31-34.67-16.37-50.07-18.29H133.7l-20.86,28.88,3.21,16h77v-13.8a14.37,14.37,0,0,0-7.7-12.84"/><path class="cls-1" d="M66.3,153H64.69c-15.4,1.92-32.42,9-50.07,18.29a14.37,14.37,0,0,0-7.7,12.84v13.8H84l3.21-16Z"/></svg>