<svg id="Capa_1" data-name="Capa 1" xmlns="http://www.w3.org/2000/svg" viewBox="0 0 200 200"><defs><style>.cls-1{fill:#fff;}</style></defs><title>Solicitudes</title><path class="cls-1" d="M177.28,92a7.59,7.59,0,0,0-6.81-3.71A33.2,33.2,0,0,0,153.12,94a58.07,58.07,0,0,0-17.55,19.44,7,7,0,0,1-4.82,3.52c0-.44,0-.95,0-1.43,0-1,0-2.24,0-3.59V38.57a13.26,13.26,0,0,0-26.52,0V90a1.66,1.66,0,0,1-3.31,0V15.37a13.26,13.26,0,1,0-26.52,0V90A1.66,1.66,0,0,1,71,90V30.28a11.6,11.6,0,0,0-23.2,0v66.3a1.66,1.66,0,0,1-3.31,0V55.14a11.62,11.62,0,0,0-23.24,0v90.15c3.2,46.35,31.63,52.6,59,52.6,22.7,0,43.08-11.25,53.13-29.25,1.29-2.08,4.79-7.58,8.94-14.1,10.36-16.28,19.05-30,20.33-32.4,2.86-5.41,6.05-9.65,9.23-12.24a25.58,25.58,0,0,0,6.06-8A12.5,12.5,0,0,0,177.28,92Z"/></svg>