<svg id="Capa_1" data-name="Capa 1" xmlns="http://www.w3.org/2000/svg" viewBox="0 0 100 100"><defs><style>.cls-1{fill:#fff;}</style></defs><title>campana</title><path class="cls-1" d="M87.67,66.43l-6.81-6.81A12.14,12.14,0,0,1,77.31,51V35.76c0-13.1-8.93-24.68-21.31-27.54,0-.23.07-.46.07-.7a6.07,6.07,0,0,0-12.14,0,5.2,5.2,0,0,0,.07.69A27.3,27.3,0,0,0,22.69,34.83V51a12.14,12.14,0,0,1-3.55,8.58l-6.81,6.81a6.06,6.06,0,0,0-1.78,4.29v6.59h78.9V70.72A6.06,6.06,0,0,0,87.67,66.43Z"/><path class="cls-1" d="M37.86,86.41a12.14,12.14,0,0,0,24.28,0v-3H37.86Z"/></svg>