<svg id="Capa_1" data-name="Capa 1" xmlns="http://www.w3.org/2000/svg" viewBox="0 0 60 60"><defs><style>.cls-1{fill:#034c8e;}</style></defs><title>logout</title><path class="cls-1" d="M37.14,42.25h-2a1,1,0,0,0-1,1v7.14H9.59V9.59H34.08v7.14a1,1,0,0,0,1,1h2a1,1,0,0,0,1-1V9.59A4.09,4.09,0,0,0,34.08,5.5H9.59A4.09,4.09,0,0,0,5.5,9.59V50.41A4.09,4.09,0,0,0,9.59,54.5H34.08a4.09,4.09,0,0,0,4.09-4.09V43.27A1,1,0,0,0,37.14,42.25Z"/><path class="cls-1" d="M54.17,29.25,41.92,18a1,1,0,0,0-1.71.75v2a1,1,0,0,0,.33.76L47.64,28H18.77a1,1,0,0,0-1,1v2a1,1,0,0,0,1,1H47.64l-7.1,6.39a1,1,0,0,0-.33.76v2a1,1,0,0,0,.61.93,1,1,0,0,0,.41.09,1,1,0,0,0,.69-.27L54.17,30.75a1,1,0,0,0,0-1.5Z"/></svg>