<svg id="Capa_1" data-name="Capa 1" xmlns="http://www.w3.org/2000/svg" viewBox="0 0 600 600"><defs><style>.cls-1{fill:#faba81;}.cls-2{fill:#fff;}.cls-3{fill:#a5a4a4;}.cls-4{fill:#364875;}.cls-5{fill:#5869a0;}.cls-6{fill:#7383bf;}</style></defs><title>nofoto</title><path class="cls-1" d="M162.24,254.72v46.61c0,82,62.45,167.79,139.82,167.79s139.83-85.76,139.83-167.79V254.72Z"/><path class="cls-2" d="M339.35,86.93V77.61A18.7,18.7,0,0,0,320.71,59H283.42a18.7,18.7,0,0,0-18.64,18.65v9.32C194.86,103.71,143.6,161.5,143.6,236.08v18.64H460.53V236.08c0-74.58-51.27-132.37-121.18-149.15"/><path class="cls-3" d="M339.35,133.54c-5.59,0-9.32-3.73-9.32-9.32v-28c0-5.59,3.73-9.32,9.32-9.32s9.32,3.73,9.32,9.32v28c0,5.59-3.73,9.32-9.32,9.32"/><path class="cls-3" d="M264.78,133.54c-5.6,0-9.32-3.73-9.32-9.32v-28c0-5.59,3.72-9.32,9.32-9.32s9.32,3.73,9.32,9.32v28c0,5.59-3.73,9.32-9.32,9.32"/><path class="cls-3" d="M479.18,264H125c-5.59,0-9.32-3.73-9.32-9.32s3.73-9.32,9.32-9.32H479.18c5.59,0,9.32,3.73,9.32,9.32s-3.73,9.32-9.32,9.32"/><path class="cls-4" d="M339.35,553H264.78l37.28-83.89Z"/><path class="cls-4" d="M255.46,599.62,264.78,553h74.57l9.32,46.61Z"/><path class="cls-5" d="M202.32,414.12l-2.79-.93-9.33,37.28L264.78,553l37.28-83.89c-39.15,0-74.57-22.37-99.74-55"/><path class="cls-5" d="M401.81,414.12c-25.17,32.63-60.6,55-99.75,55L339.35,553l74.57-102.53-9.32-37.29Z"/><path class="cls-6" d="M550,522.25c-51.27-27-100.67-47.54-145.42-53.13h-4.66L339.35,553l9.32,46.61H572.39V559.54A41.72,41.72,0,0,0,550,522.25"/><path class="cls-6" d="M204.19,469.12h-4.67c-44.74,5.59-94.14,26.1-145.41,53.13a41.71,41.71,0,0,0-22.38,37.29v40.08H255.46L264.78,553Z"/><path class="cls-3" d="M166,156.84l70.84,14-14-68A158.19,158.19,0,0,0,166,156.84"/><path class="cls-3" d="M438.16,156.84l-70.84,14,14-68a158.19,158.19,0,0,1,56.86,54.06"/></svg>