<svg xmlns="http://www.w3.org/2000/svg" viewBox="0 0 70.34 70.34"><defs><style>.cls-1{fill:#fff;}.cls-2{fill:#db4242;}</style></defs><title>novacc</title><g id="Capa_2" data-name="Capa 2"><g id="Capa_1-2" data-name="Capa 1"><circle class="cls-1" cx="35.17" cy="35.17" r="35.17"/><path class="cls-2" d="M52.75,29.31H41V17.58a2.93,2.93,0,0,0-2.93-2.93H32.24a2.93,2.93,0,0,0-2.93,2.93V29.31H17.58a2.93,2.93,0,0,0-2.93,2.93V38.1A2.93,2.93,0,0,0,17.58,41H29.31V52.75a2.93,2.93,0,0,0,2.93,2.93H38.1A2.93,2.93,0,0,0,41,52.75V41H52.75a2.93,2.93,0,0,0,2.93-2.93V32.24A2.93,2.93,0,0,0,52.75,29.31Z"/></g></g></svg>