<svg id="Capa_1" data-name="Capa 1" xmlns="http://www.w3.org/2000/svg" viewBox="0 0 101.64 101.64"><defs><style>.cls-1{fill:#fff;}</style></defs><title>acciones</title><path class="cls-1" d="M84.4,99.51a3.34,3.34,0,0,0,0-6.68H78.68V82.56c0-10.38-5.7-19.92-16.05-26.87a5.83,5.83,0,0,1-2.08-4.87A5.83,5.83,0,0,1,62.63,46C73,39,78.68,29.46,78.68,19.08V8.81H84.4a3.34,3.34,0,0,0,0-6.68H17.24a3.34,3.34,0,1,0,0,6.68H23V19.08C23,29.46,28.66,39,39,46a5.83,5.83,0,0,1,2.08,4.87A5.83,5.83,0,0,1,39,55.69c-10.35,7-16,16.49-16,26.87V92.83H17.24a3.34,3.34,0,1,0,0,6.68Z"/></svg>