<?xml version="1.0" encoding="utf-8"?>
<!-- Generator: Adobe Illustrator 21.1.0, SVG Export Plug-In . SVG Version: 6.00 Build 0)  -->
<svg version="1.1" id="Capa_1" xmlns="http://www.w3.org/2000/svg" xmlns:xlink="http://www.w3.org/1999/xlink" x="0px" y="0px"
	 viewBox="0 0 56 56" style="enable-background:new 0 0 56 56;" xml:space="preserve">
<style type="text/css">
	.st0{fill:#EC6E25;}
</style>
<title>x-02</title>
<path class="st0" d="M20.6,27.4l-9.2-9.1c-0.6-0.6-0.6-1.5,0-2.1l4.6-4.6c0.6-0.6,1.5-0.6,2.1,0l9.1,9.2c0.6,0.6,1.5,0.6,2.1,0
	l9.2-9.2c0.6-0.6,1.5-0.6,2.1,0l4.6,4.6c0.6,0.6,0.6,1.5,0,2.1l-9.2,9.2c-0.6,0.6-0.6,1.5,0,2.1l9.1,9.1c0.6,0.6,0.6,1.5,0,2.1
	l-4.6,4.6c-0.6,0.6-1.5,0.6-2.1,0l-9.1-9.1c-0.6-0.6-1.5-0.6-2.1,0l-9.1,9.1c-0.6,0.6-1.5,0.6-2.1,0l-4.6-4.6
	c-0.6-0.6-0.6-1.5,0-2.1l9.1-9.1C21.2,29,21.2,28,20.6,27.4C20.6,27.4,20.6,27.4,20.6,27.4z"/>
</svg>
