<?xml version="1.0" encoding="utf-8"?>
<!-- Generator: Adobe Illustrator 21.1.0, SVG Export Plug-In . SVG Version: 6.00 Build 0)  -->
<svg version="1.1" xmlns="http://www.w3.org/2000/svg" xmlns:xlink="http://www.w3.org/1999/xlink" x="0px" y="0px"
	 viewBox="0 0 678 773.7" style="enable-background:new 0 0 678 773.7;" xml:space="preserve">
<style type="text/css">
	.st0{display:none;}
	.st1{display:inline;}
	.st2{fill:#9D9D9C;}
	.st3{fill:none;stroke:#9D9D9C;stroke-width:0.5952;}
	.st4{fill:#B2B2B2;}
	.st5{fill:none;stroke:#B2B2B2;stroke-width:1.9031;}
	.st6{fill:none;stroke:#B2B2B2;stroke-width:1.3372;}
	.st7{fill:none;stroke:#B2B2B2;stroke-width:1.8815;}
	.st8{fill-rule:evenodd;clip-rule:evenodd;fill:#B2B2B2;stroke:#B2B2B2;stroke-width:1.2963;}
	.st9{fill-rule:evenodd;clip-rule:evenodd;fill:none;stroke:#B2B2B2;stroke-width:1.2963;}
	.st10{fill-rule:evenodd;clip-rule:evenodd;fill:#B2B2B2;}
	.st11{fill-rule:evenodd;clip-rule:evenodd;fill:#595959;stroke:#7C7C7B;stroke-width:2.6888;}
	.st12{fill-rule:evenodd;clip-rule:evenodd;fill:none;stroke:#B2B2B2;stroke-width:1.8448;}
	.st13{fill-rule:evenodd;clip-rule:evenodd;fill:#B2B2B2;stroke:#B2B2B2;stroke-width:1.8448;}
	.st14{fill-rule:evenodd;clip-rule:evenodd;fill:none;stroke:#FFFFFF;stroke-width:2.6888;}
	.st15{fill:none;stroke:#B2B2B2;stroke-width:1.3684;}
	.st16{fill:#B2B2B2;stroke:#B2B2B2;stroke-width:1.3684;}
	.st17{fill:none;stroke:#B2B2B2;stroke-width:1.4245;}
	.st18{fill:none;stroke:#B2B2B2;stroke-width:1.157;}
	.st19{display:inline;fill-rule:evenodd;clip-rule:evenodd;fill:none;stroke:#E6007E;}
	.st20{opacity:0.17;}
	.st21{fill:none;stroke:#9D9D9C;stroke-width:0.8;stroke-linecap:round;stroke-linejoin:round;}
	.st22{fill:#FFFFFF;stroke:#9D9D9C;stroke-width:0.8;stroke-linecap:round;stroke-linejoin:round;}
	.st23{opacity:0.48;fill:none;stroke:#9D9D9C;stroke-width:0.8;stroke-linecap:round;stroke-linejoin:round;}
	.st24{opacity:0.17;fill:none;}
</style>
<g id="Layer_1" class="st0">
	<g class="st1">
		<g>
			<polygon class="st2" points="96.6,85.6 96.6,61.4 55.8,68.3 72,65.6 			"/>
			<polygon class="st2" points="96.6,28.5 55.8,35.1 65.7,33.5 96.6,57.5 			"/>
			<polygon class="st2" points="137.3,21.8 100.3,27.9 111,26.1 137.3,49.4 			"/>
			<polygon class="st2" points="137.3,53.2 100.3,60.7 109.4,58.9 137.3,76.3 			"/>
			<polygon class="st2" points="178.5,23.2 214.2,37 196,12.3 178.5,15.1 			"/>
			<polygon class="st2" points="141.1,21.2 149,19.9 174.8,40.6 174.8,15.7 			"/>
			<polygon class="st2" points="52.1,65.6 52.1,35.7 23.7,40.4 -4,83.4 18.1,49 			"/>
			<polygon class="st2" points="174.8,44.5 141.1,52.4 148.2,50.7 174.8,67.7 			"/>
			<polygon class="st2" points="52.1,69.5 5.2,86.6 22.6,80.3 52.1,95.8 			"/>
			<polygon class="st2" points="211.2,40.9 178.5,43.6 186,43 207.4,60.2 206.6,46.5 			"/>
		</g>
		<polygon class="st3" points="-24.2,27.4 0.6,-6.3 130.7,-20.4 197.8,5.7 220.8,38.7 212.5,47.1 212.5,64 -3,116 -3,90 -17.4,90 		
			"/>
		<polyline class="st3" points="-17.4,90 18.2,33.8 197.8,5.7 		"/>
		<g>
			<polygon class="st3" points="96,85.6 96,61.4 55.2,68.3 55.2,95 			"/>
			<polygon class="st3" points="96,28.5 55.2,35.1 55.2,64.5 96,57.5 			"/>
			<polygon class="st3" points="136.7,21.8 99.7,27.9 99.7,56.9 136.7,49.4 			"/>
			<polygon class="st3" points="136.7,53.2 99.7,60.7 99.7,84.8 136.7,76.3 			"/>
			<polygon class="st3" points="177.9,39.8 213.6,37 195.3,12.3 177.9,15.1 			"/>
			<polygon class="st3" points="140.4,21.2 140.4,48.6 174.2,40.6 174.2,15.7 			"/>
			<polygon class="st3" points="51.5,65.6 51.5,35.7 23,40.4 -4.7,83.4 3.3,83 			"/>
			<polygon class="st3" points="174.2,44.5 140.4,52.4 140.4,75.4 174.2,67.7 			"/>
			<polygon class="st3" points="51.5,69.5 4.6,86.6 4.3,106.6 51.5,95.8 			"/>
			<polygon class="st3" points="210.5,40.9 177.9,43.6 177.9,66.8 206.8,60.2 205.9,46.5 			"/>
		</g>
	</g>
	<g class="st1">
		<polygon class="st4" points="602.1,306.4 582.4,282.9 582.4,271 602.1,268.2 		"/>
		<polygon class="st4" points="627.1,302.1 607.4,279.4 607.4,267.8 627.1,265.1 		"/>
		<polygon class="st4" points="649,297 632.6,275 632.6,263.8 649,261.2 		"/>
		<polygon class="st4" points="601.3,350.1 581.6,328.4 581.6,317.3 600.9,313.8 		"/>
		<polygon class="st4" points="626.4,345.3 607.3,322.9 607.5,312.3 626.4,308.8 		"/>
		<polygon class="st4" points="649,340.2 633,318.3 633,307.1 649,304.5 		"/>
		<polygon class="st4" points="601.4,393.6 582.4,373.7 582.4,362.2 601.4,357.8 		"/>
		<polygon class="st4" points="627,386.9 608.3,367.8 608.3,356.4 627,352.2 		"/>
		<polygon class="st4" points="649,378.2 633.2,361.3 633.2,350.8 649,346.7 		"/>
		<g>
			<polygon class="st5" points="507.4,226 559.8,222.6 654.7,251.8 656,383.3 575.2,410.8 509.3,315.1 			"/>
			<polygon class="st5" points="582.4,271 601.2,268.4 601.7,305.9 582.3,309.5 			"/>
			<polygon class="st5" points="607.6,267.2 626.2,264.6 626.6,301.4 607.9,304.5 			"/>
			<polygon class="st5" points="633.1,263.4 649,260.8 649,297 633,299.8 			"/>
			<polygon class="st5" points="582.4,316.8 601.4,313.4 601.4,350.5 582.4,353.9 			"/>
			<polygon class="st5" points="608,311.9 626.4,308.8 626,344.9 608,348.8 			"/>
			<polygon class="st5" points="633.2,307.5 649.4,304.3 649.4,339.4 633.2,343.1 			"/>
			<polygon class="st5" points="582.8,361.7 601.7,357.8 602.1,394.3 582.8,400.1 			"/>
			<polygon class="st5" points="608.5,356.7 626.7,352.7 626.7,386.4 608.6,391.8 			"/>
			<polygon class="st5" points="633.5,350.5 649.3,346.6 649.7,378.9 633.5,384 			"/>
		</g>
		<path class="st6" d="M574.9,262.3l0.5,148.1L574.9,262.3z"/>
		<polyline class="st6" points="507.4,226 574.9,262.6 654.7,251.8 		"/>
	</g>
	<g class="st1">
		<polygon class="st4" points="332,303.2 312.3,279.7 312.3,267.8 332,265 		"/>
		<polygon class="st4" points="357,298.9 337.3,276.2 337.3,264.6 357,261.9 		"/>
		<polygon class="st4" points="378.9,293.8 362.4,271.8 362.4,260.6 378.9,258 		"/>
		<polygon class="st4" points="331.2,346.9 311.5,325.2 311.5,314.1 330.7,310.6 		"/>
		<polygon class="st4" points="356.3,342.1 337.2,319.7 337.4,309.1 356.3,305.6 		"/>
		<polygon class="st4" points="378.8,337 362.9,315.1 362.9,303.9 378.8,301.3 		"/>
		<polygon class="st4" points="331.3,390.4 312.2,370.5 312.2,359 331.3,354.6 		"/>
		<polygon class="st4" points="356.9,383.7 338.2,364.5 338.2,353.2 356.9,348.9 		"/>
		<polygon class="st4" points="378.9,375 363.1,358 363.1,347.6 378.9,343.5 		"/>
		<g>
			<polygon class="st5" points="237.3,222.8 307.3,218.3 407.1,245.6 407.6,373.6 305.1,407.6 239.2,311.9 			"/>
			<polygon class="st5" points="312.3,267.8 331.1,265.1 331.6,302.7 312.2,306.2 			"/>
			<polygon class="st5" points="337.5,264 356.1,261.4 356.5,298.2 337.8,301.3 			"/>
			<polygon class="st5" points="363,260.1 378.9,257.5 378.9,293.8 362.8,296.5 			"/>
			<polygon class="st5" points="312.3,313.5 331.2,310.2 331.2,347.3 312.3,350.7 			"/>
			<polygon class="st5" points="337.9,308.7 356.3,305.6 355.9,341.7 337.9,345.6 			"/>
			<polygon class="st5" points="363.1,304.3 379.3,301 379.3,336.2 363.1,339.9 			"/>
			<polygon class="st5" points="312.7,358.5 331.6,354.6 332,391.1 312.7,396.8 			"/>
			<polygon class="st5" points="338.4,353.5 356.5,349.5 356.6,383.1 338.5,388.6 			"/>
			<polygon class="st5" points="363.3,347.3 379.2,343.4 379.6,375.6 363.3,380.8 			"/>
			<polygon class="st4" points="401.1,288.8 384.6,267.3 384.6,256.4 401.1,253.8 			"/>
			<polygon class="st4" points="401,331.1 385.1,309.6 385.1,298.7 401,296.1 			"/>
			<polygon class="st4" points="401.1,368.2 385.2,351.6 385.2,341.4 401.1,337.4 			"/>
			<polygon class="st7" points="385.2,255.9 401.1,253.4 401.1,288.8 385,291.5 			"/>
			<polygon class="st7" points="385.2,299.1 401.5,295.9 401.5,330.3 385.2,333.9 			"/>
			<polygon class="st7" points="385.5,341.1 401.4,337.3 401.8,368.8 385.5,373.8 			"/>
		</g>
		<path class="st6" d="M304.8,259.1l0.5,148.1L304.8,259.1z"/>
		<polyline class="st6" points="237.3,222.8 304.8,259.4 407.1,245.6 		"/>
	</g>
	<g class="st1">
		<polygon class="st4" points="87.8,298.2 68.1,274.8 68.1,262.8 87.8,260 		"/>
		<polygon class="st4" points="112.8,293.9 93.1,271.2 93.1,259.7 112.8,257 		"/>
		<polygon class="st4" points="87,341.9 67.3,320.2 67.3,309.2 86.5,305.6 		"/>
		<polygon class="st4" points="112.1,337.2 93,314.7 93.2,304.1 112.1,300.6 		"/>
		<polygon class="st4" points="87.1,385.5 68.1,365.5 68.1,354.1 87.1,349.6 		"/>
		<polygon class="st4" points="112.7,378.8 94,359.6 94,348.2 112.7,344 		"/>
		<g>
			<polygon class="st5" points="-6.9,217.9 45.5,214.5 121,246.4 120.5,383.5 60.9,402.7 -5,306.9 			"/>
			<polygon class="st5" points="68.1,262.8 86.9,260.2 87.4,297.8 68,301.3 			"/>
			<polygon class="st5" points="93.3,259.1 111.9,256.5 112.3,293.3 93.6,296.4 			"/>
			<polygon class="st5" points="68.1,308.6 87,305.2 87,342.4 68.1,345.8 			"/>
			<polygon class="st5" points="93.7,303.8 112.1,300.6 111.7,336.7 93.7,340.6 			"/>
			<polygon class="st5" points="68.5,353.5 87.4,349.6 87.8,386.2 68.5,391.9 			"/>
			<polygon class="st5" points="94.2,348.5 112.3,344.5 112.4,378.2 94.3,383.7 			"/>
		</g>
		<path class="st6" d="M60.6,254.2l0.5,148.1L60.6,254.2z"/>
		<polyline class="st6" points="-6.9,217.9 60.6,254.4 121,246.4 		"/>
	</g>
	<g class="st1">
		<path class="st8" d="M268,663.8v-20.8l24.9-3.5C292.9,639.6,277.4,648.3,268,663.8z"/>
		<path class="st9" d="M268.4,721.2l1.7,22.8l24.9-4.2C295,739.9,278.8,737.8,268.4,721.2z"/>
		<path class="st9" d="M342.7,731.3l21.8-3.5v-20.4C364.5,707.4,355.9,724.3,342.7,731.3z"/>
		<path class="st8" d="M364.2,653.8l-0.3-20.1l-21.4,2.1C342.4,635.8,358.3,638.6,364.2,653.8z"/>
		<polygon class="st9" points="263.9,752 248.7,691.1 245.6,611.6 386,601.9 446.5,619.9 448.2,719.8 		"/>
		<polyline class="st9" points="446.5,619.9 260.8,637.2 264.6,751 		"/>
		<line class="st9" x1="245.6" y1="611.6" x2="260.8" y2="637.2"/>
		<path class="st9" d="M365.2,682.5c0,27.4-23.9,51.2-48.8,52.6c-27.5,1.5-49.5-14.4-49.5-43.2c0-27.4,28-54.6,50.5-54.6
			C345,637.2,365.2,655.1,365.2,682.5z"/>
		<path class="st9" d="M322.3,638.6c0,0,6.1,27.5-18.7,40.8c-22.5,12.1-34.6,1-34.6,1"/>
		<polygon class="st9" points="369.7,653.1 370.1,674.5 405,670.4 404.6,649.3 		"/>
		<polygon class="st9" points="409,648.7 409.5,669.7 442.7,666.6 442,645.1 		"/>
		<polygon class="st9" points="409.1,677.3 409.5,700.1 443.4,696.3 442.3,673.2 		"/>
		<polygon class="st9" points="405.3,677.6 405.7,701.2 370.4,705.7 370.4,681.8 		"/>
		<polygon class="st10" points="405.7,701.2 372.8,681.5 405.3,677.6 		"/>
		<polygon class="st10" points="443.4,696.3 411.8,677.3 442.3,673.2 443.4,695.3 		"/>
		<polygon class="st10" points="442.7,666.6 409.1,651.4 409,648.7 442,645.1 		"/>
		<polygon class="st10" points="401.5,670.4 369.7,653.1 404.6,649.3 405,670.4 		"/>
		<polygon class="st9" points="405,643.4 405,628.4 396.1,629.3 396.3,644.5 		"/>
		<polygon class="st9" points="391.5,645.1 391.5,629.8 382.2,630.9 382.4,646.2 		"/>
		<polygon class="st9" points="377.5,646.8 377.4,631.4 368.5,632.3 368.7,647.9 		"/>
		<polygon class="st9" points="417.4,641.8 417.3,627 409.8,627.9 409.9,642.8 		"/>
		<polygon class="st9" points="429.8,640.3 429.8,625.7 421.9,626.5 421.9,641.3 		"/>
		<polygon class="st9" points="442.5,638.7 442.5,624.3 434.5,625.2 434.6,639.7 		"/>
		<polygon class="st9" points="407,722.2 406.5,706.2 397.8,707.5 398.4,723.7 		"/>
		<polygon class="st9" points="393.6,724.4 393.2,708.2 384,709.5 384.6,725.9 		"/>
		<polygon class="st9" points="379.9,726.7 379.3,710.2 370.5,711.5 371.1,728.1 		"/>
		<polygon class="st9" points="419.1,720.2 418.7,704.4 411.3,705.5 411.8,721.4 		"/>
		<polygon class="st9" points="431.5,718.2 431,702.6 423.2,703.8 423.6,719.5 		"/>
		<polygon class="st9" points="444,716.1 443.5,700.8 435.7,701.9 436.2,717.4 		"/>
		<polyline class="st10" points="364.5,727.8 362.8,728.1 354.4,722 364.3,708.9 		"/>
		<polygon class="st10" points="282.9,735.4 269.5,733.7 268.6,721.8 		"/>
		<polygon class="st10" points="377.5,646.8 369,642 368.5,632.3 377.4,631.4 		"/>
		<polygon class="st10" points="388.7,644.8 382.9,641.3 382.2,630.9 391.5,629.8 391.5,645.1 		"/>
		<polygon class="st10" points="402.4,643.6 396.1,639.5 396.1,629.3 405,628.4 405,643.4 		"/>
		<polygon class="st10" points="415,641.7 410.2,639.6 409.8,627.9 417.3,627 417.4,641.8 		"/>
		<polygon class="st10" points="426.4,640 421.9,637.5 421.9,626.5 429.8,625.7 429.8,640.3 		"/>
		<polygon class="st10" points="438.5,638.6 434.6,636.7 434.5,625.2 442.5,624.3 442.5,638.7 		"/>
		<polygon class="st10" points="379.8,726 371.2,718.1 370.5,711.5 379.3,710.2 		"/>
		<polygon class="st10" points="393.6,724.4 384.6,717.1 384,709.5 393.2,708.2 		"/>
		<polygon class="st10" points="405.7,722.3 398.1,716.7 397.8,707.5 406.5,706.2 407,722.2 		"/>
		<polygon class="st10" points="417.8,719.8 411.9,715 411.3,705.5 418.7,704.4 418.8,719.5 		"/>
		<polygon class="st10" points="429.5,718.1 423.7,713.3 423.2,703.8 431,702.6 431.5,718.2 		"/>
		<polygon class="st10" points="441,716 436.1,711.9 435.7,701.9 443.5,700.8 444,716.1 		"/>
		<path class="st11" d="M339.6,726.4"/>
		<path class="st10" d="M299.5,681.5l38.4,47c0,0,27.6-15.9,27.3-46c-0.1-16.6-8.9-32.7-24.4-40c-15.6-7.3-16.4-4.6-18.1-5.3
			c-1.7-0.7,4.1,11.3-3.3,26.7C313.3,676.6,299.5,681.5,299.5,681.5z"/>
	</g>
	<g class="st1">
		<polygon class="st9" points="2.2,696.7 68.2,788.5 64.5,648.6 1,617.2 		"/>
		<polyline class="st9" points="1,617.2 14,615.9 50.3,631.7 62,629.8 62,614.1 62.6,612.2 71.3,611 166.8,634.4 171.1,748.5 
			68.2,788.5 		"/>
		<polyline class="st9" points="166.8,634.4 151.4,636.9 150.8,664.6 84.2,679.4 83,645.5 64.5,648.6 		"/>
		<line class="st9" x1="51" y1="631.7" x2="83" y2="645.5"/>
		<polygon class="st9" points="85.1,686.8 85.8,703.5 113.8,735.2 132.6,729.3 150.5,695.4 150.5,672.6 		"/>
		<polygon class="st9" points="91,721.3 92.2,742.3 107.3,738 		"/>
		<polygon class="st9" points="140,727.8 149.2,725 149.4,707.4 		"/>
		<polygon class="st9" points="154.8,698.8 152.6,705.6 152.6,723.5 166.2,719.5 165,697 		"/>
		<polygon class="st9" points="154.2,693.3 165.3,690.5 164.3,668.9 153.9,671.7 		"/>
		<polygon class="st9" points="154.5,664.6 154.5,641.5 163.1,640 163.1,663.1 		"/>
		<polygon class="st9" points="152.3,730 153.2,748.5 167.1,743.8 166.5,725 		"/>
		<polygon class="st9" points="148.3,731.2 148.6,750.6 135.4,754.9 134.8,736.4 		"/>
		<polygon class="st9" points="128.9,738.6 129.2,757.1 113.8,763.6 113.2,743.8 		"/>
		<polygon class="st9" points="108.6,745.4 109.5,764.8 92.8,771 92.2,750.9 		"/>
		<polygon class="st9" points="87.3,752.5 87.6,773.6 72.8,779.9 72.8,757.2 		"/>
		<polygon class="st9" points="87.3,744.5 86.1,718.3 71.3,722.6 71.9,749.7 		"/>
		<polygon class="st9" points="82.1,712.4 80.5,687.4 70.7,689.3 71.9,715.2 		"/>
		<polygon class="st9" points="79.9,679.7 79,652.9 69.4,655.1 70.3,682.2 		"/>
		<polygon class="st10" points="160.6,663.4 154.8,659.4 154.5,641.5 163.1,640 163.1,663.1 		"/>
		<polygon class="st10" points="153.9,671.7 153.9,683.7 165.3,690.5 164.3,668.9 		"/>
		<polygon class="st10" points="152.9,712.4 166.2,719.5 165,697 154.8,698.8 152.9,704.4 		"/>
		<polygon class="st10" points="152.6,736.1 167.1,743.8 166.5,725 152.3,730 		"/>
		<polygon class="st10" points="148.6,750.6 135.1,741.7 134.8,736.4 148.3,731.2 		"/>
		<polygon class="st10" points="129.2,757.1 113.2,746.3 113.2,743.8 128.9,738.6 		"/>
		<polygon class="st10" points="106.7,765.4 92.5,752.8 92.2,750.9 108.6,745.4 109.5,764.8 		"/>
		<polygon class="st10" points="85.1,774.3 72.8,764.2 72.8,757.2 87.3,752.5 87.6,773.6 		"/>
		<polygon class="st10" points="85.1,745.1 71.9,735.8 71.3,722.6 86.1,718.3 87.3,744.5 		"/>
		<polygon class="st10" points="82.1,712.4 71.3,704.4 70.7,689.3 80.5,687.4 		"/>
		<polygon class="st10" points="78.1,679.7 70,673.9 69.4,655.1 79,652.9 79.9,679.7 79,679.4 		"/>
		<polygon class="st10" points="97.8,740.1 91.9,734.8 91,721.3 107.3,738 		"/>
		<polygon class="st10" points="150.8,664.6 62,629.8 62.3,613.2 151.4,636.9 		"/>
		<polygon class="st10" points="132.6,729.3 85.8,695.4 85.1,686.8 150.5,672.6 150.5,695.4 		"/>
	</g>
	<g class="st1">
		<polygon class="st12" points="1103.3,648.6 1103.8,747.1 926.9,797.5 898.7,735 897.7,645.5 1037.4,629.8 		"/>
		<g>
			<polygon class="st13" points="1049.8,676.3 1049.3,662.3 1042,663.5 1042.5,677.5 			"/>
			<polygon class="st13" points="1038.5,678.2 1038.1,664.1 1030.4,665.3 1031,679.6 			"/>
			<polygon class="st12" points="945,694.7 953.3,693.2 952.8,677.6 943.7,679 944.5,678.9 			"/>
			<polygon class="st13" points="1027,680.3 1026.5,665.9 1019.1,667.1 1019.7,681.5 			"/>
			<polygon class="st13" points="1060,674.5 1059.5,660.7 1053.3,661.7 1053.8,675.5 			"/>
			<polygon class="st12" points="992.3,686.4 991.9,671.4 983.7,672.7 984.4,687.7 			"/>
			<polygon class="st12" points="1015.7,682.2 1015.4,667.7 1007.7,668.9 1008.4,683.5 			"/>
			<polygon class="st13" points="1099.1,667.6 1099.2,654.5 1093.6,655.4 1094,668.5 			"/>
			<polygon class="st13" points="1090.4,669.1 1090,655.9 1084.1,656.8 1084.6,670.1 			"/>
			<polygon class="st12" points="1004.3,684.3 1003.7,669.5 995.8,670.8 996.4,685.6 			"/>
			<polygon class="st12" points="939.2,679.7 930.5,681.1 931.2,697.1 939.7,695.6 			"/>
			<polygon class="st13" points="1070.3,672.6 1069.9,659.1 1063.3,660.1 1063.7,673.8 			"/>
			<polygon class="st13" points="1080.8,670.8 1080.4,657.4 1073.8,658.5 1074.3,671.9 			"/>
			<polygon class="st12" points="979.9,688.5 979.5,673.3 971.8,674.6 972.3,689.9 			"/>
			<polygon class="st12" points="966.6,690.9 966.2,675.5 957.7,676.8 958.1,692.4 			"/>
		</g>
		<g>
			<polygon class="st12" points="947.3,769 947.2,785.3 955.3,783 955.3,766.8 			"/>
			<polygon class="st12" points="1010,752.1 1009.8,767.3 1017,765.2 1017.1,750.2 			"/>
			<polygon class="st12" points="998.4,755.3 998.2,770.6 1005.7,768.5 1005.8,753.2 			"/>
			<polygon class="st12" points="933.7,772.7 933.7,789.2 941.9,786.8 941.9,770.5 			"/>
			<polygon class="st12" points="986.8,758.4 986.7,774 994.2,771.8 994.2,756.4 			"/>
			<polygon class="st12" points="960.6,765.4 960.5,781.5 968.8,779.1 968.8,763.2 			"/>
			<polygon class="st12" points="1062.9,737.8 1062.9,752 1069.2,750.2 1069.3,736.1 			"/>
			<polygon class="st12" points="974.1,761.8 974,777.6 982,775.3 982,759.7 			"/>
			<polygon class="st12" points="1073.1,735.1 1073,749.1 1079.3,747.3 1079.4,733.4 			"/>
			<polygon class="st12" points="1098.1,728.4 1092.7,729.8 1092.6,743.5 1098.1,741.9 			"/>
			<polygon class="st12" points="1083.2,732.4 1083.1,746.2 1088.9,744.6 1089,730.8 			"/>
			<polygon class="st12" points="1052.6,740.6 1052.6,755 1059.3,753.1 1059.4,738.8 			"/>
			<polygon class="st12" points="1031.4,746.3 1031.4,761.1 1038.7,759 1038.7,744.4 			"/>
			<polygon class="st12" points="1042.3,743.4 1042.3,758 1049,756 1049,741.6 			"/>
			<polygon class="st12" points="1020.7,749.2 1020.6,764.2 1027.8,762.1 1027.8,747.3 			"/>
		</g>
		<polygon class="st12" points="931.8,703.4 932.5,728 966.7,721.3 966.5,697.9 		"/>
		<polygon class="st12" points="932.5,734.5 932.5,763.2 967.2,754.8 967,727.5 		"/>
		<polygon class="st12" points="972,696.3 972.7,720.3 1004.9,713.7 1004.7,690.9 		"/>
		<polygon class="st12" points="972.7,726.3 972.7,755 1005.3,746.6 1005.1,719.3 		"/>
		<polygon class="st12" points="1009.2,689.4 1009.8,711.9 1039.2,705.7 1039,684.4 		"/>
		<polygon class="st12" points="1009.9,719.3 1009.8,745.5 1039.6,737.4 1039.6,712.8 		"/>
		<polygon class="st12" points="1042.2,684.7 1042.8,705.4 1069.9,699.7 1069.7,680 		"/>
		<polygon class="st12" points="1042.7,712.1 1042.8,736.2 1070.2,728.8 1070.2,706.1 		"/>
		<polygon class="st12" points="1074.3,678.8 1074.8,698.9 1099.1,693.4 1098.9,674.2 		"/>
		<polygon class="st12" points="1075.3,705.6 1074.8,728.9 1099.4,721.7 1099.2,699.8 		"/>
		<polyline class="st12" points="926.2,796.3 924.5,674.7 897.7,645.5 		"/>
		<line class="st12" x1="1102.6" y1="648.6" x2="924.5" y2="674.7"/>
		<polygon class="st10" points="963.8,755.5 932.2,737.2 932.5,734.5 966.3,728 967.2,754.8 		"/>
		<polygon class="st10" points="966.7,721.3 966.5,697.9 931.8,703.4 932,707.5 960.9,722.5 		"/>
		<polygon class="st10" points="972.3,699.1 1002,714.3 1004.9,713.7 1004.1,691.3 972,696.3 		"/>
		<polygon class="st10" points="1009.2,691.8 1037.2,706.3 1039.2,705.7 1038.4,684.8 1009.2,689.4 		"/>
		<polygon class="st10" points="1042,686.3 1068.5,700 1069.9,699.7 1069.3,680.7 1042.2,684.7 1042,685.6 		"/>
		<polygon class="st10" points="1074.6,684.6 1095.6,693.8 1099.1,693.4 1098.9,674.2 1074.3,678.8 		"/>
		<polygon class="st10" points="1042.7,712.1 1069,729.5 1069.7,728.7 1069.7,707 		"/>
		<polygon class="st10" points="1009.9,719.3 1038.9,737.7 1039.6,712.8 		"/>
		<polygon class="st10" points="1075.1,708.7 1096.5,722.5 1098.5,721.7 1098.7,700.5 1075.3,705.6 		"/>
		<polygon class="st10" points="972.7,726.3 1004.9,746.6 1004.4,719.8 		"/>
		<polygon class="st10" points="937.3,695.9 930.5,691.6 930.5,681.1 939.2,679.7 939.7,695.6 		"/>
		<polygon class="st10" points="951.4,693.8 944.8,689.6 944.1,679.5 952.3,677.8 953.3,693.2 		"/>
		<polygon class="st10" points="966.6,690.9 958.4,688.5 957.9,677.5 965.6,675.8 966.6,690.9 		"/>
		<polygon class="st10" points="979.6,688.2 972.5,685.8 971.6,675.2 978.8,673.5 979.3,688.7 		"/>
		<polygon class="st10" points="937.5,787.6 933.7,783.3 933.4,773.4 941.4,771 941.9,786.8 		"/>
		<polygon class="st10" points="952.3,783.7 947,778.7 947.3,769 954.7,767.1 955.3,783 		"/>
		<polygon class="st10" points="967,779.4 960.7,773.6 960.6,765.4 968.2,763.7 968.8,779.1 		"/>
		<polygon class="st10" points="981.5,774.8 973.5,769 974.2,762.3 981.5,760.1 		"/>
		<polygon class="st10" points="994.2,771.8 986.5,765.7 986.3,759.1 994.2,756.4 		"/>
		<polygon class="st10" points="1005.3,767.6 998.6,762 997.9,756 1005.8,753.2 		"/>
		<polygon class="st10" points="1017,765.2 1016.6,764.8 1009.7,758.2 1009.9,752.9 1016.9,750.7 		"/>
		<polygon class="st10" points="1027.8,762.1 1027.5,761.9 1021.3,756.5 1020.7,749.2 1027.8,747.3 		"/>
		<polygon class="st10" points="1038.7,759 1031.6,753.1 1031.4,746.8 1038.7,744.4 		"/>
		<polygon class="st10" points="1049,755.5 1042.5,749.5 1041.8,743.9 1049,741.6 		"/>
		<polygon class="st10" points="1059.3,753.1 1052.9,748.5 1052.6,741.3 1059.4,739.4 1059.4,752.1 		"/>
		<polygon class="st10" points="1069.4,749.7 1062.9,744.4 1062.9,738.3 1069.5,735.6 		"/>
		<polygon class="st10" points="1079.4,746.8 1073.2,740.8 1072.9,735.7 1079.5,733.6 		"/>
		<polygon class="st10" points="1088.9,744.2 1083.3,738.3 1083.3,733 1088.8,731 		"/>
		<polygon class="st10" points="1098.1,741.2 1092.9,734.8 1092.9,729.9 1097.7,728.5 		"/>
		<polygon class="st10" points="991.5,685.8 984.8,684.4 984.3,673.3 992.1,671.4 		"/>
		<polygon class="st10" points="1004.3,684.3 996.6,682.5 995.4,671 1003.2,670.1 		"/>
		<polyline class="st10" points="1015.2,682.4 1014.7,682.3 1008.7,680.7 1007.7,669.6 1015.2,668.2 		"/>
	</g>
	<g class="st1">
		<g>
			<g>
				<polygon class="st12" points="653.9,741 653.1,757.3 661.5,755.3 662.1,739.1 				"/>
				<polygon class="st12" points="718.1,726.5 717.4,741.6 724.8,739.8 725.4,724.8 				"/>
				<polygon class="st12" points="706.2,729.2 705.5,744.5 713.2,742.7 713.8,727.4 				"/>
				<polygon class="st12" points="639.9,744.2 639.3,760.7 647.7,758.6 648.3,742.3 				"/>
				<polygon class="st12" points="694.4,731.8 693.7,747.4 701.4,745.5 702,730.1 				"/>
				<polygon class="st12" points="667.5,737.9 666.8,754 675.3,751.9 675.9,736 				"/>
				<polygon class="st12" points="772.5,714.1 771.9,728.3 778.4,726.7 779,712.7 				"/>
				<polygon class="st12" points="681.4,734.8 680.6,750.6 688.8,748.6 689.4,733 				"/>
				<polygon class="st12" points="782.9,711.8 782.3,725.8 788.7,724.2 789.4,710.3 				"/>
				<polygon class="st12" points="808.5,706 803,707.2 802.4,720.9 808,719.5 				"/>
				<polygon class="st12" points="793.2,709.5 792.6,723.3 798.5,721.8 799.1,708.1 				"/>
				<polygon class="st12" points="761.9,716.5 761.3,730.9 768.2,729.2 768.8,715 				"/>
				<polygon class="st12" points="740.1,721.5 739.5,736.2 747,734.4 747.6,719.8 				"/>
				<polygon class="st12" points="751.3,718.9 750.7,733.5 757.6,731.8 758.2,717.4 				"/>
				<polygon class="st12" points="729.1,724 728.5,738.9 735.8,737.1 736.5,722.3 				"/>
			</g>
			<polygon class="st10" points="643.3,759.2 639.5,754.8 639.6,744.9 647.8,742.7 647.7,758.6 			"/>
			<polygon class="st10" points="658.3,755.9 653.1,750.7 653.9,741 661.4,739.4 661.5,755.3 			"/>
			<polygon class="st10" points="673.4,752.1 667.3,746.1 667.5,737.9 675.3,736.5 675.3,751.9 			"/>
			<polygon class="st10" points="688.3,748.1 680.5,742 681.4,735.3 688.9,733.4 			"/>
			<polygon class="st10" points="701.4,745.5 693.8,739.1 693.8,732.6 702,730.1 			"/>
			<polygon class="st10" points="712.8,741.7 706.2,735.9 705.7,729.9 713.8,727.4 			"/>
			<polygon class="st10" points="724.8,739.8 724.4,739.4 717.6,732.5 718,727.2 725.2,725.3 			"/>
			<polygon class="st10" points="735.8,737.1 735.5,736.9 729.4,731.2 729.1,724 736.5,722.3 			"/>
			<polygon class="st10" points="747,734.4 740.1,728.2 740.1,722 747.6,719.8 			"/>
			<polygon class="st10" points="757.6,731.3 751.2,725 750.7,719.5 758.2,717.4 			"/>
			<polygon class="st10" points="768.2,729.2 761.8,724.4 761.8,717.2 768.8,715.5 768.3,728.3 			"/>
			<polygon class="st10" points="778.6,726.2 772.2,720.7 772.4,714.6 779.2,712.1 			"/>
			<polygon class="st10" points="788.8,723.7 782.8,717.5 782.7,712.4 789.4,710.5 			"/>
			<polygon class="st10" points="798.5,721.5 793.1,715.3 793.3,710 799,708.3 			"/>
			<polygon class="st10" points="808,718.8 803,712.2 803.2,707.4 808.1,706.1 			"/>
		</g>
		<g>
			<g>
				<polygon class="st13" points="758,685.2 757.6,671.3 750.2,672.4 750.8,686.5 				"/>
				<polygon class="st13" points="746.8,687.2 746.4,673 738.7,674.2 739.3,688.5 				"/>
				<polygon class="st12" points="653.2,703.6 661.5,702.2 661.1,686.5 651.9,687.9 652.7,687.8 				"/>
				<polygon class="st13" points="735.3,689.2 734.7,674.9 727.3,676 727.9,690.5 				"/>
				<polygon class="st13" points="768.2,683.4 767.8,669.7 761.6,670.6 762.1,684.5 				"/>
				<polygon class="st12" points="700.5,695.3 700.2,680.3 692,681.6 692.7,696.7 				"/>
				<polygon class="st12" points="724,691.2 723.7,676.6 716,677.8 716.6,692.5 				"/>
				<polygon class="st13" points="807.4,676.5 807.5,663.4 801.8,664.3 802.3,677.4 				"/>
				<polygon class="st13" points="798.7,678 798.3,664.8 792.4,665.8 792.8,679.1 				"/>
				<polygon class="st12" points="712.5,693.2 711.9,678.5 704,679.7 704.7,694.6 				"/>
				<polygon class="st12" points="647.5,688.6 638.8,690 639.5,706 647.9,704.5 				"/>
				<polygon class="st13" points="778.6,681.6 778.1,668 771.5,669.1 772,682.7 				"/>
				<polygon class="st13" points="789.1,679.7 788.7,666.4 782,667.4 782.5,680.9 				"/>
				<polygon class="st12" points="688.1,697.5 687.8,682.3 680,683.5 680.5,698.8 				"/>
				<polygon class="st12" points="674.9,699.8 674.4,684.4 665.9,685.7 666.4,701.3 				"/>
			</g>
			<polygon class="st10" points="645.6,704.9 638.8,700.5 638.8,690 647.5,688.6 647.9,704.5 			"/>
			<polygon class="st10" points="659.6,702.7 653.1,698.5 652.3,688.5 660.5,686.8 661.5,702.2 			"/>
			<polygon class="st10" points="674.9,699.8 666.7,697.4 666.1,686.4 673.8,684.7 674.9,699.8 			"/>
			<polygon class="st10" points="687.8,697.1 680.8,694.7 679.8,684.1 687.1,682.4 687.5,697.6 			"/>
			<polygon class="st10" points="699.8,694.7 693.1,693.3 692.5,682.2 700.4,680.3 			"/>
			<polygon class="st10" points="712.5,693.2 704.8,691.5 703.7,680 711.4,679 			"/>
			<polyline class="st10" points="723.5,691.4 723,691.2 717,689.7 716,678.6 723.5,677.1 			"/>
		</g>
		<polygon class="st12" points="606.9,717.9 631.4,768.5 812.3,723.4 813.3,656.2 752.6,637 605.2,655.8 		"/>
		<polygon class="st12" points="731.2,695.3 731.4,718.1 737.2,717.2 736.9,694.1 		"/>
		<polygon class="st12" points="741.6,693.2 742,715.8 773,709.1 772.7,687.4 		"/>
		<polygon class="st12" points="690,703.1 690.7,727.8 726.8,719.6 726.2,696.7 		"/>
		<polygon class="st12" points="640.6,712.9 640.7,738.7 684.7,729.7 684,704.3 		"/>
		<polygon class="st12" points="777.4,687.2 777.6,708.2 807.9,702 808.1,681.6 		"/>
		<polyline class="st12" points="631.4,768.5 630,685.1 813.3,656.2 		"/>
		<line class="st12" x1="605.2" y1="655.8" x2="630" y2="685.1"/>
		<polygon class="st10" points="807.9,702 777.4,687.2 807.7,682.6 		"/>
		<polygon class="st10" points="773,709.1 744.3,693.3 772.1,688.4 		"/>
		<polygon class="st10" points="737.2,717.2 730.8,711.3 731.2,695.3 736.9,694.1 		"/>
		<polygon class="st10" points="726.8,719.6 696.2,702.7 726.2,696.7 		"/>
		<polygon class="st10" points="684.7,729.7 650.9,711.7 683.6,705 		"/>
		<line class="st14" x1="809.5" y1="661.8" x2="636.4" y2="689.3"/>
		<line class="st14" x1="809.9" y1="703.8" x2="637.5" y2="743.4"/>
	</g>
	<g class="st1">
		<polygon class="st15" points="803.9,226.8 830.3,223.5 846.6,232.2 863.4,228.7 863.4,220.5 888.1,217.4 999.3,248.5 999.7,356.8 
			961.2,368.4 961.2,352.1 916.3,364.3 916.7,383.8 864.8,400.5 802.6,308.6 		"/>
		<polygon class="st16" points="913.6,277.8 934.8,274.2 914.2,304.5 		"/>
		<polygon class="st15" points="915.5,357.2 934.3,351.8 915.3,328.7 		"/>
		<polygon class="st15" points="960.7,344.7 946.3,349.1 960.9,321.9 		"/>
		<polygon class="st15" points="939.7,276.9 960.9,303 915.9,311.1 		"/>
		<polygon class="st16" points="939.7,348 960.2,310.8 915.9,319.6 		"/>
		<polygon class="st16" points="959.4,269.7 942.9,272.8 960.4,294.4 		"/>
		<polygon class="st4" points="887.6,329.2 870.5,314.1 870.3,306.3 887.1,304.1 		"/>
		<polygon class="st4" points="908.8,325.9 891.7,311.3 891.6,303.8 908.4,301.6 		"/>
		<polygon class="st4" points="887.5,357.8 870.4,344 870.2,336.7 886.6,334 		"/>
		<polygon class="st4" points="908.9,354.3 892.2,339.9 892.3,332.9 908.4,330.3 		"/>
		<polygon class="st4" points="888.1,386.4 871.6,373.6 871.5,366.1 887.6,362.9 		"/>
		<polygon class="st4" points="909.8,380 893.7,369.3 893.5,361.8 909.4,358.7 		"/>
		<polygon class="st17" points="870.3,306.3 886.3,304.2 887.2,328.9 870.7,331.5 		"/>
		<polygon class="st17" points="891.7,303.4 907.6,301.3 908.4,325.5 892.5,327.8 		"/>
		<polygon class="st4" points="887,300.6 869.9,285.6 869.7,277.7 886.5,275.6 		"/>
		<polygon class="st4" points="908.3,297.4 891.2,282.8 891,275.2 907.8,273.1 		"/>
		<polygon class="st17" points="869.7,277.7 885.7,275.7 886.6,300.4 870.1,303 		"/>
		<polygon class="st17" points="891.1,274.9 907,272.8 907.8,297 891.9,299.3 		"/>
		<polygon class="st17" points="870.9,336.3 887,333.7 887.5,358.1 871.4,360.7 		"/>
		<polygon class="st17" points="892.7,332.7 908.4,330.3 908.5,354 893.2,356.9 		"/>
		<polygon class="st17" points="871.8,365.8 887.9,362.9 888.1,387.1 872.3,392 		"/>
		<polygon class="st17" points="893.7,362 909.1,359.1 909.8,380 894.3,385.1 		"/>
		<polygon class="st4" points="979,307 966.3,293.5 966.3,286.6 978.9,285 		"/>
		<polygon class="st4" points="995,304.4 982.4,291.4 982.3,284.8 995,283.2 		"/>
		<polygon class="st4" points="978.6,332.2 965.9,319.7 965.9,313.3 978.2,311.3 		"/>
		<polygon class="st4" points="994.7,329.3 982.4,316.5 982.5,310.4 994.6,308.3 		"/>
		<polygon class="st4" points="978.7,357.2 966.5,345.8 966.5,339.2 978.7,336.6 		"/>
		<polygon class="st4" points="995.2,353.3 983.1,342.3 983.1,335.8 995.1,333.3 		"/>
		<polygon class="st18" points="966.3,286.6 978.3,285.1 978.7,306.7 966.3,308.8 		"/>
		<polygon class="st18" points="982.5,284.4 994.4,282.9 994.7,304.1 982.7,305.9 		"/>
		<polygon class="st4" points="978.9,282 966.3,268.5 966.2,261.6 978.8,260 		"/>
		<polygon class="st4" points="995,279.4 982.3,266.4 982.3,259.7 994.9,258.1 		"/>
		<polygon class="st18" points="966.2,261.6 978.3,260.1 978.7,281.7 966.2,283.8 		"/>
		<polygon class="st18" points="982.4,259.4 994.3,257.8 994.6,279 982.6,280.9 		"/>
		<polygon class="st18" points="966.4,313 978.5,311 978.6,332.4 966.5,334.4 		"/>
		<polygon class="st18" points="982.8,310.2 994.6,308.3 994.4,329.1 982.9,331.4 		"/>
		<polygon class="st18" points="966.8,338.9 978.9,336.6 979.2,357.6 966.8,361 		"/>
		<polygon class="st18" points="983.2,335.9 994.9,333.6 995,353 983.4,356.2 		"/>
		<path class="st15" d="M863.3,270.5l1.5,130L863.3,270.5z"/>
		<polyline class="st15" points="804.2,226.8 863.3,270.5 913.1,264 		"/>
		<polyline class="st15" points="863.7,229.3 957.9,263.7 913.4,271 913.1,264 846.6,232.2 		"/>
		<line class="st15" x1="961" y1="368.9" x2="948.2" y2="355.7"/>
		<polyline class="st15" points="959.8,264 959.8,254.2 863.3,220.7 		"/>
		<line class="st15" x1="999.3" y1="249.6" x2="959.8" y2="254.2"/>
		<polygon class="st4" points="960.9,303 927,295.5 939.7,276.9 		"/>
		<polygon class="st4" points="960.9,343.4 951.7,339.8 960.7,323 		"/>
		<polygon class="st4" points="933.5,351.5 915.8,347.2 915.5,330 		"/>
	</g>
	<rect x="554.6" y="599.8" class="st19" width="620.6" height="210.3"/>
</g>
<g id="Layer_2">
</g>
<g id="Layer_3">
	<g class="st20">
		<polygon class="st21" points="363.6,695.9 363.6,716.2 427.8,765.3 427.8,741.9 		"/>
		<polygon class="st22" points="351.5,693 366.5,659 373.9,658.7 378.1,649.2 395,647.6 407.9,655 412.9,644.7 428.7,642.4 
			443.5,649.7 447.7,640 462.7,638.1 476.2,644.7 480.9,636 495.2,634.7 508.3,640.5 512.5,632.1 526.8,631 539.6,636.4 
			543.7,628.9 559.2,627.5 640.3,659.5 623.4,662.1 619.8,671.7 612,672.8 607.2,664.5 589.1,667.2 586,676.5 577.9,677.7 
			573.2,669.5 554.1,672.4 551.8,681.3 542.1,682.8 537.4,674.9 517.8,677.8 515,686.6 506,687.8 500.2,680.4 481.4,683.2 
			478.1,691.8 467.8,693.2 461.7,686.1 445.1,688.6 439.8,699 431.4,701.1 414.3,740.3 		"/>
		<line class="st23" x1="431.4" y1="701.1" x2="366.7" y2="659.2"/>
		<line class="st23" x1="439.6" y1="699" x2="373.9" y2="658.7"/>
		<line class="st23" x1="445.1" y1="688.7" x2="378.4" y2="649.6"/>
		<line class="st23" x1="461.7" y1="686.2" x2="395.3" y2="647.8"/>
		<line class="st23" x1="481.5" y1="683.4" x2="413" y2="645"/>
		<line class="st23" x1="500.2" y1="680.4" x2="428.7" y2="642.4"/>
		<line class="st23" x1="518" y1="677.9" x2="447.8" y2="640.4"/>
		<line class="st23" x1="537.4" y1="675" x2="462.7" y2="638.1"/>
		<line class="st23" x1="554.3" y1="672.5" x2="480.9" y2="636.3"/>
		<line class="st23" x1="573.1" y1="669.6" x2="495.2" y2="634.7"/>
		<line class="st23" x1="607.2" y1="664.6" x2="526.8" y2="631"/>
		<line class="st23" x1="589.1" y1="667.2" x2="512.5" y2="632.1"/>
		<line class="st23" x1="623.5" y1="662.2" x2="543.7" y2="628.9"/>
		<polygon class="st22" points="427.8,765.3 427.8,741.9 414.2,740.3 431.3,701.1 439.7,699 445.1,688.6 461.7,686.1 467.8,693.2 
			478.1,691.8 481.4,683.2 500.2,680.4 506,687.8 515,686.6 517.8,677.8 537.4,674.9 542.1,682.8 551.8,681.3 554.1,672.4 
			573.2,669.5 577.9,677.6 586,676.5 589.1,667.2 607.2,664.5 612,672.8 619.8,671.7 623.4,662.1 640.3,659.5 644.5,666.8 
			650.3,666.1 665.4,698.1 654.5,700.2 654.5,724.1 		"/>
		<polygon class="st21" points="422.5,733.6 434.1,705.8 442.4,703.4 447.8,693.2 451.1,692.7 451.3,726.4 		"/>
		<polygon class="st21" points="658.6,694.7 648,670.7 641.4,671 636.4,663.4 632.2,664 632.2,692 		"/>
		<polygon class="st21" points="431.6,737.8 451.6,731.5 451.6,753.3 431.6,757.5 		"/>
		<polygon class="st21" points="456.7,737.5 489.7,731.6 489.7,746.2 456.4,752.2 		"/>
		<polygon class="st21" points="493.5,745.7 493.5,716.8 526.3,711 526.3,739.8 		"/>
		<polygon class="st21" points="565.8,703.8 596,698.4 595.8,727.3 565.8,732.8 		"/>
		<polygon class="st21" points="599.2,711.9 599.2,726.6 628.5,721.4 628.5,706.6 		"/>
		<polygon class="st21" points="565.9,699.3 565.9,674.6 570.4,673.8 574.5,682.1 589.5,679.9 592.6,670.3 595.7,669.8 595.7,693.9 
					"/>
		<polygon class="st21" points="650.9,698.6 632.3,696.7 632.3,720.8 650.9,717.5 		"/>
		<polygon class="st21" points="530.1,724.2 530.3,739 562.1,733.4 562.2,718.6 		"/>
		<polygon class="st21" points="628.5,702.1 599.3,707.4 599.4,669.2 604,668.5 608.6,677 622.6,675 626.3,664.9 628.5,664.6 		"/>
		<polygon class="st21" points="562.3,714.1 530,719.8 530,680.2 534.4,679.5 538.9,687.1 555.3,684.8 558.2,675.8 562.5,675.1 		
			"/>
		<polygon class="st21" points="489.6,727.2 455.5,733.2 455.5,692 459.3,691.4 464.8,698 481.5,695.6 484.8,687.4 489.4,686.8 		
			"/>
		<polygon class="st21" points="493.5,712.3 493.5,686 497.9,685.3 503.3,692.2 518.5,690 521.8,681.6 526.3,680.8 526.3,706.3 		
			"/>
		<polygon class="st2" points="451.1,726.6 451.1,692.7 447.8,693.2 442.4,703.4 434.4,705.8 431.6,712.1 		"/>
		<polygon class="st2" points="489.6,727 489.6,686.8 484.8,687.4 481.5,695.6 464.8,698 459.3,691.4 455.5,692 455.5,707.7 		"/>
		<polygon class="st2" points="526.3,706.3 526.3,680.8 522,681.4 518.5,690 503.3,692.2 497.9,685.3 493.5,686.1 493.5,689.9 		"/>
		<polygon class="st2" points="562.3,714.1 562.5,675.1 558.4,675.9 555.3,684.8 538.9,687.1 534.4,679.5 530,680.3 530,696.8 		"/>
		<polygon class="st2" points="595.7,693.9 595.7,669.8 592.6,670.3 589.5,679.9 574.5,682.1 570.2,673.8 565.9,674.6 565.9,680.8 
					"/>
		<polygon class="st2" points="628.5,702.1 628.5,664.6 626.3,664.9 622.6,675 608.6,677 603.9,668.6 599.6,669.4 599.6,687.4 		"/>
		<polygon class="st2" points="632,680.1 632.5,664.1 636.4,663.4 641.4,671 648,670.7 658.6,694.7 		"/>
		<polygon class="st2" points="451.5,753.3 451.7,731.8 431.6,737.8 431.6,739.7 		"/>
		<polygon class="st2" points="489.7,746.2 489.7,731.9 470.1,735.1 		"/>
		<polygon class="st2" points="526.3,739.8 526.2,710.9 493.5,716.8 493.5,722.7 		"/>
		<polygon class="st2" points="595.8,727.4 595.8,698.5 565.8,703.8 565.8,712.1 		"/>
		<polygon class="st2" points="632.2,706.3 632.4,696.8 650.9,698.6 650.9,717.5 		"/>
		<polygon class="st2" points="561.9,733.3 562,718.9 541.6,722.2 		"/>
		<polygon class="st2" points="628.5,721.4 628.5,707.1 608.9,710.3 		"/>
	</g>
	<g class="st20">
		<polygon class="st22" points="301.4,217.4 315.4,215 267.3,195.7 262.7,202.7 		"/>
		<polygon class="st22" points="227.8,169.6 315.4,202 315.4,215 228.1,179.9 		"/>
		<polygon class="st22" points="246.5,304 246.5,211.8 301.4,203.8 217.4,170.8 170.2,177 170.2,258.8 		"/>
		<polygon class="st22" points="315.4,201.9 365.2,194.6 272,164.4 227.8,169.6 		"/>
		<polygon class="st22" points="315.4,290 315.4,277.9 301.4,280.6 301.4,292.8 246.5,304 246.5,211.8 301.4,203.8 301.4,217.4 
			315.4,215 315.4,202 365.2,194.7 365.2,279.9 		"/>
		<polygon class="st22" points="263.9,295.9 251.1,298.5 251.1,276.1 263.9,273.6 		"/>
		<polygon class="st22" points="281,292.5 268.6,295 268.6,272.7 281,270.4 		"/>
		<polygon class="st22" points="297.6,289.2 285.2,291.6 285.1,269.7 297.6,267.3 		"/>
		<polygon class="st22" points="297.4,263.2 285.1,265.6 285.2,239.2 297.4,237.1 		"/>
		<polygon class="st22" points="281,266.3 268.5,268.7 268.6,242 281,239.9 		"/>
		<polygon class="st22" points="263.9,269.6 251.1,272 251.2,244.8 263.9,242.8 		"/>
		<polygon class="st22" points="263.9,238.8 250.9,240.8 251.1,216 263.9,214.2 		"/>
		<polygon class="st22" points="281.1,236.1 268.6,238 268.6,213.3 281.1,211.5 		"/>
		<polygon class="st22" points="297.4,233.2 285.1,235.2 285.2,210.8 297.4,209 		"/>
		<polygon class="st22" points="331.8,282.1 319.3,284.7 319.3,263.1 331.8,260.7 		"/>
		<polygon class="st22" points="347.4,279 335.4,281.4 335.4,260 347.4,257.7 		"/>
		<polygon class="st22" points="362.2,276.1 351.3,278.2 351.3,256.8 362.2,255 		"/>
		<polygon class="st22" points="362.1,250.8 351.3,253 351.4,227.9 362.1,226 		"/>
		<polygon class="st22" points="347.5,253.7 335.4,256 335.4,230.5 347.4,228.7 		"/>
		<polygon class="st22" points="331.9,256.8 319.3,259.1 319.3,233.3 331.8,231.4 		"/>
		<polygon class="st22" points="331.8,227.5 319.4,229.5 319.3,205.6 331.8,203.8 		"/>
		<polygon class="st22" points="347.5,224.8 335.5,226.8 335.4,203.2 347.4,201.5 		"/>
		<polygon class="st22" points="362.1,222.2 351.3,224 351.2,200.7 362.1,199.1 		"/>
		<polygon class="st22" points="315.4,245.2 301.3,247.4 301.4,221.9 315.4,219.8 		"/>
		<polygon class="st22" points="315.4,272.9 301.4,275.6 301.4,252.5 315.3,250.2 		"/>
		<line class="st22" x1="170.2" y1="177" x2="246.5" y2="211.8"/>
		<polygon class="st2" points="263.9,238 264,214.3 251.1,216 251.1,232.8 		"/>
		<polygon class="st2" points="281.1,236.2 281.1,211.5 268.6,213.3 268.7,230.2 		"/>
		<polygon class="st2" points="297.4,233.2 297.4,209 285.2,210.8 285.1,227.6 		"/>
		<polygon class="st2" points="263.9,269.6 263.9,242.9 251.2,244.8 251.2,261.5 		"/>
		<polygon class="st2" points="281,266.3 281,239.9 268.5,242 268.5,258.7 		"/>
		<polygon class="st2" points="297.4,263 297.4,237.3 285.2,239.3 285.2,256.1 		"/>
		<polygon class="st2" points="263.9,295.9 263.9,273.6 251,276.1 251.1,287.2 		"/>
		<polygon class="st2" points="281,292.5 281,270.4 268.6,272.8 268.6,285.1 		"/>
		<polygon class="st2" points="297.6,289.2 297.6,267.3 285.1,269.7 285.2,282.9 		"/>
		<polygon class="st2" points="331.8,227.5 331.8,203.8 319.3,205.6 319.3,222.4 		"/>
		<polygon class="st2" points="347.5,224.8 347.4,201.5 335.5,203.2 335.5,219.9 		"/>
		<polygon class="st2" points="331.9,256.8 331.8,231.4 319.3,233.3 319.4,250 		"/>
		<polygon class="st2" points="347.5,253.7 347.4,228.7 335.5,230.4 335.5,247.6 		"/>
		<polygon class="st2" points="362.1,250.9 362.1,226 351.5,227.8 351.5,245 		"/>
		<polygon class="st2" points="331.8,282.1 331.8,260.7 319.4,263.1 319.4,275.7 		"/>
		<polygon class="st2" points="347.4,279 347.4,257.8 335.5,260.1 335.5,273.4 		"/>
		<polygon class="st2" points="362.2,276.1 362.2,255 351.3,256.9 351.3,270.5 		"/>
		<polygon class="st2" points="362.1,222.2 362.1,199.2 351.3,200.7 351.3,217.4 		"/>
		<polygon class="st2" points="315.4,245.2 315.4,219.8 301.4,221.9 301.4,238 		"/>
		<polygon class="st2" points="315.4,272.9 315.3,250.2 301.4,252.5 301.4,264.6 		"/>
		<polygon class="st2" points="315.5,290.1 315.5,278 301.4,280.6 301.5,281.9 		"/>
	</g>
	<g class="st20">
		<polygon class="st22" points="259.8,512.1 293,506.3 208.3,472.7 173.5,476.2 		"/>
		<polygon class="st22" points="259.8,526.9 259.8,512.1 173.5,476.2 173.5,488.3 		"/>
		<polygon class="st22" points="250.3,528.2 259.8,526.9 173.5,485.7 		"/>
		<polygon class="st22" points="213.5,612 213.5,520.3 250.3,514 164.3,477.5 129,481.6 129,558.9 		"/>
		<polygon class="st22" points="213.5,612 250.3,603.8 250.3,589.6 259.8,587.5 259.8,601.5 293,594.1 293,506.3 259.8,512.1 
			259.8,526.9 250.3,528.2 250.3,514 213.5,520.3 		"/>
		<polygon class="st22" points="218.2,606.5 230.3,603.9 230.3,580.8 218.2,583 		"/>
		<polygon class="st22" points="234.4,603 246.4,600.4 246.4,577.5 234.4,579.7 		"/>
		<polygon class="st22" points="218.1,578.3 230.3,576.1 230.3,552 218.1,554 		"/>
		<polygon class="st22" points="234.4,575.3 246.4,573.1 246.4,549.1 234.4,551.3 		"/>
		<polygon class="st22" points="218.2,549 230.2,547.1 230.2,522.4 218.1,524.6 		"/>
		<polygon class="st22" points="234.6,546.3 246.3,544.4 246.3,519.4 234.5,521.6 		"/>
		<polygon class="st22" points="263.5,596.6 275,594.1 275,572 263.5,574.2 		"/>
		<polygon class="st22" points="278.6,593.3 289.6,590.8 289.6,569.2 278.6,571.1 		"/>
		<polygon class="st22" points="263.5,569.8 275,567.7 275,544.1 263.4,546 		"/>
		<polygon class="st22" points="278.6,566.8 289.8,564.7 289.7,541.5 278.6,543.4 		"/>
		<polygon class="st22" points="263.5,541.7 275,539.9 275,514 263.4,516.1 		"/>
		<polygon class="st22" points="278.5,539.3 289.6,537.5 289.6,511.4 278.5,513.4 		"/>
		<polygon class="st22" points="250.3,557.7 259.8,556 259.8,531 250.4,532.6 		"/>
		<polygon class="st22" points="250.5,585.5 259.8,583.5 259.8,560.4 250.4,562.1 		"/>
		<polygon class="st2" points="259.8,601.6 259.8,587.5 250.3,589.6 250.3,595.7 		"/>
		<line class="st21" x1="129" y1="481.6" x2="213.5" y2="520.3"/>
		<polygon class="st2" points="230.3,603.9 230.3,580.8 218.2,583 218.2,596.7 		"/>
		<polygon class="st2" points="259.8,556 259.8,531 250.4,532.6 250.4,550.4 		"/>
		<polygon class="st2" points="259.8,583.5 259.8,560.4 250.4,562.1 250.4,577.7 		"/>
		<polygon class="st2" points="246.4,600.4 246.4,577.5 234.5,579.7 234.5,593.5 		"/>
		<polygon class="st2" points="230,576.2 230.1,552.1 218.1,554 218.1,568 		"/>
		<polygon class="st2" points="246.4,573.1 246.5,549.1 234.5,551.3 234.5,565.2 		"/>
		<polygon class="st2" points="230.3,546.9 230.3,522.4 218.2,524.6 218.2,539.4 		"/>
		<polygon class="st2" points="246.5,544.4 246.5,519.4 234.6,521.6 234.6,537.6 		"/>
		<polygon class="st2" points="275,594.1 275,572 263.5,574.2 263.5,587.8 		"/>
		<polygon class="st2" points="289.6,590.7 289.6,569.2 278.6,571.2 278.5,584.5 		"/>
		<polygon class="st2" points="275,567.7 275,544.1 263.6,546 263.6,560.2 		"/>
		<polygon class="st2" points="289.8,564.7 289.7,541.5 278.6,543.4 278.5,556.8 		"/>
		<polygon class="st2" points="274.9,539.9 275,514.1 263.5,516 263.5,532.4 		"/>
		<polygon class="st2" points="289.7,537.5 289.6,511.5 278.5,513.4 278.4,530.6 		"/>
	</g>
	<g class="st20">
		<polygon class="st22" points="581.2,50.5 614.4,44.7 529.7,11.1 494.9,14.6 		"/>
		<polygon class="st22" points="581.2,65.3 581.2,50.5 494.9,14.6 494.9,26.7 		"/>
		<polygon class="st22" points="571.7,66.6 581.2,65.3 494.9,24.1 		"/>
		<polygon class="st22" points="534.9,150.4 534.9,58.7 571.7,52.4 485.7,15.8 450.4,20 450.4,97.3 		"/>
		<polygon class="st22" points="534.9,150.4 571.7,142.2 571.7,127.9 581.2,125.9 581.2,139.8 614.4,132.4 614.4,44.7 581.2,50.5 
			581.2,65.3 571.7,66.6 571.7,52.4 534.9,58.7 		"/>
		<polygon class="st22" points="539.6,144.9 551.6,142.3 551.6,119.2 539.6,121.4 		"/>
		<polygon class="st22" points="555.8,141.4 567.8,138.7 567.8,115.9 555.8,118 		"/>
		<polygon class="st22" points="539.5,116.7 551.6,114.5 551.6,90.4 539.5,92.4 		"/>
		<polygon class="st22" points="555.8,113.7 567.8,111.4 567.8,87.5 555.8,89.6 		"/>
		<polygon class="st22" points="539.6,87.4 551.6,85.4 551.6,60.8 539.5,63 		"/>
		<polygon class="st22" points="556,84.7 567.7,82.8 567.7,57.8 555.9,59.9 		"/>
		<polygon class="st22" points="584.9,135 596.4,132.4 596.4,110.4 584.9,112.6 		"/>
		<polygon class="st22" points="600,131.6 610.9,129.2 610.9,107.5 600,109.5 		"/>
		<polygon class="st22" points="584.9,108.2 596.4,106 596.4,82.5 584.8,84.3 		"/>
		<polygon class="st22" points="600,105.2 611.2,103.1 611.1,79.9 600,81.8 		"/>
		<polygon class="st22" points="584.9,80.1 596.4,78.3 596.4,52.4 584.8,54.4 		"/>
		<polygon class="st22" points="599.9,77.6 610.9,75.9 610.9,49.8 599.9,51.8 		"/>
		<polygon class="st22" points="571.7,96 581.2,94.3 581.2,69.4 571.7,71 		"/>
		<polygon class="st22" points="571.9,123.8 581.2,121.9 581.2,98.8 571.7,100.5 		"/>
		<polygon class="st2" points="581.2,140 581.2,125.9 571.7,128 571.7,134 		"/>
		<line class="st21" x1="450.4" y1="20" x2="534.9" y2="58.7"/>
		<polygon class="st2" points="551.6,142.3 551.6,119.2 539.6,121.4 539.6,135.1 		"/>
		<polygon class="st2" points="581.2,94.3 581.2,69.4 571.8,71 571.8,88.8 		"/>
		<polygon class="st2" points="581.2,121.9 581.2,98.8 571.8,100.5 571.8,116.1 		"/>
		<polygon class="st2" points="567.8,138.7 567.8,115.9 555.9,118 555.8,131.9 		"/>
		<polygon class="st2" points="551.4,114.6 551.5,90.5 539.5,92.4 539.5,106.3 		"/>
		<polygon class="st2" points="567.8,111.4 567.8,87.5 555.9,89.7 555.9,103.6 		"/>
		<polygon class="st2" points="551.6,85.2 551.7,60.8 539.6,63 539.6,77.8 		"/>
		<polygon class="st2" points="567.8,82.8 567.8,57.7 556,59.9 556,76 		"/>
		<polygon class="st2" points="596.4,132.4 596.4,110.3 584.9,112.5 584.9,126.2 		"/>
		<polygon class="st2" points="610.9,129.1 610.9,107.5 600,109.5 599.9,122.8 		"/>
		<polygon class="st2" points="596.4,106 596.4,82.5 584.9,84.4 584.9,98.6 		"/>
		<polygon class="st2" points="611.2,103.1 611.1,79.9 600,81.8 599.9,95.1 		"/>
		<polygon class="st2" points="596.3,78.3 596.3,52.5 584.9,54.4 584.9,70.8 		"/>
		<polygon class="st2" points="611.1,75.9 611,49.9 599.9,51.8 599.8,68.9 		"/>
	</g>
	<g class="st20">
		<polygon class="st22" points="77.8,303.5 77.8,202.7 137.6,196.6 62.3,165.1 10.6,170.3 10.6,253.4 		"/>
		<polygon class="st22" points="137.6,292.7 77.8,303.5 77.8,202.7 137.6,196.6 		"/>
		<polygon class="st22" points="97.1,294.1 82.6,296.4 82.6,269.6 97.1,267.9 		"/>
		<polygon class="st22" points="115.7,291.1 100.7,293.5 100.7,267.5 115.7,265.8 		"/>
		<polygon class="st22" points="133.6,288.1 118.6,290.7 118.6,265.4 133.6,263.7 		"/>
		<polygon class="st22" points="133.6,259.5 118.6,261 118.7,232.7 133.6,231.2 		"/>
		<polygon class="st22" points="115.7,261.3 100.6,263 100.7,234.6 115.7,233.1 		"/>
		<polygon class="st22" points="97.1,263.4 82.4,265 82.5,236.3 97.1,234.9 		"/>
		<polygon class="st22" points="97.1,230.7 82.4,232 82.5,208 97.1,206.3 		"/>
		<polygon class="st22" points="115.7,229 100.6,230.4 100.6,205.8 115.7,203.8 		"/>
		<polygon class="st22" points="133.6,227.3 118.6,228.7 118.7,203.3 133.6,201.4 		"/>
		<polygon class="st2" points="97.1,230.7 97.1,206.3 82.5,208 82.6,222.4 		"/>
		<polygon class="st2" points="115.7,229 115.7,203.8 100.6,205.8 100.7,221.1 		"/>
		<polygon class="st2" points="133.6,227.3 133.6,201.4 118.8,203.3 118.8,219.8 		"/>
		<polygon class="st2" points="97.1,263.4 97.1,234.9 82.6,236.4 82.4,254 		"/>
		<polygon class="st2" points="115.7,261.3 115.7,233.1 100.7,234.6 100.6,252.2 		"/>
		<polygon class="st2" points="133.6,259.5 133.6,231.2 118.8,232.8 118.7,250.3 		"/>
		<polygon class="st2" points="97.1,294.1 97.1,267.9 82.6,269.6 82.5,285.1 		"/>
		<polygon class="st2" points="115.7,291 115.7,265.8 100.7,267.5 100.8,282.6 		"/>
		<polygon class="st2" points="133.6,288.1 133.6,263.7 118.7,265.4 118.6,279.8 		"/>
		<line class="st22" x1="77.8" y1="202.7" x2="10.6" y2="170.3"/>
	</g>
	<g class="st20">
		<polygon class="st22" points="601.8,611.5 601.8,510.7 661.6,504.6 586.3,473.1 534.6,478.3 534.6,561.4 		"/>
		<polygon class="st22" points="661.6,600.7 601.8,611.5 601.8,510.7 661.6,504.6 		"/>
		<polygon class="st22" points="621.2,602.1 606.6,604.4 606.6,577.6 621.2,575.9 		"/>
		<polygon class="st22" points="639.7,599.1 624.7,601.5 624.7,575.5 639.7,573.8 		"/>
		<polygon class="st22" points="657.6,596.1 642.6,598.7 642.6,573.4 657.6,571.7 		"/>
		<polygon class="st22" points="657.6,567.5 642.7,569 642.7,540.7 657.6,539.2 		"/>
		<polygon class="st22" points="639.7,569.3 624.6,571 624.7,542.6 639.7,541.1 		"/>
		<polygon class="st22" points="621.2,571.4 606.4,573 606.5,544.3 621.2,542.9 		"/>
		<polygon class="st22" points="621.2,538.7 606.4,540 606.5,516 621.2,514.3 		"/>
		<polygon class="st22" points="639.7,537 624.6,538.4 624.6,513.8 639.7,511.8 		"/>
		<polygon class="st22" points="657.6,535.3 642.7,536.7 642.7,511.3 657.6,509.4 		"/>
		<polygon class="st2" points="621.2,538.7 621.2,514.3 606.5,516 606.6,530.4 		"/>
		<polygon class="st2" points="639.7,537 639.7,511.8 624.6,513.8 624.7,529.1 		"/>
		<polygon class="st2" points="657.6,535.3 657.6,509.4 642.8,511.3 642.8,527.8 		"/>
		<polygon class="st2" points="621.2,571.4 621.2,542.9 606.6,544.4 606.4,562 		"/>
		<polygon class="st2" points="639.7,569.3 639.7,541.1 624.7,542.6 624.6,560.2 		"/>
		<polygon class="st2" points="657.6,567.5 657.6,539.2 642.8,540.8 642.7,558.3 		"/>
		<polygon class="st2" points="621.2,602.1 621.2,575.9 606.6,577.6 606.5,593.1 		"/>
		<polygon class="st2" points="639.7,599 639.7,573.8 624.7,575.5 624.8,590.6 		"/>
		<polygon class="st2" points="657.6,596.1 657.6,571.7 642.7,573.4 642.7,587.8 		"/>
		<line class="st22" x1="601.8" y1="510.7" x2="534.6" y2="478.3"/>
	</g>
	<g class="st20">
		<polygon class="st22" points="548.8,457 548.8,359.3 566.9,357.1 568.5,380.3 618.2,373.7 619.3,350.3 634.8,348.7 634.8,443.2 		
			"/>
		<g>
			<polygon class="st22" points="567,448.9 553.6,450.9 553.6,434.5 567,432.7 			"/>
			<polygon class="st22" points="583.3,446.3 571.4,448.3 571.4,431.9 583.3,430.3 			"/>
			<polygon class="st22" points="600.4,443.7 587.7,445.8 587.7,429.6 600.4,427.8 			"/>
			<polygon class="st22" points="615.6,441.3 604.5,443.1 604.5,427 615.6,425.5 			"/>
			<polygon class="st22" points="630.4,439 619.3,440.8 619.3,424.9 630.4,423.5 			"/>
			<polygon class="st22" points="567,428 553.6,429.8 553.6,410.7 565.7,409.1 			"/>
			<polygon class="st22" points="565.4,404.7 553.6,406.3 553.6,387.8 564.2,386.2 			"/>
			<polygon class="st22" points="563.9,381 553.6,382.4 553.6,363.6 562.8,362.4 			"/>
			<polygon class="st22" points="570.1,408.7 583.3,425.8 571.3,427.5 			"/>
			<polygon class="st22" points="604.8,422.9 615.6,421.5 616.6,402.5 			"/>
			<polygon class="st22" points="630.4,419.5 619.3,421 620.5,401.7 630.4,400.3 			"/>
			<polygon class="st22" points="630.4,396.3 620.8,397.5 622.2,377.6 630.4,376.2 			"/>
			<polygon class="st22" points="630.4,372.2 622.4,373.2 623.8,354.3 630.4,353.3 			"/>
			<polygon class="st22" points="600.4,423.5 587.7,425.3 569.9,403.8 568.7,385.4 618,378.1 616.9,397.9 			"/>
			<polygon class="st22" points="618.2,373.7 619.3,350.3 634.8,348.7 559.9,318.8 546.8,319.8 544.9,339.9 530.1,342.1 
				566.9,357.1 568.5,380.3 			"/>
			<line class="st22" x1="544.8" y1="339.8" x2="618.1" y2="373.7"/>
			<polygon class="st22" points="548.8,457 548.8,359.3 566.9,357.1 496.2,324.8 483.1,326.4 483.1,408.3 			"/>
			<polygon class="st2" points="562.8,362.4 553.6,363.6 553.6,375.2 563.9,381 			"/>
			<polygon class="st2" points="564.2,386.2 553.7,387.8 553.7,397 565.4,404.7 			"/>
			<polygon class="st2" points="565.7,409.2 553.6,410.8 553.6,420 567,428.1 			"/>
			<polygon class="st2" points="567,448.9 553.7,440.5 553.7,434.6 567,432.7 			"/>
			<polygon class="st2" points="583.3,446.3 571.4,439.5 571.4,431.9 583.3,430.3 			"/>
			<polygon class="st2" points="600.4,443.7 587.7,437.8 587.7,429.6 600.4,427.8 			"/>
			<polygon class="st2" points="615.6,441.4 604.5,435.5 604.5,427.1 615.6,425.5 			"/>
			<polygon class="st2" points="630.5,439.1 619.3,432.8 619.3,424.9 630.5,423.5 			"/>
			<polygon class="st2" points="570.1,408.8 583.3,425.9 570.8,418.6 			"/>
			<polygon class="st2" points="608.2,417.1 615.6,421.5 616.6,402.7 			"/>
			<polygon class="st2" points="630.4,419.5 619.9,412.8 620.5,401.7 630.4,400.4 			"/>
			<polygon class="st2" points="630.4,396.2 621.3,391.9 622.2,377.5 630.4,376.2 			"/>
			<polygon class="st2" points="630.4,372.3 622.8,367.9 623.9,354.3 630.4,353.4 			"/>
			<polygon class="st2" points="600.4,423.4 575,409.7 570,403.8 568.7,385.4 618,378.1 616.9,397.9 			"/>
		</g>
	</g>
	<g class="st20">
		<polygon class="st22" points="74,764.9 211.6,728 211.6,640.9 74,666.3 		"/>
		<polygon class="st22" points="79.1,758.4 79.1,744.9 87.2,742.9 87.2,756.5 		"/>
		<polygon class="st22" points="89.7,755.5 89.7,742.1 98.4,739.8 98.4,753.3 		"/>
		<polygon class="st22" points="100.8,752.8 100.8,739.3 109.1,737.1 109.1,750.5 		"/>
		<polygon class="st22" points="111.8,749.7 111.8,736.2 120,734.1 120,747.6 		"/>
		<polygon class="st22" points="122.2,746.9 122.2,733.4 129.8,731.5 129.8,745.1 		"/>
		<polygon class="st22" points="132.2,744.2 132.2,730.8 141.4,728.4 141.4,741.9 		"/>
		<polygon class="st22" points="111.8,732.3 111.8,711.7 141.4,704.5 141.4,724.5 		"/>
		<polygon class="st22" points="79.2,741 79.1,719.6 109.1,712.4 109.1,733.1 		"/>
		<polygon class="st22" points="111.9,707.6 111.8,683.3 141.5,676.6 141.5,700.7 		"/>
		<polygon class="st22" points="79.2,715.5 79.1,690.8 109.1,683.9 109.1,708.3 		"/>
		<polygon class="st22" points="79,686.5 79,670.4 87.2,668.9 87.2,685 		"/>
		<polygon class="st22" points="89.7,684.5 89.8,668.4 98.4,666.6 98.4,682.8 		"/>
		<polygon class="st22" points="100.8,682.2 100.8,666.2 109.1,664.6 109.1,680.4 		"/>
		<polygon class="st22" points="111.8,679.8 111.8,664.1 120,662.6 120,678.2 		"/>
		<polygon class="st22" points="122.3,677.7 122.2,661.9 129.7,660.5 129.7,676.1 		"/>
		<polygon class="st22" points="132.2,675.5 132.1,660.2 141.4,658.4 141.4,673.6 		"/>
		<path class="st22" d="M144.6,680v-22.4l20.2-3.7C164.8,653.9,150.1,662.4,144.6,680z"/>
		<path class="st22" d="M208.5,665.9v-20.8l-20,3.9C188.5,649.1,206.2,652.7,208.5,665.9z"/>
		<path class="st22" d="M189.7,729l18.8-4.9v-17.5C208.5,706.6,201.3,724.7,189.7,729z"/>
		<path class="st22" d="M144.6,740.9v-17.5c0,0,4.2,11.4,20.3,12.2L144.6,740.9z"/>
		<path class="st22" d="M144.6,701.4c0,0,0.1-27.7,20.3-42.6c0,0,10.5-7.9,25-4.1c0,0,17.8,4.5,18.6,26.1c0,0,0.3,32-18.8,43
			c0,0-23.4,14.7-39.8-1.7C149.9,722,144,714.9,144.6,701.4z"/>
		<polygon class="st2" points="79.1,752.8 79.1,745 87.2,743 87.2,756.5 		"/>
		<polygon class="st2" points="89.7,749.3 89.7,742.1 98.4,739.8 98.4,753.3 		"/>
		<polygon class="st2" points="100.8,746.6 100.8,739.4 109.1,737.1 109.1,750.6 		"/>
		<polygon class="st2" points="111.8,743.5 111.8,736.3 120.1,734.1 120.1,747.7 		"/>
		<polygon class="st2" points="122.2,741.2 122.2,733.4 129.8,731.6 129.8,745.1 		"/>
		<polygon class="st2" points="132.2,737.5 132.2,730.8 141.4,728.4 141.4,741.9 		"/>
		<polygon class="st2" points="79.3,720.7 79.3,719.6 109.3,712.4 109.3,733.1 		"/>
		<polygon class="st2" points="111.8,713.2 111.8,711.8 141.5,704.5 141.5,724.5 		"/>
		<polygon class="st2" points="79.3,696.5 79.1,690.9 109.2,684 109.2,708.4 		"/>
		<polygon class="st2" points="111.9,690.8 111.9,683.3 141.6,676.7 141.6,700.7 		"/>
		<polygon class="st2" points="79,682.1 79,670.5 87.1,668.9 87.1,685.1 		"/>
		<polygon class="st2" points="89.7,679.4 89.8,668.4 98.5,666.6 98.5,682.7 		"/>
		<polygon class="st2" points="100.8,677.1 100.8,666.2 109.1,664.6 109.1,680.4 		"/>
		<polygon class="st2" points="111.7,674.7 111.7,664 119.9,662.6 119.9,678.1 		"/>
		<polygon class="st2" points="122.3,672.6 122.2,661.9 129.7,660.5 129.7,676.1 		"/>
		<polygon class="st2" points="132.3,669.9 132.2,660.2 141.4,658.4 141.4,673.6 		"/>
		<path class="st2" d="M146.1,690.4c0,0,4.3-22.9,18.9-31.5c0,0,10.5-7.9,25-4.1c0,0,17.8,4.5,18.6,26.1c0,0-0.5,20.4-7.4,30.6
			L146.1,690.4z"/>
		<path class="st2" d="M151,667.4c-0.2,0.4-0.5,0.5-0.5,0.5l-5.8-2.2v-8.2l19.9-3.7C164.5,653.9,153.6,661.8,151,667.4z"/>
		<path class="st2" d="M197.5,652.4c0.2,0.1,0.4,0.2,0.7,0.2c4.8,1.7,10.3,3.6,10.3,3.6s0-11.2,0-11.2l-19.8,3.9
			C188.7,649,194.4,650.6,197.5,652.4z"/>
		<path class="st2" d="M199.8,721c-0.4,0.4-0.6,0.6-0.5,0.6c1.3,0.8,6.3,3.2,6.3,3.2l2.9-0.6v-17.5
			C208.5,706.8,204.8,715.5,199.8,721z"/>
		<path class="st2" d="M153.4,738.5l-8.8-4.2v-10.9c0,0,4.2,11.4,20.3,12.2L153.4,738.5z"/>
		<polygon class="st22" points="12.6,646.4 144.6,626.4 211.6,640.9 74,666.3 74,764.9 12.5,735.4 		"/>
		<line class="st22" x1="12.5" y1="646.3" x2="74.1" y2="666.3"/>
	</g>
	<line class="st24" x1="510.6" y1="492.6" x2="531.6" y2="505.5"/>
	<g class="st20">
		<polygon class="st22" points="60.9,458.7 60.9,433.8 65.9,428.8 65.9,402.7 61.1,399.2 61.1,373.6 277.7,347.9 213,319.3 
			10.8,337.4 10.8,360.1 16.4,364.6 16.4,388.9 10.6,393.5 10.6,413.5 		"/>
		<polygon class="st22" points="60.9,458.7 60.9,433.8 65.9,428.8 65.9,402.7 61.1,399.2 61.1,373.6 277.7,347.9 277.8,372.5 
			272.5,377.2 272.5,401.1 278,404 278,428.8 		"/>
		<polygon class="st22" points="65.8,452.2 82.9,449.4 82.9,435.5 65.8,438 		"/>
		<polygon class="st22" points="86.5,449.1 102.6,447 102.6,433 86.5,435.1 		"/>
		<polygon class="st22" points="106.4,446.4 123,443.9 123,429.9 106.5,432.1 		"/>
		<polygon class="st22" points="126.4,443.3 126.4,429.6 142.7,427.3 142.7,441.2 		"/>
		<polygon class="st22" points="146.3,440.6 146.3,426.7 162.9,424.4 162.9,438.3 		"/>
		<polygon class="st22" points="166.3,437.6 166.3,424.1 182.2,421.8 182.2,435.5 		"/>
		<polygon class="st22" points="185.6,435.1 201.8,432.7 201.7,419.1 185.5,421.3 		"/>
		<polygon class="st22" points="204.8,432 220.1,430 220.1,416.5 204.8,418.6 		"/>
		<polygon class="st22" points="223.4,429.4 223.4,416 238.1,413.9 238.1,427.3 		"/>
		<polygon class="st22" points="241.8,427 241.8,413.2 255.5,411.5 255.5,424.9 		"/>
		<polygon class="st22" points="258.9,424.4 258.9,410.8 272.3,409.2 272.3,422.6 		"/>
		<polygon class="st22" points="69.4,432.7 83,430.7 83,396.9 69.4,398.3 		"/>
		<polygon class="st22" points="86.5,430.4 122.9,425.4 122.9,391.6 86.5,396 		"/>
		<polygon class="st22" points="126.2,425 162.8,419.9 162.8,386.7 126.2,391.1 		"/>
		<polygon class="st22" points="166.4,419.5 182.2,417 182.2,384.5 166.4,386.3 		"/>
		<polygon class="st22" points="185.6,416.8 220.1,412.1 220,380.2 185.6,384 		"/>
		<polygon class="st22" points="223.2,411.7 255.6,407.2 255.6,375.6 223.2,379.4 		"/>
		<polygon class="st22" points="259.3,406.7 269.6,405.3 269.6,373.6 259.3,374.9 		"/>
		<polygon class="st22" points="65.8,394.2 82.9,392 82.9,377.2 65.8,379.2 		"/>
		<polygon class="st22" points="86.5,391.5 102.6,389.4 102.6,374.9 86.5,376.8 		"/>
		<polygon class="st22" points="106.4,389.2 123,386.9 123,372.5 106.4,374.5 		"/>
		<polygon class="st22" points="126.2,386.8 126.2,372.1 142.7,370.3 142.7,384.7 		"/>
		<polygon class="st22" points="146.3,384.3 146.3,369.9 162.9,368.1 162.9,382.3 		"/>
		<polygon class="st22" points="166.3,381.9 166.3,367.4 182.2,365.7 182.2,379.8 		"/>
		<polygon class="st22" points="185.7,379.5 201.7,377.6 201.7,363.4 185.5,365.3 		"/>
		<polygon class="st22" points="204.8,377.1 220.1,375.2 220.1,361.4 204.8,363.1 		"/>
		<polygon class="st22" points="223.2,375 223.2,360.9 238.1,359.4 238.1,373.1 		"/>
		<polygon class="st22" points="241.8,372.7 241.8,358.8 255.5,357.2 255.5,370.9 		"/>
		<polygon class="st22" points="259.3,370.5 259.3,356.8 272.3,355.3 272.3,369 		"/>
		<polygon class="st2" points="83,449.7 83,435.6 65.9,438 65.9,440.1 		"/>
		<polygon class="st2" points="102.7,447 102.7,433 86.4,435 86.4,437.1 		"/>
		<polygon class="st2" points="122.9,444.2 122.9,430.2 106.7,432.3 106.7,434.4 		"/>
		<polygon class="st2" points="142.8,441.5 142.8,427.5 126.5,429.6 126.5,431.7 		"/>
		<polygon class="st2" points="162.9,438.3 162.9,424.3 146.3,426.6 146.3,428.7 		"/>
		<polygon class="st2" points="182.2,435.4 182.2,421.7 166.4,423.8 166.4,425.5 		"/>
		<polygon class="st2" points="201.7,433 201.8,418.9 185.5,421 185.5,423.1 		"/>
		<polygon class="st2" points="220.1,429.8 220.1,416.5 204.7,418.5 204.7,420.6 		"/>
		<polygon class="st2" points="238.1,427.4 238.1,413.9 223.2,415.9 223.2,418 		"/>
		<polygon class="st2" points="255.7,424.7 255.7,411.5 241.8,413.1 241.8,416.4 		"/>
		<polygon class="st2" points="272.4,422.6 272.4,409.1 259.3,410.7 259.3,414.6 		"/>
		<polygon class="st2" points="82.9,392 82.9,377.2 65.6,379.1 65.6,382.2 		"/>
		<polygon class="st2" points="102.7,389.4 102.7,375 86.5,376.8 86.5,378.9 		"/>
		<polygon class="st2" points="122.9,386.7 122.9,372.7 106.7,374.8 106.7,376.9 		"/>
		<polygon class="st2" points="142.7,384.5 142.7,370.5 126.4,372.6 126.4,374.7 		"/>
		<polygon class="st2" points="163,382.2 163,368.2 146.4,369.9 146.4,372 		"/>
		<polygon class="st2" points="182.1,379.6 182.2,365.9 166.4,367.4 166.4,370.4 		"/>
		<polygon class="st2" points="201.7,377.5 201.7,363.5 185.4,365.6 185.4,367.7 		"/>
		<polygon class="st2" points="220.1,375.1 220.1,361.5 204.7,363.3 204.8,365.8 		"/>
		<polygon class="st2" points="238.1,373 238.1,359.5 223.1,361.1 223.1,363.8 		"/>
		<polygon class="st2" points="255.7,370.9 255.7,357.4 241.8,359 241.8,362.2 		"/>
		<polygon class="st2" points="272.3,368.9 272.3,355.5 259.2,357 259.2,360.9 		"/>
		<polygon class="st2" points="269.5,405.3 269.4,373.6 259.2,374.9 259.2,399 		"/>
		<polygon class="st2" points="255.7,407.3 255.6,375.5 223.2,379.4 223.2,387.1 		"/>
		<polygon class="st2" points="220.2,411.9 220.1,380.2 185.5,384 185.5,390.7 		"/>
		<polygon class="st2" points="182.3,416.8 182.2,384.5 166.5,386.1 166.5,407.4 		"/>
		<polygon class="st2" points="163,419.7 163,386.8 126.3,390.9 126.3,397.1 		"/>
		<polygon class="st2" points="123.1,425.4 123,391.7 86.5,395.9 86.5,403.1 		"/>
		<polygon class="st2" points="83,430.6 82.9,397 69.3,398.6 69.3,421.8 		"/>
		<line class="st21" x1="61.3" y1="399.3" x2="11" y2="360.3"/>
		<line class="st21" x1="60.7" y1="433.3" x2="10.6" y2="393.5"/>
		<line class="st21" x1="66.1" y1="429" x2="16.2" y2="388.7"/>
		<line class="st21" x1="61.2" y1="373.5" x2="11" y2="337.3"/>
	</g>
	<g class="st20">
		<polygon class="st22" points="367.7,612.4 367.7,504 428.1,498.3 430.5,501.3 441.9,500.2 443.9,496.7 501.5,491.1 501.5,591.8 		
			"/>
		<polygon class="st22" points="372,606.3 386.2,604.2 386.2,596.2 372.1,598.2 		"/>
		<polygon class="st22" points="372.1,594.4 386.2,592.4 386.2,584.7 372.1,586.6 		"/>
		<polygon class="st22" points="372.2,582.2 386.3,580.3 386.3,571.7 372.1,573.5 		"/>
		<polygon class="st22" points="372.1,569.3 386.2,567.6 386.2,559.1 372.1,560.6 		"/>
		<polygon class="st22" points="372.1,556.5 386.3,554.8 386.3,546.4 372.1,547.8 		"/>
		<polygon class="st22" points="372.1,543.1 386.2,541.8 386.2,534.1 372.1,535.5 		"/>
		<polygon class="st22" points="372.1,530.9 386.2,529.4 386.2,521 372.1,522.4 		"/>
		<polygon class="st22" points="372.1,518.3 386.3,517.1 386.3,508.6 372.1,509.8 		"/>
		<polygon class="st22" points="484.3,508.3 497.5,507.2 497.5,498.4 484.3,499.6 		"/>
		<polygon class="st22" points="484.3,520.2 497.5,519 497.5,510.9 484.3,512.2 		"/>
		<polygon class="st22" points="484.3,531.7 497.4,530.3 497.5,522.5 484.3,523.7 		"/>
		<polygon class="st22" points="484.3,544.1 497.4,542.7 497.5,534.6 484.3,535.8 		"/>
		<polygon class="st22" points="484.3,555.3 497.4,553.7 497.5,547 484.3,548.2 		"/>
		<polygon class="st22" points="484.3,567.5 497.4,565.8 497.4,558.1 484.3,559.6 		"/>
		<polygon class="st22" points="484.3,579.3 497.5,577.4 497.5,569.5 484.3,571.2 		"/>
		<polygon class="st22" points="484.3,588.9 497.4,586.9 497.5,580.8 484.3,582.7 		"/>
		<polygon class="st22" points="471.6,590.9 481.2,589.4 481.2,583 471.5,584.4 		"/>
		<polygon class="st22" points="471.5,580.9 481.2,579.6 481.2,560.1 471.5,561.2 		"/>
		<polygon class="st22" points="471.5,556.9 481.2,555.8 481.2,536.2 471.5,537.2 		"/>
		<polygon class="st22" points="471.6,533 481.2,531.8 481.2,512.6 471.6,513.5 		"/>
		<polygon class="st22" points="471.6,509.4 481.2,508.6 481.2,499.8 471.5,500.7 		"/>
		<polygon class="st22" points="458.5,510.6 468.2,509.8 468.2,501 458.5,501.9 		"/>
		<polygon class="st22" points="458.6,534.3 468.2,533.3 468.2,513.6 458.5,514.5 		"/>
		<polygon class="st22" points="458.5,558.5 468.2,557.2 468.3,537.5 458.5,538.5 		"/>
		<polygon class="st22" points="458.6,582.7 468.2,581.4 468.2,561.6 458.5,562.7 		"/>
		<polygon class="st22" points="458.6,592.9 468.2,591.4 468.2,584.9 458.5,586.2 		"/>
		<polygon class="st22" points="403,601.6 413.6,600.1 413.6,592.4 403,593.9 		"/>
		<polygon class="st22" points="403.1,590.2 413.6,588.8 413.6,568.7 403.1,569.7 		"/>
		<polygon class="st22" points="403,565.5 413.6,564.1 413.6,543.4 403,544.5 		"/>
		<polygon class="st22" points="403,540 413.6,538.9 413.6,518.7 403,519.6 		"/>
		<polygon class="st22" points="403,515.6 413.6,514.7 413.6,506.1 403,507 		"/>
		<polygon class="st22" points="389.7,516.8 399.6,515.9 399.6,507.4 389.7,508.2 		"/>
		<polygon class="st22" points="389.8,541.3 399.4,540.3 399.4,519.9 389.8,520.8 		"/>
		<polygon class="st22" points="389.7,567.1 399.4,565.8 399.5,545 389.7,546 		"/>
		<polygon class="st22" points="389.8,592 399.4,590.7 399.4,570.1 389.8,571.3 		"/>
		<polygon class="st22" points="389.8,603.6 399.4,602.1 399.4,594.4 389.8,595.8 		"/>
		<polygon class="st22" points="417.2,526.6 426.7,525.8 426.7,504.8 417.1,505.7 		"/>
		<polygon class="st22" points="430.7,525.4 441.7,524.3 441.7,503.6 430.6,504.6 		"/>
		<polygon class="st22" points="445.2,523.9 454.7,523.1 454.7,502.3 445.2,503.2 		"/>
		<polygon class="st22" points="439.3,548.9 454.8,547.3 454.8,526.8 439.2,528.4 		"/>
		<polygon class="st22" points="417.2,551.5 435.8,549.5 435.8,528.8 417.1,530.7 		"/>
		<polygon class="st22" points="439.3,573.4 454.8,571.3 454.8,551.6 439.3,553.2 		"/>
		<polygon class="st22" points="417.1,576.2 435.9,573.8 435.9,553.5 417.1,555.6 		"/>
		<polygon class="st22" points="417.1,599.5 426.8,597.9 426.8,579.1 417.1,580.3 		"/>
		<polygon class="st22" points="430.5,597.3 439.2,595.9 439.2,577.4 430.5,578.5 		"/>
		<polygon class="st22" points="445.1,595 454.8,593.6 454.8,575.3 445.1,576.5 		"/>
		<polygon class="st2" points="386.2,604.2 386.2,596.2 375.6,597.7 		"/>
		<polygon class="st2" points="386.3,592.5 386.3,584.5 375.6,586 		"/>
		<polygon class="st2" points="386.2,580.3 386.2,571.8 375,573.3 		"/>
		<polygon class="st2" points="386.2,567.6 386.2,559.2 374.7,560.4 		"/>
		<polygon class="st2" points="386.3,554.9 386.3,546.5 375,547.7 		"/>
		<polygon class="st2" points="386.2,541.8 386.2,534.2 375.5,535.2 		"/>
		<polygon class="st2" points="386.2,529.5 386.2,521.1 374.8,522.2 		"/>
		<polygon class="st2" points="386.2,517.1 386.2,508.7 374.4,509.8 		"/>
		<polygon class="st2" points="389.7,509.8 399.6,515.8 399.6,507.3 389.7,508.2 		"/>
		<polygon class="st2" points="403.1,508.7 413.6,514.7 413.6,506.2 403.1,507.1 		"/>
		<polygon class="st2" points="389.7,534.2 399.6,540.2 399.6,519.9 389.7,520.7 		"/>
		<polygon class="st2" points="403.1,533 413.7,539 413.7,518.7 403.1,519.5 		"/>
		<polygon class="st2" points="389.7,559.3 399.3,565.9 399.3,545 389.7,545.8 		"/>
		<polygon class="st2" points="403.1,557.7 413.6,564.2 413.6,543.4 403.1,544.6 		"/>
		<polygon class="st2" points="389.7,584.7 399.5,590.6 399.4,570.2 389.7,571.2 		"/>
		<polygon class="st2" points="403.1,582.8 413.6,588.8 413.6,568.5 403.1,569.7 		"/>
		<polygon class="st2" points="403,593.9 413.6,600.1 413.6,592.4 		"/>
		<polygon class="st2" points="389.7,595.9 399.4,602.2 399.4,594.5 		"/>
		<polygon class="st2" points="417.2,592.1 426.8,597.9 426.9,579 417,580.5 		"/>
		<polygon class="st2" points="445.2,587.8 454.9,593.6 454.9,575.4 445.1,576.6 		"/>
		<polygon class="st2" points="430.5,590.6 439.2,596 439.3,577.5 430.6,578.6 		"/>
		<polygon class="st2" points="439.4,561.6 454.7,571.3 454.8,551.6 439.3,553.2 		"/>
		<polygon class="st2" points="417.1,562.1 435.8,573.9 435.9,553.6 417.1,555.8 		"/>
		<polygon class="st2" points="417.1,537.6 435.7,549.5 435.7,528.8 417.1,530.8 		"/>
		<polygon class="st2" points="439.3,537.9 454.6,547.4 454.8,526.9 439.3,528.5 		"/>
		<polygon class="st2" points="417.2,520 426.7,525.8 426.7,504.8 417.2,505.8 		"/>
		<polygon class="st2" points="445.1,517.2 454.7,523 454.8,502.3 445.2,503.3 		"/>
		<polygon class="st2" points="430.5,517.2 441.7,524.2 441.7,503.6 430.6,504.6 		"/>
		<polygon class="st2" points="458.6,503.6 468.2,509.7 468.2,501.2 458.6,501.9 		"/>
		<polygon class="st2" points="471.6,502.4 481.2,508.4 481.2,499.9 471.5,500.7 		"/>
		<polygon class="st2" points="458.6,527.3 468.2,533.4 468.2,513.8 458.6,514.5 		"/>
		<polygon class="st2" points="471.5,525.8 481.2,531.8 481.2,512.7 471.5,513.4 		"/>
		<polygon class="st2" points="458.5,551.4 468.2,557.3 468.2,537.5 458.5,538.5 		"/>
		<polygon class="st2" points="471.6,550 481.3,555.7 481.3,536.2 471.6,537.3 		"/>
		<polygon class="st2" points="458.5,575.5 468.2,581.5 468.2,561.6 458.5,562.7 		"/>
		<polygon class="st2" points="471.6,573.6 481.3,579.5 481.3,560.1 471.6,561.2 		"/>
		<polygon class="st2" points="481.2,589.3 481.2,583.1 472.8,584.3 		"/>
		<polygon class="st2" points="468.2,591.5 468.2,584.9 459.7,586.2 		"/>
		<polygon class="st2" points="497.5,586.9 497.5,580.8 489.5,582 		"/>
		<polygon class="st2" points="497.5,577.4 497.5,569.5 487.1,570.9 		"/>
		<polygon class="st2" points="497.4,565.7 497.4,558.1 487.3,559.4 		"/>
		<polygon class="st2" points="497.5,553.8 497.5,547 488.3,547.9 		"/>
		<polygon class="st2" points="497.5,542.7 497.5,534.6 486.2,535.7 		"/>
		<polygon class="st2" points="497.5,530.4 497.5,522.4 486.3,523.5 		"/>
		<polygon class="st2" points="497.6,519 497.5,510.9 486.3,512 		"/>
		<polygon class="st2" points="497.6,507.1 497.5,498.5 485.6,499.5 		"/>
		<polygon class="st22" points="367.7,612.4 367.7,504 428.1,498.3 430.5,501.3 441.9,500.2 443.9,496.7 501.5,491.1 458.5,472.8 
			404.9,476.8 403,479.5 393.3,480.2 389.9,477.8 332.1,482.2 332.1,580.2 		"/>
		<line class="st21" x1="443.9" y1="496.7" x2="405" y2="476.7"/>
		<line class="st21" x1="428" y1="498.3" x2="389.8" y2="477.9"/>
		<line class="st21" x1="367.6" y1="504" x2="332.1" y2="482.2"/>
		<line class="st21" x1="441.9" y1="500.2" x2="402.9" y2="479.4"/>
	</g>
	<g class="st20">
		<polygon class="st22" points="385.9,459 448.7,448.8 448.7,348.9 386.1,356.6 		"/>
		<polygon class="st22" points="390,453 390,426.8 414.9,423 414.9,448.7 		"/>
		<polygon class="st22" points="418.8,448.2 418.8,422.2 444.5,418.4 444.5,443.8 		"/>
		<polygon class="st22" points="389.9,422.8 389.9,394.9 414.9,391 414.9,418.9 		"/>
		<polygon class="st22" points="418.9,418.5 418.9,390.6 444.5,386.6 444.5,414.5 		"/>
		<polygon class="st22" points="418.9,385.9 418.9,358 444.5,354.8 444.5,381.9 		"/>
		<polygon class="st22" points="390,390.4 390,361.7 414.9,358.5 414.9,386.4 		"/>
		<polygon class="st2" points="414.9,448.7 414.9,423.1 390.1,426.8 390.1,437.7 		"/>
		<polygon class="st2" points="444.4,444.1 444.4,418.5 419,422.2 419,433.1 		"/>
		<polygon class="st2" points="444.4,414.4 444.4,386.8 419,390.6 419,402.3 		"/>
		<polygon class="st2" points="414.8,418.9 414.8,391.1 390,394.8 390,406.4 		"/>
		<polygon class="st2" points="414.8,386.2 414.8,358.5 390,361.9 390,374.6 		"/>
		<polygon class="st2" points="444.5,381.9 444.5,354.8 418.9,358 418.9,368.9 		"/>
		<polygon class="st22" points="385.9,459 385.9,356.6 448.7,348.9 365.6,318.9 311.4,324.2 311.4,408.9 		"/>
		<line class="st21" x1="311.3" y1="324.3" x2="385.9" y2="356.6"/>
	</g>
	<g class="st20">
		<polygon class="st22" points="372,151.5 413.5,140.7 413.5,34.6 372.1,42.8 		"/>
		<polygon class="st22" points="374.7,145.1 374.7,117.3 391.1,113.3 391.1,140.6 		"/>
		<polygon class="st22" points="393.7,140 393.7,112.5 410.7,108.4 410.7,135.4 		"/>
		<polygon class="st22" points="374.6,113.1 374.6,83.4 391.1,79.3 391.1,109 		"/>
		<polygon class="st22" points="393.8,108.5 393.8,78.8 410.7,74.6 410.7,104.3 		"/>
		<polygon class="st22" points="393.8,73.8 393.8,44.2 410.7,40.8 410.7,69.6 		"/>
		<polygon class="st22" points="374.7,78.6 374.7,48.2 391.1,44.8 391.1,74.4 		"/>
		<polygon class="st2" points="391.1,140.6 391.1,113.4 374.7,117.3 374.7,128.9 		"/>
		<polygon class="st2" points="410.7,135.7 410.7,108.4 393.8,112.5 393.8,124 		"/>
		<polygon class="st2" points="410.7,104.1 410.7,74.8 393.8,78.9 393.8,91.2 		"/>
		<polygon class="st2" points="391.1,109 391.1,79.4 374.7,83.4 374.7,95.6 		"/>
		<polygon class="st2" points="391.1,74.2 391.1,44.7 374.7,48.3 374.7,61.8 		"/>
		<polygon class="st2" points="410.7,69.6 410.7,40.9 393.8,44.2 393.8,55.8 		"/>
		<polygon class="st22" points="372,151.5 372,42.8 413.5,34.6 359,12.7 322.7,17.9 322.7,107.8 		"/>
		<line class="st21" x1="322.7" y1="18" x2="372" y2="42.8"/>
	</g>
	<g class="st20">
		<polygon class="st22" points="287.5,764.5 329,753.7 329,647.6 287.6,655.8 		"/>
		<polygon class="st22" points="290.2,758.1 290.2,730.2 306.7,726.2 306.7,753.6 		"/>
		<polygon class="st22" points="309.3,753 309.3,725.4 326.2,721.3 326.2,748.4 		"/>
		<polygon class="st22" points="290.1,726 290.1,696.4 306.7,692.3 306.7,721.9 		"/>
		<polygon class="st22" points="309.3,721.4 309.3,691.8 326.2,687.6 326.2,717.2 		"/>
		<polygon class="st22" points="309.3,686.8 309.3,657.2 326.2,653.8 326.2,682.6 		"/>
		<polygon class="st22" points="290.2,691.6 290.2,661.2 306.7,657.8 306.7,687.4 		"/>
		<polygon class="st2" points="306.6,753.6 306.6,726.4 290.2,730.3 290.2,741.8 		"/>
		<polygon class="st2" points="326.2,748.6 326.2,721.4 309.3,725.4 309.3,737 		"/>
		<polygon class="st2" points="326.2,717.1 326.2,687.8 309.3,691.9 309.3,704.2 		"/>
		<polygon class="st2" points="306.6,721.9 306.6,692.4 290.2,696.3 290.2,708.6 		"/>
		<polygon class="st2" points="306.6,687.1 306.6,657.7 290.2,661.3 290.2,674.8 		"/>
		<polygon class="st2" points="326.2,682.6 326.2,653.8 309.3,657.2 309.3,668.8 		"/>
		<polygon class="st22" points="287.5,764.5 287.5,655.8 329,647.6 274.5,625.7 238.2,630.9 238.2,720.8 		"/>
		<line class="st21" x1="238.2" y1="631" x2="287.5" y2="655.8"/>
	</g>
	<g class="st20">
		<polygon class="st22" points="60,611.5 101.5,600.7 101.5,494.6 60.1,502.8 		"/>
		<polygon class="st22" points="62.7,605.1 62.7,577.2 79.2,573.2 79.2,600.6 		"/>
		<polygon class="st22" points="81.8,600 81.8,572.4 98.7,568.3 98.7,595.4 		"/>
		<polygon class="st22" points="62.6,573 62.6,543.4 79.2,539.3 79.2,568.9 		"/>
		<polygon class="st22" points="81.8,568.4 81.8,538.8 98.7,534.6 98.7,564.2 		"/>
		<polygon class="st22" points="81.8,533.8 81.8,504.2 98.7,500.8 98.7,529.6 		"/>
		<polygon class="st22" points="62.7,538.6 62.7,508.2 79.2,504.8 79.2,534.4 		"/>
		<polygon class="st2" points="79.1,600.6 79.1,573.4 62.7,577.3 62.7,588.9 		"/>
		<polygon class="st2" points="98.7,595.6 98.7,568.4 81.8,572.4 81.8,584 		"/>
		<polygon class="st2" points="98.7,564.1 98.7,534.8 81.8,538.9 81.8,551.2 		"/>
		<polygon class="st2" points="79.1,568.9 79.1,539.4 62.7,543.3 62.7,555.6 		"/>
		<polygon class="st2" points="79.1,534.1 79.1,504.7 62.7,508.3 62.7,521.8 		"/>
		<polygon class="st2" points="98.7,529.6 98.7,500.8 81.8,504.2 81.8,515.8 		"/>
		<polygon class="st22" points="60,611.5 60,502.8 101.5,494.6 47,472.7 10.7,477.9 10.7,567.8 		"/>
		<line class="st21" x1="10.7" y1="478" x2="60" y2="502.8"/>
	</g>
	<g class="st20">
		<g>
			<polygon class="st22" points="467.2,304.5 552.1,283.2 551.7,191.7 467.2,206.8 			"/>
			<polygon class="st22" points="470,298.7 470,273.7 486.8,270.1 486.8,294.7 			"/>
			<polygon class="st22" points="489.5,294.2 489.5,269.4 506.8,265.7 506.8,290 			"/>
			<polygon class="st22" points="469.9,270 469.9,243.3 486.8,239.7 486.8,266.3 			"/>
			<polygon class="st22" points="489.5,265.8 489.5,239.2 506.8,235.4 506.8,262.1 			"/>
			<polygon class="st22" points="489.5,234.7 489.5,208.1 506.8,205 506.8,230.9 			"/>
			<polygon class="st22" points="470,239 470,211.7 486.8,208.6 486.8,235.3 			"/>
			<polygon class="st2" points="486.8,294.7 486.8,270.3 470,273.8 470,284.2 			"/>
			<polygon class="st2" points="506.8,290.3 506.8,265.8 489.6,269.4 489.6,279.8 			"/>
			<polygon class="st2" points="506.8,261.9 506.8,235.6 489.6,239.3 489.6,250.4 			"/>
			<polygon class="st2" points="486.8,266.3 486.8,239.8 470,243.3 470,254.3 			"/>
			<polygon class="st2" points="486.8,235 486.8,208.6 470,211.8 470,223.9 			"/>
			<polygon class="st2" points="506.8,230.9 506.8,205.1 489.5,208.1 489.5,218.5 			"/>
			<polygon class="st22" points="510.3,289.4 510.3,264.9 527.1,261.4 527.1,285.4 			"/>
			<polygon class="st22" points="529.7,284.9 529.7,260.7 547,257.1 547,280.8 			"/>
			<polygon class="st22" points="510.3,261.2 510.3,235.2 527.1,231.6 527.1,257.6 			"/>
			<polygon class="st22" points="529.8,257.2 529.8,231.2 547,227.5 547,253.5 			"/>
			<polygon class="st22" points="529.8,226.8 529.8,200.7 547,197.8 547,223.1 			"/>
			<polygon class="st22" points="510.3,231 510.3,204.3 527.1,201.3 527.1,227.3 			"/>
			<polygon class="st2" points="527.1,285.4 527.1,261.5 510.4,265 510.4,275.1 			"/>
			<polygon class="st2" points="547,281.1 547,257.2 529.8,260.7 529.8,270.9 			"/>
			<polygon class="st2" points="547,253.4 547,227.6 529.8,231.2 529.8,242.1 			"/>
			<polygon class="st2" points="527,257.6 527,231.7 510.3,235.2 510.3,245.9 			"/>
			<polygon class="st2" points="527,227.1 527,201.2 510.3,204.4 510.3,216.2 			"/>
			<polygon class="st2" points="547,223.1 547,197.8 529.8,200.8 529.8,210.9 			"/>
			<polygon class="st21" points="467.2,304.5 467.2,206.8 551.7,191.7 473.3,164.5 395.7,173.1 396.6,256.3 			"/>
		</g>
		<line class="st21" x1="396" y1="173.3" x2="467.2" y2="206.8"/>
	</g>
	<g class="st20">
		<g>
			<polygon class="st22" points="197.2,151.5 282.1,130.2 281.7,38.7 197.2,53.8 			"/>
			<polygon class="st22" points="200,145.7 200,120.7 216.8,117.1 216.8,141.7 			"/>
			<polygon class="st22" points="219.5,141.2 219.5,116.4 236.8,112.7 236.8,137 			"/>
			<polygon class="st22" points="199.9,117 199.9,90.3 216.8,86.7 216.8,113.3 			"/>
			<polygon class="st22" points="219.5,112.8 219.5,86.2 236.8,82.4 236.8,109.1 			"/>
			<polygon class="st22" points="219.5,81.7 219.5,55.1 236.8,52 236.8,77.9 			"/>
			<polygon class="st22" points="200,86 200,58.7 216.8,55.6 216.8,82.3 			"/>
			<polygon class="st2" points="216.8,141.7 216.8,117.3 200,120.8 200,131.2 			"/>
			<polygon class="st2" points="236.8,137.3 236.8,112.8 219.6,116.4 219.6,126.8 			"/>
			<polygon class="st2" points="236.8,108.9 236.8,82.6 219.6,86.3 219.6,97.4 			"/>
			<polygon class="st2" points="216.8,113.3 216.8,86.8 200,90.3 200,101.3 			"/>
			<polygon class="st2" points="216.8,82 216.8,55.6 200,58.8 200,70.9 			"/>
			<polygon class="st2" points="236.8,77.9 236.8,52.1 219.5,55.1 219.5,65.5 			"/>
			<polygon class="st22" points="240.3,136.4 240.3,111.9 257.1,108.4 257.1,132.4 			"/>
			<polygon class="st22" points="259.7,131.9 259.7,107.7 277,104.1 277,127.8 			"/>
			<polygon class="st22" points="240.3,108.2 240.3,82.2 257.1,78.6 257.1,104.6 			"/>
			<polygon class="st22" points="259.8,104.2 259.8,78.2 277,74.5 277,100.5 			"/>
			<polygon class="st22" points="259.8,73.8 259.8,47.7 277,44.8 277,70.1 			"/>
			<polygon class="st22" points="240.3,78 240.3,51.3 257.1,48.3 257.1,74.3 			"/>
			<polygon class="st2" points="257.1,132.4 257.1,108.5 240.4,112 240.4,122.1 			"/>
			<polygon class="st2" points="277,128.1 277,104.2 259.8,107.7 259.8,117.8 			"/>
			<polygon class="st2" points="277,100.4 277,74.6 259.8,78.2 259.8,89.1 			"/>
			<polygon class="st2" points="257,104.6 257,78.7 240.3,82.2 240.3,92.9 			"/>
			<polygon class="st2" points="257,74.1 257,48.2 240.3,51.4 240.3,63.2 			"/>
			<polygon class="st2" points="277,70.1 277,44.8 259.8,47.8 259.8,57.9 			"/>
			<polygon class="st21" points="197.2,151.5 197.2,53.8 281.7,38.7 203.3,11.5 125.7,20.1 126.6,103.3 			"/>
		</g>
		<line class="st21" x1="126" y1="20.3" x2="197.2" y2="53.8"/>
	</g>
	<g class="st20">
		<polygon class="st22" points="81.3,151 104.2,147.3 104.3,46.5 81.5,49.5 		"/>
		<polygon class="st22" points="86,145.6 86,119.7 100.1,117.3 100.1,143.2 		"/>
		<polygon class="st22" points="85.9,115.2 85.9,86.7 100.1,85.2 100.1,112.9 		"/>
		<polygon class="st2" points="100.1,142.8 100,117 86.1,119.5 86.1,135.3 		"/>
		<polygon class="st2" points="100,112.7 100,85.4 86.1,86.8 86,105.7 		"/>
		<polygon class="st22" points="85.8,82 85.8,53.9 100,52.4 100,80 		"/>
		<polygon class="st2" points="100,80.3 100,52.4 86,54 85.9,73.3 		"/>
		<polygon class="st22" points="81.3,151 81.3,49.5 104.3,46.5 31.5,12.7 10.8,14.7 10.8,99.3 		"/>
		<line class="st21" x1="10.8" y1="14.7" x2="81.3" y2="49.5"/>
	</g>
	<g class="st20">
		<polygon class="st22" points="644.3,303 667.2,299.3 667.3,198.5 644.5,201.5 		"/>
		<polygon class="st22" points="649,297.6 649,271.7 663.1,269.3 663.1,295.2 		"/>
		<polygon class="st22" points="648.9,267.2 648.9,238.7 663.1,237.2 663.1,264.9 		"/>
		<polygon class="st2" points="663.1,294.8 663,269 649.1,271.5 649.1,287.3 		"/>
		<polygon class="st2" points="663,264.7 663,237.4 649.1,238.8 649,257.7 		"/>
		<polygon class="st22" points="648.8,234 648.8,205.9 663,204.4 663,232 		"/>
		<polygon class="st2" points="663,232.3 663,204.4 649,206 648.9,225.3 		"/>
		<polygon class="st22" points="644.3,303 644.3,201.5 667.3,198.5 594.5,164.7 573.8,166.7 573.8,251.3 		"/>
		<line class="st21" x1="573.8" y1="166.7" x2="644.3" y2="201.5"/>
	</g>
</g>
<g id="Layer_4" class="st0">
</g>
</svg>
