<svg id="Capa_1" data-name="Capa 1" xmlns="http://www.w3.org/2000/svg" viewBox="0 0 320 320"><defs><style>.cls-1{fill:#d6d4d4;}.cls-2{fill:#bcbbbb;}.cls-3{fill:#eaeaea;}.cls-4{fill:#fff;}.cls-5{fill:#999898;}</style></defs><title>Icono.Fanelli.blanco</title><polygon class="cls-1" points="92 159.66 92 198.11 58.08 217.42 58.08 140.36 92 159.66"/><polygon class="cls-2" points="126.08 197.27 160 216.75 296 139.18 262.08 119.87 126.08 197.27"/><polygon class="cls-3" points="160 198.45 296 120.88 296 80.25 160 157.65 160 198.45"/><polygon class="cls-4" points="24 80.25 159.83 3.68 296 80.25 160 157.65 24 80.25"/><polygon class="cls-1" points="58.08 217.42 92 198.11 194.08 256.21 160 275.52 58.08 217.42"/><polygon class="cls-3" points="160 316.32 194.08 297.01 194.08 256.21 160 275.52 160 316.32"/><polygon class="cls-3" points="160 257.89 296 179.98 296 139.18 160 216.75 160 257.89"/><polygon class="cls-5" points="126.08 197.27 160 216.75 160 257.89 126.08 238.58 126.08 197.27"/><polygon class="cls-5" points="160 198.45 160 157.65 24 80.25 24 238.91 160 316.32 160 275.52 58.08 217.42 58.08 140.36 160 198.45"/></svg>