<svg id="Capa_1" data-name="Capa 1" xmlns="http://www.w3.org/2000/svg" viewBox="0 0 125 125"><defs><style>.cls-1{fill:#74f970;}</style></defs><title>Más</title><path class="cls-1" d="M62.86,113.92a47.8,47.8,0,1,1,47.8-47.8A47.86,47.86,0,0,1,62.86,113.92Zm0-90.15A42.34,42.34,0,1,0,105.2,66.12,42.39,42.39,0,0,0,62.86,23.78Z"/><path class="cls-1" d="M81.71,68.85H44a2.73,2.73,0,1,1,0-5.46h37.7a2.73,2.73,0,0,1,0,5.46Z"/><path class="cls-1" d="M62.86,87.7A2.73,2.73,0,0,1,60.13,85V47.27a2.73,2.73,0,1,1,5.46,0V85A2.73,2.73,0,0,1,62.86,87.7Z"/></svg>