<svg xmlns="http://www.w3.org/2000/svg" viewBox="0 0 37.986 29.848">
  <defs>
    <style>
      .cls-1 {
        fill: #0ebce1;
      }

      .cls-2 {
        fill: #01ff89;
      }
    </style>
  </defs>
  <g id="burbujas-del-discurso-opcion-de-comentario" transform="translate(-34.014 -101.39)">
    <g id="Group_316" data-name="Group 316" transform="translate(34.014 101.39)">
      <path id="Path_111" data-name="Path 111" class="cls-1" d="M22.417,75.058A13.461,13.461,0,0,0,27.854,71.1a8.444,8.444,0,0,0,0-10.9,13.462,13.462,0,0,0-5.437-3.954A19.093,19.093,0,0,0,14.923,54.8,19.1,19.1,0,0,0,7.43,56.256a13.462,13.462,0,0,0-5.437,3.954A8.561,8.561,0,0,0,0,65.657a8.33,8.33,0,0,0,1.506,4.749,12.386,12.386,0,0,0,4.133,3.752q-.212.509-.434.933a5.373,5.373,0,0,1-.53.816q-.307.393-.477.614t-.551.625q-.382.4-.488.53c0-.014-.028.018-.085.1s-.088.113-.1.106-.035.028-.085.105l-.074.117-.053.106a.454.454,0,0,0-.042.127.829.829,0,0,0-.011.138.427.427,0,0,0,.021.138.7.7,0,0,0,.244.445.662.662,0,0,0,.434.169h.064A17.775,17.775,0,0,0,5.3,78.883a17.826,17.826,0,0,0,5.893-2.713,21.288,21.288,0,0,0,3.731.339A19.075,19.075,0,0,0,22.417,75.058Z" transform="translate(0 -54.804)"/>
      <path id="Path_112" data-name="Path 112" class="cls-2" d="M199.29,170.985a8.273,8.273,0,0,0-.085-9.635,12.565,12.565,0,0,0-4.324-3.773,10.909,10.909,0,0,1-.933,8.606,14.188,14.188,0,0,1-4.07,4.494,18.769,18.769,0,0,1-5.6,2.734,22.4,22.4,0,0,1-6.55.954q-.636,0-1.865-.084a17.813,17.813,0,0,0,10.005,2.8,21.3,21.3,0,0,0,3.731-.339,16.929,16.929,0,0,0,7.716,3.053.639.639,0,0,0,.466-.148.783.783,0,0,0,.275-.466c-.007-.085,0-.131.021-.138s.017-.053-.011-.137l-.042-.127-.053-.106a1.017,1.017,0,0,0-.074-.116.9.9,0,0,0-.085-.106c-.021-.021-.052-.057-.1-.106s-.071-.081-.085-.1q-.106-.127-.487-.53t-.551-.625q-.17-.223-.477-.615a5.363,5.363,0,0,1-.53-.816q-.223-.424-.434-.933A12.437,12.437,0,0,0,199.29,170.985Z" transform="translate(-162.809 -149.947)"/>
    </g>
  </g>
</svg>
