<svg xmlns="http://www.w3.org/2000/svg" viewBox="0 0 80.13 67.433">
  <defs>
    <style>
      .cls-1 {
        fill: #b1b1b1;
      }
    </style>
  </defs>
  <g id="usuarios-multiples-en-silueta" transform="translate(2048 -1880)">
    <path id="Path_68" data-name="Path 68" class="cls-1" d="M48.355,17.922a14.56,14.56,0,0,1,6.776,10.817,11.747,11.747,0,1,0-6.776-10.817Zm-7.7,24.062A11.751,11.751,0,1,0,28.9,30.233,11.752,11.752,0,0,0,40.656,41.984Zm4.985.8H35.669A15.065,15.065,0,0,0,20.622,57.833V70.028l.031.191.84.263a68.493,68.493,0,0,0,20.459,3.3c11.059,0,17.469-3.153,17.864-3.354l.785-.4h.084v-12.2A15.06,15.06,0,0,0,45.641,42.785ZM65.084,30.653h-9.9a14.483,14.483,0,0,1-4.47,10.088A17.88,17.88,0,0,1,63.49,57.851v3.758c9.77-.358,15.4-3.127,15.771-3.313l.785-.4h.084V45.7A15.064,15.064,0,0,0,65.084,30.653Zm-45.049-.8a11.674,11.674,0,0,0,6.25-1.814,14.544,14.544,0,0,1,5.467-9.276c.012-.22.033-.438.033-.66a11.751,11.751,0,1,0-11.75,11.75ZM30.589,40.741a14.492,14.492,0,0,1-4.467-10.032c-.367-.027-.73-.056-1.1-.056H15.047A15.064,15.064,0,0,0,0,45.7V57.9l.031.188.84.265a70.549,70.549,0,0,0,16.945,3.185V57.851A17.883,17.883,0,0,1,30.589,40.741Z" transform="translate(-2048 1873.652)"/>
  </g>
</svg>
