<?xml version="1.0" encoding="utf-8"?>
<!-- Generator: Adobe Illustrator 21.1.0, SVG Export Plug-In . SVG Version: 6.00 Build 0)  -->
<svg version="1.1" id="Capa_1" xmlns="http://www.w3.org/2000/svg" xmlns:xlink="http://www.w3.org/1999/xlink" x="0px" y="0px"
	 viewBox="0 0 56 56" style="enable-background:new 0 0 56 56;" xml:space="preserve">
<style type="text/css">
	.st0{fill:#FFFFFF;}
</style>
<title>x-02</title>
<path class="st0" d="M22.3,32.9h-14c-0.5,0-0.9-0.4-0.9-0.9v-7.6c0-0.5,0.4-0.9,0.9-0.9h14.1c0.5,0,0.9-0.4,0.9-0.9V8.3
	c0-0.5,0.4-0.9,0.9-0.9h7.6c0.5,0,0.9,0.4,0.9,0.9v14.1c0,0.5,0.4,0.9,0.9,0.9h14c0.5,0,0.9,0.4,0.9,0.9l0,0v7.6
	c0,0.5-0.4,0.9-0.9,0.9l0,0h-14c-0.5,0-0.9,0.4-0.9,0.9v13.9c0,0.5-0.4,0.9-0.9,0.9l0,0h-7.6c-0.5,0-0.9-0.4-0.9-0.9l0,0V33.8
	C23.3,33.3,22.8,32.9,22.3,32.9z"/>
</svg>
