<svg xmlns="http://www.w3.org/2000/svg" viewBox="0 0 63.749 63.749"><defs><style>.a{fill:#fff;}</style></defs><g transform="translate(-574.425 -348.523)"><g transform="translate(574.425 348.523)"><path class="a" d="M144.991,0H98.018a1.007,1.007,0,1,0,0,2.013h46.973a1.679,1.679,0,0,1,1.678,1.678V36.236h-5.7a1.007,1.007,0,1,0,0,2.013h5.7v9.73a1.685,1.685,0,0,1-.839,1.454,1.007,1.007,0,1,0,1.008,1.743,3.7,3.7,0,0,0,1.845-3.2V3.691A3.7,3.7,0,0,0,144.991,0Z" transform="translate(-84.932)"/><path class="a" d="M420.379,327.059a3.691,3.691,0,1,0,3.691-3.691A3.695,3.695,0,0,0,420.379,327.059Zm3.691-1.678a1.678,1.678,0,1,1-1.678,1.678A1.679,1.679,0,0,1,424.07,325.381Z" transform="translate(-368.038 -283.105)"/><path class="a" d="M22.144,50.664a1.006,1.006,0,0,0-1.007-1.007H3.691A1.679,1.679,0,0,1,2.013,47.98v-9.73H26.506a1.007,1.007,0,1,0,0-2.013H2.013V3.691A1.679,1.679,0,0,1,3.691,2.013H9.059A1.007,1.007,0,0,0,9.059,0H3.691A3.7,3.7,0,0,0,0,3.691V47.98A3.7,3.7,0,0,0,3.691,51.67H21.138A1.007,1.007,0,0,0,22.144,50.664Z"/><path class="a" d="M207.51,144.263l-8.878-2.663v-3.148a9.056,9.056,0,0,0,5.065-6.8l1.119-7.272a2.9,2.9,0,0,0,1.018-4.768h0l-1.96-1.96-1.385-4.156a6.367,6.367,0,0,0-5.41-4.327,2.352,2.352,0,0,0-2.137-1.374h-5.368a2.352,2.352,0,0,0-2.137,1.374,6.367,6.367,0,0,0-5.41,4.327l-1.385,4.156-1.96,1.96a2.9,2.9,0,0,0,1.018,4.768l1.119,7.272a9.056,9.056,0,0,0,5.065,6.8V141.6l-8.878,2.663a6.336,6.336,0,0,0-4.543,6.106v5.4a2.351,2.351,0,0,0,2.349,2.349h24.158a1.007,1.007,0,0,0,0-2.013H183.2v-3.02a1.007,1.007,0,0,0-2.013,0v3.02h-6.375a.336.336,0,0,1-.336-.336v-5.4a4.335,4.335,0,0,1,3.108-4.178l9.454-2.836h10.441l9.454,2.836a4.335,4.335,0,0,1,3.108,4.178v5.4a.336.336,0,0,1-.336.336H203.33v-3.02a1.007,1.007,0,1,0-2.013,0v4.026a1.006,1.006,0,0,0,1.007,1.007h7.381a2.351,2.351,0,0,0,2.349-2.349v-5.4A6.336,6.336,0,0,0,207.51,144.263Zm-26.775-21.71a.892.892,0,0,1-.63-1.522l2.128-2.128a1.007,1.007,0,0,0,.243-.393l1.461-4.382a4.355,4.355,0,0,1,3.288-2.9v4.279a1.007,1.007,0,0,0,2.013,0v-5.368a.336.336,0,0,1,.336-.336h5.368a.336.336,0,0,1,.336.336v5.368a1.007,1.007,0,1,0,2.013,0v-4.279a4.355,4.355,0,0,1,3.288,2.9l1.461,4.382a1.006,1.006,0,0,0,.243.393l2.128,2.128a.891.891,0,0,1-.63,1.522H180.735Zm14.009,16.776a9.059,9.059,0,0,0,1.876-.2v2.21H187.9v-2.21a9.057,9.057,0,0,0,1.876.2h1.144a1.007,1.007,0,1,0,0-2.013h-1.144a7.008,7.008,0,0,1-6.964-5.975l-1.042-6.775h20.985l-1.042,6.775a7.008,7.008,0,0,1-6.964,5.975,1.007,1.007,0,1,0,0,2.013Z" transform="translate(-150.989 -94.369)"/><path class="a" d="M36.028,323.368a3.691,3.691,0,1,0,0,7.381h9.395a3.691,3.691,0,1,0,0-7.381ZM47.1,327.059a1.68,1.68,0,0,1-1.678,1.678H36.028a1.678,1.678,0,0,1,0-3.355h9.395A1.68,1.68,0,0,1,47.1,327.059Z" transform="translate(-28.311 -283.105)"/><path class="a" d="M75.745,43.116H66.351a1.679,1.679,0,0,0-1.678,1.678V48.82A1.679,1.679,0,0,0,66.351,50.5h3.691v2.4L65.6,55.116a1.668,1.668,0,0,0-.928,1.5v.513a1.668,1.668,0,0,0,.927,1.5l4.441,2.221v2.4H66.351a1.679,1.679,0,0,0-1.678,1.678v4.026a1.679,1.679,0,0,0,1.678,1.678h9.395a1.679,1.679,0,0,0,1.678-1.678V67.945h3.02a1.007,1.007,0,1,0,0-2.013h-3.02V64.925a1.679,1.679,0,0,0-1.678-1.678H72.055v-2.4l4.441-2.22a1.668,1.668,0,0,0,.928-1.5v-.513a1.668,1.668,0,0,0-.927-1.5L72.054,52.9V50.5h3.691a1.679,1.679,0,0,0,1.678-1.678V47.813H110.3v9.73a1.007,1.007,0,1,0,2.013,0V46.807a1.006,1.006,0,0,0-1.007-1.007H77.423V44.794A1.679,1.679,0,0,0,75.745,43.116ZM75.41,65.26v3.355H66.686V65.26Zm0-8.437v.1L71.048,59.1l-4.362-2.181v-.1l4.362-2.181Zm0-8.339H66.686V45.129H75.41Z" transform="translate(-56.621 -37.748)"/><path class="a" d="M183.242,327.059a3.691,3.691,0,1,0,3.691-3.691A3.695,3.695,0,0,0,183.242,327.059Zm5.368,0a1.678,1.678,0,1,1-1.678-1.678A1.68,1.68,0,0,1,188.61,327.059Z" transform="translate(-160.427 -283.105)"/></g></g></svg>