<svg xmlns="http://www.w3.org/2000/svg" viewBox="0 0 47.086 59.642"><defs><style>.a{fill:#fff;}</style></defs><g transform="translate(-582.79 -539.765)"><g transform="translate(582.79 539.765)"><path class="a" d="M98.783,20.09H85.913V10.673h.314a2.2,2.2,0,0,0,2.2-2.2V6.906h.314a2.2,2.2,0,0,0,2.2-2.2V2.2a2.2,2.2,0,0,0-2.2-2.2H84.971a.942.942,0,0,0,0,1.883h3.767a.314.314,0,0,1,.314.314V4.709a.314.314,0,0,1-.314.314h-22.6a.314.314,0,0,1-.314-.314V2.2a.314.314,0,0,1,.314-.314H81.2A.942.942,0,1,0,81.2,0H66.137a2.2,2.2,0,0,0-2.2,2.2V4.709a2.2,2.2,0,0,0,2.2,2.2h.314v1.57a2.2,2.2,0,0,0,2.2,2.2h.314V20.09H56.092a2.2,2.2,0,0,0-2.2,2.2V24.8a2.2,2.2,0,0,0,2.2,2.2h7.534a.942.942,0,1,0,0-1.883H61.831l3.139-3.139h7.582l-3.139,3.139H67.393a.942.942,0,1,0,0,1.883H94.075v9.417H88.162L87.121,33.29a.941.941,0,0,0-.893-.644H68.648a.942.942,0,0,0-.893.644l-1.041,3.123H60.8V29.821a.942.942,0,1,0-1.883,0v7.534a.941.941,0,0,0,.942.942h7.534a.942.942,0,0,0,.893-.644l1.041-3.123H85.549l1.041,3.123a.941.941,0,0,0,.893.644h7.534a.941.941,0,0,0,.942-.942V27h2.825a2.2,2.2,0,0,0,2.2-2.2V22.287A2.2,2.2,0,0,0,98.783,20.09ZM59.168,25.112H56.092a.314.314,0,0,1-.314-.314V22.287a.314.314,0,0,1,.314-.314h6.214ZM83.4,6.906h3.139v1.57a.314.314,0,0,1-.314.314H83.716a.314.314,0,0,1-.314-.314V6.906ZM68.648,8.789a.314.314,0,0,1-.314-.314V6.906h3.139v1.57a.314.314,0,0,1-.314.314Zm2.2,11.3V10.673h.314a2.2,2.2,0,0,0,2.2-2.2V6.906h8.161v1.57a2.2,2.2,0,0,0,2.2,2.2h.314v1.883H73.671a.942.942,0,1,0,0,1.883H84.03v1.883H73.671a.942.942,0,1,0,0,1.883H84.03V20.09H70.846Zm1.231,5.022,3.139-3.139H82.8l-3.139,3.139Zm10.246,0,3.139-3.139h7.582l-3.139,3.139ZM99.1,24.8a.314.314,0,0,1-.314.314H92.569l3.139-3.139h3.075a.314.314,0,0,1,.314.314Z" transform="translate(-53.895)"/><path class="a" d="M98.783,347.959H95.958v-9.1a.941.941,0,0,0-.942-.942H85.65l-1.041-3.123a.942.942,0,0,0-1.787.6l1.256,3.767a.941.941,0,0,0,.893.644h9.1v8.161H60.8V339.8h9.1a.942.942,0,0,0,.893-.644l1.041-3.123h8.111a.942.942,0,1,0,0-1.883H71.16a.942.942,0,0,0-.893.644l-1.041,3.123H59.859a.942.942,0,0,0-.942.942v9.1H56.092a2.2,2.2,0,0,0-2.2,2.2v2.511a2.2,2.2,0,0,0,2.2,2.2H98.783a2.2,2.2,0,0,0,2.2-2.2v-2.511A2.2,2.2,0,0,0,98.783,347.959Zm-42.691,5.023a.314.314,0,0,1-.314-.314v-2.511a.314.314,0,0,1,.314-.314h6.214l-3.139,3.139H56.092Zm5.739,0,3.139-3.139h7.582l-3.139,3.139Zm10.246,0,3.139-3.139H82.8l-3.139,3.139Zm10.246,0,3.139-3.139h7.582l-3.139,3.139Zm16.774-.314a.314.314,0,0,1-.314.314H92.569l3.139-3.139h3.075a.314.314,0,0,1,.314.314Z" transform="translate(-53.895 -295.223)"/><path class="a" d="M227.3,77.336h5.023a.942.942,0,0,0,0-1.883H227.3a.942.942,0,0,0,0,1.883Z" transform="translate(-206.268 -66.664)"/></g></g></svg>