<svg xmlns="http://www.w3.org/2000/svg" viewBox="0 0 51.863 63.158"><defs><style>.a{fill:#fff;}</style></defs><g transform="translate(-580.298 -718.347)"><path class="a" d="M46.555,20.869a25.844,25.844,0,0,0-17.123-9.382V8.225h1.963a4.112,4.112,0,0,0,0-8.225H21.482a4.112,4.112,0,1,0,0,8.225h1.963v3.256C3.251,13.8-6.6,37.713,6.322,53.6A25.933,25.933,0,1,0,46.555,20.869ZM21.483,6.37a2.257,2.257,0,0,1,0-4.514h9.912a2.257,2.257,0,0,1,0,4.514Zm6.094,1.855v3.113q-1.137-.051-2.275,0V8.225ZM41.634,55.913A24.1,24.1,0,0,1,7.761,52.431C-4.207,37.721,4.856,15.648,23.445,13.35A24.073,24.073,0,0,1,41.634,55.913Zm0,0" transform="translate(579.8 718.346)"/><path class="a" d="M64.034,313.628a19.2,19.2,0,0,1-15.059-3.462,19.475,19.475,0,0,1-7.806-15.584.928.928,0,1,0-1.855-.005,21.154,21.154,0,0,0,25.064,20.874.928.928,0,0,0-.343-1.823Zm0,0" transform="translate(545.773 460.917)"/><path class="a" d="M43.085,148.551A.928.928,0,0,0,44,147.8a19.322,19.322,0,0,1,30.454-11.9,19.525,19.525,0,0,1,2.726,2.449.927.927,0,1,0,1.364-1.257,21.166,21.166,0,0,0-36.367,10.367.927.927,0,0,0,.912,1.1Zm0,0" transform="translate(543.28 604.187)"/><path class="a" d="M274.052,207.728a.928.928,0,0,0-1.573.985,19.308,19.308,0,0,1-9.39,28.241.928.928,0,0,0,.668,1.732,21.166,21.166,0,0,0,10.3-30.958Zm0,0" transform="translate(350.12 536.625)"/><path class="a" d="M146.812,276.858a3.837,3.837,0,1,0-6.165-4.57,3.793,3.793,0,0,0-.61,3.331l-5.317,3.406a.928.928,0,0,0,.5,1.709c.487,0,.256-.053,5.738-3.5a3.839,3.839,0,0,0,5.853-.373Zm-1.49-1.1a1.982,1.982,0,1,1-1.576-3.163,1.981,1.981,0,0,1,1.576,3.163Zm0,0" transform="translate(462.51 481.009)"/><path class="a" d="M205.129,160.751V157.3a.928.928,0,0,0-1.855,0v3.452a.928.928,0,1,0,1.855,0Zm0,0" transform="translate(402.037 581.265)"/><path class="a" d="M136.947,179.7a.928.928,0,0,0,.8-1.392l-1.726-2.989a.928.928,0,1,0-1.607.928l1.726,2.989A.927.927,0,0,0,136.947,179.7Zm0,0" transform="translate(462.51 565.06)"/><path class="a" d="M88.177,227.2l-2.989-1.726a.928.928,0,1,0-.928,1.606l2.989,1.726a.928.928,0,1,0,.928-1.607Zm0,0" transform="translate(506.777 520.794)"/><path class="a" d="M70.62,295.26a.928.928,0,0,0-.928-.928H66.24a.928.928,0,1,0,0,1.855h3.452A.928.928,0,0,0,70.62,295.26Zm0,0" transform="translate(522.981 460.321)"/><path class="a" d="M84.728,352.9c.436,0,.4-.137,3.452-1.85a.928.928,0,0,0-.928-1.607l-2.989,1.726A.928.928,0,0,0,84.728,352.9Zm0,0" transform="translate(506.774 412.118)"/><path class="a" d="M136.134,390.037l-1.726,2.989a.928.928,0,1,0,1.607.928l1.726-2.989a.928.928,0,1,0-1.607-.928Zm0,0" transform="translate(462.518 376.829)"/><path class="a" d="M203.273,405.236v3.452a.928.928,0,1,0,1.855,0v-3.452a.928.928,0,0,0-1.855,0Zm0,0" transform="translate(402.038 363.911)"/><path class="a" d="M261.376,394.295a.927.927,0,0,0,.34-1.267l-1.726-2.989a.928.928,0,1,0-1.607.928l1.726,2.989A.928.928,0,0,0,261.376,394.295Zm0,0" transform="translate(353.835 376.828)"/><path class="a" d="M298.977,351.05c3.049,1.712,3.017,1.851,3.452,1.851a.928.928,0,0,0,.465-1.731l-2.989-1.726a.928.928,0,0,0-.928,1.607Zm0,0" transform="translate(318.547 412.117)"/><path class="a" d="M318.554,295.26a.927.927,0,0,0-.928-.928h-3.452a.928.928,0,1,0,0,1.855h3.452A.927.927,0,0,0,318.554,295.26Zm0,0" transform="translate(305.63 460.321)"/><path class="a" d="M299.441,228.934a.923.923,0,0,0,.463-.124l2.989-1.726a.928.928,0,0,0-.928-1.607l-2.989,1.726a.928.928,0,0,0,.464,1.731Zm0,0" transform="translate(318.546 520.793)"/><path class="a" d="M260.11,175.318l-1.726,2.989a.928.928,0,0,0,1.607.928l1.726-2.989a.928.928,0,1,0-1.607-.928Zm0,0" transform="translate(353.835 565.062)"/></g></svg>