<svg id="Capa_1" data-name="Capa 1" xmlns="http://www.w3.org/2000/svg" viewBox="0 0 15.59 20.57"><defs><style>.cls-1{fill:#fff;}</style></defs><title>trashwht</title><g id="Delete_Trash" data-name="Delete / Trash"><path class="cls-1" d="M2.34,19.18a1.87,1.87,0,0,0,1.89,1.39h7.13a1.86,1.86,0,0,0,1.88-1.39L14.65,5.49H.94Zm8.2-11.64a.67.67,0,0,1,.68-.68.68.68,0,0,1,.69.68l-.69,10.29a.68.68,0,0,1-.68.69.69.69,0,0,1-.69-.69Zm-3.43,0a.67.67,0,0,1,.68-.68.68.68,0,0,1,.69.68V17.83a.69.69,0,0,1-.69.69.68.68,0,0,1-.68-.69ZM4.36,6.86a.68.68,0,0,1,.69.68l.69,10.29a.69.69,0,0,1-1.38,0L3.68,7.54A.68.68,0,0,1,4.36,6.86Zm9.88-4.12h-3V1.37c0-1-.33-1.37-1.37-1.37H5.74A1.2,1.2,0,0,0,4.36,1.37V2.74h-3a1.06,1.06,0,0,0-1.1,1,1.06,1.06,0,0,0,1.1,1H14.24a1.06,1.06,0,0,0,1.1-1A1.06,1.06,0,0,0,14.24,2.74Zm-4.39,0H5.74V1.37H9.85V2.74Z"/></g></svg>