<svg id="Capa_1" data-name="Capa 1" xmlns="http://www.w3.org/2000/svg" viewBox="0 0 400 400"><defs><style>.cls-1{fill:#a7a7a7;}</style></defs><title>change</title><path class="cls-1" d="M113.94,114.15A125,125,0,0,1,267.5,96c-16.33,16.15-35.14,35-35.14,35-13.18,15.8,1.62,24.92,9.14,24.68l88,0c4.64,0,8.43,0,8.43,0h25.55a8.47,8.47,0,0,0,8.45-8.46v-121c.55-11.07-11.61-21.8-24.16-9.45,0,0-20.76,20.23-35.1,34.44C239.35-2.35,136,3.7,69.74,70A186.68,186.68,0,0,0,15.22,210.53H77.83A124.38,124.38,0,0,1,113.94,114.15Z"/><path class="cls-1" d="M322.17,189.49A124.66,124.66,0,0,1,132.51,304c16.31-16.15,35.13-35,35.13-35,13.17-15.8-1.62-24.92-9.14-24.66l-88,0c-4.64,0-8.43,0-8.43,0H36.48A8.48,8.48,0,0,0,28,252.79v121c-.53,11.07,11.61,21.8,24.17,9.45,0,0,20.75-20.23,35.1-34.43,73.37,53.6,176.7,47.52,243-18.71a186.79,186.79,0,0,0,54.53-140.58l-62.61,0Z"/></svg>