<svg id="Capa_1" data-name="Capa 1" xmlns="http://www.w3.org/2000/svg" viewBox="0 0 400 400"><defs><style>.cls-1{fill:#fff;}</style></defs><title>search.blanco</title><path class="cls-1" d="M378.32,337.72l-76.93-76.93q27.81-40.14,27.81-89.5A155.12,155.12,0,0,0,316.75,110a154.65,154.65,0,0,0-84.11-84.11,157.36,157.36,0,0,0-122.69,0A154.63,154.63,0,0,0,25.83,110a157.36,157.36,0,0,0,0,122.69A154.71,154.71,0,0,0,110,316.75a155.12,155.12,0,0,0,61.34,12.45q49.35,0,89.5-27.82l76.93,76.71a26.67,26.67,0,0,0,20.19,8.52,28.7,28.7,0,0,0,20.41-48.89Zm-136-95.44q-29.49,29.49-71,29.5t-71-29.5q-29.49-29.49-29.49-71t29.49-71q29.49-29.49,71-29.49t71,29.49q29.5,29.49,29.5,71T242.28,242.28Z"/></svg>