<svg id="Capa_1" data-name="Capa 1" xmlns="http://www.w3.org/2000/svg" viewBox="0 0 350 350"><defs><style>.cls-1{fill:#717384;}.cls-2{fill:#5c5d6d;}.cls-3{fill:#dd5151;}.cls-4{fill:#e4e8f6;}.cls-5{fill:#fff;}.cls-6{fill:#ac4347;}</style></defs><title>accidentes</title><path class="cls-1" d="M190.33,82.53H159.47A15.44,15.44,0,0,0,144.05,98v19.28h7.71V101.81a7.72,7.72,0,0,1,7.71-7.71h30.86a7.72,7.72,0,0,1,7.71,7.71v15.43h7.72V98A15.45,15.45,0,0,0,190.33,82.53Z"/><rect class="cls-2" x="144.05" y="105.67" width="7.71" height="11.57"/><rect class="cls-2" x="198.04" y="105.67" width="7.71" height="11.57"/><path class="cls-3" d="M267.47,267.66H82.34a11.57,11.57,0,0,1-11.58-11.57V125a11.57,11.57,0,0,1,11.58-11.57H267.47A11.57,11.57,0,0,1,279,125V256.09A11.57,11.57,0,0,1,267.47,267.66Z"/><circle class="cls-4" cx="174.9" cy="186.66" r="54"/><circle class="cls-5" cx="174.9" cy="186.66" r="46.28"/><path class="cls-3" d="M198,179H182.61V163.52a3.85,3.85,0,0,0-3.85-3.85H171a3.85,3.85,0,0,0-3.85,3.85V179H151.76a3.86,3.86,0,0,0-3.86,3.86v7.71a3.86,3.86,0,0,0,3.86,3.86h15.43v15.43a3.85,3.85,0,0,0,3.85,3.85h7.72a3.85,3.85,0,0,0,3.85-3.85V194.38H198a3.86,3.86,0,0,0,3.86-3.86v-7.71A3.86,3.86,0,0,0,198,179Z"/><path class="cls-6" d="M267.47,256.09H82.34a11.57,11.57,0,0,1-11.58-11.57v11.57a11.57,11.57,0,0,0,11.58,11.57H267.47A11.57,11.57,0,0,0,279,256.09V244.52A11.57,11.57,0,0,1,267.47,256.09Z"/></svg>