<svg id="Capa_1" data-name="Capa 1" xmlns="http://www.w3.org/2000/svg" viewBox="0 0 350 350"><defs><style>.cls-1{fill:#d6d6d6;}.cls-2{fill:#c6c6c6;}.cls-3{fill:#a5a4a4;}.cls-4{fill:#a0a0a0;}</style></defs><title>falta_1</title><path class="cls-1" d="M118.71,145.6v18.6c0,32.73,24.92,67,55.79,67s55.79-34.22,55.79-67V145.6Z"/><path class="cls-2" d="M189.38,78.66V74.94a7.46,7.46,0,0,0-7.44-7.44H167.06a7.46,7.46,0,0,0-7.44,7.44v3.72c-27.89,6.69-48.35,29.75-48.35,59.51v7.43H237.73v-7.43c0-29.76-20.46-52.82-48.35-59.51"/><path class="cls-3" d="M189.38,97.25a3.51,3.51,0,0,1-3.72-3.72V82.38a3.72,3.72,0,0,1,7.44,0V93.53a3.51,3.51,0,0,1-3.72,3.72"/><path class="cls-3" d="M159.62,97.25a3.51,3.51,0,0,1-3.72-3.72V82.38a3.72,3.72,0,0,1,7.44,0V93.53a3.51,3.51,0,0,1-3.72,3.72"/><path class="cls-3" d="M245.17,149.32H103.83a3.72,3.72,0,0,1,0-7.44H245.17a3.72,3.72,0,0,1,0,7.44"/><path class="cls-4" d="M189.38,264.62H159.62l14.88-33.47Z"/><path class="cls-4" d="M155.15,282.17,159,264.62h30.56l3.83,17.55Z"/><path class="cls-2" d="M134.7,209.2l-1.11-.37-3.72,14.88,29.75,40.91,14.88-33.47c-15.62,0-29.75-8.93-39.8-22"/><path class="cls-2" d="M214.3,209.2c-10.05,13-24.18,22-39.8,22l14.88,33.47,29.75-40.91-3.72-14.88Z"/><path class="cls-2" d="M272.91,251.46c-20.35-10.73-40-18.87-57.71-21.09h-1.85l-24,33.3,3.7,18.5h88.79V266.26a16.56,16.56,0,0,0-8.88-14.8"/><path class="cls-2" d="M135.65,230.37H133.8c-17.76,2.22-37.36,10.36-57.71,21.09a16.56,16.56,0,0,0-8.88,14.8v15.91H156l3.7-18.5Z"/><path class="cls-3" d="M120.2,106.55l28.27,5.58L142.89,85a63.19,63.19,0,0,0-22.69,21.57"/><path class="cls-3" d="M228.8,106.55l-28.27,5.58L206.11,85a63.19,63.19,0,0,1,22.69,21.57"/></svg>