<svg id="Capa_1" data-name="Capa 1" xmlns="http://www.w3.org/2000/svg" viewBox="0 0 350 350"><defs><style>.cls-1{fill:#d4deed;}.cls-2{fill:#c4cfe3;}.cls-3{fill:#163780;}.cls-4{fill:#929cb4;}.cls-5{fill:#2c6dff;}.cls-6{fill:#2152bf;}.cls-7{fill:#6f7588;}</style></defs><title>novedades_1</title><path class="cls-1" d="M285.24,164.24,271.55,167V126.59l13.69,2.74a8.08,8.08,0,0,1,6.5,7.92v19.07A8.08,8.08,0,0,1,285.24,164.24Z"/><path class="cls-2" d="M285.24,152.12l-13.69,2.74V167l13.69-2.74a8.08,8.08,0,0,0,6.5-7.92V144.2A8.08,8.08,0,0,1,285.24,152.12Z"/><path class="cls-3" d="M69.62,175.05h-4A8.07,8.07,0,0,1,57.5,167V126.59a8.08,8.08,0,0,1,8.08-8.08h4Z"/><path class="cls-1" d="M162.5,102.36v88.85c28.27,0,72.7,12.11,105,40.38V62C235.2,90.24,190.77,102.36,162.5,102.36Z"/><path class="cls-4" d="M275.58,235.63h-4a4,4,0,0,1-4-4V62a4,4,0,0,1,4-4h4a4,4,0,0,1,4,4V231.59A4,4,0,0,1,275.58,235.63Z"/><path class="cls-5" d="M168.24,284.1h0a4,4,0,0,1-4-3.25l-17.93-89.64H101.92l18.25,91.22a12.1,12.1,0,0,0,11.88,9.74h36.19a4,4,0,1,0,0-8.07Z"/><path class="cls-3" d="M154.43,191.21v4.65a4,4,0,0,1-3.38,4L86.43,210.62a4,4,0,0,1-4.7-4V191.21Z"/><path class="cls-5" d="M162.5,191.21H81.73a16.16,16.16,0,0,1-16.15-16.16V118.51a16.15,16.15,0,0,1,16.15-16.15H162.5v88.85Z"/><rect class="cls-4" x="154.43" y="102.36" width="8.08" height="88.85"/><path class="cls-6" d="M65.58,162.94h88.85v28.27H81.73a16.16,16.16,0,0,1-16.15-16.16V162.94Z"/><rect class="cls-7" x="154.43" y="162.94" width="8.08" height="28.27"/><path class="cls-2" d="M162.5,191.21c28.27,0,72.7,12.11,105,40.38V183.13c-32.31-13.46-76.74-20.19-105-20.19Z"/><path class="cls-7" d="M275.58,187.17h-4a4,4,0,0,1-4-4v48.46a4,4,0,0,0,4,4h4a4,4,0,0,0,4-4V183.13A4,4,0,0,1,275.58,187.17Z"/></svg>