<?xml version="1.0" encoding="utf-8"?>
<!-- Generator: Adobe Illustrator 21.1.0, SVG Export Plug-In . SVG Version: 6.00 Build 0)  -->
<svg version="1.1" id="Capa_1" xmlns="http://www.w3.org/2000/svg" xmlns:xlink="http://www.w3.org/1999/xlink" x="0px" y="0px"
	 viewBox="0 0 350 350" style="enable-background:new 0 0 350 350;" xml:space="preserve">
<style type="text/css">
	.st0{fill:#939393;}
	.st1{fill:#FFFFFF;}
</style>
<g>
	<g>
		<path class="st0" d="M263.7,197.3h-47.8c-3.9,0-7.1,3.2-7.1,7.1v49.3c0,3.9-3.2,7.1-7.1,7.1h-44.6c-3.9,0-7.1-3.2-7.1-7.1v-49.3
			c0-3.9-3.2-7.1-7.1-7.1H95.2c-3.9,0-7.1-3.2-7.1-7.1v-41.4c0-3.9,3.2-7.1,7.1-7.1H143c3.9,0,7.1-3.2,7.1-7.1V85.1
			c0-3.9,3.2-7.1,7.1-7.1h44.6c3.9,0,7.1,3.2,7.1,7.1v49.6c0,3.9,3.2,7.1,7.1,7.1h47.8c3.9,0,7.1,3.2,7.1,7.1v41.4
			C270.8,194.1,267.6,197.3,263.7,197.3z"/>
	</g>
	<g>
		<path class="st1" d="M259,203.4h-47.8c-3.9,0-7.1,3.2-7.1,7.1v49.3c0,3.9-3.2,7.1-7.1,7.1h-44.6c-3.9,0-7.1-3.2-7.1-7.1v-49.3
			c0-3.9-3.2-7.1-7.1-7.1H90.4c-3.9,0-7.1-3.2-7.1-7.1v-41.4c0-3.9,3.2-7.1,7.1-7.1h47.8c3.9,0,7.1-3.2,7.1-7.1V91.2
			c0-3.9,3.2-7.1,7.1-7.1H197c3.9,0,7.1,3.2,7.1,7.1v49.6c0,3.9,3.2,7.1,7.1,7.1H259c3.9,0,7.1,3.2,7.1,7.1v41.4
			C266,200.2,262.9,203.4,259,203.4z"/>
	</g>
</g>
</svg>
