<svg id="Capa_1" data-name="Capa 1" xmlns="http://www.w3.org/2000/svg" viewBox="0 0 350 350"><defs><style>.cls-1{fill:#4a4c4c;}.cls-2{fill:#303232;}.cls-3{fill:#747474;}.cls-4{fill:#a1e55c;}</style></defs><title>tarde_1</title><g id="_Grupo_" data-name="&lt;Grupo&gt;"><path id="_Trazado_compuesto_" data-name="&lt;Trazado compuesto&gt;" class="cls-1" d="M134.08,248.54a5.07,5.07,0,0,1-5.07,5.07H108.74a5.07,5.07,0,0,1-5.07-5.07V213.06h30.41Zm111.49-35.48H215.16v35.48a5.07,5.07,0,0,0,5.07,5.07H240.5a5.07,5.07,0,0,0,5.07-5.07ZM189.82,96.5h-30.4a5.07,5.07,0,0,0-5.07,5.07V132a5.07,5.07,0,0,0,5.07,5.06h30.4a5.07,5.07,0,0,0,5.07-5.06V101.57A5.07,5.07,0,0,0,189.82,96.5Z"/><path id="_Trazado_compuesto_2" data-name="&lt;Trazado compuesto&gt;" class="cls-2" d="M134.08,248.54H103.67V218.13h30.41Zm111.49-30.41H215.16v30.41h30.41Z"/><path id="_Trazado_compuesto_3" data-name="&lt;Trazado compuesto&gt;" class="cls-3" d="M260.77,243.47H88.46a30.4,30.4,0,0,1-30.4-30.41V142.11a30.41,30.41,0,0,1,30.4-30.41H260.77a30.41,30.41,0,0,1,30.41,30.41v70.95A30.4,30.4,0,0,1,260.77,243.47Zm-70.95-141.9h0a5.07,5.07,0,0,0-5.07-5.07H159.42a5.07,5.07,0,0,0-5.07,5.07v5.07h30.4A5.07,5.07,0,0,0,189.82,101.57Z"/><path id="_Trazado_compuesto_4" data-name="&lt;Trazado compuesto&gt;" class="cls-2" d="M260.77,223.2H88.46a10.14,10.14,0,0,1-10.13-10.14V142.11A10.13,10.13,0,0,1,88.46,132H260.77a10.13,10.13,0,0,1,10.14,10.13v70.95A10.14,10.14,0,0,1,260.77,223.2Zm-68.41,9.12v-3a1,1,0,0,0-1-1H157.89a1,1,0,0,0-1,1v3a1,1,0,0,0,1,1h33.45A1,1,0,0,0,192.36,232.32Z"/><path id="_Trazado_compuesto_5" data-name="&lt;Trazado compuesto&gt;" class="cls-4" d="M136.61,147.18a2.53,2.53,0,0,1-2.53,2.53H108.74a2.53,2.53,0,1,1,0-5.06h25.34A2.53,2.53,0,0,1,136.61,147.18Zm-2.53,7.6a2.54,2.54,0,0,0-2.54,2.54v20.27a2.54,2.54,0,0,0,5.07,0V157.32A2.54,2.54,0,0,0,134.08,154.78Zm0,30.41a2.54,2.54,0,0,0-2.54,2.53V208a2.54,2.54,0,1,0,5.07,0V187.72A2.53,2.53,0,0,0,134.08,185.19ZM200,144.65H174.62a2.53,2.53,0,0,0,0,5.06H200a2.53,2.53,0,1,0,0-5.06Zm0,60.81H174.62a2.54,2.54,0,0,0,0,5.07H200a2.54,2.54,0,0,0,0-5.07Zm-25.34-30.41a2.53,2.53,0,0,0,2.53-2.53v-15.2a2.53,2.53,0,1,0-5.06,0v15.2A2.53,2.53,0,0,0,174.62,175.05Zm0,25.34a2.53,2.53,0,0,0,2.53-2.53v-15.2a2.53,2.53,0,1,0-5.06,0v15.2A2.53,2.53,0,0,0,174.62,200.39ZM200,154.78a2.54,2.54,0,0,0-2.54,2.54v15.2a2.54,2.54,0,0,0,5.07,0v-15.2A2.54,2.54,0,0,0,200,154.78Zm0,25.34a2.54,2.54,0,0,0-2.54,2.54v15.2a2.54,2.54,0,0,0,5.07,0v-15.2A2.54,2.54,0,0,0,200,180.12Zm15.2-30.41H240.5a2.53,2.53,0,1,0,0-5.06H215.16a2.53,2.53,0,1,0,0,5.06Zm25.34,55.75H215.16a2.54,2.54,0,0,0,0,5.07H240.5a2.54,2.54,0,1,0,0-5.07Zm-25.34-30.41a2.54,2.54,0,0,0,2.54-2.53v-15.2a2.54,2.54,0,1,0-5.07,0v15.2A2.53,2.53,0,0,0,215.16,175.05Zm0,25.34a2.54,2.54,0,0,0,2.54-2.53v-15.2a2.54,2.54,0,1,0-5.07,0v15.2A2.53,2.53,0,0,0,215.16,200.39Zm25.34-45.61a2.54,2.54,0,0,0-2.53,2.54v15.2a2.54,2.54,0,0,0,5.07,0v-15.2A2.54,2.54,0,0,0,240.5,154.78Zm0,25.34a2.54,2.54,0,0,0-2.53,2.54v15.2a2.54,2.54,0,0,0,5.07,0v-15.2A2.54,2.54,0,0,0,240.5,180.12Zm-86.15-18.24a2.54,2.54,0,0,0-2.54,2.53v1a2.54,2.54,0,1,0,5.07,0v-1A2.53,2.53,0,0,0,154.35,161.88Zm0,25.34a2.54,2.54,0,0,0-2.54,2.53v1a2.54,2.54,0,1,0,5.07,0v-1A2.53,2.53,0,0,0,154.35,187.22Z"/></g></svg>