<svg id="Capa_1" data-name="Capa 1" xmlns="http://www.w3.org/2000/svg" viewBox="0 0 22 22"><defs><style>.cls-1{fill:#b2b2b2;}</style></defs><title>chcklist</title><rect class="cls-1" x="1.28" y="0.24" width="15.27" height="2.43"/><polyline class="cls-1" points="1.28 0.24 16.55 0.24 16.55 2.67"/><polygon class="cls-1" points="16.55 17.25 12.04 17.25 12.04 21.62 16.55 17.25"/><path class="cls-1" d="M11.9,21.76H1.28V2H16.55V17.25ZM2.91,8A2.57,2.57,0,1,0,5.48,5.41,2.57,2.57,0,0,0,2.91,8ZM5.4,18.15A2.57,2.57,0,1,0,2.92,15.5,2.57,2.57,0,0,0,5.4,18.15Zm9.52-2.64c0-.24-.21-.35-.45-.35H9.58c-.25,0-.45.11-.45.35h0c0,.24.2.35.45.35h4.89c.25,0,.46-.11.46-.35Zm0-7.62c0-.24-.2-.34-.44-.34H9.69c-.23,0-.44.1-.44.34h0c0,.24.21.34.44.34h4.79c.24,0,.45-.1.45-.34Z"/><path class="cls-1" d="M17.94,3.71V17.42c0,.76.63,1,1.39,1s1.39-.21,1.39-1V3.71Z"/><path class="cls-1" d="M19,3.71V17.42c0,.76.21,1,.52,1s.52-.21.52-1V3.71Z"/><path class="cls-1" d="M20.72,3.37V2c0-.76-.63-1-1.39-1s-1.39.21-1.39,1V3.37Z"/><path class="cls-1" d="M20.72,3.37V2c0-.76-.63-1-1.39-1"/><polygon class="cls-1" points="17.94 17.8 19.33 20.37 20.72 17.8 17.94 17.8"/><polygon class="cls-1" points="19.33 17.8 19.33 20.37 20.72 17.8 19.33 17.8"/><polygon class="cls-1" points="18.74 19.22 19.33 20.37 19.92 19.22 18.74 19.22"/></svg>