<svg id="Capa_1" data-name="Capa 1" xmlns="http://www.w3.org/2000/svg" viewBox="0 0 22 22"><defs><style>.cls-1{fill:#b2b2b2;}</style></defs><title>panel</title><path class="cls-1" d="M1.61,2.88H20.39v12.4H1.61Zm0,0v.65H20.39V2.88ZM5.59,4a3.1,3.1,0,0,0,0,6.2A3.13,3.13,0,0,0,8,9a3,3,0,0,0,.7-1.92A3.12,3.12,0,0,0,5.59,4ZM17.2,12.88h1V7.2h-1Zm-2,0h1V8.38h-1Zm-1.93,0h1V9.56h-1Zm-1.92,0h1V6.94h-1Zm-2,0h1V10.83h-1ZM8.12,14.41H19.51v-1H8.12Z"/><polygon class="cls-1" points="10.56 15.59 9.47 18.25 8.12 21.48 5.46 21.48 6.76 18.25 7.9 15.59 10.56 15.59"/><polygon class="cls-1" points="16.55 21.48 13.88 21.48 12.53 18.25 11.44 15.59 14.1 15.59 15.23 18.25 16.55 21.48"/><path class="cls-1" d="M1.7,2.88H20.3a1.18,1.18,0,0,0,0-2.36H1.7a1.18,1.18,0,0,0,0,2.36Z"/><path class="cls-1" d="M20.3,15.28H1.7a1.18,1.18,0,0,0,0,2.36H20.3a1.18,1.18,0,0,0,0-2.36Z"/></svg>