<svg id="Capa_1" data-name="Capa 1" xmlns="http://www.w3.org/2000/svg" viewBox="0 0 22 22"><defs><style>.cls-1{fill:#b2b2b2;}</style></defs><title>epp</title><path class="cls-1" d="M11,1A8.6,8.6,0,0,0,2.39,9.65v2H19.61v-2A8.6,8.6,0,0,0,11,1Z"/><path class="cls-1" d="M19.94,11.64H7a.33.33,0,0,1-.33-.33V9.65a11.81,11.81,0,0,1,.8-4.31.21.21,0,0,1,.4,0l.7,4a.66.66,0,0,0,.65.55h3.52a.66.66,0,0,0,.65-.55l1.31-7.55A8.6,8.6,0,0,0,11,1a8.49,8.49,0,0,0-3.56.77h0l-.16.08A8.6,8.6,0,0,0,2.39,9.65v2H2.06a.34.34,0,0,0-.34.33v.42a.33.33,0,0,0,.23.32A30.29,30.29,0,0,0,11,14a30.29,30.29,0,0,0,9.05-1.25.33.33,0,0,0,.23-.32V12A.34.34,0,0,0,19.94,11.64Z"/><path class="cls-1" d="M11.68,10H10.31a.67.67,0,0,1-.66-.64L9.37,1.06A.66.66,0,0,1,10,.37H12a.66.66,0,0,1,.66.69l-.28,8.28A.67.67,0,0,1,11.68,10Z"/><path class="cls-1" d="M20.05,12.07A41.69,41.69,0,0,1,11,13a41.69,41.69,0,0,1-9-.89.26.26,0,0,1-.21-.16.14.14,0,0,0,0,.06v.42a.33.33,0,0,0,.23.32A30.29,30.29,0,0,0,11,14a30.29,30.29,0,0,0,9.05-1.25.33.33,0,0,0,.23-.32V12a.14.14,0,0,0,0-.06A.26.26,0,0,1,20.05,12.07Z"/><path class="cls-1" d="M10.54,9.34l-.2-8.28c0-.37.2-.68.47-.68H10a.65.65,0,0,0-.66.68l.28,8.28a.67.67,0,0,0,.66.64H11C10.76,10,10.55,9.7,10.54,9.34Z"/><path class="cls-1" d="M20.52,19.87h-.77V16.39h.77a.53.53,0,0,1,.53.53v2.42A.53.53,0,0,1,20.52,19.87Z"/><path class="cls-1" d="M1.48,19.87h.77V16.39H1.48a.53.53,0,0,0-.53.53v2.42A.53.53,0,0,0,1.48,19.87Z"/><path class="cls-1" d="M3.82,14.63H18.18a1.74,1.74,0,0,1,1.75,1.74v3.51a1.75,1.75,0,0,1-1.75,1.75H14.12A2.3,2.3,0,0,1,11.93,20l-.28-.88a.7.7,0,0,0-.67-.49h0a.7.7,0,0,0-.67.5l-.25.84a2.32,2.32,0,0,1-2.21,1.64h-4a1.75,1.75,0,0,1-1.75-1.75V16.37A1.74,1.74,0,0,1,3.82,14.63Zm10.3,5.81h4.06a.56.56,0,0,0,.56-.56V16.37a.56.56,0,0,0-.56-.55H3.82a.56.56,0,0,0-.56.55v3.51a.56.56,0,0,0,.56.56h4a1.11,1.11,0,0,0,1.07-.79l.25-.84A1.88,1.88,0,0,1,11,17.46h0a1.93,1.93,0,0,1,1.78,1.35l.27.85a1.1,1.1,0,0,0,1.06.78Z"/></svg>