<svg id="Capa_1" data-name="Capa 1" xmlns="http://www.w3.org/2000/svg" viewBox="0 0 22 22"><defs><style>.cls-1{fill:#b2b2b2;}</style></defs><title>Nove</title><path class="cls-1" d="M20.9,10l-1.22.25V6.66l1.22.24a.73.73,0,0,1,.58.71V9.32A.73.73,0,0,1,20.9,10Z"/><path class="cls-1" d="M20.9,8.94l-1.22.25v1.09L20.9,10a.72.72,0,0,0,.58-.71V8.24A.71.71,0,0,1,20.9,8.94Z"/><path class="cls-1" d="M1.6,11H1.24a.72.72,0,0,1-.72-.72h0V6.66a.72.72,0,0,1,.72-.72H1.6Z"/><path class="cls-1" d="M9.91,4.49v8a15.43,15.43,0,0,1,9.4,3.62V.88A15.47,15.47,0,0,1,9.91,4.49Z"/><path class="cls-1" d="M20,16.42h-.36a.36.36,0,0,1-.36-.36V.88a.36.36,0,0,1,.36-.36H20a.36.36,0,0,1,.36.36V16.06a.36.36,0,0,1-.36.36Z"/><path class="cls-1" d="M10.43,20.76h0a.36.36,0,0,1-.36-.29l-1.6-8h-4l1.64,8.17a1.07,1.07,0,0,0,1.06.87h3.24a.36.36,0,0,0,0-.72Z"/><path class="cls-1" d="M9.19,12.44v.42a.36.36,0,0,1-.3.36l-5.78,1a.35.35,0,0,1-.42-.29s0,0,0-.07V12.44Z"/><path class="cls-1" d="M9.91,12.44H2.68A1.44,1.44,0,0,1,1.24,11V5.94A1.45,1.45,0,0,1,2.68,4.49H9.91v8Z"/><rect class="cls-1" x="9.19" y="4.49" width="0.72" height="7.95"/><path class="cls-1" d="M1.24,9.91h8v2.53H2.68A1.44,1.44,0,0,1,1.24,11Z"/><path class="cls-1" d="M9.91,12.44a15.43,15.43,0,0,1,9.4,3.62V11.72a27.66,27.66,0,0,0-9.4-1.81Z"/><path class="cls-1" d="M20,12.08h-.36a.36.36,0,0,1-.36-.36v4.34a.36.36,0,0,0,.36.36H20a.36.36,0,0,0,.36-.36V11.72a.36.36,0,0,1-.36.36Z"/></svg>