<svg id="Capa_1" data-name="Capa 1" xmlns="http://www.w3.org/2000/svg" viewBox="0 0 22 22"><defs><style>.cls-1{fill:#b2b2b2;}</style></defs><title>solic</title><path class="cls-1" d="M3.63,17.3a2.53,2.53,0,0,1-.15,3A2.42,2.42,0,0,1,1.64,21a9.38,9.38,0,0,0,4.92.2,8.54,8.54,0,0,0,2.36-.92,10,10,0,0,1-3-1.14A10.18,10.18,0,0,1,3.63,17.3Z"/><path class="cls-1" d="M21,10.53a10,10,0,1,1-10-10A10,10,0,0,1,21,10.53ZM12.46,8c0,.81-.34,1.14-1,1.7-1.13,1-1.56,1.21-1.56,2.34v1.28H12v-.89c0-.62,0-.65.64-1.19,1.13-1,1.92-1.72,1.92-3.24a3.56,3.56,0,0,0-3.69-3.47A4.06,4.06,0,0,0,7,7.38l1.77.81s.55-1.66,2-1.66A1.57,1.57,0,0,1,12.46,8ZM9.59,15.73A1.37,1.37,0,1,0,11,14.36,1.36,1.36,0,0,0,9.59,15.73Z"/></svg>