<?xml version="1.0" encoding="utf-8"?>
<!-- Generator: Adobe Illustrator 21.1.0, SVG Export Plug-In . SVG Version: 6.00 Build 0)  -->
<svg version="1.1" id="Capa_1" xmlns="http://www.w3.org/2000/svg" xmlns:xlink="http://www.w3.org/1999/xlink" x="0px" y="0px"
	 viewBox="0 0 22 22" style="enable-background:new 0 0 22 22;" xml:space="preserve">
<style type="text/css">
	.st0{fill:#5D5D5D;}
	.st1{fill:#B2B2B2;}
</style>
<g>
	<path class="st1" d="M7.6,3.8h6.8c0.2,0,0.4-0.2,0.4-0.4V2.2H13v-1c0-0.4-0.4-0.8-0.8-0.8H9.8C9.3,0.3,9,0.7,9,1.1v1H7.2v1.3
		C7.2,3.7,7.4,3.8,7.6,3.8L7.6,3.8z M7.6,3.8"/>
	<path class="st1" d="M15.6,2.2v1.3c0,0.7-0.5,1.2-1.2,1.2H7.6c-0.7,0-1.2-0.5-1.2-1.2V2.2H3v17.7c0,0.9,0.7,1.6,1.6,1.6h12.9
		c0.9,0,1.6-0.7,1.6-1.6V2.2H15.6z M17,19.4H5v-13H17V19.4z M17,19.4"/>
</g>
</svg>
