<svg id="Capa_1" data-name="Capa 1" xmlns="http://www.w3.org/2000/svg" viewBox="0 0 500 531"><defs><style>.cls-1{fill:#897c5e;}.cls-2{fill:#767da0;}.cls-3{fill:#4f536b;}.cls-4{fill:#fff025;}.cls-5{fill:#bfb41c;opacity:0.39;}.cls-6{fill:#9b9b9b;}.cls-7{fill:#828181;}.cls-8{fill:#747474;}</style></defs><title>apiladora_2</title><rect class="cls-1" x="157.61" y="308.59" width="184.97" height="32.52"/><rect class="cls-2" x="242.71" y="169.12" width="14.75" height="84.32"/><path class="cls-2" d="M316.25,302.58H183.92c13.56-26.87,38.86-43.5,66.16-43.5S302.69,275.71,316.25,302.58Z"/><circle class="cls-3" cx="250.08" cy="152.11" r="33.33"/><circle class="cls-3" cx="251.08" cy="259.08" r="20.84"/><circle class="cls-2" cx="251.08" cy="259.08" r="14.73"/><circle class="cls-2" cx="250.08" cy="152.11" r="19.5"/><rect class="cls-4" x="76.57" y="92.21" width="347.03" height="60"/><rect class="cls-5" x="250.08" y="92.21" width="173.51" height="60"/><rect class="cls-4" x="164.07" y="289.94" width="172.04" height="41.14"/><rect class="cls-5" x="250.08" y="289.94" width="86.02" height="41.14"/><path class="cls-6" d="M158.08,431a32.17,32.17,0,0,1,0-64.34h184a32.17,32.17,0,1,1,0,64.34Z"/><path class="cls-7" d="M342.08,369.45a29.34,29.34,0,0,1,29.34,29.33h0a29.34,29.34,0,0,1-29.34,29.33h-184a29.33,29.33,0,0,1-29.33-29.33h0a29.33,29.33,0,0,1,29.33-29.33h184m0-5.68h-184a35,35,0,0,0,0,70h184a35,35,0,0,0,0-70Z"/><circle class="cls-8" cx="250.08" cy="399.1" r="23.17"/><circle class="cls-8" cx="339.44" cy="398.78" r="22.85"/><circle class="cls-8" cx="161.31" cy="398.54" r="22.61"/></svg>