<svg id="Capa_1" data-name="Capa 1" xmlns="http://www.w3.org/2000/svg" viewBox="0 0 300 300"><defs><style>.cls-1{fill:#fff;}</style></defs><title>cross</title><path class="cls-1" d="M195.25,149.66,296.14,48.77a6.2,6.2,0,0,0,0-8.77L258.87,2.72a6.19,6.19,0,0,0-8.77,0L149.21,103.61,48.32,2.72a6.4,6.4,0,0,0-8.77,0L2.28,40a6.19,6.19,0,0,0,0,8.77L103.16,149.66,2.28,250.54a6.19,6.19,0,0,0,0,8.77l37.27,37.28a6.19,6.19,0,0,0,8.77,0L149.21,195.7,250.1,296.59a6.19,6.19,0,0,0,8.77,0l37.27-37.28a6.2,6.2,0,0,0,0-8.77Z"/></svg>