<svg width="300" height="185" xmlns="http://www.w3.org/2000/svg">

 <g>
  <title>background</title>
  <rect fill="none" id="canvas_background" height="187" width="302" y="-1" x="-1"/>
 </g>
 <g>
  <title>Layer 1</title>
  <path stroke="null" fill="#fcfcfc" id="X" d="m116.554527,162.209955c4.786009,-18.458565 17.947533,-34.939426 19.622636,-54.057225c-10.050618,-18.458565 -26.801649,-32.961723 -35.177164,-54.057225c1.196502,-7.910813 16.751031,-3.164325 21.178089,-2.10955c12.922224,4.746488 19.502986,19.908881 27.3999,30.984019c8.854116,-13.052842 12.443623,-43.377627 25.605147,-49.969972c5.982511,1.318469 25.126546,3.955407 20.340537,13.184689c-10.170269,18.458565 -19.502986,37.576364 -25.126546,58.012632c9.572017,17.140096 24.528295,30.324785 34.100312,48.78335c0.598251,9.229282 -16.152779,6.592345 -22.13529,5.273876c-9.572017,-7.910813 -15.793829,-19.777034 -25.126546,-27.687847c-8.495165,7.910813 -8.375515,36.917129 -19.144035,39.02668c-3.589507,0.527388 -20.340537,-6.724191 -21.656689,-7.383426"/>
  <path stroke="null" fill="#fcfcfc" id="svg_1" d="m6.062525,173.342053c6.173082,-20.620293 23.149058,-39.031269 25.309637,-60.388002c-12.963472,-20.620293 -34.56926,-36.821952 -45.372153,-60.388002c1.543271,-8.837269 21.605787,-3.534907 27.315888,-2.356605c16.667322,5.302361 25.155309,22.240459 35.340895,34.612635c11.420202,-14.581493 16.050013,-48.457689 33.025989,-55.82208c7.716353,1.472878 32.408681,4.418634 26.235599,14.728781c-13.117799,20.620293 -25.155309,41.977026 -32.408681,64.806636c12.346164,19.147415 31.637046,33.876196 43.98321,54.496489c0.771635,10.310147 -20.834152,7.36439 -28.550505,5.891512c-12.346164,-8.837269 -20.371171,-22.093171 -32.408681,-30.93044c-10.957221,8.837269 -10.802894,41.240587 -24.692328,43.597192c-4.629812,0.589151 -26.235599,-7.511678 -27.933196,-8.248117"/>
  <path stroke="null" fill="#fcfcfc" id="svg_2" d="m215.554526,159.613268c4.786008,-19.944752 17.947531,-37.752566 19.622634,-58.40963c-10.050618,-19.944752 -26.801647,-35.615628 -35.177161,-58.40963c1.196502,-8.547751 16.751029,-3.4191 21.178087,-2.2794c12.922223,5.12865 19.502984,21.511839 27.399898,33.47869c8.854115,-14.103789 12.443622,-46.870167 25.605145,-53.993292c5.98251,1.424625 25.126544,4.273875 20.340535,14.246251c-10.170268,19.944752 -19.502984,40.601816 -25.126544,62.683506c9.572017,18.520127 24.528293,32.766378 34.100309,52.71113c0.598251,9.972376 -16.152778,7.123126 -22.135289,5.698501c-9.572017,-8.547751 -15.793828,-21.369377 -25.126544,-29.917128c-8.495165,8.547751 -8.375515,39.889504 -19.144033,42.168904c-3.589506,0.56985 -20.340535,-7.265588 -21.656688,-7.977901"/>
 </g>
</svg>