<svg id="Capa_1" data-name="Capa 1" xmlns="http://www.w3.org/2000/svg" viewBox="0 0 500 531"><defs><style>.cls-1{fill:#6b6b6b;}.cls-2{fill:#5c5c5c;}.cls-3{fill:#675d47;}.cls-4{fill:#342f24;}.cls-4,.cls-5{opacity:0.35;}.cls-5{fill:#4d4635;}.cls-6{fill:#7a7a7a;}.cls-7{fill:#6874af;}.cls-8{fill:#4e5783;opacity:0.54;}</style></defs><title>desapiladora_2</title><rect class="cls-1" x="165.57" y="403.96" width="27.9" height="18.45"/><rect class="cls-1" x="236.08" y="403.96" width="27.9" height="18.45"/><rect class="cls-1" x="306.62" y="403.96" width="27.91" height="18.45"/><rect class="cls-2" x="153.37" y="392.86" width="193.33" height="12.69"/><rect class="cls-2" x="153.37" y="420.86" width="193.33" height="12.69"/><rect class="cls-3" x="157.56" y="278.57" width="184.97" height="32.52"/><rect class="cls-3" x="157.54" y="360.37" width="184.97" height="32.52"/><rect class="cls-4" x="157.54" y="360.37" width="61.94" height="32.52"/><rect class="cls-5" x="219.49" y="360.37" width="61.94" height="32.52"/><rect class="cls-3" x="281.43" y="360.37" width="61.94" height="32.52"/><rect class="cls-6" x="242.65" y="139.1" width="14.75" height="84.32"/><path class="cls-6" d="M316.2,272.56H183.86c13.56-26.87,38.86-43.5,66.17-43.5S302.64,245.69,316.2,272.56Z"/><circle class="cls-2" cx="250.03" cy="152.11" r="33.33"/><circle class="cls-2" cx="251.03" cy="229.06" r="20.84"/><circle class="cls-6" cx="251.03" cy="229.06" r="14.73"/><circle class="cls-6" cx="250.03" cy="152.11" r="19.5"/><rect class="cls-7" x="76.52" y="92.21" width="347.03" height="60"/><rect class="cls-8" x="250.03" y="92.21" width="173.51" height="60"/><rect class="cls-7" x="164.01" y="256.92" width="172.04" height="41.14"/><rect class="cls-8" x="250.03" y="256.92" width="86.02" height="41.14"/></svg>