<svg id="Capa_1" data-name="Capa 1" xmlns="http://www.w3.org/2000/svg" viewBox="0 0 500 531"><defs><style>.cls-1{fill:#9b9b9b;}.cls-2{fill:#6b5b36;}.cls-3{fill:none;stroke:#8f7948;stroke-miterlimit:10;stroke-width:4.06px;}.cls-4{fill:#8f7948;}.cls-5{fill:#3897ff;}.cls-6{fill:#8bc0ff;}.cls-7{fill:#2a71bf;opacity:0.22;}</style></defs><title>extrusora_2</title><rect class="cls-1" x="196.76" y="107.75" width="106.71" height="326.21"/><polygon class="cls-1" points="303.47 107.76 214.48 169.69 161.96 117.17 237.42 41.72 303.47 107.76"/><polygon class="cls-2" points="210.13 132.99 208.09 135.17 209.62 137.82 209.11 140.46 206.87 142.07 206.87 144.72 208.5 148.85 211.36 151.27 214.42 151.27 211.97 154.26 212.58 154.84 208.91 156.67 207.99 158.86 208.6 160.58 206.87 162.54 207.99 165.3 209.32 167.02 211.76 167.02 211.36 170.01 208.19 171.51 207.99 174.04 209.42 175.53 214.42 176.34 210.64 179.9 210.64 183.01 206.87 184.39 206.36 188.3 209.93 191.17 212.68 191.17 213.4 193.93 212.27 195.66 208.3 197.61 206.36 201.06 208.5 204.16 210.39 205.43 209.11 208.65 207.58 209.57 206.36 213.94 208.4 216.47 210.39 217.96 208.4 219.34 208.81 221.3 207.58 222.56 206.36 225.21 207.58 227.16 211.36 229.12 210.39 231.42 207.07 232.22 210.39 242.57 206.36 245.56 208.91 249.93 211.97 252.69 210.39 258.21 207.48 258.21 208.91 261.66 210.39 269.25 215.64 276.84 224.41 278.68 239.31 278.68 251.66 278.68 251.66 130.11 208.09 130.11 210.13 132.99"/><polygon class="cls-2" points="289.92 132.99 291.82 135.17 290.39 137.81 290.87 140.46 292.95 142.07 292.95 144.71 291.44 148.85 288.78 151.27 285.93 151.27 288.21 154.26 287.64 154.83 291.06 156.67 291.91 158.86 291.34 160.58 292.95 162.54 291.91 165.3 290.68 167.02 288.4 167.02 288.78 170.01 291.72 171.51 291.91 174.04 290.58 175.53 285.93 176.34 289.44 179.9 289.44 183 292.95 184.38 293.43 188.29 290.11 191.17 287.55 191.17 286.88 193.93 287.93 195.65 291.63 197.61 293.43 201.06 291.44 204.16 289.68 205.43 290.87 208.65 292.29 209.57 293.43 213.94 291.53 216.47 289.68 217.96 291.53 219.34 291.15 221.3 292.29 222.56 293.43 225.21 292.29 227.16 288.78 229.12 289.68 231.41 292.76 232.22 289.68 242.57 293.43 245.56 291.06 249.93 288.21 252.69 289.68 258.21 292.38 258.21 291.06 261.66 289.68 269.25 284.79 276.84 276.63 278.68 262.78 278.68 251.28 278.68 251.28 130.11 291.82 130.11 289.92 132.99"/><path class="cls-2" d="M253.48,133.42,199.15,80l-28.76,28.75,3.42.69.2,2.89,2.92.86,1.55,2.21-.34,2.61,1.9,1.87,4.05,1.86,3.63-.18,2-2,.51,3.73h.82L190,127l1,2.15,1.64.81.25,2.53,2.72,1.21,2.12.35,1.63-1.61,1.87,2.38-1,3.14,1.67,1.92,2,.12,3.9-2.72,0,5,2.23,2.2-1.53,3.45,2.46,3.1,4.44-.31,1.84-1.81,2.45,1.48.49,2-1.25,4,1.18,3.71"/><path class="cls-2" d="M255.19,135.11,199.15,80l28.92-28.92,1.11,3.72,2.92.21.88,2.87,2.23,1.54,2.65-.34,1.9,1.87,1.88,4-.18,3.59-2,2,3.78.5v.81L247,70.74l2.17.94L250,73.3l2.56.24,1.23,2.69.35,2.09-1.63,1.62,2.41,1.84,3.18-1L260,82.41l.12,2-2.76,3.86,5.07,0,2.23,2.2,3.5-1.51,3.14,2.43L271,95.8l-1.83,1.81,1.5,2.43,2,.48,4.05-1.24,3.77,1.17.79,3.6,3.42,4c.39,1.92.77,3.85,1.16,5.78l2.84.15,2.73,2.95-1.46,4.3,3.1,2.07.38,6.78"/><rect class="cls-2" x="206.79" y="292.45" width="86.64" height="141.5"/><line class="cls-3" x1="235.12" y1="308.59" x2="235.12" y2="422.99"/><line class="cls-3" x1="265.94" y1="308.59" x2="265.94" y2="422.99"/><polygon class="cls-4" points="269.97 200.84 272.88 197.23 271.43 194.17 268.83 196.01 269.97 200.84"/><polygon class="cls-4" points="219.34 69.26 216.56 73.56 219.34 76.32 223.14 76.32 223.14 72.79 219.34 69.26"/><polygon class="cls-4" points="218.42 119.97 214.88 116.6 212.6 119.97 212.6 124.57 215.51 124.57 218.42 119.97"/><polygon class="cls-4" points="205.85 104.75 203.07 109.04 205.85 111.8 209.65 111.8 209.65 108.27 205.85 104.75"/><polygon class="cls-4" points="237.36 199.86 241.34 203.85 243.62 201.86 243.62 193.5 237.36 199.86"/><polygon class="cls-4" points="264.16 137.44 260.62 134.06 258.34 137.44 258.34 142.04 261.25 142.04 264.16 137.44"/><polygon class="cls-4" points="280.24 198.68 283.08 202.66 285.36 200.67 286.12 194.69 280.24 198.68"/><polygon class="cls-4" points="245.08 129.81 240.61 130.46 240.97 134.8 243.65 138.05 245.71 135.56 245.08 129.81"/><polygon class="cls-4" points="279.57 132.74 276.79 137.03 279.57 139.79 283.37 139.79 283.37 136.26 279.57 132.74"/><polygon class="cls-4" points="231.25 200.56 227.36 200.56 227.36 195.64 229.3 193.11 232.1 195.64 232.1 200.56 231.25 200.56"/><polygon class="cls-4" points="227.88 106.67 225.1 110.97 227.88 113.73 231.68 113.73 231.68 110.2 227.88 106.67"/><path class="cls-4" d="M231.3,79.84s-5.25,2.92-4.3,3.53a44.28,44.28,0,0,0,4.68,2l6.33-2-2.28-3.53Z"/><path class="cls-4" d="M225.36,59.84s-5.25,2.92-4.3,3.53a44.28,44.28,0,0,0,4.68,2l6.33-2-2.28-3.53Z"/><polygon class="cls-4" points="229.47 69.26 232.44 72.79 234.97 71.03 233.45 67.88 229.47 69.26"/><polygon class="cls-4" points="239.08 78.88 244.21 83.25 247.24 80.49 245.72 76.97 239.08 78.88"/><polygon class="cls-4" points="207.76 82.61 207.76 85.06 212.86 85.06 215.02 81.54 209.33 80.16 207.76 82.61"/><polygon class="cls-4" points="250.12 193.73 246.52 199.94 248.79 203.62 251.71 201.78 250.12 193.73"/><polygon class="cls-4" points="218.34 101.45 223.47 105.82 226.5 103.06 224.99 99.53 218.34 101.45"/><polygon class="cls-4" points="212.78 110.73 212.78 113.18 217.88 113.18 220.05 109.65 214.36 108.27 212.78 110.73"/><polygon class="cls-4" points="219.85 85.36 216.56 90.19 218.2 92.95 225.1 92.95 219.85 85.36"/><polygon class="cls-4" points="262.9 196.16 260.88 196.16 260.88 202.34 263.79 204.97 264.93 198.07 262.9 196.16"/><polygon class="cls-4" points="231.68 91.34 228.39 94.79 230.03 97.55 234.97 98.47 231.68 91.34"/><path class="cls-4" d="M221,165.92s-5.26,2.92-4.31,3.53a44.24,44.24,0,0,0,4.69,2l6.32-2-2.28-3.53Z"/><polygon class="cls-4" points="221.35 177.42 218.06 180.87 219.71 183.63 224.65 184.55 221.35 177.42"/><polygon class="cls-4" points="236.68 91.34 243.16 87.43 243.16 89.39 241.42 94.91 238.01 93.87 236.68 92.95 236.68 91.34"/><polygon class="cls-4" points="246.85 93.87 246.85 89.16 250.91 89.16 253 91.51 250.91 94.91 246.85 94.91 246.85 93.87"/><polygon class="cls-4" points="199.05 114.41 193.93 110.04 190.89 112.8 192.41 116.32 199.05 114.41"/><polygon class="cls-4" points="216.23 133.93 216.23 131.48 211.13 131.48 208.97 135 214.66 136.38 216.23 133.93"/><polygon class="cls-4" points="217.29 98.29 210.8 102.2 210.8 100.24 212.54 94.72 215.96 95.76 217.29 96.68 217.29 98.29"/><polygon class="cls-4" points="207.83 118.22 207.83 122.94 203.76 122.94 201.67 120.58 203.76 117.19 207.83 117.19 207.83 118.22"/><polygon class="cls-4" points="276.62 127.64 279.4 123.35 276.62 120.59 272.82 120.59 272.82 124.11 276.62 127.64"/><path class="cls-4" d="M264.66,117.06s5.25-2.91,4.3-3.53a44.28,44.28,0,0,0-4.68-2l-6.33,2,2.28,3.53Z"/><polygon class="cls-4" points="266.49 127.64 263.51 124.11 260.99 125.88 262.51 129.02 266.49 127.64"/><polygon class="cls-4" points="272.25 134.66 268.09 134.72 267.33 138.13 270.24 139.06 272.25 134.66"/><polygon class="cls-4" points="248.08 118.67 242.96 114.3 239.92 117.06 241.44 120.59 248.08 118.67"/><polygon class="cls-4" points="255.35 126.57 255.35 124.11 250.25 124.11 248.08 127.64 253.78 129.02 255.35 126.57"/><polygon class="cls-4" points="276.11 111.54 279.4 106.71 277.75 103.95 270.86 103.95 276.11 111.54"/><polygon class="cls-4" points="264.28 105.56 267.57 102.11 265.92 99.35 260.99 98.43 264.28 105.56"/><polygon class="cls-4" points="259.28 105.56 252.8 109.47 252.8 107.52 254.53 102 257.95 103.03 259.28 103.95 259.28 105.56"/><polygon class="cls-4" points="249.11 103.03 249.11 107.75 245.04 107.75 242.96 105.39 245.04 102 249.11 102 249.11 103.03"/><polygon class="cls-4" points="262.02 190.19 265.56 193.56 267.84 190.19 267.84 185.59 264.93 185.59 262.02 190.19"/><path class="cls-4" d="M270.75,175.7s2.4,6.36,2.91,5.21,1.64-5.67,1.64-5.67l-1.64-7.67-2.91,2.76Z"/><polygon class="cls-4" points="262.02 177.92 264.93 174.31 263.47 171.25 260.88 173.09 262.02 177.92"/><polygon class="cls-4" points="269.42 155.61 273.03 149.4 270.75 145.72 267.84 147.56 269.42 155.61"/><polygon class="cls-4" points="262.9 164.42 264.93 164.42 264.93 158.24 262.02 155.61 260.88 162.51 262.9 164.42"/><polygon class="cls-4" points="275.3 189.57 279.29 193.56 281.57 191.57 281.57 183.21 275.3 189.57"/><polygon class="cls-4" points="280.24 175.24 283.08 179.22 285.36 177.23 286.12 171.25 280.24 175.24"/><polygon class="cls-4" points="280.24 169.18 277.01 161.33 278.63 161.33 283.18 163.43 282.33 167.57 281.57 169.18 280.24 169.18"/><polygon class="cls-4" points="282.33 156.86 278.44 156.86 278.44 151.93 280.38 149.4 283.18 151.93 283.18 156.86 282.33 156.86"/><polygon class="cls-4" points="255.48 148.64 251.94 145.26 249.66 148.64 249.66 153.24 252.57 153.24 255.48 148.64"/><path class="cls-4" d="M246.75,163.13s-2.4-6.37-2.91-5.22-1.64,5.68-1.64,5.68l1.64,7.66,2.91-2.76Z"/><path class="cls-4" d="M231.76,178.73s-2.4-6.36-2.91-5.21-1.65,5.67-1.65,5.67l1.65,7.67,2.91-2.76Z"/><polygon class="cls-4" points="255.48 160.9 252.57 164.51 254.03 167.57 256.62 165.73 255.48 160.9"/><polygon class="cls-4" points="248.08 183.21 244.47 189.42 246.75 193.1 249.66 191.26 248.08 183.21"/><polygon class="cls-4" points="254.6 174.41 252.57 174.41 252.57 180.59 255.48 183.21 256.62 176.31 254.6 174.41"/><polygon class="cls-4" points="222.12 188.7 220.1 188.7 220.1 194.88 223.01 197.5 224.15 190.6 222.12 188.7"/><polygon class="cls-4" points="256.04 186.28 254.01 186.28 254.01 192.46 256.92 195.08 258.06 188.18 256.04 186.28"/><polygon class="cls-4" points="242.2 149.25 238.21 145.26 235.93 147.26 235.93 155.61 242.2 149.25"/><polygon class="cls-4" points="237.26 163.59 234.41 159.6 232.14 161.59 231.38 167.57 237.26 163.59"/><polygon class="cls-4" points="237.26 169.64 240.49 177.5 238.88 177.5 234.32 175.39 235.17 171.25 235.93 169.64 237.26 169.64"/><polygon class="cls-4" points="235.17 181.96 239.06 181.96 239.06 186.89 237.12 189.42 234.32 186.89 234.32 181.96 235.17 181.96"/><path class="cls-4" d="M236,135.8s-2.4-6.36-2.91-5.21-1.64,5.67-1.64,5.67l1.64,7.67,2.91-2.76Z"/><path class="cls-4" d="M239,105.29s-2.4-6.37-2.91-5.22-1.65,5.68-1.65,5.68l1.65,7.66,2.91-2.76Z"/><polygon class="cls-4" points="231.44 121.93 227.45 117.94 225.18 119.94 225.18 128.29 231.44 121.93"/><polygon class="cls-4" points="226.5 136.26 223.66 132.28 221.38 134.27 220.62 140.25 226.5 136.26"/><polygon class="cls-4" points="226.5 142.32 229.73 150.18 228.12 150.18 223.56 148.07 224.42 143.93 225.18 142.32 226.5 142.32"/><polygon class="cls-4" points="224.42 154.64 228.31 154.64 228.31 159.57 226.36 162.1 223.56 159.57 223.56 154.64 224.42 154.64"/><polygon class="cls-4" points="178.88 104.21 178.88 109.85 181.9 110.05 187.81 104.14 178.88 104.21"/><polygon class="cls-4" points="192.5 97.56 191.7 102.4 194.72 102.6 199.49 98.91 192.5 97.56"/><polygon class="cls-4" points="196.79 93.28 200.06 85.45 201.2 86.59 202.93 91.3 199.4 93.62 197.73 94.22 196.79 93.28"/><polygon class="cls-4" points="205.69 97.93 202.94 95.18 206.42 91.69 209.59 91.28 209.78 95.05 206.29 98.53 205.69 97.93"/><polygon class="cls-5" points="250.11 212.83 127.58 213.43 195.07 285.84 250.11 285.84 250.11 212.83"/><polygon class="cls-5" points="239.06 212.84 372.64 213.43 305.15 285.85 239.06 285.85 239.06 212.84"/><polyline class="cls-6" points="307.6 285.84 192.59 285.84 192.59 312 307.6 312"/><polygon class="cls-7" points="250.11 212.83 372.64 213.43 305.15 285.84 250.11 285.84 250.11 212.83"/><polyline class="cls-7" points="250.08 285.84 307.6 285.84 307.6 312 250.08 312"/><polyline class="cls-6" points="372.64 184.57 127.55 184.57 127.55 216.54 372.64 216.54"/><polyline class="cls-7" points="250.08 184.57 372.61 184.57 372.61 216.54 250.08 216.54"/></svg>