<svg id="Capa_1" data-name="Capa 1" xmlns="http://www.w3.org/2000/svg" viewBox="0 0 320 320"><defs><style>.cls-1{fill:#3a3a3a;}.cls-2{fill:#4c4c4b;}.cls-3{fill:#806138;}.cls-4{fill:#aa814b;}.cls-5{fill:#a5a5a5;}.cls-6{fill:#7c7c7c;}.cls-7{fill:#735532;}.cls-8{fill:#f4da6c;}.cls-9{fill:#f0c65a;}.cls-10{fill:#faef87;}.cls-11{fill:#997142;}.cls-12{fill:#aacf57;}.cls-13{fill:#9cba4e;}.cls-14{fill:#5d3f23;}.cls-15{fill:#6a7887;}.cls-16{fill:#60a0d7;}.cls-17{fill:#556fd6;}.cls-18{fill:#f0d26a;}.cls-19{fill:#de5a64;}.cls-20{fill:#ba4c55;}.cls-21{fill:#ac434c;}.cls-22{fill:#aaa;}.cls-23{fill:#e8a037;}.cls-24{fill:#4e88fa;}.cls-25{fill:#4275c9;}.cls-26{fill:#dd8924;}.cls-27{fill:#57575c;}.cls-28{fill:#403f44;}.cls-29{fill:#5b4e3b;}.cls-30{fill:#524635;}.cls-31{fill:#655740;}.cls-32{fill:#aa987c;}.cls-33{fill:#79674c;}.cls-34{fill:#8b7758;}.cls-35{fill:#a9a8ae;}.cls-36{fill:#c3c3c7;}</style></defs><title>svgcatalogo</title><rect class="cls-1" x="150.23" y="-43.9" width="22.04" height="289.05" transform="translate(60.62 261.88) rotate(-90)"/><rect class="cls-1" x="150.23" y="84.57" width="22.04" height="289.05" transform="translate(-67.85 390.35) rotate(-90)"/><rect class="cls-2" x="4.76" y="20.65" width="22.04" height="289.05" rx="11.02" ry="11.02"/><rect class="cls-2" x="295.07" y="20.65" width="22.04" height="289.05" rx="11.02" ry="11.02"/><rect class="cls-3" x="41.04" y="168.42" width="64.15" height="54.77"/><rect class="cls-4" x="35.79" y="171.05" width="64.15" height="56.27"/><rect class="cls-5" x="84" y="171.05" width="9.19" height="12.57"/><rect class="cls-5" x="43.86" y="171.05" width="9.19" height="12.57"/><polygon class="cls-3" points="35.79 171.05 41.04 168.42 105.19 168.42 105.19 223.19 99.94 227.32 99.94 171.05 35.79 171.05"/><polygon class="cls-6" points="53.05 171.05 43.86 171.05 45.73 169.36 54.36 169.36 53.05 171.05"/><polygon class="cls-6" points="93.19 171.05 84 171.05 85.87 169.36 94.5 169.36 93.19 171.05"/><polygon class="cls-7" points="99.94 171.05 105.19 168.42 105.19 223.19 99.94 227.32 99.94 171.05"/><rect class="cls-3" x="41.21" y="13.34" width="91.39" height="78.03"/><rect class="cls-4" x="33.73" y="17.08" width="91.39" height="80.16"/><rect class="cls-5" x="102.4" y="17.08" width="13.09" height="14.85"/><rect class="cls-5" x="45.22" y="17.08" width="13.09" height="17.9"/><path class="cls-8" d="M79.46,36.23A29.28,29.28,0,0,0,50.19,65.5v6.76h58.55V65.5A29.28,29.28,0,0,0,79.46,36.23Z"/><path class="cls-9" d="M109.86,72.26H66a1.13,1.13,0,0,1-1.13-1.13V65.5a39.38,39.38,0,0,1,2.72-14.63.7.7,0,0,1,1.34.15l2.37,13.74a2.26,2.26,0,0,0,2.22,1.87h12a2.26,2.26,0,0,0,2.22-1.87l4.42-25.67a29.24,29.24,0,0,0-24.71-.24h0l-.54.27A29.24,29.24,0,0,0,50.19,65.5v6.76H49.07a1.13,1.13,0,0,0-1.13,1.12v1.44a1.12,1.12,0,0,0,.77,1.07c8,2.64,18.86,4.25,30.75,4.25s22.71-1.61,30.76-4.25a1.12,1.12,0,0,0,.77-1.07V73.38A1.13,1.13,0,0,0,109.86,72.26Z"/><path class="cls-10" d="M81.79,66.63H77.14a2.24,2.24,0,0,1-2.25-2.17l-1-28.15A2.25,2.25,0,0,1,76.17,34h6.59A2.25,2.25,0,0,1,85,36.31L84,64.46A2.24,2.24,0,0,1,81.79,66.63Z"/><path class="cls-8" d="M110.22,73.73a141,141,0,0,1-30.76,3,140.93,140.93,0,0,1-30.75-3,1,1,0,0,1-.72-.56.8.8,0,0,0-.05.21v1.44a1.12,1.12,0,0,0,.77,1.07c8,2.64,18.86,4.25,30.75,4.25s22.71-1.61,30.76-4.25a1.12,1.12,0,0,0,.77-1.07V73.38a.8.8,0,0,0,0-.21A1,1,0,0,1,110.22,73.73Z"/><path class="cls-8" d="M77.9,64.46l-.69-28.15c0-1.27.7-2.33,1.6-2.33H76.17a2.25,2.25,0,0,0-2.25,2.33l1,28.15a2.24,2.24,0,0,0,2.25,2.17H79.5C78.64,66.63,77.93,65.67,77.9,64.46Z"/><polygon class="cls-3" points="33.73 17.08 41.21 13.34 132.6 13.34 132.6 91.36 125.12 97.24 125.12 17.08 33.73 17.08"/><polygon class="cls-6" points="58.31 17.08 45.22 17.08 47.89 14.67 60.18 14.67 58.31 17.08"/><polygon class="cls-6" points="115.5 17.08 102.4 17.08 105.07 14.67 117.37 14.67 115.5 17.08"/><rect class="cls-3" x="111.42" y="144.96" width="91.21" height="78.03"/><rect class="cls-4" x="103.94" y="148.7" width="91.39" height="80.16"/><rect class="cls-5" x="163.16" y="148.7" width="13.09" height="17.9"/><rect class="cls-5" x="115.43" y="148.7" width="13.09" height="17.9"/><polygon class="cls-3" points="103.94 148.7 111.41 144.96 202.63 144.96 202.63 222.98 195.16 228.86 195.16 148.7 103.94 148.7"/><polygon class="cls-6" points="128.52 148.7 115.43 148.7 118.1 146.29 130.4 146.29 128.52 148.7"/><polygon class="cls-6" points="176.26 148.7 163.16 148.7 165.84 146.29 178.13 146.29 176.26 148.7"/><rect class="cls-3" x="227.21" y="35.54" width="64.15" height="54.77"/><rect class="cls-4" x="221.96" y="38.16" width="64.15" height="56.27"/><rect class="cls-5" x="270.17" y="38.16" width="9.19" height="12.57"/><rect class="cls-5" x="230.03" y="38.16" width="9.19" height="12.57"/><polygon class="cls-3" points="221.96 38.16 227.21 35.54 291.36 35.54 291.36 90.31 286.11 94.43 286.11 38.16 221.96 38.16"/><polygon class="cls-6" points="239.22 38.16 230.03 38.16 231.9 36.48 240.53 36.48 239.22 38.16"/><polygon class="cls-6" points="279.36 38.16 270.17 38.16 272.04 36.48 280.67 36.48 279.36 38.16"/><rect class="cls-3" x="137.77" y="21.91" width="82.99" height="70.86" transform="translate(358.53 114.68) rotate(-180)"/><rect class="cls-11" x="144.56" y="25.31" width="82.99" height="72.8" transform="translate(372.12 123.42) rotate(-180)"/><rect class="cls-5" x="144.32" y="48.12" width="11.89" height="11.89" transform="translate(96.2 204.33) rotate(-90)"/><rect class="cls-5" x="197.22" y="25.31" width="11.89" height="9.83" transform="translate(406.34 60.44) rotate(-180)"/><polygon class="cls-3" points="227.56 25.31 220.76 21.91 137.77 21.91 137.77 92.77 144.56 98.11 144.56 25.31 227.56 25.31"/><polygon class="cls-7" points="144.56 98.11 137.77 92.77 137.77 21.91 144.56 25.31 144.56 98.11"/><polygon class="cls-6" points="197.22 25.31 209.11 25.31 206.69 23.12 195.52 23.12 197.22 25.31"/><polygon class="cls-6" points="144.56 48.12 144.56 60.01 142.38 57.58 142.38 46.42 144.56 48.12"/><path class="cls-12" d="M207.21,55.76,201.11,65l-.07.11a26.38,26.38,0,0,0-4,18.45l.62,4.11.31,2.06.32,2.1H176.85l.13-2.1.14-2.06.5-7.48c0-.71.07-1.41.07-2.12a31.45,31.45,0,0,0-.24-3.88,4.92,4.92,0,0,0-2.15-3.51,6.43,6.43,0,0,1-2.08-2.31,18.65,18.65,0,0,0-6.52-7l-.4-.26a3.41,3.41,0,0,1-1-4.8l0-.07a3.42,3.42,0,0,1,5-.77c1.42,1.14,3.15,2.51,4.6,3.66a2,2,0,0,0,.39.23,1.62,1.62,0,0,0,2.22-1.68l0-.19-1.81-16.13a2.23,2.23,0,0,1,0-.36,3.19,3.19,0,0,1,2.57-3.13,4.07,4.07,0,0,1,3.88,3.33L183.78,52a.31.31,0,0,0,.62,0l.74-13.17a3.42,3.42,0,0,1,3.41-3.23h.14A3.43,3.43,0,0,1,192,39.15l-.67,12.2a.57.57,0,0,0,1.11.22l2.76-8a3.13,3.13,0,0,1,4.27-1.83,3.18,3.18,0,0,1,1.64,3.89l-3.44,10.5a.72.72,0,0,0,1.23.69l3.8-4.38a2.89,2.89,0,0,1,3.94-.42A2.84,2.84,0,0,1,207.21,55.76Z"/><path class="cls-13" d="M187.14,64.08c-3.08-3.63-9-3.24-11.85-4.75a1.62,1.62,0,0,0,2.22-1.68l0-.19c1.1.65,2.73,1.54,5,2.68C187.45,62.62,187.14,64.08,187.14,64.08Z"/><path class="cls-13" d="M198,89.71H177l.14-2.06h13.62V84.59a1,1,0,0,1,2.06,0v3.06h4.87Z"/><circle class="cls-13" cx="191.77" cy="81.87" r="1.03"/><rect class="cls-3" x="202.82" y="150.39" width="82.99" height="70.86" transform="translate(488.63 371.64) rotate(-180)"/><rect class="cls-11" x="209.61" y="153.79" width="82.99" height="72.8" transform="translate(502.22 380.38) rotate(-180)"/><rect class="cls-5" x="209.37" y="176.6" width="11.89" height="11.89" transform="translate(32.77 397.86) rotate(-90)"/><rect class="cls-5" x="262.27" y="153.79" width="11.89" height="9.83" transform="translate(536.44 317.4) rotate(-180)"/><polygon class="cls-3" points="292.61 153.79 285.81 150.39 202.82 150.39 202.82 221.25 209.61 226.59 209.61 153.79 292.61 153.79"/><polygon class="cls-14" points="209.61 226.59 202.82 221.25 202.82 150.39 209.61 153.79 209.61 226.59"/><polygon class="cls-6" points="262.27 153.79 274.16 153.79 271.74 151.6 260.57 151.6 262.27 153.79"/><polygon class="cls-6" points="209.61 176.6 209.61 188.49 207.43 186.06 207.43 174.9 209.61 176.6"/><path class="cls-15" d="M239.53,84a20.13,20.13,0,0,1-4.91-13.18c0-11.46,8.2-20.1,19.08-20.1a19.68,19.68,0,0,1,19.75,20,18.35,18.35,0,0,1-5.09,12.68l-1.93-1.7a15.87,15.87,0,0,0,4.45-11A17.14,17.14,0,0,0,253.7,53.33c-9.41,0-16.51,7.54-16.51,17.53a17.54,17.54,0,0,0,4.28,11.49Z"/><path class="cls-16" d="M243,69.51h0a4.5,4.5,0,0,1,4.5,4.49V84.59a4.51,4.51,0,0,1-4.5,4.5h0"/><path class="cls-17" d="M240.61,89.09h2.45V69.51h-2.12a.32.32,0,0,0-.33.32Z"/><path class="cls-18" d="M240.61,84.72h-2.39a.33.33,0,0,1-.33-.33V74.23a.32.32,0,0,1,.33-.33h2.4V84.72Z"/><path class="cls-16" d="M265.05,69.51h0a4.51,4.51,0,0,0-4.5,4.49V84.59a4.52,4.52,0,0,0,4.5,4.5h0"/><path class="cls-17" d="M267.06,89.09H265V69.51h2.11a.32.32,0,0,1,.33.32V88.76A.33.33,0,0,1,267.06,89.09Z"/><path class="cls-18" d="M267.39,84.72h2.4a.33.33,0,0,0,.33-.33V74.23a.33.33,0,0,0-.33-.33h-2.4Z"/><path class="cls-17" d="M271.49,59.64a20.41,20.41,0,0,0-34.92,0,.71.71,0,0,0,.28,1l3,1.64a.7.7,0,0,0,.95-.27,15.57,15.57,0,0,1,26.46,0,.71.71,0,0,0,1,.26l3-1.66A.71.71,0,0,0,271.49,59.64Z"/><path class="cls-19" d="M274.59,173.94a5,5,0,0,0-3.73-3.94l-5.43-1.32a11.8,11.8,0,0,0-2.84-.34h-20.5a11.78,11.78,0,0,0-2.83.34L233.82,170a5,5,0,0,0-3.72,3.94l-1.74,10.15a1.61,1.61,0,0,0,1.08,1.79l7.88,2.8v26a.82.82,0,0,0,.83.81h28.38a.83.83,0,0,0,.84-.81v-26l7.88-2.8a1.61,1.61,0,0,0,1.07-1.79Z"/><path class="cls-20" d="M263.19,168.36l-.6,0h-20.5l-.6,0a10.85,10.85,0,0,0,21.7,0Z"/><path class="cls-20" d="M235.6,175.62l-4.27-4.16a4.82,4.82,0,0,0-1.23,2.48l-1.74,10.15a1.61,1.61,0,0,0,1.08,1.79l7.88,2.8v-9A5.63,5.63,0,0,0,235.6,175.62Z"/><path class="cls-21" d="M260.69,168.34a8.35,8.35,0,0,1-16.7,0"/><path class="cls-19" d="M228.65,182.38l-.29,1.71a1.61,1.61,0,0,0,1.08,1.79l7.88,2.8v-3.26Z"/><path class="cls-21" d="M236.48,179.73a.82.82,0,0,0-.83.81v7.54l1.67.6v-8.14A.83.83,0,0,0,236.48,179.73Z"/><polygon class="cls-20" points="235.65 188.09 237.32 188.68 237.32 185.42 235.65 184.84 235.65 188.09"/><path class="cls-20" d="M269.08,175.62l4.27-4.16a4.76,4.76,0,0,1,1.24,2.48l1.73,10.15a1.61,1.61,0,0,1-1.07,1.79l-7.88,2.8v-9A5.62,5.62,0,0,1,269.08,175.62Z"/><path class="cls-19" d="M276,182.38l.29,1.71a1.61,1.61,0,0,1-1.07,1.79l-7.88,2.8v-3.26Z"/><path class="cls-21" d="M268.2,179.73a.83.83,0,0,1,.84.81v7.54l-1.67.6v-8.14A.82.82,0,0,1,268.2,179.73Z"/><polygon class="cls-20" points="269.04 188.09 267.37 188.68 267.37 185.42 269.04 184.84 269.04 188.09"/><path class="cls-20" d="M266.53,215.52H238.15a.82.82,0,0,1-.83-.81v-1.63h30.05v1.63A.83.83,0,0,1,266.53,215.52Z"/><path class="cls-19" d="M254,171.59h-3.34a.82.82,0,0,1-.83-.81h0a.82.82,0,0,1,.83-.81H254a.83.83,0,0,1,.84.81h0A.83.83,0,0,1,254,171.59Z"/><path class="cls-22" d="M183.78,199H181V186.5h2.76a1.88,1.88,0,0,1,1.89,1.89v8.68A1.89,1.89,0,0,1,183.78,199Z"/><path class="cls-22" d="M115.48,199h2.79V186.5h-2.79a1.89,1.89,0,0,0-1.89,1.89v8.68A1.89,1.89,0,0,0,115.48,199Z"/><path class="cls-23" d="M117.63,186.44V199a6.25,6.25,0,0,0,6.25,6.25h14.47a8.25,8.25,0,0,0,7.9-5.88l.9-3a2.52,2.52,0,0,1,2.41-1.79h0a2.52,2.52,0,0,1,2.4,1.75l1,3.16a8.25,8.25,0,0,0,7.86,5.76h14.57a6.25,6.25,0,0,0,6.25-6.25V186.44a6.25,6.25,0,0,0-6.25-6.25H123.88A6.25,6.25,0,0,0,117.63,186.44Z"/><path class="cls-24" d="M160.82,201a4,4,0,0,1-3.81-2.79l-1-3.06a6.83,6.83,0,0,0-6.37-4.82h-.11a6.73,6.73,0,0,0-6.48,4.82l-.9,3a4,4,0,0,1-3.83,2.85H123.88a2,2,0,0,1-2-2V186.44a2,2,0,0,1,2-2h51.51a2,2,0,0,1,2,2V199a2,2,0,0,1-2,2Z"/><path class="cls-25" d="M145,190.35h-.11a6.72,6.72,0,0,0-6.48,4.82l-.9,3a4,4,0,0,1-3.83,2.85h4.69a4,4,0,0,0,3.83-2.85l.9-3a6.73,6.73,0,0,1,4.12-4.4A6.63,6.63,0,0,0,145,190.35Z"/><path class="cls-25" d="M175.39,184.44H170.7a2,2,0,0,1,2,2V199a2,2,0,0,1-2,2h4.69a2,2,0,0,0,2-2V186.44A2,2,0,0,0,175.39,184.44Z"/><path class="cls-26" d="M175.39,180.19H170.7a6.24,6.24,0,0,1,6.24,6.25V199a6.24,6.24,0,0,1-6.24,6.25h4.69a6.25,6.25,0,0,0,6.25-6.25V186.44A6.25,6.25,0,0,0,175.39,180.19Z"/><polygon class="cls-7" points="125.12 17.08 132.6 13.34 132.6 91.36 125.12 97.24 125.12 17.08"/><polygon class="cls-7" points="286.11 38.16 291.36 35.54 291.36 90.31 286.11 94.43 286.11 38.16"/><polygon class="cls-7" points="195.15 148.7 202.63 144.96 202.63 222.98 195.15 228.86 195.15 148.7"/><path class="cls-27" d="M48.81,209.08l.62,1.73a3.88,3.88,0,0,0,3.65,2.56H59.7a7.51,7.51,0,0,0,3.16-.7l1.75-.82a2.59,2.59,0,0,1,2.54.2l.88.59a4.23,4.23,0,0,0,2.39.73H82.73c2.82,0,5.6-2.71,6.18-4.47l.62-1.89Z"/><path class="cls-28" d="M49.43,210.81a3.88,3.88,0,0,0,3.65,2.56H59.7a7.51,7.51,0,0,0,3.16-.7l1.65-.77c-1.25-1-2.67-2-2.76-2l-.22-1.42-12.72.64Z"/><path class="cls-29" d="M63.22,187.66a8.43,8.43,0,0,1,3.14-1.5,3.47,3.47,0,0,1,4.1,2.34c1,3.22,2.86,8.75,2.86,8.75Z"/><path class="cls-30" d="M66.37,186.16h0a8.43,8.43,0,0,0-3.14,1.5l10.1,9.59s-1.15-3.48-2.15-6.54Z"/><path class="cls-31" d="M66.4,189.89l-1-1.82a3.68,3.68,0,0,0-4-1.76L52.9,188.2A3.69,3.69,0,0,0,50,191.57l-.52,8.68Z"/><path class="cls-29" d="M66.4,189.89l-1-1.82a3.72,3.72,0,0,0-1-1.14h0c-6.13,2.76-9,4.11-9,4.11s-.08-3.36,0-3.38h0l-2.41.54A3.69,3.69,0,0,0,50,191.57l-.52,8.68Z"/><path class="cls-32" d="M68.31,189.91l4,4.48a19.87,19.87,0,0,0,11.11,6.35l3.64.71a4.08,4.08,0,0,1,3.27,4.48s0,1.74-2.61,3.38c0,0-6.16,4.06-17.42,1.58l-3.55-.69a20,20,0,0,0-6.86-.14l-3.93.76a8.93,8.93,0,0,1-6.61-1.33,3.18,3.18,0,0,1-1.39-2.37S49,199.87,49,198c0-1.69,2.41-.71,3.92-1.76L57,192.82a10,10,0,0,1,2.41-1.49l5.18-2.26A3.29,3.29,0,0,1,68.31,189.91Z"/><path class="cls-33" d="M64.48,195.39l-15.57,3.86c-.24,2.77-1,7.87-1,7.87a3.18,3.18,0,0,0,1.39,2.37,8.93,8.93,0,0,0,6.61,1.33l3.93-.76a20,20,0,0,1,6.86.14l3.55.69a29.93,29.93,0,0,0,11.2.49c1.69-3.37,3.24-6.46,3.24-6.49C72.56,204.49,64.48,195.39,64.48,195.39Z"/><path class="cls-31" d="M69,203.19a37.5,37.5,0,0,1-3.59-2.54.64.64,0,0,1-.1-.91.65.65,0,0,1,.91-.11,34.48,34.48,0,0,0,3.46,2.46.64.64,0,0,1,.21.89A.6.6,0,0,1,69,203.19Z"/><path class="cls-31" d="M71.39,204.56l-.77-.42a.65.65,0,0,1-.26-.88.65.65,0,0,1,.89-.25c.24.13.49.27.74.39a.67.67,0,0,1,.28.88A.59.59,0,0,1,71.39,204.56Z"/><path class="cls-31" d="M56.2,204.93s.6-4.1,1-7.75l-8.33,2.07c-.24,2.77-1,7.87-1,7.87a3.18,3.18,0,0,0,1.39,2.37,8.93,8.93,0,0,0,6.61,1.33l3.93-.76c.63-.1,1.27-.16,1.91-.2a12.25,12.25,0,0,1-3.63-1.64A4.38,4.38,0,0,1,56.2,204.93Z"/><path class="cls-34" d="M68.29,209.2l.24,1.36,1.72.33c11.26,2.48,17.42-1.58,17.42-1.58,2.64-1.64,2.61-3.38,2.61-3.38A4.08,4.08,0,0,0,87,201.45l-3.64-.71C80.07,206.47,68.29,209.2,68.29,209.2Z"/><path class="cls-34" d="M64.54,189.07l-5.18,2.26A10.27,10.27,0,0,0,57,192.81L52.9,196.2c-1.51,1.05-3.93.07-3.92,1.76,0,.47-.06,1.25-.16,2.17l2,.84a1,1,0,0,1,0,1.83l-2.51,1.07c-.24,1.79-.46,3.25-.46,3.25a3.18,3.18,0,0,0,1.39,2.37,8.92,8.92,0,0,0,3.12,1.3c3.13-7.38,11-11.7,10.9-11.68,5.86-3.06,5.79-8.29,5.79-8.29l-.8-.91A3.29,3.29,0,0,0,64.54,189.07Z"/><path class="cls-35" d="M87.67,209.31c2.64-1.64,2.61-3.38,2.61-3.38a4.18,4.18,0,0,0-.36-2.23h0c-2.73,4.85-16.6,6.84-16.6,6.84l.26.92C82.72,212.58,87.67,209.31,87.67,209.31Z"/><path class="cls-36" d="M66.57,207.58a10,10,0,0,0-8,0l-1,.46a9.92,9.92,0,0,1-5.1.79l-4-.44h-.06a3,3,0,0,0,1,1.08,8.93,8.93,0,0,0,6.61,1.33l3.93-.76a20,20,0,0,1,6.86.14l3.55.69a33.45,33.45,0,0,0,5.62.77Z"/><path class="cls-35" d="M58.12,208.22l-.37-.28-.24.11a9.92,9.92,0,0,1-5.1.79l-4-.44h-.06a3,3,0,0,0,1,1.08,8.93,8.93,0,0,0,6.61,1.33l3.93-.76c.63-.1,1.27-.16,1.91-.2A12.25,12.25,0,0,1,58.12,208.22Z"/><path class="cls-28" d="M72.46,190.59a1.39,1.39,0,0,0-2,0l-1.81,1.79a1.39,1.39,0,0,0,2,2l1.8-1.8A1.39,1.39,0,0,0,72.46,190.59Z"/><path class="cls-28" d="M75.64,193.83a1.39,1.39,0,0,0-2,.11l-1.7,1.9A1.38,1.38,0,0,0,74,197.69l1.7-1.9A1.4,1.4,0,0,0,75.64,193.83Z"/><path class="cls-28" d="M79.38,196.41a1.39,1.39,0,0,0-1.93.33L76,198.82a1.38,1.38,0,1,0,2.26,1.6l1.47-2.08A1.39,1.39,0,0,0,79.38,196.41Z"/><path class="cls-28" d="M83.28,198.69a1.38,1.38,0,0,0-1.88.52l-1.26,2.22a1.39,1.39,0,0,0,2.41,1.37l1.26-2.22A1.39,1.39,0,0,0,83.28,198.69Z"/></svg>