<svg id="Capa_1" data-name="Capa 1" xmlns="http://www.w3.org/2000/svg" viewBox="0 0 500 330"><defs><style>.cls-1{fill:#fff;}.cls-2{fill:#eaeaea;}.cls-3{fill:#04af76;}.cls-4{fill:#008c61;}.cls-5{fill:#32ba7c;}.cls-6{fill:#0aa06e;}.cls-7{fill:#c9c9c9;}.cls-8{fill:#e2a750;}.cls-9{fill:#f9d264;}.cls-10{fill:#c61867;}.cls-11{fill:#9e085a;}.cls-12{fill:#eadca2;}.cls-13{fill:#d1c593;}.cls-14{fill:#44390a;}</style></defs><title>icono checklist</title><polygon class="cls-1" points="326.39 251.65 326.39 41.59 116.32 41.59 116.32 313.72 262.41 313.72 326.39 251.65"/><polyline class="cls-2" points="326.39 251.65 326.39 41.59 116.32 41.59"/><rect class="cls-3" x="116.32" y="17.72" width="210.06" height="33.42"/><polyline class="cls-4" points="116.32 17.72 326.39 17.72 326.39 51.13"/><circle class="cls-5" cx="174.09" cy="124.18" r="35.33"/><path class="cls-6" d="M165,139.94l18.14,18.14c15.28-3.82,26.26-17.67,26.26-34.38v-1l-13.85-13.37Z"/><path class="cls-1" d="M175.05,132.3a4.36,4.36,0,0,1,0,5.73l-3.35,3.34a4.36,4.36,0,0,1-5.73,0l-14.32-14.32a4.36,4.36,0,0,1,0-5.73L155,118a4.36,4.36,0,0,1,5.73,0Z"/><path class="cls-1" d="M187.46,107.47a4.36,4.36,0,0,1,5.73,0l3.34,3.34a4.36,4.36,0,0,1,0,5.73L171.7,141.37a4.36,4.36,0,0,1-5.73,0L162.63,138a4.36,4.36,0,0,1,0-5.73Z"/><circle class="cls-5" cx="174.09" cy="228.74" r="35.33" transform="translate(-60.31 395.12) rotate(-88.09)"/><path class="cls-6" d="M165,244.49l18.14,18.14c15.28-3.82,26.26-17.66,26.26-34.37v-1l-13.85-13.36Z"/><path class="cls-1" d="M175.05,236.37a4.36,4.36,0,0,1,0,5.73l-3.35,3.35a4.36,4.36,0,0,1-5.73,0l-14.32-14.33a4.36,4.36,0,0,1,0-5.73l3.34-3.34a4.36,4.36,0,0,1,5.73,0Z"/><path class="cls-1" d="M187.46,211.55a4.36,4.36,0,0,1,5.73,0l3.34,3.34a4.36,4.36,0,0,1,0,5.73L171.7,245.45a4.36,4.36,0,0,1-5.73,0l-3.34-3.35a4.36,4.36,0,0,1,0-5.73Z"/><polygon class="cls-7" points="326.39 251.65 264.32 251.65 264.32 311.81 326.39 251.65"/><path class="cls-8" d="M304,227.78c0,3.34-2.87,4.77-6.21,4.77H230.43c-3.35,0-6.21-1.43-6.21-4.77h0c0-3.34,2.86-4.77,6.21-4.77h67.31c3.34,0,6.21,1.43,6.21,4.77Z"/><path class="cls-8" d="M304,122.75c0,3.34-2.87,4.77-6.21,4.77H230.43c-3.35,0-6.21-1.43-6.21-4.77h0c0-3.34,2.86-4.78,6.21-4.78h67.31c3.34,0,6.21,1.44,6.21,4.78Z"/><path class="cls-8" d="M345.48,65.46V254c0,10.5,8.6,13.37,19.1,13.37s19.1-2.87,19.1-13.37V65.46Z"/><path class="cls-9" d="M359.81,65.46V254c0,10.5,2.86,13.37,7.16,13.37s7.16-2.87,7.16-13.37V65.46Z"/><path class="cls-10" d="M383.68,60.68V42.06c0-10.5-8.6-13.36-19.1-13.36s-19.1,2.86-19.1,13.36V60.68Z"/><path class="cls-11" d="M383.68,60.68V42.06c0-10.5-8.6-13.36-19.1-13.36"/><polygon class="cls-12" points="345.48 259.29 364.58 294.62 383.68 259.29 345.48 259.29"/><polygon class="cls-13" points="364.58 259.29 364.58 294.62 383.68 259.29 364.58 259.29"/><polygon class="cls-14" points="356.46 278.87 364.58 294.62 372.7 278.87 356.46 278.87"/></svg>