<svg id="Layer_1" data-name="Layer 1" xmlns="http://www.w3.org/2000/svg" viewBox="0 0 500 300"><defs><style>.cls-1{fill:#f2f2f2;}.cls-2{fill:#e4eaef;}.cls-3{fill:#40596b;}.cls-4{fill:#ffd15c;}.cls-5{fill:#acb3ba;}.cls-6{fill:#4cdbc4;}.cls-7{fill:#84dbff;}.cls-8{fill:#ffd05c;}.cls-9{fill:#f2705b;}.cls-10{fill:#3dc9ae;}.cls-11{fill:#f8b64c;}.cls-12{fill:#ff7058;}</style></defs><title>icono.pane.control</title><rect class="cls-1" x="117.08" y="35.01" width="265.84" height="175.58"/><path class="cls-2" d="M382.92,35v9.27H117.08V35Z"/><path class="cls-3" d="M217.23,94.36a42,42,0,0,1-9.89,27.2c-8,9.89-20.4,16.69-34,16.69a43.9,43.9,0,1,1,43.89-43.89Z"/><path class="cls-4" d="M217.23,94.36H173.34V50.46A44.07,44.07,0,0,1,217.23,94.36Z"/><path class="cls-5" d="M217.23,94.36a42,42,0,0,1-9.89,27.2l-34-27.2Z"/><rect class="cls-6" x="337.79" y="96.21" width="14.22" height="80.37"/><rect class="cls-7" x="309.97" y="112.91" width="14.22" height="64.3"/><rect class="cls-8" x="282.77" y="129.6" width="14.22" height="46.99"/><rect class="cls-9" x="255.56" y="92.5" width="14.22" height="84.08"/><rect class="cls-7" x="227.74" y="147.53" width="14.22" height="29.06"/><rect class="cls-10" x="209.2" y="184" width="161.36" height="14.22"/><polygon class="cls-4" points="243.82 214.91 228.36 252.63 209.2 298.38 171.48 298.38 190.03 252.63 206.1 214.91 243.82 214.91"/><polygon class="cls-4" points="328.52 298.38 290.8 298.38 271.64 252.63 256.18 214.91 293.89 214.91 309.97 252.63 328.52 298.38"/><polygon class="cls-11" points="206.1 214.91 243.82 214.91 228.36 252.63 190.03 252.63 206.1 214.91"/><polygon class="cls-11" points="309.97 252.63 271.64 252.63 256.18 214.91 293.89 214.91 309.97 252.63"/><path class="cls-12" d="M118.32,35H381.68a16.7,16.7,0,1,0,0-33.39H118.32a16.7,16.7,0,1,0,0,33.39Z"/><path class="cls-12" d="M381.68,210.59H118.32a16.69,16.69,0,1,0,0,33.38H381.68a16.69,16.69,0,1,0,0-33.38Z"/></svg>