<svg id="Capa_1" data-name="Capa 1" xmlns="http://www.w3.org/2000/svg" viewBox="0 0 120 120"><defs><style>.cls-1{fill:#bc8e50;}.cls-2{fill:#963;}.cls-3{fill:#d9b166;}.cls-4{fill:#ffe473;}.cls-5{fill:#ffd34e;}.cls-6{fill:#4c3623;}</style></defs><title>box</title><path class="cls-1" d="M94.77,49.1V85.61H25.06V49.1a1.66,1.66,0,0,1,1.66-1.66H42.49V17.57a1.66,1.66,0,0,1,1.66-1.66H55a1.57,1.57,0,0,1,1.58,1.66h6.64v0a1.58,1.58,0,0,1,1.58-1.62H75.68a1.66,1.66,0,0,1,1.66,1.66V47.44H93.11A1.66,1.66,0,0,1,94.77,49.1Z"/><path class="cls-2" d="M77.34,17.57V49.1h-5V15.91h3.32A1.66,1.66,0,0,1,77.34,17.57ZM54.93,80.63h6.64V47.44H54.93V80.63Z"/><path class="cls-3" d="M94.77,49.1V84H59.91V47.44h33.2A1.66,1.66,0,0,1,94.77,49.1Z"/><path class="cls-1" d="M94.77,82.29h-5V47.44h3.32a1.66,1.66,0,0,1,1.66,1.66Z"/><path class="cls-4" d="M98.09,82.29v5a3.32,3.32,0,0,1-3.32,3.32H25.06a3.32,3.32,0,0,1-3.32-3.32v-5A3.32,3.32,0,0,1,25.06,79H94.77A3.32,3.32,0,0,1,98.09,82.29Z"/><path class="cls-5" d="M54.93,15.91h10v10l-10-3.32V15.91ZM37.51,54.08l10,3.32v-10h-10Zm34.85-6.64v6.64l10,3.32v-10Z"/><path class="cls-6" d="M72.77,42.46a1.24,1.24,0,0,1-1.24,1.25h-5a1.25,1.25,0,0,1,0-2.49h5A1.23,1.23,0,0,1,72.77,42.46ZM54.1,72.75h-5a1.25,1.25,0,0,0,0,2.49h5a1.25,1.25,0,1,0,0-2.49Zm34.86,0H84a1.25,1.25,0,1,0,0,2.49h5a1.25,1.25,0,0,0,0-2.49Z"/><path class="cls-3" d="M98.09,85.61v1.66a3.32,3.32,0,0,1-3.32,3.32H25.06a3.32,3.32,0,0,1-3.32-3.32V85.61Z"/><path class="cls-2" d="M43.32,87.27v3.32a1.66,1.66,0,0,1-1.66,1.66h-10A1.66,1.66,0,0,1,30,90.59V87.27a1.66,1.66,0,0,1,1.66-1.66h10A1.67,1.67,0,0,1,43.32,87.27Zm44.81-1.66h-10a1.66,1.66,0,0,0-1.66,1.66v3.32a1.66,1.66,0,0,0,1.66,1.66h10a1.66,1.66,0,0,0,1.66-1.66V87.27A1.67,1.67,0,0,0,88.13,85.61Z"/><path class="cls-1" d="M89.79,87.27v1.28H76.51V87.27a1.66,1.66,0,0,1,1.66-1.66h10A1.67,1.67,0,0,1,89.79,87.27ZM41.66,85.61h-10A1.66,1.66,0,0,0,30,87.27v1.28H43.32V87.27A1.67,1.67,0,0,0,41.66,85.61Z"/></svg>