<svg id="Capa_1" data-name="Capa 1" xmlns="http://www.w3.org/2000/svg" viewBox="0 0 120 120"><defs><style>.cls-1{fill:#d1d4d1;}.cls-2{fill:#556080;}.cls-3{fill:#d8625e;}.cls-4{fill:#f0c419;}.cls-5{fill:#8697cb;}.cls-6{fill:#fb7b76;}</style></defs><title>cart</title><rect class="cls-1" x="30.17" y="44.87" width="63.16" height="31.58"/><path class="cls-2" d="M94.64,77.76H28.85V43.55H94.64ZM31.49,75.13H92V46.18H31.49Z"/><path class="cls-2" d="M30.17,34.34H23.59a1.32,1.32,0,1,1,0-2.63h6.58a1.32,1.32,0,1,1,0,2.63Z"/><path class="cls-2" d="M30.17,46.18a1.31,1.31,0,0,1-1.32-1.31V33a1.32,1.32,0,1,1,2.64,0V44.87A1.31,1.31,0,0,1,30.17,46.18Z"/><path class="cls-2" d="M30.17,87a1.31,1.31,0,0,1-1.32-1.31V76.45a1.32,1.32,0,0,1,2.64,0v9.21A1.31,1.31,0,0,1,30.17,87Z"/><circle class="cls-2" cx="43.33" cy="92.24" r="5.26"/><circle class="cls-2" cx="74.91" cy="92.24" r="5.26"/><path class="cls-2" d="M86.75,87H30.17a1.32,1.32,0,1,1,0-2.63H86.75a1.32,1.32,0,0,1,0,2.63Z"/><path class="cls-2" d="M93.33,56.71H30.17a1.32,1.32,0,1,1,0-2.63H93.33a1.32,1.32,0,0,1,0,2.63Z"/><path class="cls-2" d="M93.33,67.24H30.17a1.32,1.32,0,1,1,0-2.63H93.33a1.32,1.32,0,0,1,0,2.63Z"/><path class="cls-2" d="M40.7,77.76a1.31,1.31,0,0,1-1.32-1.31V44.87a1.32,1.32,0,1,1,2.63,0V76.45A1.31,1.31,0,0,1,40.7,77.76Z"/><path class="cls-2" d="M51.22,77.76a1.31,1.31,0,0,1-1.31-1.31V44.87a1.32,1.32,0,1,1,2.63,0V76.45A1.31,1.31,0,0,1,51.22,77.76Z"/><path class="cls-2" d="M61.75,77.76a1.31,1.31,0,0,1-1.32-1.31V44.87a1.32,1.32,0,1,1,2.63,0V76.45A1.31,1.31,0,0,1,61.75,77.76Z"/><path class="cls-2" d="M72.27,77.76A1.31,1.31,0,0,1,71,76.45V44.87a1.32,1.32,0,1,1,2.63,0V76.45A1.31,1.31,0,0,1,72.27,77.76Z"/><path class="cls-2" d="M82.8,77.76a1.3,1.3,0,0,1-1.31-1.31V44.87a1.32,1.32,0,1,1,2.63,0V76.45A1.31,1.31,0,0,1,82.8,77.76Z"/><circle class="cls-3" cx="22.27" cy="33.03" r="3.95"/><rect class="cls-4" x="36.75" y="33.03" width="18.42" height="10.53"/><rect class="cls-5" x="55.17" y="22.5" width="21.05" height="21.05"/><rect class="cls-6" x="76.22" y="26.45" width="13.16" height="17.11"/></svg>