<svg id="Capa_1" data-name="Capa 1" xmlns="http://www.w3.org/2000/svg" viewBox="0 0 120 120"><defs><style>.cls-1{fill:#fff;}.cls-2{fill:#eaeaea;}.cls-3{fill:#04af76;}.cls-4{fill:#008c61;}.cls-5{fill:#32ba7c;}.cls-6{fill:#0aa06e;}.cls-7{fill:#c9c9c9;}.cls-8{fill:#e2a750;}.cls-9{fill:#f9d264;}.cls-10{fill:#c61867;}.cls-11{fill:#9e085a;}.cls-12{fill:#eadca2;}.cls-13{fill:#d1c593;}.cls-14{fill:#44390a;}</style></defs><title>checkctrl</title><polygon class="cls-1" points="79.62 82.07 79.62 28.12 25.67 28.12 25.67 98.01 63.19 98.01 79.62 82.07"/><polyline class="cls-2" points="79.62 82.07 79.62 28.12 25.67 28.12"/><rect class="cls-3" x="25.67" y="21.99" width="53.94" height="8.58"/><polyline class="cls-4" points="25.67 21.99 79.62 21.99 79.62 30.57"/><circle class="cls-5" cx="40.51" cy="49.33" r="9.07"/><path class="cls-6" d="M38.17,53.38,42.83,58a9,9,0,0,0,6.74-8.83V49L46,45.52Z"/><path class="cls-1" d="M40.75,51.42a1.11,1.11,0,0,1,0,1.47l-.86.86a1.14,1.14,0,0,1-1.47,0l-3.68-3.68a1.14,1.14,0,0,1,0-1.47l.86-.85a1.13,1.13,0,0,1,1.48,0Z"/><path class="cls-1" d="M43.94,45a1.11,1.11,0,0,1,1.47,0l.86.86a1.11,1.11,0,0,1,0,1.47l-6.38,6.38a1.14,1.14,0,0,1-1.47,0l-.86-.87a1.14,1.14,0,0,1,0-1.47Z"/><circle class="cls-5" cx="40.51" cy="76.19" r="9.07"/><path class="cls-6" d="M38.17,80.23l4.66,4.66a9,9,0,0,0,6.74-8.83V75.8L46,72.37Z"/><path class="cls-1" d="M40.75,78.14a1.11,1.11,0,0,1,0,1.47l-.86.86a1.11,1.11,0,0,1-1.47,0l-3.68-3.68a1.14,1.14,0,0,1,0-1.47l.86-.85a1.11,1.11,0,0,1,1.47,0Z"/><path class="cls-1" d="M43.94,71.77a1.11,1.11,0,0,1,1.47,0l.86.86a1.11,1.11,0,0,1,0,1.47l-6.38,6.37a1.11,1.11,0,0,1-1.47,0l-.86-.86a1.14,1.14,0,0,1,0-1.47Z"/><polygon class="cls-7" points="79.62 82.07 63.68 82.07 63.68 97.52 79.62 82.07"/><path class="cls-8" d="M73.87,75.94c0,.85-.74,1.22-1.6,1.22H55c-.86,0-1.59-.37-1.59-1.22h0c0-.86.73-1.23,1.59-1.23H72.26c.86,0,1.59.37,1.59,1.23Z"/><path class="cls-8" d="M73.87,49c0,.85-.74,1.22-1.6,1.22H55c-.86,0-1.59-.37-1.59-1.22h0c0-.86.73-1.23,1.59-1.23H72.26c.86,0,1.59.37,1.59,1.23Z"/><path class="cls-8" d="M84.52,34.25V82.67c0,2.7,2.21,3.43,4.9,3.43s4.91-.73,4.91-3.43V34.25Z"/><path class="cls-9" d="M88.2,34.25V82.67c0,2.7.73,3.43,1.84,3.43s1.84-.73,1.84-3.43V34.25Z"/><path class="cls-10" d="M94.33,33V28.24c0-2.69-2.21-3.43-4.91-3.43s-4.9.74-4.9,3.43V33Z"/><path class="cls-11" d="M94.33,33V28.24c0-2.69-2.21-3.43-4.91-3.43"/><polygon class="cls-12" points="84.52 84.03 89.42 93.1 94.33 84.03 84.52 84.03"/><polygon class="cls-13" points="89.42 84.03 89.42 93.1 94.33 84.03 89.42 84.03"/><polygon class="cls-14" points="87.34 89.06 89.42 93.1 91.51 89.06 87.34 89.06"/></svg>