<svg id="Layer_1" data-name="Layer 1" xmlns="http://www.w3.org/2000/svg" viewBox="0 0 500 300"><defs><style>.cls-1{fill:#d4deed;}.cls-2{fill:#c4cfe3;}.cls-3{fill:#660a30;}.cls-4{fill:#929cb4;}.cls-5{fill:#d64380;}.cls-6{fill:#990f48;}.cls-7{fill:#6f7588;}</style></defs><title>eventos5x3</title><path class="cls-1" d="M391.74,136.11l-17.53,3.53V87.87l17.53,3.51a10.35,10.35,0,0,1,8.33,10.15V126A10.36,10.36,0,0,1,391.74,136.11Z"/><path class="cls-2" d="M391.74,120.58l-17.53,3.51v15.55l17.53-3.51A10.34,10.34,0,0,0,400.07,126V110.43A10.35,10.35,0,0,1,391.74,120.58Z"/><path class="cls-3" d="M115.51,150h-5.13A10.35,10.35,0,0,1,100,139.68V87.87a10.36,10.36,0,0,1,10.35-10.35h5.13Z"/><path class="cls-1" d="M234.5,56.83V170.66c36.22,0,93.14,15.51,134.52,51.73V5.12C327.64,41.3,270.72,56.83,234.5,56.83Z"/><path class="cls-4" d="M379.37,227.57h-5.13a5.13,5.13,0,0,1-5.12-5.13V5.12A5.12,5.12,0,0,1,374.24,0h5.13a5.12,5.12,0,0,1,5.12,5.12V222.39a5.13,5.13,0,0,1-5.07,5.18Z"/><path class="cls-5" d="M241.85,289.66h0a5.12,5.12,0,0,1-5.12-4.16l-23-114.84H156.89l23.38,116.86A15.5,15.5,0,0,0,195.49,300h46.36a5.17,5.17,0,1,0,0-10.34Z"/><path class="cls-3" d="M224.16,170.66v6a5.12,5.12,0,0,1-4.33,5.12L137,195.52a5.12,5.12,0,0,1-5.94-4.14,5.4,5.4,0,0,1-.08-1V170.66Z"/><path class="cls-5" d="M234.5,170.66H131A20.71,20.71,0,0,1,110.33,150V77.52A20.69,20.69,0,0,1,131,56.83H234.5V170.66Z"/><rect class="cls-4" x="224.16" y="56.83" width="10.35" height="113.83"/><path class="cls-6" d="M110.33,134.44H224.16v36.22H131A20.71,20.71,0,0,1,110.33,150Z"/><path class="cls-2" d="M234.5,170.66c36.22,0,93.14,15.51,134.52,51.73V160.31c-41.4-17.25-98.32-25.87-134.52-25.87Z"/><path class="cls-7" d="M379.37,165.48h-5.13a5.12,5.12,0,0,1-5.12-5.12v62.08a5.13,5.13,0,0,0,5.12,5.13h5.13a5.13,5.13,0,0,0,5.12-5.13V160.31a5.12,5.12,0,0,1-5.07,5.17Z"/></svg>