<svg id="Capa_1" data-name="Capa 1" xmlns="http://www.w3.org/2000/svg" viewBox="0 0 120 120"><defs><style>.cls-1{fill:#566e7f;}.cls-2{fill:#f5b445;}.cls-3{fill:#ffcf68;}.cls-4{fill:#35495c;}.cls-5{fill:#3f556b;}.cls-6{fill:#f09820;}</style></defs><title>hairdryer</title><path class="cls-1" d="M23.79,27H22.15a2.46,2.46,0,0,0-2.46,2.46v32a2.46,2.46,0,0,0,2.46,2.46h1.64a2.44,2.44,0,0,0,1.47-.5l9.18-6.88V34.37l-9.18-6.89A2.5,2.5,0,0,0,23.79,27Z"/><path class="cls-1" d="M61.86,79.68,63.59,70a2.47,2.47,0,0,0-2,1.83l-1.23,4.92a2.5,2.5,0,0,0,.45,2.11A2.56,2.56,0,0,0,61.86,79.68Z"/><path class="cls-1" d="M61.17,83.56a2.45,2.45,0,0,0-2.08,1.83l-1.23,4.92a2.5,2.5,0,0,0,.45,2.11,2.44,2.44,0,0,0,1.14.79Z"/><path class="cls-2" d="M78,22.26a23.35,23.35,0,0,0-16.7,4.28A41.19,41.19,0,0,1,37,34.37H34.44V56.49H37A43.44,43.44,0,0,1,61.7,64.63,23.36,23.36,0,1,0,78,22.26Z"/><path class="cls-3" d="M75,71.24a23.19,23.19,0,0,1-11.12-2.83l-4.82,27a2.45,2.45,0,0,0,2.42,2.89H75a2.46,2.46,0,0,0,2.42-2l4.66-26.11A23.31,23.31,0,0,1,75,71.24Z"/><path class="cls-2" d="M82.55,67.53c-.53.18-1.08.34-1.63.48l-.81.19a23.15,23.15,0,0,1-15.83-2l-.4,2.24A23.19,23.19,0,0,0,75,71.24l1,0a2.45,2.45,0,0,1,2.5,2.88L75,93.8a2.46,2.46,0,0,1-2.42,2H59a2.43,2.43,0,0,0,2.45,2.46H75a2.46,2.46,0,0,0,2.42-2l4.66-26.11h0Z"/><path class="cls-4" d="M61.54,46.66A14.43,14.43,0,0,0,62,49.12H88a14.43,14.43,0,0,0,.46-2.46Z"/><path class="cls-4" d="M62,41.74a14.25,14.25,0,0,0-.46,2.46H88.46A14.25,14.25,0,0,0,88,41.74Z"/><path class="cls-4" d="M63,51.57A13.49,13.49,0,0,0,64.57,54H85.43A13.49,13.49,0,0,0,87,51.57Z"/><path class="cls-4" d="M67.24,56.49a13.47,13.47,0,0,0,15.52,0Z"/><path class="cls-4" d="M82.76,34.37a13.47,13.47,0,0,0-15.52,0Z"/><path class="cls-4" d="M64.57,36.83A13.76,13.76,0,0,0,63,39.28H87a13.76,13.76,0,0,0-1.6-2.45Z"/><path class="cls-5" d="M32,35.6V47.89a6.2,6.2,0,0,1-2.47,4.94L25.26,56a2.5,2.5,0,0,1-1.47.49h0a4.09,4.09,0,0,0-4.1,4.09v.81a2.46,2.46,0,0,0,2.46,2.46h1.64a2.44,2.44,0,0,0,1.47-.5l9.18-6.88V34.37h0A1.54,1.54,0,0,0,32,35.6Z"/><path class="cls-6" d="M92.1,29.54a1.77,1.77,0,0,0-2.84,2.08A23.17,23.17,0,0,1,92.21,43a24,24,0,0,1-.31,3.82A20.41,20.41,0,0,1,62.78,61.57a9,9,0,0,1-1.08-.63A43.44,43.44,0,0,0,37,52.8H34.44v3.69H37A43.44,43.44,0,0,1,61.7,64.63c.91.63,2.89,1.69,2.91,1.69a23.15,23.15,0,0,0,11.64,2.43,23.54,23.54,0,0,0,22.1-23.54A23.22,23.22,0,0,0,92.1,29.54Z"/></svg>