<svg id="Capa_1" data-name="Capa 1" xmlns="http://www.w3.org/2000/svg" viewBox="0 0 500 303.86"><defs><style>.cls-1{fill:#fff;}.cls-2{fill:#bfbfbf;}.cls-3{fill:#e56f0e;}.cls-4{fill:#3570a5;}</style></defs><title>HistEPPsup</title><path class="cls-1" d="M252,80.87a58.91,58.91,0,0,0-58.9,58.91v13.6H311v-13.6A58.91,58.91,0,0,0,252,80.87Z"/><path class="cls-2" d="M313.22,153.38H224.86a2.27,2.27,0,0,1-2.27-2.27V139.78a79.53,79.53,0,0,1,5.47-29.45,1.42,1.42,0,0,1,2.71.31l4.77,27.65a4.53,4.53,0,0,0,4.46,3.76h24.09a4.53,4.53,0,0,0,4.46-3.76l8.91-51.66a58.86,58.86,0,0,0-49.74-.49h0l-1.08.54a58.88,58.88,0,0,0-33.5,53.11v13.6h-2.27a2.27,2.27,0,0,0-2.27,2.26v2.89a2.26,2.26,0,0,0,1.55,2.16c16.2,5.3,38,8.55,61.89,8.55s45.7-3.25,61.9-8.55a2.26,2.26,0,0,0,1.55-2.16v-2.89A2.27,2.27,0,0,0,313.22,153.38Z"/><path class="cls-1" d="M256.73,142.05h-9.37a4.54,4.54,0,0,1-4.53-4.38l-2-56.64a4.53,4.53,0,0,1,4.53-4.69h13.27A4.53,4.53,0,0,1,263.21,81l-1.95,56.64A4.54,4.54,0,0,1,256.73,142.05Z"/><path class="cls-1" d="M313.94,156.34c-16.2,3.78-38,6.1-61.9,6.1s-45.69-2.32-61.89-6.1a2,2,0,0,1-1.46-1.14,2.29,2.29,0,0,0-.09.44v2.89a2.26,2.26,0,0,0,1.55,2.16c16.2,5.3,38,8.55,61.89,8.55s45.7-3.25,61.9-8.55a2.26,2.26,0,0,0,1.55-2.16v-2.89a2.29,2.29,0,0,0-.09-.44A2,2,0,0,1,313.94,156.34Z"/><path class="cls-1" d="M248.9,137.67,247.52,81c-.07-2.56,1.39-4.69,3.21-4.69h-5.32A4.53,4.53,0,0,0,240.88,81l2,56.64a4.54,4.54,0,0,0,4.53,4.38h4.76C250.38,142.05,249,140.11,248.9,137.67Z"/><path class="cls-2" d="M317.19,210.34h-5.28V186.56h5.28a3.61,3.61,0,0,1,3.6,3.61v16.56A3.61,3.61,0,0,1,317.19,210.34Z"/><path class="cls-2" d="M186.9,210.34h5.31V186.56H186.9a3.61,3.61,0,0,0-3.6,3.61v16.56A3.61,3.61,0,0,0,186.9,210.34Z"/><path class="cls-1" d="M202.91,174.53h98.26a11.92,11.92,0,0,1,11.92,11.92v24a11.92,11.92,0,0,1-11.92,11.92H273.38a15.73,15.73,0,0,1-15-11l-1.91-6A4.8,4.8,0,0,0,251.9,202h0a4.8,4.8,0,0,0-4.6,3.42l-1.72,5.73a15.72,15.72,0,0,1-15.06,11.21h-27.6A11.92,11.92,0,0,1,191,210.45v-24A11.92,11.92,0,0,1,202.91,174.53Zm70.47,39.74h27.79a3.82,3.82,0,0,0,3.82-3.82v-24a3.83,3.83,0,0,0-3.82-3.82H202.92a3.83,3.83,0,0,0-3.82,3.82v24a3.82,3.82,0,0,0,3.82,3.82h27.6a7.59,7.59,0,0,0,7.31-5.44l1.72-5.73a12.82,12.82,0,0,1,12.35-9.19h.22a13,13,0,0,1,12.14,9.19l1.85,5.84a7.6,7.6,0,0,0,7.27,5.33Z"/><path class="cls-3" d="M99.64,151.81h18.75c0,73.38,59.7,133.09,133.08,133.09s133.08-59.71,133.08-133.09S324.86,18.74,251.47,18.74A133,133,0,0,0,179.55,40l16.32,16.33-72,18.77,18.77-72L166,26.44A152,152,0,0,1,251.46,0c83.7,0,151.82,68.1,151.82,151.81S335.16,303.64,251.46,303.65,99.64,235.53,99.64,151.81Z"/><rect class="cls-4" x="248.23" y="34.13" width="9.37" height="18.79"/><rect class="cls-4" x="248.23" y="247.02" width="9.37" height="18.79"/><rect class="cls-4" x="349.95" y="145.28" width="18.79" height="9.37"/><rect class="cls-4" x="137.08" y="145.28" width="18.78" height="9.37"/></svg>