<svg id="Capa_1" data-name="Capa 1" xmlns="http://www.w3.org/2000/svg" viewBox="0 0 120 120"><defs><style>.cls-1{fill:#efeff0;}.cls-2{fill:#dfdee0;}.cls-3{fill:#ceced1;}.cls-4{fill:#aeadb3;}.cls-5{fill:#ffe981;}.cls-6{fill:#ffc266;}.cls-7{fill:#265d77;}.cls-8{fill:#132f3b;}.cls-9{fill:#ff4f19;}.cls-10{fill:#dc3910;}.cls-11{fill:#e3a342;}</style></defs><title>oven</title><rect class="cls-1" x="20.64" y="21.61" width="78.73" height="76.78"/><rect class="cls-2" x="59.91" y="21.61" width="39.45" height="76.78"/><rect class="cls-3" x="20.64" y="37.04" width="78.73" height="53.15"/><rect class="cls-4" x="59.91" y="37.04" width="39.45" height="53.15"/><rect class="cls-5" x="35.4" y="50.16" width="49.21" height="27.88"/><rect class="cls-6" x="60" y="50.16" width="24.6" height="27.88"/><rect class="cls-7" x="38.01" y="27.2" width="4.61" height="4.61"/><rect class="cls-7" x="51.13" y="27.2" width="4.61" height="4.61"/><rect class="cls-8" x="64.25" y="27.2" width="4.61" height="4.61"/><rect class="cls-8" x="77.38" y="27.2" width="4.61" height="4.61"/><path class="cls-9" d="M77.44,68.83C75.78,61.34,68.59,55.69,60,55.69S44.22,61.34,42.56,68.83Z"/><path class="cls-10" d="M60,68.83H77.44C75.78,61.34,68.59,55.69,60,55.69h0Z"/><polygon class="cls-6" points="40.78 66.62 43.53 80.35 76.47 80.35 79.22 66.62 40.78 66.62"/><polygon class="cls-11" points="60 66.62 60 80.35 76.47 80.35 79.22 66.62 60 66.62"/><path class="cls-7" d="M86.91,80.35H33.09V47.85H86.91ZM37.7,75.74H82.3V52.47H37.7Z"/><polygon class="cls-8" points="60 47.85 60 52.47 82.3 52.47 82.3 75.74 60 75.74 60 80.35 86.91 80.35 86.91 47.85 60 47.85"/></svg>