<svg id="Capa_1" data-name="Capa 1" xmlns="http://www.w3.org/2000/svg" viewBox="0 0 120 120"><defs><style>.cls-1{fill:#e8b882;}.cls-2{fill:#fff;}.cls-3{fill:#a2a2a2;}.cls-4{fill:#3e4973;}.cls-5{fill:#5d699c;}.cls-6{fill:#7781bb;}</style></defs><title>personalctrl</title><path class="cls-1" d="M40,49.17v6.88c0,12.11,9.22,24.77,20.64,24.77S81.25,68.16,81.25,56.05V49.17Z"/><path class="cls-2" d="M66.12,24.4V23a2.76,2.76,0,0,0-2.75-2.75H57.86A2.76,2.76,0,0,0,55.11,23V24.4c-10.32,2.48-17.89,11-17.89,22v2.75H84V46.42c0-11-7.57-19.54-17.89-22"/><path class="cls-3" d="M66.12,31.28a1.3,1.3,0,0,1-1.38-1.38V25.78a1.38,1.38,0,1,1,2.75,0V29.9a1.3,1.3,0,0,1-1.37,1.38"/><path class="cls-3" d="M55.11,31.28a1.3,1.3,0,0,1-1.38-1.38V25.78a1.38,1.38,0,0,1,2.76,0V29.9a1.31,1.31,0,0,1-1.38,1.38"/><path class="cls-3" d="M86.76,50.55H34.47a1.38,1.38,0,0,1,0-2.76H86.76a1.38,1.38,0,0,1,0,2.76"/><path class="cls-4" d="M66.12,93.2h-11l5.5-12.38Z"/><path class="cls-4" d="M53.73,100.08l1.38-6.88h11l1.37,6.88Z"/><path class="cls-5" d="M45.89,72.7l-.41-.14L44.1,78.07l11,15.13,5.5-12.38c-5.78,0-11-3.3-14.72-8.12"/><path class="cls-5" d="M75.34,72.7c-3.72,4.82-9,8.12-14.73,8.12L66.12,93.2l11-15.13-1.38-5.51Z"/><path class="cls-6" d="M97.22,88.66c-7.57-4-14.86-7-21.47-7.84h-.69L66.12,93.2l1.37,6.88h33V94.17a6.17,6.17,0,0,0-3.3-5.51"/><path class="cls-6" d="M46.16,80.82h-.68c-6.61.83-13.9,3.85-21.47,7.84a6.17,6.17,0,0,0-3.3,5.51v5.91h33l1.38-6.88Z"/><path class="cls-3" d="M40.52,34.72,51,36.79l-2.06-10a23.47,23.47,0,0,0-8.4,8"/><path class="cls-3" d="M80.7,34.72,70.25,36.79l2.06-10a23.36,23.36,0,0,1,8.39,8"/></svg>