<svg id="Capa_1" data-name="Capa 1" xmlns="http://www.w3.org/2000/svg" viewBox="0 0 120 120"><defs><style>.cls-1{fill:#e55639;}.cls-2{fill:#cf4529;}.cls-3{fill:#e6eeff;}.cls-4{fill:#dae2f2;}.cls-5{fill:#5c5f66;}.cls-6{fill:#ff6b4d;}.cls-7{fill:#53565c;}</style></defs><title>sales</title><path class="cls-1" d="M96.4,55.07l-4.58-4.58c5.18-7,3.21-15.42-1.9-20.73s-13.36-7.5-20.76-1.93l-4.55-4.21a6.74,6.74,0,0,0-9.54,0L23.6,55.07a6.74,6.74,0,0,0,0,9.54l5.25,5.56a15.18,15.18,0,0,0,4,16.63c4.39,4.19,10.88,6,16.63,4l5.56,5.57a6.76,6.76,0,0,0,9.54,0L96.4,64.61A6.74,6.74,0,0,0,96.4,55.07ZM83.68,45.53h0a6.72,6.72,0,0,1-9.53,0h0a6.72,6.72,0,0,1,0-9.53h0a6.72,6.72,0,0,1,9.53,0h0A6.72,6.72,0,0,1,83.68,45.53Z"/><path class="cls-2" d="M96.4,55.07l-4.58-4.58c5.18-7,3.21-15.42-1.9-20.73L83.68,36h0a6.72,6.72,0,0,1,0,9.53h0a6.72,6.72,0,0,1-9.53,0h0L32.88,86.8c4.39,4.19,10.88,6,16.63,4l5.56,5.57a6.76,6.76,0,0,0,9.54,0L96.4,64.61A6.74,6.74,0,0,0,96.4,55.07Z"/><path class="cls-3" d="M69.63,65.24l-17.1,1.91L41,68.42a.36.36,0,0,1-.25,0A2.23,2.23,0,0,1,40.51,64l17.11-1.91,11.5-1.27a2.24,2.24,0,0,1,.51,4.45Z"/><path class="cls-3" d="M48.72,58.25h0a6.74,6.74,0,0,1,0-9.54h0a6.74,6.74,0,0,1,9.53,0h0a6.74,6.74,0,0,1,0,9.54h0A6.74,6.74,0,0,1,48.72,58.25Z"/><path class="cls-4" d="M51.89,80.5h0a6.74,6.74,0,0,1,0-9.53h0a6.74,6.74,0,0,1,9.54,0h0a6.72,6.72,0,0,1,0,9.53h0A6.74,6.74,0,0,1,51.89,80.5Z"/><path class="cls-5" d="M80.51,39.17h0a2.23,2.23,0,0,1,0-3.17l13.7-13.71a2.25,2.25,0,0,1,3.18,0h0a2.25,2.25,0,0,1,0,3.18L83.68,39.17A2.23,2.23,0,0,1,80.51,39.17Z"/><path class="cls-6" d="M55.07,39.17,51.89,36a2.26,2.26,0,0,1,0-3.18h0a2.25,2.25,0,0,1,3.18,0L58.25,36a2.23,2.23,0,0,1,0,3.17h0A2.25,2.25,0,0,1,55.07,39.17Z"/><path class="cls-6" d="M64.61,48.71l-3.18-3.18a2.25,2.25,0,0,1,0-3.18h0a2.26,2.26,0,0,1,3.18,0l3.18,3.18a2.25,2.25,0,0,1,0,3.18h0A2.25,2.25,0,0,1,64.61,48.71Z"/><path class="cls-1" d="M74.15,58.25,71,55.07a2.25,2.25,0,0,1,0-3.18h0a2.25,2.25,0,0,1,3.18,0l3.18,3.18a2.26,2.26,0,0,1,0,3.18h0A2.25,2.25,0,0,1,74.15,58.25Z"/><path class="cls-1" d="M83.68,67.79l-3.17-3.18a2.25,2.25,0,0,1,0-3.18h0a2.23,2.23,0,0,1,3.17,0l3.18,3.18a2.25,2.25,0,0,1,0,3.18h0A2.26,2.26,0,0,1,83.68,67.79Z"/><path class="cls-4" d="M69.63,65.24l-17.1,1.91,5.09-5.09,11.5-1.27a2.24,2.24,0,0,1,.51,4.45Z"/><path class="cls-7" d="M83.68,39.17l13.71-13.7a2.25,2.25,0,0,0,0-3.18L80.51,39.17A2.23,2.23,0,0,0,83.68,39.17Z"/></svg>