<?xml version="1.0" encoding="utf-8"?>
<!-- Generator: Adobe Illustrator 21.1.0, SVG Export Plug-In . SVG Version: 6.00 Build 0)  -->
<svg version="1.1" id="Capa_1" xmlns="http://www.w3.org/2000/svg" xmlns:xlink="http://www.w3.org/1999/xlink" x="0px" y="0px"
	 viewBox="0 0 350 350" style="enable-background:new 0 0 350 350;" xml:space="preserve">
<style type="text/css">
	.st0{fill:#EA473B;}
	.st1{fill:#F95450;}
	.st2{fill:#F7AC16;}
	.st3{fill:#F4BD25;}
	.st4{fill:#D22227;}
	.st5{fill:#7A8D9D;}
	.st6{fill:#C7D3D8;}
	.st7{fill:#9EAEB7;}
	.st8{fill:#AFBFC6;}
	.st9{fill:#354E5A;}
	.st10{fill:#57646E;}
	.st11{fill:#8C9EAA;}
	.st12{fill:#FFFFFF;}
	.st13{fill:#EF432B;}
</style>
<g>
	<path class="st0" d="M49.1,108.2l47.7,78.7c1.3,2.1,4.1,2.8,6.2,1.5l49-29.8c2.1-1.3,2.8-4.1,1.5-6.2l-10.4-17.2l-29.4,17.9
		c-2.1,1.3-4.9,0.6-6.2-1.5L70.2,90.1L50.6,102C48.4,103.3,47.8,106.1,49.1,108.2z"/>
	<path class="st1" d="M49.1,108.2l44.9,74c12.6-8.5,22.6-20.4,28.6-34.5l-8.8,5.3c-2.1,1.3-4.9,0.6-6.2-1.5L77.2,85.8L50.6,102
		C48.4,103.3,47.8,106.1,49.1,108.2z"/>
	<path class="st2" d="M70.9,65.8c-0.6-2.4,1-4.9,3.4-5.4l55.9-12.8c2.4-0.6,4.9,1,5.4,3.4l20.5,89.7c0.6,2.4-1,4.9-3.4,5.4
		l-55.9,12.8c-2.4,0.6-4.9-1-5.4-3.4L70.9,65.8z"/>
	<path class="st3" d="M107.2,52.8l-32.8,7.5c-2.4,0.6-4,3-3.4,5.4l20.5,89.7c0.6,2.4,3,4,5.4,3.4l9.8-2.2c8-9,14.1-19.9,17.3-32.3
		C130.9,98.2,123.7,71.7,107.2,52.8z"/>
</g>
<g>
	<path class="st4" d="M268.7,148.7c-4.5-10.2-13.7-18.4-26.6-23.7c-2.3-0.9-4.9,0.2-5.9,2.4c-0.9,2.3,0.2,4.9,2.4,5.9
		c10.9,4.5,18.2,10.9,21.8,19c3.9,8.8,2.3,17.3,0.4,23c-3,8.7-9.3,16.6-17,21.6c-8.2,5.3-17.3,6.8-25.7,4.4c-24-7-54.3-0.9-75.4,15
		c-15.4,11.6-24.3,27.5-25.4,45c2.8,2.4,5.8,4.7,8.9,6.8c0-0.9-0.1-1.8-0.1-2.8c-0.1-20.7,11.9-34.2,22-41.8
		c18.7-14.1,46.5-19.7,67.5-13.6c1.1,0.3,2.1,0.6,3.2,0.8c10,2,20.4-0.2,29.8-6.2c8.8-5.6,16.9-15.6,20.7-26.2
		C273,167.9,272.7,157.7,268.7,148.7z"/>
	<path class="st5" d="M246.2,139c0.4-9.1-7.8-16.8-18.3-17.3c-10.5-0.5-19.4,6.4-19.8,15.5c-0.4,9.1,7.8,16.8,18.3,17.3
		C236.9,155,245.7,148.1,246.2,139z M214,137.5c0.3-6.2,6.4-11,13.6-10.6c7.2,0.3,12.8,5.6,12.5,11.8c-0.3,6.2-6.4,11-13.6,10.6
		C219.4,149,213.8,143.7,214,137.5z"/>
	<path class="st6" d="M243.5,148.1l-120.7,12.6l-27.1-23l89.4-21.6c8.9-2.1,18.2,0,25.3,5.7L243.5,148.1z"/>
	<g>
		<path id="SVGCleanerId_0_1_" class="st7" d="M249.2,171c3.3-21.4-13.2-36.3-36.5-30.9c-0.6,0.1-1.2,0.3-1.7,0.4l-88.2,20.2
			l-3.7,15.5l52.3,5c1.5,0.1,2.6,1.4,2.6,2.9c0,0.7,0,1.3,0,2c0.9,17.5,16.2,27.9,34.9,24.5C228.1,207.3,246.2,190.3,249.2,171z"/>
	</g>
	<path class="st8" d="M174,184.2c0.8,7.3,19.8,28.1,43.2,18.8c19.3-7.7,24.1-23.5,27.1-42.8c0.6-4,0.6-7.8-0.1-11.3
		c-6.4-8-17.7-11.9-31.4-8.7c-0.6,0.1-89.9,20.7-89.9,20.7l-3.7,15.5l51.9,5c0.2-0.1,0.4-0.1,0.4,0
		C172.9,181.4,173.8,182.7,174,184.2z"/>
	<polygon class="st9" points="177,148.3 150,124.6 162.4,121.6 189.6,145.4 	"/>
	<path class="st5" d="M119.1,176.2L93,154.1c-0.7-0.6-1-1.5-0.8-2.4l2.6-13.4c0.1-0.5,0.8-0.8,1.2-0.4l26.4,21.5
		c0.9,0.8,1.4,2,1.1,3.2l-2.7,13C120.6,176.4,119.7,176.7,119.1,176.2z"/>
	<path class="st10" d="M95.8,151.1l1.1-5.8c0.2-0.9,1.2-1.2,1.9-0.7l20.7,16.9c0.3,0.3,0.5,0.7,0.4,1.1l-1.3,6.3
		c-0.2,0.9-1.2,1.2-1.9,0.7l-20.5-17.4C95.9,152,95.8,151.6,95.8,151.1z"/>
	
		<ellipse transform="matrix(0.6219 -0.7831 0.7831 0.6219 -55.7687 234.2659)" class="st11" cx="214.7" cy="174.9" rx="23.1" ry="21"/>
	<path class="st7" d="M229.1,156.8c-9.1-7.2-22.9-5-30.8,5c-4,5-5.7,11-5.3,16.6c1.2,2.3,2.9,4.3,5,6c9.1,7.2,22.9,5,30.8-5
		c4-5,5.7-11,5.3-16.6C232.9,160.5,231.2,158.5,229.1,156.8z"/>
	<g>
		<path class="st12" d="M250.1,146.6l0.4,5.9c0,0.5,0.3,0.9,0.7,1.1l5.3,2.6c1.2,0.6,0.8,2.3-0.5,2.4l-5.9,0.4
			c-0.5,0-0.9,0.3-1.1,0.7l-2.6,5.3c-0.6,1.2-2.3,0.8-2.4-0.5l-0.4-5.9c0-0.5-0.3-0.9-0.7-1.1l-5.3-2.6c-1.2-0.6-0.8-2.3,0.5-2.4
			l5.9-0.4c0.5,0,0.9-0.3,1.1-0.7l2.6-5.3C248.3,145,250,145.3,250.1,146.6z"/>
		<path class="st12" d="M238.4,171.2l0.3,4.1c0,0.3,0.2,0.6,0.5,0.7l3.7,1.8c0.8,0.4,0.6,1.6-0.3,1.7l-4.1,0.3
			c-0.3,0-0.6,0.2-0.7,0.5l-1.8,3.7c-0.4,0.8-1.6,0.6-1.7-0.3l-0.3-4.1c0-0.3-0.2-0.6-0.5-0.7l-3.7-1.8c-0.8-0.4-0.6-1.6,0.3-1.7
			l4.1-0.3c0.3,0,0.6-0.2,0.7-0.5l1.8-3.7C237.1,170,238.3,170.3,238.4,171.2z"/>
	</g>
	<path class="st13" d="M279.6,226.2c8.4-10.4,13.7-21.3,15.7-32.6c1.8-10.4,0.7-21-3.3-30.7c-8.7-21.2-29.8-36-55-38.7
		c-2.5-0.3-4.7,1.5-4.9,4c-0.3,2.5,1.5,4.7,4,4.9c22,2.4,40.3,15.1,47.7,33.2c7.1,17.4,3.2,36.6-11.1,54.2
		c-8.9,11-20.8,16.8-35.3,17.3c-11.7,0.4-24.7-2.7-37.6-8.9c-11.9-5.8-23.2-13.9-31.7-23.1c-14.2-15.2-36.5-20.6-52.8-12.9
		c-8.4,4-14.8,11.2-18.6,20.8c-2,5.2-3.3,11.1-3.8,17.7c2.7,4.7,5.6,9.1,9,13.4c-1.6-22.2,4.5-37.7,17.4-43.8
		c12.9-6.1,30.7-1.6,42.4,10.9c13.6,14.5,35.6,28.8,58.8,33.4c5.8,1.1,11.6,1.7,17.4,1.5C254.6,246.2,269.1,239.1,279.6,226.2z"/>
</g>
</svg>
