<svg id="Capa_1" data-name="Capa 1" xmlns="http://www.w3.org/2000/svg" viewBox="0 0 120 120"><defs><style>.cls-1{fill:#73571a;}.cls-2{fill:#997422;}</style></defs><title>tierras</title><polygon class="cls-1" points="11.93 95.79 15.5 77.89 23.03 68.52 26.1 52.84 31.25 48.92 34.92 42.27 43.04 38.35 51.26 41.42 54.43 49.26 60.97 50.28 67.81 59.15 70.28 78.06 65.13 92.89 63.84 95.79 11.93 95.79"/><polygon class="cls-2" points="11.93 95.79 110.01 95.79 109.01 77.51 102.34 57.51 97.73 52.16 91.98 39.2 85.64 30.34 76.92 30.34 70.98 42.27 63.84 51.48 58.89 66.81 49.98 72.95 45.88 78.06 30.43 82.38 23.42 90.11 11.93 95.79"/><polygon class="cls-1" points="41.11 93.46 107.22 93.46 106.54 81.14 102.05 67.66 98.94 64.05 95.06 55.32 90.79 49.35 84.91 49.35 80.91 57.39 76.1 63.59 72.76 73.93 66.75 78.07 63.99 81.51 53.57 84.42 48.85 89.63 41.11 93.46"/></svg>