<svg id="Capa_1" data-name="Capa 1" xmlns="http://www.w3.org/2000/svg" viewBox="0 0 120 120"><defs><style>.cls-1{fill:#ff7058;}.cls-2{fill:#84dbff;}.cls-3{fill:#cdd6e0;}.cls-4{fill:#f2f2f2;}.cls-5{fill:#ffd15c;}.cls-6{fill:#334a5e;}.cls-7{fill:#40596b;}.cls-8{fill:#acb3ba;}</style></defs><title>truck</title><path class="cls-1" d="M91.83,43.9H73.18V77.72h30.56V62.5l-3.56-12.32a8.7,8.7,0,0,0-8.35-6.28"/><path class="cls-2" d="M99.28,62.34l-3.18-11a4.46,4.46,0,0,0-4.27-3.21H77.42V62.34Z"/><polygon class="cls-3" points="99.28 62.34 77.42 62.34 77.42 48.15 99.28 62.34"/><path class="cls-4" d="M99.28,62.34l-3.18-11a4.46,4.46,0,0,0-4.27-3.21H77.42Z"/><path class="cls-5" d="M20.47,26.93H67.53a5.65,5.65,0,0,1,5.65,5.65V77.71H14.83V32.58a5.64,5.64,0,0,1,5.64-5.65"/><polygon class="cls-4" points="53.07 26.94 53.07 41.86 50.89 39.67 48.6 41.96 46.31 39.67 44.02 41.96 41.73 39.67 39.42 41.96 37.13 39.67 34.92 41.88 34.92 26.94 53.07 26.94"/><path class="cls-6" d="M105.17,77.71v6.38H14.83V77.71h9.43a12.95,12.95,0,0,1,22.59,0H77.19a12.92,12.92,0,0,1,22.56,0Z"/><path class="cls-7" d="M97.48,84.05a9,9,0,1,1-9-9,9,9,0,0,1,9,9"/><path class="cls-8" d="M92.08,84.05a3.62,3.62,0,1,1-3.62-3.62,3.62,3.62,0,0,1,3.62,3.62"/><path class="cls-7" d="M44.56,84.05a9,9,0,1,1-9-9,9,9,0,0,1,9,9"/><path class="cls-8" d="M39.17,84.05a3.63,3.63,0,1,1-3.62-3.62,3.62,3.62,0,0,1,3.62,3.62"/></svg>