<svg id="Capa_1" data-name="Capa 1" xmlns="http://www.w3.org/2000/svg" viewBox="0 0 500 330"><defs><style>.cls-1,.cls-4{fill:#747474;}.cls-1{stroke:#747474;stroke-miterlimit:10;stroke-width:5px;}.cls-2{fill:#414141;}.cls-3{fill:#333;}</style></defs><title>arnes</title><rect class="cls-1" x="115.82" y="161.99" width="268" height="16"/><polygon class="cls-2" points="255.03 15.49 245.84 15.49 245.84 22.63 255.03 22.63 255.03 15.49 255.03 15.49"/><circle class="cls-2" cx="250" cy="169.99" r="41.5"/><rect class="cls-3" x="223.99" y="138.81" width="23.09" height="3.89" transform="translate(-36.7 175.06) rotate(-38.04)"/><rect class="cls-3" x="254.84" y="138.81" width="23.09" height="3.89" transform="translate(143.34 -134.26) rotate(38.04)"/><rect class="cls-3" x="223.46" y="193.44" width="23.09" height="3.89" transform="translate(170.34 -103.32) rotate(38.04)"/><rect class="cls-3" x="254.31" y="193.44" width="23.09" height="3.89" transform="translate(-63.92 205.35) rotate(-38.04)"/><path class="cls-4" d="M257.78,134.33A161.07,161.07,0,0,1,330.41,63l17.08,16a135.28,135.28,0,0,0-74.21,67.76Q265.54,140.52,257.78,134.33Z"/><path class="cls-4" d="M243.08,134.33A160.94,160.94,0,0,0,170.45,63L153.37,79a135.28,135.28,0,0,1,74.21,67.76Z"/><path class="cls-4" d="M257.56,201.2a161.07,161.07,0,0,0,72.63,71.34l17.08-16a135.28,135.28,0,0,1-74.21-67.76Z"/><path class="cls-4" d="M242.86,201.2a161.07,161.07,0,0,1-72.63,71.34l-17.08-16a135.28,135.28,0,0,0,74.21-67.76Z"/><polygon class="cls-3" points="231.13 16.7 228.38 15.49 228.38 12.57 231.13 11.45 231.13 16.7"/><path class="cls-2" d="M250,44.33a125.66,125.66,0,1,1-88.86,36.81A124.83,124.83,0,0,1,250,44.33m0-18A143.67,143.67,0,1,0,393.66,170,143.66,143.66,0,0,0,250,26.33Z"/><path class="cls-3" d="M176.4,41.62a128,128,0,0,1,73.6-22v23.8a98.18,98.18,0,0,0-60.09,18.82Z"/><path class="cls-3" d="M323.6,41.62a128,128,0,0,0-73.6-22v23.8a98.18,98.18,0,0,1,60.09,18.82Z"/><path class="cls-3" d="M176.28,297.71a128.13,128.13,0,0,0,73.6,22V296.1a100.63,100.63,0,0,1-60.09-19Z"/><path class="cls-3" d="M323.49,297.71a128.19,128.19,0,0,1-73.61,22V296.1a100.63,100.63,0,0,0,60.1-19Q316.73,287.39,323.49,297.71Z"/><rect class="cls-3" x="249.38" y="19.65" width="1.31" height="22.79"/><rect class="cls-3" x="249.44" y="296.1" width="1" height="23.59"/><rect class="cls-3" x="230.33" y="10.3" width="40.21" height="7.69"/><polygon class="cls-3" points="270 11.45 272.75 12.65 272.75 15.57 270 16.7 270 11.45"/></svg>