<svg id="Capa_1" data-name="Capa 1" xmlns="http://www.w3.org/2000/svg" viewBox="0 0 500 330"><defs><style>.cls-1{fill:#64798a;}.cls-2{fill:#27a2db;}.cls-3{fill:#4570db;}.cls-4{fill:#fcd462;}</style></defs><title>Auditivos</title><path class="cls-1" d="M145,275.46a152.19,152.19,0,0,1-37.13-99.65c0-86.67,62-152,144.32-152C336,23.78,401.6,90.34,401.6,175.31c0,35.7-12.24,66.17-38.53,95.89l-14.57-12.88c23-26,33.66-52.34,33.66-83,0-74.07-57.07-132.09-129.93-132.09-71.19,0-124.88,57-124.88,132.59a132.74,132.74,0,0,0,32.39,86.92Z"/><path class="cls-2" d="M170.94,165.55h0a34.13,34.13,0,0,1,34,34v80a34.13,34.13,0,0,1-34,34h0"/><path class="cls-3" d="M153.25,313.65h18.51V165.55h-16a2.49,2.49,0,0,0-2.49,2.49Z"/><path class="cls-4" d="M153.25,280.6H135.1a2.49,2.49,0,0,1-2.49-2.49V201.26a2.49,2.49,0,0,1,2.49-2.49h18.15V280.6Z"/><path class="cls-2" d="M338.09,165.55h0a34.13,34.13,0,0,0-34,34v80a34.13,34.13,0,0,0,34,34h0"/><path class="cls-3" d="M353.3,313.65h-16V165.55h16a2.49,2.49,0,0,1,2.49,2.49V311.16A2.49,2.49,0,0,1,353.3,313.65Z"/><path class="cls-4" d="M355.79,280.6h18.15a2.49,2.49,0,0,0,2.49-2.49V201.26a2.49,2.49,0,0,0-2.49-2.49H355.79Z"/><path class="cls-3" d="M386.79,91A154.06,154.06,0,0,0,255.06,16.61c-54.77,0-105,28.39-132.37,74.46a5.42,5.42,0,0,0,2.12,7.47l22.7,12.39a5.44,5.44,0,0,0,7.26-2c20.92-34.43,58.87-55.61,100.3-55.61A117.36,117.36,0,0,1,354.86,109a5.43,5.43,0,0,0,7.27,2l22.6-12.57A5.42,5.42,0,0,0,386.79,91Z"/></svg>