<svg id="Capa_1" data-name="Capa 1" xmlns="http://www.w3.org/2000/svg" viewBox="0 0 500 330"><defs><style>.cls-1{fill:#fff;}.cls-2{fill:#d3d3d3;}</style></defs><title>Barbijos</title><path class="cls-1" d="M320.62,211.84c1.93,25.57,3.1,40.93-6.11,56.5-18.67,31.57-61.94,33.42-64.64,33.5-27.59.78-58.72-12.14-72.78-37.5-9.55-17.22-8-34.3-6.11-54.5,1.35-14.58,3.26-35.28,17.3-56,6.44-9.5,26.86-39.63,59-39.5,33.9.14,54.58,33.75,59,41C317.75,173.83,319.08,191.39,320.62,211.84Z"/><path class="cls-1" d="M279,42.34c.39,7.75-18,16.78-34.5,17-17.28.23-36.39-9.12-36-17s20.17-14.18,36-14C259.46,28.51,278.57,34.59,279,42.34Z"/><path class="cls-2" d="M213.88,156.1c.26,2.11,6.06,51.93-23.6,68.54A4.39,4.39,0,0,1,186,217c24.57-13.76,19.24-59.35,19.18-59.81a4.39,4.39,0,1,1,8.71-1.08Zm64.7,0c-.26,2.11-6.06,51.93,23.6,68.54a4.39,4.39,0,0,0,4.28-7.66c-24.51-13.73-19.24-59.35-19.18-59.81a4.39,4.39,0,0,0-8.71-1.08Zm48.76,63.62c.31,4.07.49,8.06.49,11.89,0,56.37-55.19,74.6-81.91,74.6S164,288,164,231.61c0-3.83.18-7.81.49-11.88-43.12-15.72-68.87-42.6-68.87-72,0-37.35,44.53-89.65,108.82-106.54,1.63-11.49,21.65-17.5,41.48-17.5s39.83,6,41.47,17.5c65.16,17.1,108.82,68.64,108.82,106.54C396.21,177.13,370.47,204,327.34,219.72Zm-114.28-177c0,3.61,12.48,10.24,32.86,10.24s32.85-6.63,32.85-10.24S266.3,32.5,245.92,32.5,213.06,39.13,213.06,42.74Zm106,188.87c0-46-23.24-114.18-73.13-114.18s-73.14,68.13-73.14,114.18c0,49.25,50.22,65.82,73.14,65.82S319.05,280.86,319.05,231.61Zm68.39-83.84c0-33.93-42-82.28-102.41-98.1-6.13,7.95-22.68,12.08-39.11,12.08s-33-4.13-39.11-12.07C146.31,65.5,104.4,113.61,104.4,147.77c0,25.05,22.78,48.43,61,62.9,6.09-47,32.08-102,80.5-102s74.4,55.07,80.49,102C364.66,196.2,387.44,172.83,387.44,147.77ZM261.28,268.43a15.36,15.36,0,1,1-15.36-15.36A15.38,15.38,0,0,1,261.28,268.43Zm-8.78,0a6.58,6.58,0,1,0-6.58,6.58A6.59,6.59,0,0,0,252.5,268.43Z"/></svg>