<svg id="Capa_1" data-name="Capa 1" xmlns="http://www.w3.org/2000/svg" viewBox="0 0 500 330"><defs><style>.cls-1{fill:#57565c;}.cls-2{fill:#3e3d42;}.cls-3{fill:#5f4d37;}.cls-4{fill:#554431;}.cls-5{fill:#6a563d;}.cls-6{fill:#b39a7c;}.cls-7{fill:#806749;}.cls-8{fill:#957856;}.cls-9{fill:#acabb1;}.cls-10{fill:#c6c5ca;}</style></defs><title>Botines</title><path class="cls-1" d="M74.63,248.3l5.62,15.57A35,35,0,0,0,113.13,287h59.66a67.21,67.21,0,0,0,28.53-6.36l15.7-7.36A23.3,23.3,0,0,1,239.94,275l7.92,5.34A38.54,38.54,0,0,0,269.41,287h111c25.42,0,50.5-24.5,55.69-40.35l5.58-17Z"/><path class="cls-2" d="M80.25,263.87A35,35,0,0,0,113.13,287h59.66a67.22,67.22,0,0,0,28.53-6.36l14.79-6.93c-11.23-8.68-24-18.41-24.88-18.36l-1.93-12.85L74.63,248.3Z"/><path class="cls-3" d="M204.49,55.15A76.05,76.05,0,0,1,232.8,41.67a31.31,31.31,0,0,1,37,21c9.28,29.1,25.79,78.91,25.79,78.91Z"/><path class="cls-4" d="M232.95,41.63l-.15,0a76.07,76.07,0,0,0-28.31,13.49l91.08,86.46s-10.41-31.4-19.35-58.9Z"/><path class="cls-5" d="M233.16,75.32l-9.37-16.4a33.16,33.16,0,0,0-36-15.91L111.45,60A33.16,33.16,0,0,0,85.57,90.38l-4.76,78.27Z"/><path class="cls-3" d="M233.16,75.32l-9.37-16.4a33.08,33.08,0,0,0-9.18-10.28h0c-55.23,24.87-81.48,37-81.48,37s-.71-30.3.12-30.49h0L111.45,60A33.16,33.16,0,0,0,85.57,90.38l-4.76,78.27Z"/><path class="cls-6" d="M250.39,75.46,286,115.82a179.23,179.23,0,0,0,100.16,57.31L419,179.49a36.74,36.74,0,0,1,29.48,40.34s.25,15.75-23.53,30.53c0,0-55.56,36.6-157.08,14.24l-31.94-6.25A179.23,179.23,0,0,0,174,257.12l-35.39,6.81a80.26,80.26,0,0,1-59.63-12,28.45,28.45,0,0,1-12.48-21.37s9.69-65.28,9.59-82.54c-.09-15.2,21.72-6.41,35.38-15.9L148,101.64a89.62,89.62,0,0,1,21.69-13.39l46.73-20.33A29.57,29.57,0,0,1,250.39,75.46Z"/><path class="cls-7" d="M215.84,124.83,75.49,159.61c-2.14,25-9,71-9,71A28.45,28.45,0,0,0,79,251.93a80.26,80.26,0,0,0,59.63,12L174,257.12a179.25,179.25,0,0,1,61.88,1.23l31.94,6.25c41.59,9.16,75.46,8.42,101,4.37,15.28-30.38,29.25-58.21,29.25-58.48C288.73,206.91,215.84,124.83,215.84,124.83Z"/><path class="cls-5" d="M256.67,195.18a336.56,336.56,0,0,1-32.35-22.94,5.85,5.85,0,0,1,7.32-9.13,324.27,324.27,0,0,0,31.22,22.14,5.87,5.87,0,0,1,1.87,8.06C261.92,197.93,257.63,195.78,256.67,195.18Z"/><path class="cls-5" d="M278.16,207.47c-2.32-1.21-4.66-2.47-7-3.74a5.85,5.85,0,1,1,5.67-10.24c2.21,1.22,4.47,2.44,6.7,3.6a5.92,5.92,0,0,1,2.48,7.89C283.56,210.18,279,207.92,278.16,207.47Z"/><path class="cls-5" d="M141.21,210.82s5.47-36.89,9.4-69.83L75.49,159.61c-2.14,25-9,71-9,71A28.45,28.45,0,0,0,79,251.93a80.26,80.26,0,0,0,59.63,12L174,257.12q8.56-1.33,17.19-1.81a111.49,111.49,0,0,1-32.68-14.8A39.51,39.51,0,0,1,141.21,210.82Z"/><path class="cls-8" d="M250.19,249.34l2.21,12.23,15.46,3C369.38,287,424.94,250.36,424.94,250.36c23.78-14.78,23.53-30.53,23.53-30.53A36.74,36.74,0,0,0,419,179.49l-32.79-6.37C356.39,224.77,250.19,249.34,250.19,249.34Z"/><path class="cls-8" d="M216.42,67.92,169.69,88.25A89.63,89.63,0,0,0,148,101.64l-36.5,30.48c-13.66,9.49-35.47.69-35.38,15.9,0,4.2-.53,11.26-1.39,19.53l18.49,7.59a9,9,0,0,1,.09,16.54l-22.68,9.62c-2.14,16.07-4.1,29.25-4.1,29.25A28.44,28.44,0,0,0,79,251.93a80.26,80.26,0,0,0,28.17,11.76c28.16-66.57,99.1-105.48,98.2-105.3,52.87-27.6,52.24-74.74,52.24-74.74l-7.23-8.19A29.58,29.58,0,0,0,216.42,67.92Z"/><path class="cls-9" d="M424.94,250.36c23.78-14.78,23.53-30.53,23.53-30.53a36.6,36.6,0,0,0-3.31-20.05h0c-24.6,43.67-149.59,61.65-149.59,61.65l2.32,8.31C380.28,279.77,424.94,250.36,424.94,250.36Z"/><path class="cls-10" d="M234.67,234.72a89.61,89.61,0,0,0-72.27.11L153,239a89.62,89.62,0,0,1-46,7.14l-36.4-4-.57.08a28,28,0,0,0,8.93,9.7,80.26,80.26,0,0,0,59.63,12L174,257.12a179.23,179.23,0,0,1,61.88,1.23l31.94,6.25a304,304,0,0,0,50.68,6.91Z"/><path class="cls-9" d="M158.55,240.51a38.45,38.45,0,0,1-3.33-2.5L153,239a89.62,89.62,0,0,1-46,7.14l-36.4-4-.57.08a28,28,0,0,0,8.93,9.7,80.26,80.26,0,0,0,59.63,12L174,257.12q8.56-1.33,17.19-1.81A111.44,111.44,0,0,1,158.55,240.51Z"/><path class="cls-2" d="M287.82,81.61a12.52,12.52,0,0,0-17.65-.06L253.86,97.74a12.48,12.48,0,0,0,17.59,17.71l16.31-16.19A12.52,12.52,0,0,0,287.82,81.61Z"/><path class="cls-2" d="M316.46,110.81a12.52,12.52,0,0,0-17.62,1l-15.35,17.11a12.48,12.48,0,0,0,18.58,16.67l15.35-17.11A12.52,12.52,0,0,0,316.46,110.81Z"/><path class="cls-2" d="M350.17,134a12.52,12.52,0,0,0-17.4,3L319.5,155.78a12.48,12.48,0,1,0,20.37,14.42l13.28-18.76A12.51,12.51,0,0,0,350.17,134Z"/><path class="cls-2" d="M385.38,154.6a12.52,12.52,0,0,0-17,4.71l-11.33,20a12.48,12.48,0,0,0,21.72,12.3l11.33-20A12.52,12.52,0,0,0,385.38,154.6Z"/></svg>