<?xml version="1.0" standalone="no"?>
<!DOCTYPE svg PUBLIC "-//W3C//DTD SVG 20010904//EN"
 "http://www.w3.org/TR/2001/REC-SVG-20010904/DTD/svg10.dtd">
<svg version="1.0" xmlns="http://www.w3.org/2000/svg"
 width="229.000000pt" height="232.000000pt" viewBox="0 0 280.000000 285.000000"
 preserveAspectRatio="xMidYMid meet">

<g transform="translate(25.000000,282.000000) scale(0.100000,-0.100000)"
fill="#000000" stroke="none">
<path d="M835 2154 c-22 -8 -101 -26 -175 -38 l-135 -24 -37 -42 c-67 -75
-171 -329 -213 -520 -13 -58 -35 -136 -49 -173 -19 -50 -26 -87 -26 -140 0
-40 -5 -88 -10 -107 -18 -61 -123 -563 -128 -608 -5 -56 2 -81 36 -125 20 -25
32 -56 41 -106 12 -68 14 -71 37 -65 14 4 73 7 133 8 l108 1 6 66 c4 48 13 76
31 104 30 44 29 34 26 271 -1 124 2 200 12 240 l13 59 6 -70 c3 -38 4 -195 1
-347 l-4 -277 24 -5 c150 -31 977 -38 1186 -10 l51 6 6 52 c7 65 10 186 8 401
-1 189 0 245 3 245 2 0 10 -26 20 -57 14 -50 16 -86 10 -254 -6 -195 -6 -196
19 -245 15 -29 28 -75 31 -114 l7 -65 137 -2 137 -2 13 71 c9 52 20 78 42 104
41 46 45 93 19 201 -58 243 -114 529 -121 618 -5 71 -15 120 -34 170 -15 39
-34 105 -42 148 -28 149 -127 405 -193 501 -41 59 -64 70 -191 91 -58 9 -133
25 -168 37 -51 16 -70 18 -110 10 -114 -25 -303 -23 -462 3 -14 2 -43 -3 -65
-11z m84 -10 c12 -10 -10 -14 -27 -5 -16 9 -21 7 -25 -9 -3 -13 -10 -18 -21
-14 -22 9 -20 19 7 32 19 9 54 7 66 -4z m540 -7 c8 -11 6 -18 -8 -31 -16 -15
-19 -15 -24 -1 -7 17 1 45 13 45 4 0 13 -6 19 -13z m-479 -7 c0 -5 -7 -10 -15
-10 -8 0 -15 5 -15 10 0 6 7 10 15 10 8 0 15 -4 15 -10z m415 0 c-3 -5 -10
-10 -16 -10 -5 0 -9 5 -9 10 0 6 7 10 16 10 8 0 12 -4 9 -10z m-340 -10 c4 -6
-5 -10 -19 -10 -14 0 -26 5 -26 10 0 6 9 10 19 10 11 0 23 -4 26 -10z m285 0
c-19 -13 -30 -13 -30 0 0 6 10 10 23 10 18 0 19 -2 7 -10z m-498 -20 c7 -11
17 -20 21 -20 5 0 27 -15 50 -34 55 -45 132 -83 195 -96 57 -13 165 -2 222 23
55 23 119 75 142 113 15 25 25 33 37 29 25 -10 173 -35 207 -35 65 0 135 -112
217 -345 25 -71 55 -170 66 -220 11 -49 32 -119 47 -155 18 -43 29 -94 34
-152 5 -48 13 -109 19 -135 6 -26 25 -127 41 -223 17 -96 42 -222 56 -279 l26
-103 -24 -47 -25 -46 -49 5 c-73 7 -153 6 -205 -3 -45 -8 -47 -7 -62 25 -12
26 -16 77 -18 243 -1 127 -7 234 -15 270 -7 33 -18 107 -24 165 -24 217 -52
435 -57 440 -3 3 -2 -40 2 -95 14 -180 15 -991 2 -1008 -13 -17 -174 -31 -472
-43 -230 -9 -701 21 -728 45 -12 12 -10 822 2 931 13 120 14 160 1 160 -5 0
-10 -17 -10 -37 0 -21 -4 -65 -10 -98 -5 -33 -17 -132 -25 -219 -9 -88 -23
-191 -32 -230 -11 -50 -15 -134 -17 -286 -1 -191 -3 -219 -19 -244 -14 -21
-24 -26 -40 -22 -48 14 -145 17 -202 8 -58 -10 -61 -10 -83 16 -35 42 -37 67
-8 191 36 159 97 501 115 646 5 44 21 105 34 135 13 30 32 89 41 130 46 208
153 474 219 544 29 30 41 36 78 37 24 0 80 9 124 18 107 24 113 24 127 1z m68
0 c0 -13 -5 -18 -14 -14 -8 3 -12 12 -9 20 8 21 23 17 23 -6z m210 10 c0 -5
-6 -10 -14 -10 -8 0 -18 5 -21 10 -3 6 3 10 14 10 12 0 21 -4 21 -10z m70 0
c0 -5 -9 -10 -20 -10 -11 0 -20 5 -20 10 0 6 9 10 20 10 11 0 20 -4 20 -10z
m85 0 c-3 -5 -17 -10 -31 -10 -13 0 -24 5 -24 10 0 6 14 10 31 10 17 0 28 -4
24 -10z m-244 -20 c61 -12 246 -15 278 -5 39 12 21 -6 -26 -26 -68 -29 -150
-27 -238 6 -98 37 -101 41 -14 25z m372 -32 c-17 -19 -18 -19 -27 2 -12 26 10
46 31 28 11 -9 10 -14 -4 -30z m-433 12 c0 -5 -5 -12 -11 -16 -14 -8 -33 11
-25 25 7 11 36 4 36 -9z m44 -18 c2 -4 1 -14 -4 -21 -10 -17 -31 -5 -23 14 6
16 19 20 27 7z m339 -6 c3 -8 0 -19 -7 -26 -10 -8 -15 -6 -20 6 -7 17 0 34 14
34 4 0 10 -6 13 -14z m-290 -32 c-5 -15 -16 -18 -26 -8 -10 11 4 33 18 28 8
-3 11 -12 8 -20z m233 -9 c-3 -8 -10 -15 -16 -15 -14 0 -12 37 3 43 15 5 21
-8 13 -28z m-169 0 c3 -9 3 -18 0 -21 -10 -10 -47 7 -47 22 0 19 39 18 47 -1z
m113 -5 c0 -11 -7 -20 -15 -20 -15 0 -21 21 -8 33 12 13 23 7 23 -13z m-50 -5
c0 -8 -7 -15 -15 -15 -8 0 -15 7 -15 15 0 8 7 15 15 15 8 0 15 -7 15 -15z
m-618 -1660 c3 -28 0 -35 -13 -35 -15 0 -29 26 -29 58 0 6 9 12 19 12 14 0 20
-9 23 -35z m-380 -19 c6 -28 5 -42 -4 -47 -9 -6 -16 5 -25 34 -17 55 -16 59 4
55 11 -2 20 -18 25 -42z m57 -1 c1 -27 -2 -45 -9 -45 -6 0 -12 6 -14 13 -2 6
-8 27 -14 45 -9 30 -9 32 12 32 19 0 23 -6 25 -45z m58 3 c-2 -53 -18 -53 -34
1 -11 40 -11 41 12 41 21 0 23 -4 22 -42z m48 0 c-2 -24 -7 -43 -11 -43 -5 0
-10 19 -12 43 -2 32 0 42 12 42 11 0 14 -10 11 -42z m275 7 c0 -24 -5 -35 -15
-35 -8 0 -15 9 -15 19 0 11 -3 26 -6 35 -4 12 0 16 15 16 17 0 21 -6 21 -35z
m47 -5 c1 -22 -2 -40 -8 -40 -5 0 -9 4 -9 9 0 5 -3 23 -6 40 -5 23 -3 31 8 31
9 0 14 -13 15 -40z m37 34 c18 -7 23 -74 6 -74 -11 0 -14 7 -24 53 -7 29 -6
30 18 21z m950 -21 c-11 -53 -17 -59 -24 -23 -7 41 -4 50 16 50 11 0 13 -7 8
-27z m42 5 c-3 -13 -6 -29 -6 -35 0 -7 -4 -13 -8 -13 -4 0 -6 16 -4 35 2 19 9
35 14 35 6 0 8 -10 4 -22z m46 -13 c-2 -19 -8 -35 -13 -35 -5 0 -9 16 -9 35 0
22 5 35 13 35 9 0 12 -11 9 -35z m214 -7 c-5 -59 -26 -62 -26 -4 0 34 4 46 15
46 12 0 14 -10 11 -42z m58 5 c-8 -44 -12 -53 -25 -53 -5 0 -9 20 -9 45 0 39
3 45 20 45 19 0 20 -4 14 -37z m61 20 c-3 -10 -9 -31 -12 -46 -3 -15 -10 -26
-15 -25 -5 2 -9 7 -9 11 1 4 1 23 1 42 0 29 4 35 21 35 16 0 20 -4 14 -17z
m50 -29 c-7 -25 -16 -49 -19 -52 -13 -13 -18 10 -12 53 6 35 11 45 26 45 18 0
18 -3 5 -46z m-1735 -4 c0 -22 -4 -40 -9 -40 -5 0 -11 18 -13 40 -2 28 0 40 9
40 8 0 13 -14 13 -40z m378 3 c-2 -21 -7 -38 -13 -38 -5 0 -11 17 -13 38 -3
29 0 37 13 37 13 0 16 -8 13 -37z m52 -3 c0 -28 -4 -40 -14 -40 -9 0 -15 14
-18 40 -3 33 0 40 14 40 14 0 18 -8 18 -40z m60 0 c0 -29 -4 -40 -15 -40 -8 0
-15 4 -15 9 0 5 -3 23 -6 40 -6 27 -4 31 15 31 18 0 21 -6 21 -40z m620 31 c0
-27 -14 -70 -21 -65 -16 9 -11 74 6 74 8 0 15 -4 15 -9z m43 -23 c-9 -51 -23
-57 -23 -10 0 30 4 42 15 42 11 0 13 -8 8 -32z m63 16 c-3 -9 -6 -24 -6 -35 0
-35 -28 -21 -32 16 -4 31 -2 35 20 35 18 0 23 -4 18 -16z m304 -18 c0 -19 -4
-38 -10 -41 -6 -4 -10 10 -10 34 0 23 5 41 10 41 6 0 10 -15 10 -34z m-973
-16 c2 -29 -2 -40 -13 -40 -7 0 -14 8 -14 18 0 9 -3 27 -6 40 -5 17 -2 22 13
22 15 0 19 -8 20 -40z m53 23 c0 -10 3 -28 6 -40 5 -16 2 -23 -9 -23 -9 0 -19
16 -25 40 -9 36 -8 40 9 40 11 0 19 -7 19 -17z m56 1 c-3 -9 -6 -27 -6 -40 0
-40 -18 -27 -22 16 -3 34 -1 40 15 40 13 0 17 -5 13 -16z m60 0 c-3 -9 -6 -27
-6 -40 0 -42 -27 -28 -32 16 -3 37 -1 40 20 40 18 0 23 -4 18 -16z m50 0 c-3
-9 -6 -27 -6 -40 0 -13 -4 -24 -10 -24 -5 0 -10 18 -10 40 0 30 4 40 16 40 11
0 14 -5 10 -16z m54 -24 c0 -29 -4 -40 -15 -40 -9 0 -15 9 -15 24 0 13 -3 31
-6 40 -4 12 0 16 15 16 18 0 21 -6 21 -40z m60 23 c0 -32 -12 -63 -24 -63 -7
0 -11 16 -11 40 0 32 3 40 17 40 11 0 18 -7 18 -17z m48 -20 c-5 -52 -28 -56
-28 -4 0 30 4 41 15 41 11 0 15 -9 13 -37z m44 2 c-2 -19 -8 -35 -13 -35 -5 0
-9 16 -9 35 0 22 5 35 13 35 9 0 12 -11 9 -35z m40 -1 c-5 -41 -7 -40 -15 4
-5 22 -3 32 6 32 9 0 12 -11 9 -36z m50 1 c-5 -46 -29 -46 -28 0 1 25 6 35 16
35 12 0 15 -8 12 -35z"/>
<path d="M1695 1996 c-24 -105 -17 -277 13 -360 22 -60 37 -84 47 -75 2 3 -4
31 -15 63 -35 98 -45 202 -31 328 6 61 10 113 7 115 -2 3 -12 -30 -21 -71z"/>
<path d="M588 1985 c15 -168 5 -253 -45 -407 -3 -10 -1 -18 5 -18 14 0 48 86
63 158 14 77 7 238 -15 302 l-15 45 7 -80z"/>
<path d="M244 1165 c7 -82 15 -115 27 -115 12 0 11 34 -2 106 -16 88 -33 95
-25 9z"/>
<path d="M1711 837 c-7 -22 -33 -68 -57 -103 -53 -78 -57 -100 -9 -54 45 44
88 129 83 167 -3 28 -4 27 -17 -10z"/>
<path d="M370 570 c0 -66 4 -120 9 -120 20 0 27 87 15 188 -12 92 -24 56 -24
-68z"/>
<path d="M1906 659 c-8 -40 -8 -172 0 -193 14 -37 19 -9 18 100 -2 120 -7 147
-18 93z"/>
<path d="M317 549 c-10 -6 -50 -21 -89 -35 -81 -27 -98 -39 -98 -65 0 -24 7
-24 28 0 10 10 49 31 89 45 64 24 103 50 92 60 -2 3 -12 0 -22 -5z"/>
<path d="M1957 544 c4 -11 63 -40 151 -74 18 -7 37 -20 41 -29 12 -21 25 -8
17 17 -7 20 -39 37 -148 75 -43 16 -64 19 -61 11z"/>
</g>
</svg>
