<svg id="Capa_1" data-name="Capa 1" xmlns="http://www.w3.org/2000/svg" viewBox="0 0 500 330"><defs><style>.cls-1{fill:#ffce6e;}.cls-2{fill:#ffac55;}.cls-3{fill:#ff8a3b;}</style></defs><title>Camisa</title><polygon class="cls-1" points="200.96 45 170.12 52.13 109.45 106.52 139.71 153.37 170.12 139.12 163.82 292.3 238.62 304.91 259.63 273.4 251.22 45 200.96 45"/><polygon class="cls-2" points="393 106.52 341.93 54.62 301.49 45 251.22 45 251.22 286 263.83 304.91 338.63 292.3 332.33 139.12 362.74 153.37 393 106.52"/><polygon class="cls-3" points="200.96 24.91 200.96 45 228 73.94 242.62 51.36 259.83 51.36 274.45 73.94 301.49 45 301.49 24.91 200.96 24.91"/><polygon class="cls-2" points="219.48 38.3 242.62 51.36 259.83 51.36 282.97 38.3 219.48 38.3"/><path class="cls-2" d="M193.42,110.73V129a17.25,17.25,0,0,0,34.51,0V110.73Z"/><path class="cls-3" d="M274.52,110.73V129A17.25,17.25,0,0,0,309,129V110.73Z"/></svg>