<?xml version="1.0" standalone="no"?>
<!DOCTYPE svg PUBLIC "-//W3C//DTD SVG 20010904//EN"
 "http://www.w3.org/TR/2001/REC-SVG-20010904/DTD/svg10.dtd">
<svg version="1.0" xmlns="http://www.w3.org/2000/svg"
 width="612.000000pt" height="612.000000pt" viewBox="0 0 612.000000 612.000000"
 preserveAspectRatio="xMidYMid meet">

<g transform="translate(0.000000,612.000000) scale(0.100000,-0.100000)"
fill="#000000" stroke="none">
<path d="M2835 5125 c-306 -49 -518 -184 -553 -352 l-8 -38 -98 -7 c-251 -18
-450 -89 -631 -226 -136 -102 -214 -199 -295 -367 -185 -380 -357 -907 -434
-1325 -48 -265 -59 -382 -60 -635 -1 -310 19 -466 63 -479 32 -11 476 -76 513
-76 34 0 42 5 73 48 55 73 159 293 210 442 45 131 110 369 137 500 11 57 14
-23 18 -670 l5 -735 28 -57 c16 -32 48 -75 73 -97 86 -75 15 -71 1183 -71
l1046 0 50 24 c59 27 117 83 148 140 22 41 22 48 32 801 9 673 11 752 23 690
59 -314 189 -700 300 -889 64 -106 83 -126 126 -126 39 0 486 67 511 76 26 10
34 36 51 165 20 156 15 531 -11 719 -62 460 -206 954 -427 1465 -82 189 -143
280 -259 390 -188 177 -426 274 -715 291 l-111 7 -17 56 c-51 167 -254 291
-552 336 -118 18 -308 18 -419 0z m398 -130 c281 -42 474 -172 449 -301 -3
-19 -32 -55 -79 -101 -76 -75 -84 -93 -57 -131 34 -49 122 -11 206 89 l43 52
115 -7 c383 -21 691 -206 826 -495 313 -669 494 -1378 494 -1941 0 -129 -14
-338 -23 -346 -10 -9 -395 -60 -402 -53 -21 16 -105 186 -148 299 -137 355
-259 973 -308 1569 -14 159 -23 181 -77 181 -65 0 -60 93 -69 -1316 l-8 -1281
-27 -35 c-53 -69 -43 -68 -567 -68 l-471 0 -2 1655 c-3 1542 -4 1655 -20 1671
-22 22 -74 22 -96 0 -16 -16 -17 -129 -20 -1671 l-2 -1655 -484 0 -483 0 -33
22 c-44 30 -69 66 -81 114 -5 23 -9 558 -9 1274 0 679 0 1240 0 1247 0 39 -67
56 -108 27 -18 -13 -22 -25 -22 -73 0 -135 -60 -613 -115 -912 -79 -431 -193
-795 -312 -994 -33 -57 -41 -64 -63 -60 -14 3 -101 16 -195 31 -93 14 -173 29
-177 32 -3 4 -12 70 -19 147 -47 550 124 1328 455 2063 63 142 118 222 207
308 81 76 140 116 242 164 125 59 314 100 456 100 57 0 59 -1 85 -40 35 -53
125 -120 161 -120 37 0 65 26 65 59 0 32 -4 37 -64 85 -61 50 -86 90 -86 142
0 69 60 133 177 190 170 82 420 113 646 79z"/>
<path d="M2861 4860 c-168 -45 -256 -141 -238 -256 11 -65 90 -144 145 -144
28 0 62 34 62 62 0 13 -18 41 -42 65 -38 38 -40 45 -30 67 6 14 33 36 59 49
147 74 404 58 506 -31 26 -23 21 -40 -24 -89 -34 -37 -40 -49 -34 -71 15 -62
72 -69 135 -15 74 63 91 150 46 228 -30 51 -84 89 -173 123 -96 36 -302 42
-412 12z"/>
<path d="M2419 1904 c-8 -10 -17 -54 -20 -103 -15 -198 -108 -327 -277 -381
-74 -24 -92 -40 -92 -80 0 -35 29 -60 69 -60 40 0 152 44 206 80 135 92 225
270 225 445 0 87 -16 115 -64 115 -19 0 -40 -7 -47 -16z"/>
<path d="M3595 1900 c-34 -37 -17 -211 31 -326 51 -121 169 -229 299 -274 101
-35 155 -20 155 43 0 34 -22 54 -73 68 -182 49 -297 204 -297 400 0 56 -4 73
-20 89 -26 26 -72 26 -95 0z"/>
</g>
</svg>
