<svg id="Capa_1" data-name="Capa 1" xmlns="http://www.w3.org/2000/svg" viewBox="0 0 500 330"><defs><style>.cls-1{fill:#ffdc64;}.cls-2{fill:#ffc850;}.cls-3{fill:#fff082;}</style></defs><title>Casco</title><path class="cls-1" d="M251.16,38A177.86,177.86,0,0,0,73.3,215.82v41H429v-41A177.86,177.86,0,0,0,251.16,38Z"/><path class="cls-2" d="M435.85,256.86H169.07a6.84,6.84,0,0,1-6.84-6.84v-34.2c0-32.41,6-62.77,16.53-88.92a4.28,4.28,0,0,1,8.17.93l14.39,83.48a13.68,13.68,0,0,0,13.48,11.36h72.72A13.68,13.68,0,0,0,301,211.3l26.89-156a177.87,177.87,0,0,0-150.17-1.47v0l-3.28,1.63A177.75,177.75,0,0,0,73.3,215.82v41H66.46a6.84,6.84,0,0,0-6.84,6.84v8.72a6.82,6.82,0,0,0,4.66,6.52c48.93,16,114.62,25.8,186.88,25.8s137.95-9.8,186.88-25.8a6.82,6.82,0,0,0,4.66-6.52V263.7A6.84,6.84,0,0,0,435.85,256.86Z"/><path class="cls-3" d="M265.3,222.66H237a13.68,13.68,0,0,1-13.67-13.21l-5.9-171a13.68,13.68,0,0,1,13.67-14.15H271.2a13.68,13.68,0,0,1,13.67,14.15l-5.9,171A13.68,13.68,0,0,1,265.3,222.66Z"/><path class="cls-1" d="M438,265.8c-48.93,11.43-114.62,18.43-186.88,18.43s-137.95-7-186.88-18.43a5.86,5.86,0,0,1-4.39-3.42,6.55,6.55,0,0,0-.27,1.33v8.72a6.82,6.82,0,0,0,4.66,6.52c48.93,16,114.62,25.8,186.88,25.8s137.95-9.8,186.88-25.8a6.82,6.82,0,0,0,4.66-6.52V263.7a6.57,6.57,0,0,0-.27-1.33A5.86,5.86,0,0,1,438,265.8Z"/><path class="cls-1" d="M241.67,209.45l-4.19-171c-.19-7.74,4.21-14.15,9.71-14.15H231.11a13.68,13.68,0,0,0-13.67,14.15l5.9,171A13.68,13.68,0,0,0,237,222.66h14.36C246.14,222.66,241.85,216.82,241.67,209.45Z"/></svg>