<?xml version="1.0" standalone="no"?>
<!DOCTYPE svg PUBLIC "-//W3C//DTD SVG 20010904//EN"
 "http://www.w3.org/TR/2001/REC-SVG-20010904/DTD/svg10.dtd">
<svg version="1.0" xmlns="http://www.w3.org/2000/svg"
 width="612.000000pt" height="471.000000pt" viewBox="0 0 612.000000 471.000000"
 preserveAspectRatio="xMidYMid meet">

<g transform="translate(-150.000000,571.000000) scale(0.150000,-0.150000)"
fill="#000000" stroke="none">
<path d="M2688 2797 c-2 -359 -2 -662 0 -674 3 -23 5 -23 153 -23 l149 0 0
-95 0 -95 -495 0 -495 0 0 -125 0 -125 495 0 495 0 0 -95 0 -95 -495 0 -495 0
0 -71 c0 -81 15 -116 64 -145 29 -18 57 -19 441 -19 367 0 413 2 441 17 39 22
92 81 100 113 6 26 24 35 24 12 0 -27 55 -96 94 -119 l41 -23 405 0 c446 0
454 1 490 60 15 24 20 50 20 104 l0 71 -500 0 -500 0 0 95 0 95 500 0 500 0 0
125 0 125 -500 0 -500 0 0 95 0 95 160 0 160 0 0 675 c0 371 -3 675 -6 675 -3
0 -18 -9 -34 -20 -84 -60 -237 -95 -379 -87 -107 5 -234 41 -294 82 l-37 24
-2 -652z"/>
<path d="M2432 3395 c-16 -13 -34 -37 -40 -52 -6 -16 -13 -124 -15 -243 -3
-192 -6 -221 -26 -271 -56 -146 -169 -240 -313 -264 l-38 -6 0 -229 0 -230
250 0 250 0 0 660 c0 645 0 660 -19 660 -11 0 -33 -11 -49 -25z"/>
<path d="M3620 2760 l0 -660 250 0 250 0 0 229 0 228 -54 11 c-114 23 -221
103 -272 204 -42 82 -54 165 -54 366 0 198 -5 221 -56 261 -15 12 -35 21 -45
21 -18 0 -19 -23 -19 -660z"/>
</g>
</svg>
