<svg id="Capa_1" data-name="Capa 1" xmlns="http://www.w3.org/2000/svg" viewBox="0 0 500 330"><defs><style>.cls-1{fill:#eae8c1;}.cls-2{fill:#d1cfac;}.cls-3{fill:#b2b093;}</style></defs><title>Delantal</title><path class="cls-1" d="M294.18,22.6v71H272.39v-71S294.18,23,294.18,22.6Z"/><path class="cls-1" d="M422.35,190.75a129.14,129.14,0,0,1-29.63,8.63,125.61,125.61,0,0,1-46.86-1.23V183A111.61,111.61,0,0,0,390,185a115.06,115.06,0,0,0,30-9Z"/><path class="cls-2" d="M79.79,190.75a129.14,129.14,0,0,0,29.63,8.63,125.61,125.61,0,0,0,46.86-1.23V183a111.61,111.61,0,0,1-44.09,2,115.06,115.06,0,0,1-30-9Z"/><polygon class="cls-1" points="145.98 186.01 145.98 306.78 251.26 306.78 251.24 92.47 208.48 92.47 145.98 186.01"/><path class="cls-2" d="M208,22.6v71h21.79v-71S208,23,208,22.6Z"/><polygon class="cls-2" points="356.16 186.01 356.16 306.78 250.91 306.78 250.91 92.47 293.67 92.47 356.16 186.01"/><rect class="cls-3" x="208.09" y="188.91" width="84.33" height="33.49" rx="11.5" ry="11.5"/><rect class="cls-3" x="208.09" y="178.2" width="84.21" height="30.81"/></svg>