<svg id="Capa_1" data-name="Capa 1" xmlns="http://www.w3.org/2000/svg" viewBox="0 0 500 500"><defs><style>.cls-1{fill:#ffdc64;}.cls-2{fill:#ffc850;}.cls-3{fill:#fff082;}.cls-4{fill:#adadad;}.cls-5{fill:#ffa227;}.cls-6{fill:#088aff;}.cls-7{fill:#0076ce;}.cls-8{fill:#f78b0b;}</style></defs><title>Logo EPP</title><path class="cls-1" d="M251.16,35.91A177.86,177.86,0,0,0,73.3,213.77v41H429v-41A177.86,177.86,0,0,0,251.16,35.91Z"/><path class="cls-2" d="M435.85,254.81H169.07a6.84,6.84,0,0,1-6.84-6.84v-34.2c0-32.42,6-62.78,16.52-88.92a4.28,4.28,0,0,1,8.17.92l14.39,83.48a13.69,13.69,0,0,0,13.49,11.36h72.72A13.68,13.68,0,0,0,301,209.25l26.89-156a177.84,177.84,0,0,0-150.16-1.47v0l-3.28,1.63A177.76,177.76,0,0,0,73.3,213.77v41H66.46a6.84,6.84,0,0,0-6.84,6.84v8.72a6.82,6.82,0,0,0,4.66,6.52c48.93,16,114.62,25.81,186.88,25.81S389.1,292.89,438,276.89a6.82,6.82,0,0,0,4.66-6.52v-8.72A6.84,6.84,0,0,0,435.85,254.81Z"/><path class="cls-3" d="M265.3,220.61H237a13.68,13.68,0,0,1-13.67-13.21l-5.9-171a13.67,13.67,0,0,1,13.67-14.15H271.2a13.67,13.67,0,0,1,13.67,14.15l-5.9,171A13.68,13.68,0,0,1,265.3,220.61Z"/><path class="cls-1" d="M438,263.74c-48.93,11.43-114.61,18.43-186.87,18.43s-137.95-7-186.88-18.43a5.82,5.82,0,0,1-4.39-3.42,5.92,5.92,0,0,0-.27,1.33v8.72a6.82,6.82,0,0,0,4.66,6.52c48.93,16,114.62,25.81,186.88,25.81S389.1,292.89,438,276.89a6.82,6.82,0,0,0,4.66-6.52v-8.72a6.52,6.52,0,0,0-.26-1.33A5.85,5.85,0,0,1,438,263.74Z"/><path class="cls-1" d="M241.67,207.4l-4.19-171c-.19-7.74,4.21-14.15,9.71-14.15H231.11a13.67,13.67,0,0,0-13.67,14.15l5.9,171A13.68,13.68,0,0,0,237,220.61h14.37C246.14,220.61,241.85,214.77,241.67,207.4Z"/><path class="cls-4" d="M432,415.31h-14.7V349.16H432a10,10,0,0,1,10,10v46.09A10,10,0,0,1,432,415.31Z"/><path class="cls-4" d="M69.48,415.31H84.25V349.16H69.48a10,10,0,0,0-10,10v46.09A10,10,0,0,0,69.48,415.31Z"/><path class="cls-5" d="M80.88,348.84v66.79A33.16,33.16,0,0,0,114,448.79h76.82a43.76,43.76,0,0,0,41.91-31.18l4.78-15.94a13.37,13.37,0,0,1,12.8-9.52h0a13.37,13.37,0,0,1,12.74,9.32l5.31,16.78a43.76,43.76,0,0,0,41.72,30.54h77.33a33.16,33.16,0,0,0,33.16-33.16V348.84a33.16,33.16,0,0,0-33.16-33.16H114A33.16,33.16,0,0,0,80.88,348.84Z"/><path class="cls-6" d="M310.11,426.24a21.14,21.14,0,0,1-20.22-14.8l-5.15-16.27A36.24,36.24,0,0,0,251,369.61h-.6A35.69,35.69,0,0,0,216,395.19l-4.78,15.94a21.1,21.1,0,0,1-20.32,15.12H114a10.63,10.63,0,0,1-10.62-10.62V348.84A10.62,10.62,0,0,1,114,338.23H387.45a10.62,10.62,0,0,1,10.62,10.61v66.79a10.63,10.63,0,0,1-10.62,10.62H310.11Z"/><path class="cls-7" d="M226,369.61h-.59a35.68,35.68,0,0,0-34.39,25.59l-4.79,15.94a21.09,21.09,0,0,1-20.32,15.12h24.92a21.1,21.1,0,0,0,20.32-15.12L216,395.19a35.69,35.69,0,0,1,21.84-23.36A35.13,35.13,0,0,0,226,369.61Z"/><path class="cls-7" d="M387.45,338.22H362.54a10.63,10.63,0,0,1,10.61,10.62v66.79a10.62,10.62,0,0,1-10.61,10.61h24.91a10.62,10.62,0,0,0,10.62-10.61V348.84A10.63,10.63,0,0,0,387.45,338.22Z"/><path class="cls-8" d="M387.45,315.68H362.54a33.16,33.16,0,0,1,33.15,33.16v66.79a33.16,33.16,0,0,1-33.15,33.16h24.91a33.16,33.16,0,0,0,33.16-33.16V348.84A33.16,33.16,0,0,0,387.45,315.68Z"/></svg>