<svg id="Capa_1" data-name="Capa 1" xmlns="http://www.w3.org/2000/svg" viewBox="0 0 500 330"><defs><style>.cls-1{fill:#9ad14b;}.cls-2{fill:#90bc42;}</style></defs><title>Casco_1</title><path class="cls-1" d="M360.6,120.6l-34.16,51.62-.41.62a147.85,147.85,0,0,0-22.34,103.23l3.49,23,1.75,11.55,1.78,11.76H190.62l.78-11.76.76-11.55,2.77-41.86q.39-5.94.39-11.88A181,181,0,0,0,194,223.67,27.67,27.67,0,0,0,182,204a35.91,35.91,0,0,1-11.66-12.94,104.68,104.68,0,0,0-36.49-39.22l-2.26-1.43A19.07,19.07,0,0,1,126,123.54l.29-.42A19.09,19.09,0,0,1,154,118.83c8,6.35,17.66,14,25.79,20.45a9.41,9.41,0,0,0,2.16,1.29,9.06,9.06,0,0,0,12.44-9.39l-.12-1.06L184.08,39.81a17.84,17.84,0,0,1,14.26-19.53c10.39,0,20.19,8.41,21.77,18.68l9.3,60.45a1.76,1.76,0,0,0,3.5-.17L237,25.48A19.16,19.16,0,0,1,256.15,7.4l.78,0a19.16,19.16,0,0,1,18.35,20.19l-3.77,68.3a3.21,3.21,0,0,0,6.25,1.22l15.42-45a17.53,17.53,0,0,1,23.93-10.24,17.82,17.82,0,0,1,9.18,21.79L307,122.39a4,4,0,0,0,6.84,3.88l21.29-24.53a16.09,16.09,0,0,1,22-2.32A15.85,15.85,0,0,1,360.6,120.6Z"/><path class="cls-2" d="M248.25,167.19C231,146.85,197.82,149,181.91,140.58a9.06,9.06,0,0,0,12.44-9.39l-.12-1.06c6.17,3.6,15.28,8.64,27.95,15C250,159,248.25,167.19,248.25,167.19Z"/><path class="cls-2" d="M308.93,310.64H191.4l.76-11.55h76.21V282a5.77,5.77,0,1,1,11.55,0V299.1h27.27Z"/><circle class="cls-2" cx="274.14" cy="266.73" r="5.77"/></svg>