<svg id="Capa_1" data-name="Capa 1" xmlns="http://www.w3.org/2000/svg" viewBox="0 0 500 330"><defs><style>.cls-1{fill:#89af00;}.cls-2{fill:#5f7505;}.cls-3{fill:#7d9908;}</style></defs><title>Mameluco</title><path class="cls-1" d="M260.09,12.64,241.92,17l-16.65-4.31V17l-44.65,4.93L109.49,126.66l6.81,4.93,11.35,5.55,7.57,3.08,48.43-75.81,11,57.93v9.31l-5.52,31.12L120.08,313.41l10.59,4.93,13.62,4.93,11.35,3.7,87-155.13,31.78.43S259.33,13.26,260.09,12.64Z"/><path class="cls-2" d="M241.92,17l18.16-4.31V17l44.65,4.93,73.41,106-6.89,4.31-9.54,4.38-9.31,3.64-50.7-75.81-12.87,57.93v9.24l5.83,33.71,70.61,148.1L357,316.49,341.82,322l-12.11,4.31L243.21,171l-1.29-9.86"/><path class="cls-1" d="M260.39,45V56.28c0,5.86,5.83,10.66,13.09,10.66s13.09-4.75,13.09-10.66V45Z"/><path class="cls-2" d="M199.17,45.06V56.34C199.17,62.19,205,67,212.26,67s13.09-4.75,13.09-10.66V45.06Z"/><path class="cls-3" d="M289,131.66H194.7l.08-9.37,94.22-.06v9.43Z"/><path class="cls-3" d="M247.83,169.19H236.1l-23.54-9.37h58.8Z"/><path class="cls-3" d="M206.58,127h11.81V112.92H206.58Z"/><path class="cls-3" d="M265.46,127h11.81V112.92H265.46Z"/><path class="cls-3" d="M230.12,164.51h11.81V131.66H230.19v32.85Z"/><polygon class="cls-3" points="215.36 8.82 215.36 17.57 229.89 30.27 237.76 20.35 247 20.35 254.87 30.27 269.4 17.57 269.4 8.82 215.36 8.82"/><polygon class="cls-1" points="225.28 14.68 237.76 20.35 247 20.35 259.41 14.68 225.28 14.68"/></svg>