<svg id="Capa_1" data-name="Capa 1" xmlns="http://www.w3.org/2000/svg" viewBox="0 0 500 330"><defs><style>.cls-1{fill:#ff5a64;}.cls-2{fill:#d74b55;}.cls-3{fill:#c8414b;}</style></defs><title>Remera</title><path class="cls-1" d="M382.89,55.81a30.48,30.48,0,0,0-23-24.3l-33.59-8.18a74,74,0,0,0-17.51-2.1H182.12a74,74,0,0,0-17.51,2.1L131,31.51a30.48,30.48,0,0,0-23,24.3L97.26,118.53a10,10,0,0,0,6.65,11.1l48.68,17.25V307.74a5.09,5.09,0,0,0,5.16,5H333.13a5.09,5.09,0,0,0,5.16-5V146.89L387,129.64a10,10,0,0,0,6.65-11.1Z"/><path class="cls-2" d="M312.5,21.32c-1.24-.06-2.48-.1-3.73-.1H182.12c-1.24,0-2.49,0-3.73.1.06,36,30.06,65.24,67.06,65.24S312.44,57.37,312.5,21.32Z"/><path class="cls-2" d="M142,66.21,115.63,40.49A29.81,29.81,0,0,0,108,55.81L97.26,118.53a10,10,0,0,0,6.65,11.1l48.68,17.25V91.09A34.74,34.74,0,0,0,142,66.21Z"/><path class="cls-3" d="M297,21.22c0,27.76-23.09,50.27-51.58,50.27S193.86,49,193.86,21.22"/><path class="cls-1" d="M99.06,108l-1.8,10.53a10,10,0,0,0,6.65,11.1l48.68,17.25V126.78Z"/><path class="cls-3" d="M147.43,91.59a5.09,5.09,0,0,0-5.16,5v46.61l10.32,3.66V96.62A5.09,5.09,0,0,0,147.43,91.59Z"/><polygon class="cls-2" points="142.28 143.23 152.59 146.88 152.59 126.78 142.28 123.16 142.28 143.23"/><path class="cls-2" d="M348.87,66.21l26.39-25.72a29.81,29.81,0,0,1,7.64,15.31l10.73,62.73a10,10,0,0,1-6.65,11.1l-48.68,17.25V91.09A34.74,34.74,0,0,1,348.87,66.21Z"/><path class="cls-1" d="M391.82,108l1.8,10.53a10,10,0,0,1-6.65,11.1l-48.68,17.25V126.78Z"/><path class="cls-3" d="M343.45,91.59a5.09,5.09,0,0,1,5.16,5v46.61l-10.32,3.66V96.62A5.09,5.09,0,0,1,343.45,91.59Z"/><polygon class="cls-2" points="348.61 143.23 338.29 146.88 338.29 126.78 348.61 123.16 348.61 143.23"/><path class="cls-2" d="M333.13,312.76H157.75a5.09,5.09,0,0,1-5.16-5V297.68h185.7v10.05A5.09,5.09,0,0,1,333.13,312.76Z"/><path class="cls-1" d="M255.76,41.33H235.13a5.11,5.11,0,0,1-5.16-5h0a5.11,5.11,0,0,1,5.16-5h20.63a5.11,5.11,0,0,1,5.16,5h0A5.11,5.11,0,0,1,255.76,41.33Z"/></svg>