<svg id="Capa_1" data-name="Capa 1" xmlns="http://www.w3.org/2000/svg" viewBox="0 0 500 330"><defs><style>.cls-1{fill:#adadad;}.cls-2{fill:#ffa227;}.cls-3{fill:#088aff;}.cls-4{fill:#0076ce;}.cls-5{fill:#f78b0b;}</style></defs><title>Visuales</title><path class="cls-1" d="M446.9,201.13H431V129.35H446.9a10.88,10.88,0,0,1,10.88,10.88v50A10.88,10.88,0,0,1,446.9,201.13Z"/><path class="cls-1" d="M53.54,201.13h16V129.35h-16a10.88,10.88,0,0,0-10.88,10.88v50A10.88,10.88,0,0,0,53.54,201.13Z"/><path class="cls-2" d="M65.92,129v72.47a36,36,0,0,0,36,36h83.35a47.48,47.48,0,0,0,45.47-33.83l5.19-17.3A14.5,14.5,0,0,1,249.79,176h0a14.5,14.5,0,0,1,13.82,10.12l5.77,18.2a47.48,47.48,0,0,0,45.26,33.14h83.91a36,36,0,0,0,36-36V129a36,36,0,0,0-36-36H101.89A36,36,0,0,0,65.92,129Z"/><path class="cls-3" d="M314.64,213a22.93,22.93,0,0,1-21.94-16.07l-5.59-17.65a39.3,39.3,0,0,0-36.66-27.74h-.65a38.72,38.72,0,0,0-37.31,27.76l-5.19,17.3a22.88,22.88,0,0,1-22,16.4H101.89a11.53,11.53,0,0,1-11.52-11.52V129a11.53,11.53,0,0,1,11.52-11.52H398.55A11.53,11.53,0,0,1,410.07,129v72.47A11.53,11.53,0,0,1,398.55,213H314.64Z"/><path class="cls-4" d="M223.41,151.54h-.65a38.72,38.72,0,0,0-37.31,27.76l-5.19,17.3a22.88,22.88,0,0,1-22,16.4h27a22.88,22.88,0,0,0,22-16.4l5.19-17.3A38.7,38.7,0,0,1,236.18,154,38.3,38.3,0,0,0,223.41,151.54Z"/><path class="cls-4" d="M398.55,117.49h-27A11.53,11.53,0,0,1,383,129v72.47A11.53,11.53,0,0,1,371.52,213h27a11.53,11.53,0,0,0,11.52-11.52V129A11.53,11.53,0,0,0,398.55,117.49Z"/><path class="cls-5" d="M398.55,93h-27a36,36,0,0,1,36,36v72.47a36,36,0,0,1-36,36h27a36,36,0,0,0,36-36V129A36,36,0,0,0,398.55,93Z"/></svg>