<svg id="Capa_1" data-name="Capa 1" xmlns="http://www.w3.org/2000/svg" viewBox="0 0 300 300"><defs><style>.cls-1{fill:#fff;}</style></defs><title>inc</title><path class="cls-1" d="M95,51.55Q115.34,34,149.27,34t54.46,17.24q20.55,17.25,20.55,48.8t-19.71,46q-19.73,14.48-58.48,14.77v37.56H110V136.82h16q31.39.31,46.61-7.54t15.2-30.94q0-16.31-10.19-25.55t-28.24-9.23q-18,0-28.4,8.92T110.67,97.42H74.92Q74.59,69.1,95,51.55ZM112.68,260a20.37,20.37,0,0,1,0-30.17,24.42,24.42,0,0,1,32.41,0,20.37,20.37,0,0,1,0,30.17,24.4,24.4,0,0,1-32.41,0Z"/></svg>