<svg id="Capa_1" data-name="Capa 1" xmlns="http://www.w3.org/2000/svg" viewBox="0 0 300 300"><defs><style>.cls-1{fill:#dc4242;}</style></defs><title>mal</title><path class="cls-1" d="M185.91,150l78.67-78.67a4.83,4.83,0,0,0,0-6.84L235.51,35.42a4.82,4.82,0,0,0-6.83,0L150,114.09,71.32,35.42a5,5,0,0,0-6.83,0L35.42,64.49a4.83,4.83,0,0,0,0,6.84L114.09,150,35.42,228.68a4.82,4.82,0,0,0,0,6.83l29.07,29.07a4.82,4.82,0,0,0,6.83,0L150,185.91l78.68,78.67a4.82,4.82,0,0,0,6.83,0l29.07-29.07a4.82,4.82,0,0,0,0-6.83Z"/></svg>