<svg id="Capa_1" data-name="Capa 1" xmlns="http://www.w3.org/2000/svg" viewBox="0 0 300 300"><defs><style>.cls-1{fill:#fff;}</style></defs><title>progreso</title><path class="cls-1" d="M63.1,120Q49.33,106.59,49.33,83.58T63.1,47.29Q76.87,34,98.58,34t35.48,13.29q13.77,13.29,13.77,36.29T134.06,120q-13.77,13.46-35.48,13.44T63.1,120Zm7,142.73L199.35,37.24h36.29L106.36,262.76ZM119,83.74q0-27.37-20.41-27.38T78.17,83.74q0,27.38,20.41,27.38T119,83.74Zm53.3,168.81q-13.77-13.44-13.76-36.45t13.76-36.29q13.78-13.27,35.32-13.28t35.32,13.28Q256.7,193.1,256.7,216.1t-13.77,36.45Q229.16,266,207.61,266T172.29,252.55Zm55.57-36.45q0-27.21-20.41-27.22T187,216.1q0,27.21,20.41,27.22T227.86,216.1Z"/></svg>