<svg id="Capa_1" data-name="Capa 1" xmlns="http://www.w3.org/2000/svg" viewBox="0 0 500 300"><defs><style>.cls-1{fill:#d4deed;}.cls-2{fill:#c4cfe3;}.cls-3{fill:#660a30;}.cls-4{fill:#929cb4;}.cls-5{fill:#d64380;}.cls-6{fill:#990f48;}.cls-7{fill:#6f7588;}</style></defs><title>Eventos</title><path class="cls-1" d="M387.73,136.68l-17.06,3.44V89.77l17.06,3.41a10.07,10.07,0,0,1,8.1,9.87v23.76A10.07,10.07,0,0,1,387.73,136.68Z"/><path class="cls-2" d="M387.73,121.58,370.67,125v15.13l17.06-3.42a10.07,10.07,0,0,0,8.1-9.87V111.71A10.07,10.07,0,0,1,387.73,121.58Z"/><path class="cls-3" d="M119.09,150.14h-5a10.05,10.05,0,0,1-10.12-10V89.77A10.07,10.07,0,0,1,114.06,79.7h5Z"/><path class="cls-1" d="M234.81,59.58v110.7c35.22,0,90.58,15.09,130.82,50.31V9.3C325.39,44.48,270,59.58,234.81,59.58Z"/><path class="cls-4" d="M375.7,225.62h-5a5,5,0,0,1-5-5V9.3a5,5,0,0,1,5-5h5a5,5,0,0,1,5,5V220.59a5,5,0,0,1-4.93,5Z"/><path class="cls-5" d="M242,286h0a5,5,0,0,1-5-4.05L214.64,170.28H159.33l22.74,113.65a15.07,15.07,0,0,0,14.8,12.13H242A5,5,0,1,0,242,286Z"/><path class="cls-3" d="M224.76,170.28v5.79a5,5,0,0,1-4.22,5L140,194.46a5,5,0,0,1-5.78-4,4.36,4.36,0,0,1-.08-1v-19.2Z"/><path class="cls-5" d="M234.81,170.28H134.18a20.13,20.13,0,0,1-20.12-20.14V79.7a20.12,20.12,0,0,1,20.12-20.12H234.81v110.7Z"/><rect class="cls-4" x="224.76" y="59.58" width="10.07" height="110.7"/><path class="cls-6" d="M114.06,135.06h110.7v35.22H134.18a20.13,20.13,0,0,1-20.12-20.14Z"/><path class="cls-2" d="M234.81,170.28c35.22,0,90.58,15.09,130.82,50.31V160.21c-40.26-16.77-95.61-25.15-130.82-25.15Z"/><path class="cls-7" d="M375.7,165.24h-5a5,5,0,0,1-5-5v60.38a5,5,0,0,0,5,5h5a5,5,0,0,0,5-5V160.21a5,5,0,0,1-4.93,5Z"/></svg>