<svg id="Capa_1" data-name="Capa 1" xmlns="http://www.w3.org/2000/svg" viewBox="0 0 500 300"><defs><style>.cls-1{fill:#fcb999;}.cls-2{fill:#65ad44;}.cls-3{fill:#4c8233;}.cls-4{fill:#956650;}.cls-5{fill:#fff;}.cls-6{fill:#bfbfbf;}.cls-7{fill:#bd8b73;}.cls-8{fill:#e8b882;}.cls-9{fill:#ffe000;}.cls-10{fill:#bfa800;}.cls-11{fill:#ae8a62;}.cls-12{fill:#704d3c;}</style></defs><title>gestionpersonal</title><path class="cls-1" d="M292.71,120.65v21.74c0,38.27,29.13,78.27,65.22,78.27s65.23-40,65.23-78.27V120.65Z"/><path class="cls-2" d="M375.33,42.38V38a8.73,8.73,0,0,0-8.7-8.7H349.24a8.73,8.73,0,0,0-8.7,8.7v4.35C307.93,50.21,284,77.17,284,112v8.7H431.86V112c0-34.79-23.92-61.74-56.53-69.57"/><path class="cls-3" d="M375.33,64.12A4.11,4.11,0,0,1,371,59.77v-13a4.35,4.35,0,0,1,8.7,0v13a4.11,4.11,0,0,1-4.35,4.35"/><path class="cls-3" d="M340.54,64.12a4.11,4.11,0,0,1-4.35-4.35v-13a4.35,4.35,0,1,1,8.7,0v13a4.11,4.11,0,0,1-4.35,4.35"/><path class="cls-3" d="M440.55,125H275.32a4.35,4.35,0,1,1,0-8.7H440.55a4.35,4.35,0,0,1,0,8.7"/><path class="cls-3" d="M294.45,75l33.05,6.52L321,49.77A73.75,73.75,0,0,0,294.45,75"/><path class="cls-3" d="M421.42,75l-33.05,6.52,6.53-31.74A73.75,73.75,0,0,1,421.42,75"/><path class="cls-4" d="M76.9,120.65v21.74c0,38.27,29.14,78.27,65.23,78.27s65.22-40,65.22-78.27V120.65Z"/><path class="cls-5" d="M159.52,42.38V38a8.73,8.73,0,0,0-8.7-8.7H133.43a8.73,8.73,0,0,0-8.7,8.7v4.35C92.12,50.21,68.21,77.17,68.21,112v8.7H216.05V112c0-34.79-23.92-61.74-56.53-69.57"/><path class="cls-6" d="M159.52,64.12a4.11,4.11,0,0,1-4.35-4.35v-13a4.35,4.35,0,1,1,8.7,0v13a4.11,4.11,0,0,1-4.35,4.35"/><path class="cls-6" d="M124.73,64.12a4.1,4.1,0,0,1-4.34-4.35v-13a4.35,4.35,0,1,1,8.69,0v13a4.11,4.11,0,0,1-4.35,4.35"/><path class="cls-6" d="M224.75,125H59.51a4.35,4.35,0,1,1,0-8.7H224.75a4.35,4.35,0,0,1,0,8.7"/><polygon class="cls-7" points="357.55 137.03 380.59 180.1 357.55 180.1 357.55 137.03"/><path class="cls-6" d="M78.64,75l33.05,6.52-6.52-31.74A73.78,73.78,0,0,0,78.64,75"/><path class="cls-6" d="M205.61,75l-33,6.52,6.52-31.74A73.75,73.75,0,0,1,205.61,75"/><path class="cls-8" d="M184.37,170.65V192.4c0,38.26,29.13,78.27,65.23,78.27s65.22-40,65.22-78.27V170.65Z"/><path class="cls-9" d="M267,92.38V88a8.72,8.72,0,0,0-8.7-8.7H240.9a8.73,8.73,0,0,0-8.7,8.7v4.34c-32.61,7.83-56.53,34.79-56.53,69.58v8.69H323.52V162c0-34.79-23.92-61.75-56.53-69.58"/><path class="cls-10" d="M267,114.13a4.11,4.11,0,0,1-4.35-4.35v-13a4.35,4.35,0,1,1,8.7,0v13a4.11,4.11,0,0,1-4.35,4.35"/><path class="cls-10" d="M232.2,114.13a4.11,4.11,0,0,1-4.35-4.35v-13a4.35,4.35,0,0,1,8.7,0v13a4.11,4.11,0,0,1-4.35,4.35"/><path class="cls-10" d="M332.21,175H167a4.35,4.35,0,1,1,0-8.69H332.21a4.35,4.35,0,1,1,0,8.69"/><path class="cls-10" d="M186.11,125l33,6.52-6.52-31.74A73.61,73.61,0,0,0,186.11,125"/><path class="cls-10" d="M313.08,125,280,131.52l6.53-31.74A73.66,73.66,0,0,1,313.08,125"/><polygon class="cls-11" points="249.21 186.73 226.17 229.8 249.21 229.8 249.21 186.73"/><polygon class="cls-12" points="141.86 138.03 118.82 181.1 141.86 181.1 141.86 138.03"/></svg>