<svg id="Capa_1" data-name="Capa 1" xmlns="http://www.w3.org/2000/svg" viewBox="0 0 500 300"><defs><style>.cls-1{fill:#e8b882;}.cls-2{fill:#ffe000;}.cls-3{fill:#bfa800;}.cls-4,.cls-5{fill:#fff;}.cls-5{stroke:#eaeaea;stroke-miterlimit:10;stroke-width:3.69px;}.cls-6{fill:#f44d4d;}.cls-7{fill:#ae8a62;}</style></defs><title>solicitudes</title><path class="cls-1" d="M128.05,143.65v31.73c0,55.85,42.52,114.23,95.19,114.23s95.19-58.38,95.19-114.23V143.65Z"/><path class="cls-2" d="M248.62,29.43V23.08a12.73,12.73,0,0,0-12.69-12.69H210.55a12.73,12.73,0,0,0-12.7,12.69v6.35C150.26,40.85,115.36,80.2,115.36,131v12.69H331.12V131c0-50.77-34.91-90.11-82.5-101.53"/><path class="cls-3" d="M248.62,61.16a6,6,0,0,1-6.35-6.35v-19a6.35,6.35,0,0,1,12.7,0v19a6,6,0,0,1-6.35,6.35"/><path class="cls-3" d="M197.85,61.16a6,6,0,0,1-6.34-6.35v-19a6.35,6.35,0,0,1,12.69,0v19a6,6,0,0,1-6.35,6.35"/><path class="cls-3" d="M343.81,150H102.66a6.35,6.35,0,0,1,0-12.69H343.81a6.35,6.35,0,1,1,0,12.69"/><path class="cls-3" d="M130.59,77l48.23,9.52L169.3,40.22A107.6,107.6,0,0,0,130.59,77"/><path class="cls-3" d="M315.89,77l-48.23,9.52,9.52-46.32A107.68,107.68,0,0,1,315.89,77"/><path class="cls-4" d="M255.66,211.79c5.35,8.68,4.63,19.26-1.29,25.72s-14.26,6.15-15.67,6.1a80,80,0,0,0,41.94,1.73,77.18,77.18,0,0,0,20.09-7.83,85.24,85.24,0,0,1-45.07-25.72Z"/><circle class="cls-5" cx="318.43" cy="154.09" r="85.26"/><path class="cls-6" d="M317.17,120c-12.69,0-17.41,14.16-17.41,14.16l-15.05-6.93s7.08-24.05,32.46-24.05c17.7,0,31.43,13.13,31.43,29.51,0,13-6.79,19.18-16.38,27.59-5.17,4.57-5.46,4.87-5.46,10.18V178H309.2V167.1c0-9.59,3.69-11.66,13.28-19.92,5.46-4.72,8.41-7.53,8.41-14.46S324.55,120,317.17,120Zm.88,66.69a11.66,11.66,0,1,1-11.65,11.66A11.58,11.58,0,0,1,318.05,186.72Z"/><polygon class="cls-7" points="223.24 174.44 196.51 224.4 223.24 224.4 223.24 174.44"/></svg>