<svg id="Capa_1" data-name="Capa 1" xmlns="http://www.w3.org/2000/svg" viewBox="0 0 130 130"><defs><style>.cls-1{fill:#fff;}.cls-2{fill:#3ffc3a;}</style></defs><title>print</title><path class="cls-1" d="M112.55,81.88V47.57a8.31,8.31,0,0,0-8.29-8.29h-9V21.81a5.52,5.52,0,0,0-5.51-5.5H44.36a5.51,5.51,0,0,0-5.5,5.5V39.3H29.92a8.28,8.28,0,0,0-8.29,8.27V81.88a8.3,8.3,0,0,0,8.29,8.29h9v14.61a5.51,5.51,0,0,0,5.5,5.51H89.8a5.51,5.51,0,0,0,5.5-5.51V90.17h9A8.29,8.29,0,0,0,112.55,81.88Zm-69-60.07a.8.8,0,0,1,.8-.8H89.8a.81.81,0,0,1,.81.8V39.3h-47Zm47,83a.81.81,0,0,1-.81.81H44.38a.8.8,0,0,1-.8-.81V67.08h47v37.7ZM93,62.38H41.24a2.35,2.35,0,0,0-2.36,2.36V85.47h-9a3.59,3.59,0,0,1-3.59-3.59V47.57A3.59,3.59,0,0,1,29.92,44h74.32a3.59,3.59,0,0,1,3.59,3.59V81.88a3.59,3.59,0,0,1-3.59,3.59H95.29V64.74A2.33,2.33,0,0,0,93,62.38Z"/><path class="cls-2" d="M33.81,51.48a2.36,2.36,0,1,0,4,1.67,2.4,2.4,0,0,0-.69-1.67A2.44,2.44,0,0,0,33.81,51.48Z"/><path class="cls-1" d="M80.42,84H53.76a2.36,2.36,0,0,0,0,4.72H80.4a2.36,2.36,0,0,0,0-4.72Z"/><path class="cls-1" d="M80.42,94.64H53.76a2.36,2.36,0,0,0,0,4.72H80.4a2.36,2.36,0,0,0,0-4.72Z"/><path class="cls-1" d="M80.42,73.33H53.76a2.36,2.36,0,0,0,0,4.72H80.4a2.36,2.36,0,0,0,0-4.72Z"/></svg>