<svg id="Capa_1" data-name="Capa 1" xmlns="http://www.w3.org/2000/svg" viewBox="0 0 36.67 33.08"><defs><style>.cls-1{fill:#00c251;}</style></defs><title>icons sin padding</title><path class="cls-1" d="M16.09,32.54a16.09,16.09,0,1,1,0-32.18,16,16,0,0,1,9.65,3.22,1,1,0,0,1-1.17,1.56,14,14,0,0,0-8.48-2.82A14.14,14.14,0,1,0,30.23,16.45c0-.34,0-.68,0-1a1,1,0,0,1,2-.14c0,.38,0,.77,0,1.15A16.11,16.11,0,0,1,16.09,32.54Z"/><path class="cls-1" d="M8.3,12.5A1.86,1.86,0,0,0,7,15.67l8.6,8.6a.57.57,0,0,0,.81,0L34.09,6.58a1.86,1.86,0,0,0-2.63-2.63L17.23,18.18a1.75,1.75,0,0,1-2.48,0L9.62,13A1.85,1.85,0,0,0,8.3,12.5ZM16,26.39a2.52,2.52,0,0,1-1.79-.74l-8.6-8.6A3.81,3.81,0,0,1,11,11.66l5,5L30.08,2.57h0A3.81,3.81,0,1,1,35.48,8L17.78,25.65a2.52,2.52,0,0,1-1.79.74Z"/></svg>