<svg id="Capa_1" data-name="Capa 1" xmlns="http://www.w3.org/2000/svg" viewBox="0 0 37 33"><defs><style>.cls-1{fill:#5d5d5d;}</style></defs><title>icons sin padding</title><path class="cls-1" d="M16,32.62A16.13,16.13,0,1,1,16,.36a16,16,0,0,1,9.68,3.23,1,1,0,0,1-1.18,1.57A14,14,0,0,0,16,2.32,14.17,14.17,0,1,0,30.21,16.49c0-.34,0-.68,0-1a1,1,0,0,1,2-.14c0,.38,0,.77,0,1.16A16.15,16.15,0,0,1,16,32.62Z"/><path class="cls-1" d="M8.23,12.53a1.86,1.86,0,0,0-1.32,3.18l8.62,8.62a.57.57,0,0,0,.81,0L34.09,6.59A1.86,1.86,0,0,0,31.45,4L17.18,18.23a1.76,1.76,0,0,1-2.49,0L9.55,13.07a1.86,1.86,0,0,0-1.32-.55Zm7.71,13.93a2.53,2.53,0,0,1-1.79-.74L5.53,17.1a3.82,3.82,0,0,1,5.41-5.41l5,5L30.07,2.57h0A3.82,3.82,0,0,1,35.47,8L17.73,25.72a2.53,2.53,0,0,1-1.79.74Z"/></svg>