<svg id="Capa_1" data-name="Capa 1" xmlns="http://www.w3.org/2000/svg" viewBox="0 0 38 30"><defs><style>.cls-1{fill:#5d5d5d;}</style></defs><title>icons sin padding</title><path class="cls-1" d="M22.51,24.09H14.84v-1.9h7.66v1.9Zm.32-3.36H14.52a1.14,1.14,0,0,0-1.14,1.14v2.55a1.14,1.14,0,0,0,1.14,1.14h8.31A1.14,1.14,0,0,0,24,24.41V21.86a1.14,1.14,0,0,0-1.14-1.14Z"/><path class="cls-1" d="M35.9,27.18a.94.94,0,0,1-.94.94H2.39a.94.94,0,0,1-.94-.94V15.74a.94.94,0,0,1,.94-.94H11a.06.06,0,0,1,.06,0l1.05,2.33a1.69,1.69,0,0,0,1.54,1H23.71a1.69,1.69,0,0,0,1.54-1l1.05-2.33h0a.06.06,0,0,1,.06,0H35a.94.94,0,0,1,.94.94V27.18ZM7.11,4.31A1,1,0,0,1,8,3.78H9V5.07H8a.73.73,0,0,0-.73.73V9.72h-.9a.73.73,0,0,0-.73.73v2.73H2.63L7.11,4.31ZM28.58,6.53V9.72H8.77V6.53ZM10.47,1.88h16.4V5.07H10.47V1.88Zm19.74,9.3v2H26.36a1.69,1.69,0,0,0-1.54,1L23.77,16.5a.06.06,0,0,1-.06,0H13.64a.06.06,0,0,1-.06,0l-1.05-2.33a1.69,1.69,0,0,0-1.54-1H7.14v-2Zm-1.88-7.4h1a1,1,0,0,1,.86.53l4.49,8.87H31.67V10.45a.73.73,0,0,0-.73-.73H30V5.8a.73.73,0,0,0-.73-.73h-1V3.78Zm8.82,10.63h0L31.69,3.58a2.57,2.57,0,0,0-2.31-1.42h-1v-1a.73.73,0,0,0-.73-.73H9.74A.73.73,0,0,0,9,1.15v1H8A2.57,2.57,0,0,0,5.66,3.58L.19,14.41h0a2.54,2.54,0,0,0-.37,1.32V27.18a2.56,2.56,0,0,0,2.56,2.56H35a2.56,2.56,0,0,0,2.56-2.56V15.74a2.54,2.54,0,0,0-.37-1.32Z"/></svg>