<?xml version="1.0" encoding="utf-8"?>
<!-- Generator: Adobe Illustrator 21.1.0, SVG Export Plug-In . SVG Version: 6.00 Build 0)  -->
<svg version="1.1" id="Capa_1" xmlns="http://www.w3.org/2000/svg" xmlns:xlink="http://www.w3.org/1999/xlink" x="0px" y="0px"
	 viewBox="0 0 301.8 350" style="enable-background:new 0 0 301.8 350;" xml:space="preserve">
<style type="text/css">
	.st0{fill:#D8DCE6;}
	.st1{fill:#163780;}
	.st2{fill:#DD5151;}
	.st3{fill:#FFFFFF;}
	.st4{fill:#F6F7F7;}
</style>
<title>CAMBIO DE HORA</title>
<polygon class="st0" points="281.4,151.7 301.8,151.7 301.8,197.6 281.4,197.6 281.4,151.7 "/>
<path class="st1" d="M203.4,15.3c-1.3-8.7-8.7-15.2-17.5-15.3h-84.6c-8.8,0.1-16.2,6.6-17.5,15.3L61.9,175l21.9,159.7
	c1.3,8.7,8.7,15.2,17.5,15.3h85.3c8.8-0.1,16.2-6.6,17.5-15.3L226.1,175L203.4,15.3L203.4,15.3z"/>
<path class="st0" d="M214.3,19.7H72.9c-8,0-14.6,6.5-14.6,14.6v281.5c0,8,6.5,14.6,14.6,14.6h142.2c8,0,14.6-6.5,14.6-14.6V34.3
	C229,26.2,222.4,19.9,214.3,19.7z"/>
<path class="st2" d="M143.6,31.4c79.3,0,143.6,64.3,143.6,143.6s-64.3,143.6-143.6,143.6S0,254.2,0,174.9
	C0,95.6,64.3,31.4,143.6,31.4z"/>
<path class="st3" d="M143.6,291.7c-64.4,0-116.7-52.2-116.7-116.7S79.2,58.3,143.6,58.3S260.3,110.6,260.3,175l0,0
	C260.1,239.4,207.9,291.5,143.6,291.7z"/>
<path class="st4" d="M143.6,256.7c-45.1,0-81.7-36.6-81.7-81.7c0-45.1,36.6-81.7,81.7-81.7c45.1,0,81.7,36.6,81.7,81.7c0,0,0,0,0,0
	c0.1,45-36.4,81.6-81.4,81.7C143.8,256.7,143.7,256.7,143.6,256.7z"/>
<path class="st2" d="M143.6,66.4c5.2,0,9.5,4.2,9.5,9.5c0,5.2-4.2,9.5-9.5,9.5c-5.2,0-9.5-4.2-9.5-9.5c0,0,0,0,0,0
	C134.1,70.6,138.4,66.4,143.6,66.4L143.6,66.4L143.6,66.4z"/>
<path class="st2" d="M143.6,264.7c5.2,0,9.5,4.2,9.5,9.5s-4.2,9.5-9.5,9.5s-9.5-4.2-9.5-9.5l0,0
	C134.1,268.9,138.4,264.7,143.6,264.7z"/>
<path class="st2" d="M242.8,165.5c5.2,0,9.5,4.2,9.5,9.5c0,5.2-4.2,9.5-9.5,9.5c-5.2,0-9.5-4.2-9.5-9.5
	C233.3,169.8,237.5,165.5,242.8,165.5L242.8,165.5z"/>
<path class="st2" d="M44.4,165.5c5.2,0,9.5,4.2,9.5,9.5c0,5.2-4.2,9.5-9.5,9.5s-9.5-4.2-9.5-9.5C34.9,169.8,39.2,165.5,44.4,165.5
	L44.4,165.5z"/>
<path class="st1" d="M192.5,175c-0.1,5.2-4.3,9.4-9.5,9.5h-40.1c-5.2-0.1-9.4-4.3-9.5-9.5v-63.4c0.1-5.2,4.3-9.4,9.5-9.5
	c5,0.1,8.9,4.3,8.8,9.3c0,0.1,0,0.1,0,0.2v54.7h32.1C188.8,165.5,192.5,169.9,192.5,175L192.5,175z"/>
</svg>
