<svg id="Capa_1" data-name="Capa 1" xmlns="http://www.w3.org/2000/svg" viewBox="0 0 34 33"><defs><style>.cls-1{fill:#5d5d5d;}.cls-2{fill:none;stroke:#5d5d5d;stroke-miterlimit:10;stroke-width:1.67px;}</style></defs><title>icons sin padding</title><path class="cls-1" d="M16,33A16.33,16.33,0,1,1,16,.34c1.86,0,5,.3,7.11,2a1,1,0,0,1-1.19,1.59A10.16,10.16,0,0,0,16,2.33,14.34,14.34,0,1,0,30.34,16.67c0-2.71-1.21-3.88-.14-4.43s1.88.72,2.08,3.26c0,.38,0,.78,0,1.17A16.35,16.35,0,0,1,16,33Z"/><path class="cls-2" d="M20.73,16.57l4.14,4.71a2.53,2.53,0,0,1-.23,3.56h0a2.53,2.53,0,0,1-3.56-.23l-4.69-5.33"/><path class="cls-2" d="M14.16,16.73,9.47,11.4A2.53,2.53,0,0,1,9.7,7.84h0a2.53,2.53,0,0,1,3.56.23l4.69,5.33"/><path class="cls-2" d="M17.09,13,29.15,1.92a2.53,2.53,0,0,1,3.56.23h0a2.53,2.53,0,0,1-.23,3.56L20.1,17.11"/><path class="cls-2" d="M16.94,19.9,12.23,24a2.53,2.53,0,0,1-3.56-.23h0a2.53,2.53,0,0,1,.23-3.56l4.71-4.14"/></svg>