<svg id="Capa_1" data-name="Capa 1" xmlns="http://www.w3.org/2000/svg" viewBox="0 0 36 33"><defs><style>.cls-1{fill:#ff6567;}.cls-2{fill:none;stroke:#ff6567;stroke-miterlimit:10;stroke-width:1.67px;}</style></defs><title>icons sin padding</title><path class="cls-1" d="M17,33A16.33,16.33,0,1,1,17,.34c1.86,0,5,.3,7.11,2a1,1,0,0,1-1.19,1.59A10.16,10.16,0,0,0,17,2.33,14.34,14.34,0,1,0,31.34,16.67c0-2.71-1.21-3.88-.14-4.43s1.88.72,2.08,3.26c0,.38,0,.78,0,1.17A16.35,16.35,0,0,1,17,33Z"/><path class="cls-2" d="M21.73,16.57l4.14,4.71a2.53,2.53,0,0,1-.23,3.56h0a2.53,2.53,0,0,1-3.56-.23l-4.69-5.33"/><path class="cls-2" d="M15.16,16.73,10.47,11.4a2.53,2.53,0,0,1,.23-3.56h0a2.53,2.53,0,0,1,3.56.23l4.69,5.33"/><path class="cls-2" d="M18.09,13,30.15,1.92a2.53,2.53,0,0,1,3.56.23h0a2.53,2.53,0,0,1-.23,3.56L21.1,17.11"/><path class="cls-2" d="M17.94,19.9,13.23,24a2.53,2.53,0,0,1-3.56-.23h0a2.53,2.53,0,0,1,.23-3.56l4.71-4.14"/></svg>