<svg id="Capa_1" data-name="Capa 1" xmlns="http://www.w3.org/2000/svg" viewBox="0 0 31 40"><defs><style>.cls-1{fill:#5d5d5d;}</style></defs><title>icons sin padding</title><path class="cls-1" d="M9.24,6.63H22a.76.76,0,0,0,.76-.76V3.47H19.44V1.52A1.52,1.52,0,0,0,17.92,0H13.36a1.52,1.52,0,0,0-1.52,1.52V3.47H8.48v2.4a.76.76,0,0,0,.76.76Zm0,0"/><path class="cls-1" d="M24.32,3.47v2.4A2.28,2.28,0,0,1,22,8.15H9.24A2.28,2.28,0,0,1,7,5.87V3.47H.45V36.87a3,3,0,0,0,3,3H27.8a3,3,0,0,0,3-3V3.47ZM27,36.11H4.25V11.55H27Zm0,0"/></svg>