<svg id="Capa_1" data-name="Capa 1" xmlns="http://www.w3.org/2000/svg" viewBox="0 0 31 41"><defs><style>.cls-1{fill:#ff7000;}</style></defs><title>icons sin padding</title><path class="cls-1" d="M9.12,7.12h13a.77.77,0,0,0,.77-.77V3.9H19.51v-2A1.55,1.55,0,0,0,18,.37H13.32a1.55,1.55,0,0,0-1.55,1.55v2H8.35V6.34a.77.77,0,0,0,.77.77Zm0,0"/><path class="cls-1" d="M24.48,3.9V6.34a2.33,2.33,0,0,1-2.32,2.32h-13A2.32,2.32,0,0,1,6.8,6.34V3.9H.17v34A3.09,3.09,0,0,0,3.27,41H28a3.09,3.09,0,0,0,3.09-3.09V3.9Zm2.76,33.23H4v-25h23.2Zm0,0"/></svg>