<?xml version="1.0" encoding="utf-8"?>
<!-- Generator: Adobe Illustrator 21.1.0, SVG Export Plug-In . SVG Version: 6.00 Build 0)  -->
<svg version="1.1" id="Capa_1" xmlns="http://www.w3.org/2000/svg" xmlns:xlink="http://www.w3.org/1999/xlink" x="0px" y="0px"
	 viewBox="0 0 350 350" style="enable-background:new 0 0 350 350;" xml:space="preserve">
<style type="text/css">
	.st0{fill:#D8862F;}
	.st1{fill:#F1D4B0;}
	.st2{fill:#738083;}
	.st3{fill:#D7DADB;}
	.st4{fill:#A5ACAD;}
	.st5{fill:#FFFFFF;}
	.st6{fill:#ECEFF0;}
	.st7{fill:#87C2D1;}
	.st8{fill:#5290A7;}
	.st9{fill:#CE6134;}
	.st10{fill:#455759;}
	.st11{clip-path:url(#SVGID_2_);}
	.st12{fill:#C52E35;}
</style>
<title>HORAS EXTRA</title>
<path class="st0" d="M259.5,93.6l-17.3-17.3c-1.4-1.4-3.6-1.4-5,0l-19.9,19.9c-1.4,1.4-1.4,3.6,0,5l17.3,17.3c1.4,1.4,3.6,1.4,5,0
	l19.9-19.9C260.8,97.2,260.8,95,259.5,93.6L259.5,93.6z"/>
<path class="st1" d="M259.5,98.6c1.4-1.4,1.4-3.6,0-5l-17.3-17.3c-1.4-1.4-3.6-1.4-5,0l-3.2,3.2l22.3,22.3L259.5,98.6L259.5,98.6z"
	/>
<path class="st2" d="M185.8,57.9h-15c-1.9,0-3.5,1.6-3.5,3.5v20.7c0,1.9,1.6,3.5,3.5,3.5h15c1.9,0,3.5-1.6,3.5-3.5V61.4
	C189.3,59.5,187.7,57.9,185.8,57.9z"/>
<path class="st3" d="M197.1,44.8h-37.7c-1.9,0-3.5,1.6-3.5,3.5v15.1c0,1.9,1.6,3.5,3.5,3.5h37.7c1.9,0,3.5-1.6,3.5-3.5V48.3
	C200.6,46.3,199.1,44.8,197.1,44.8L197.1,44.8z"/>
<path class="st4" d="M159.5,44.8c-1.9,0-3.5,1.6-3.5,3.5v15.1c0,1.9,1.6,3.5,3.5,3.5h18.8V44.8H159.5z"/>
<path class="st5" d="M193.4,63.1c-1.9,0-3.5-1.6-3.5-3.5V52c0-1.9,1.6-3.6,3.6-3.6c1.9,0,3.6,1.6,3.6,3.6l0,0v7.5
	C196.9,61.5,195.4,63.1,193.4,63.1L193.4,63.1z"/>
<path class="st6" d="M178.3,80.5c-52.8,0-95.8,42.9-95.8,95.7c-0.1,52.8,42.8,95.8,95.6,95.8s95.8-42.9,95.8-95.7c0,0,0,0,0-0.1
	C273.9,123.5,231.1,80.6,178.3,80.5z"/>
<path class="st3" d="M82.5,176.2c0.1,52.8,42.9,95.7,95.8,95.8V80.5C125.5,80.6,82.6,123.4,82.5,176.2L82.5,176.2z"/>
<path class="st7" d="M178.3,219.8c-24,0-43.5-19.5-43.5-43.5s19.5-43.5,43.5-43.5s43.5,19.5,43.5,43.5
	C221.7,200.3,202.3,219.7,178.3,219.8z M178.3,105c-39.3,0-71.3,31.9-71.3,71.3s31.9,71.3,71.3,71.3s71.3-31.9,71.3-71.3
	C249.5,136.9,217.7,105,178.3,105z"/>
<path class="st8" d="M134.8,176.2c0.1-24,19.5-43.5,43.5-43.5V105c-39.3,0-71.3,31.9-71.3,71.2s31.9,71.3,71.2,71.3c0,0,0,0,0.1,0
	v-27.8C154.3,219.7,134.8,200.3,134.8,176.2z"/>
<path class="st9" d="M107,176.2v3.5h27.8v-3.5c0.1-24,19.5-43.5,43.5-43.5V105C139,105,107.1,136.9,107,176.2L107,176.2z"/>
<path class="st10" d="M178.3,179.8c-0.9,0-1.8-0.4-2.5-1l-41.4-41.4c-1.4-1.4-1.3-3.6,0.1-5c1.4-1.3,3.5-1.3,4.9,0l41.4,41.4
	c1.4,1.4,1.4,3.6,0,5C180.1,179.4,179.2,179.8,178.3,179.8L178.3,179.8z"/>
<path class="st2" d="M178.3,152c-13.4,0-24.2,10.8-24.2,24.2c0,13.4,10.8,24.2,24.2,24.2c13.4,0,24.2-10.8,24.2-24.2l0,0
	C202.5,162.9,191.7,152.1,178.3,152z"/>
<g>
	<g>
		<defs>
			<rect id="SVGID_1_" x="76" y="44.8" width="198" height="227.2"/>
		</defs>
		<clipPath id="SVGID_2_">
			<use xlink:href="#SVGID_1_"  style="overflow:visible;"/>
		</clipPath>
		<g class="st11">
			<path class="st5" d="M189.6,179.8c-1.9,0-3.5-1.6-3.5-3.5c0-4.3-3.5-7.8-7.8-7.8c-1.9,0-3.6-1.6-3.6-3.6c0-1.9,1.6-3.6,3.6-3.6
				c8.2,0,14.8,6.6,14.8,14.8C193.1,178.2,191.6,179.7,189.6,179.8L189.6,179.8z"/>
			<path class="st12" d="M79.5,129c-1.9,0-3.5-1.6-3.5-3.5c0-0.6,0.1-1.1,0.4-1.6c5.5-10.5,12.5-20.2,20.9-28.6
				c11.9-11.9,26.3-21.2,42.2-26.8c1.8-0.6,3.8,0.4,4.5,2.2c0.6,1.8-0.3,3.8-2.1,4.4c-14.9,5.3-28.4,14-39.5,25.2
				c-7.9,7.9-14.5,16.9-19.6,26.8C82.1,128.3,80.9,129,79.5,129L79.5,129z"/>
		</g>
	</g>
</g>
<path class="st12" d="M80.1,98.9c-1.9,0-3.5-1.6-3.5-3.5c0-0.8,0.3-1.6,0.8-2.3c10.8-13.1,24-24,39-32.1c1.7-1,3.8-0.4,4.8,1.3
	c1,1.7,0.4,3.8-1.3,4.8c-0.1,0-0.1,0.1-0.1,0.1c-14.2,7.7-26.6,18-36.9,30.4C82.2,98.4,81.2,98.9,80.1,98.9z"/>
</svg>
