<?xml version="1.0" encoding="utf-8"?>
<!-- Generator: Adobe Illustrator 21.1.0, SVG Export Plug-In . SVG Version: 6.00 Build 0)  -->
<svg version="1.1" id="Capa_1" xmlns="http://www.w3.org/2000/svg" xmlns:xlink="http://www.w3.org/1999/xlink" x="0px" y="0px"
	 viewBox="0 0 305 350" style="enable-background:new 0 0 305 350;" xml:space="preserve">
<style type="text/css">
	.st0{fill:#D8862F;}
	.st1{fill:#F1D4B0;}
	.st2{fill:#738083;}
	.st3{fill:#D7DADB;}
	.st4{fill:#A5ACAD;}
	.st5{fill:#FFFFFF;}
	.st6{fill:#ECEFF0;}
	.st7{fill:#87C2D1;}
	.st8{fill:#5290A7;}
	.st9{fill:#CE6134;}
	.st10{fill:#455759;}
	.st11{clip-path:url(#SVGID_2_);}
	.st12{fill:#C52E35;}
</style>
<title>HORAS EXTRA</title>
<path class="st0" d="M282.6,75.2l-26.6-26.6c-2.1-2.1-5.6-2.1-7.7,0l-30.7,30.7c-2.1,2.1-2.1,5.6,0,7.7l26.6,26.6
	c2.1,2.1,5.6,2.1,7.7,0l30.7-30.7C284.7,80.8,284.7,77.3,282.6,75.2L282.6,75.2z"/>
<path class="st1" d="M282.6,82.9c2.1-2.1,2.1-5.6,0-7.7l-26.6-26.7c-2.1-2.1-5.6-2.1-7.7,0l-4.9,4.9l34.4,34.4L282.6,82.9
	L282.6,82.9z"/>
<path class="st2" d="M169.1,20.3H146c-3,0-5.4,2.4-5.4,5.4v31.9c0,3,2.4,5.4,5.4,5.4h23.1c3,0,5.4-2.4,5.4-5.4V25.7
	C174.5,22.7,172.1,20.3,169.1,20.3z"/>
<path class="st3" d="M186.6,0h-58c-3,0-5.4,2.4-5.4,5.4v23.2c0,3,2.4,5.4,5.4,5.4h58c3,0,5.4-2.4,5.4-5.4V5.4
	C192,2.4,189.6,0,186.6,0L186.6,0z"/>
<path class="st4" d="M128.6,0c-3,0-5.4,2.4-5.4,5.4v23.2c0,3,2.4,5.4,5.4,5.4h29V0H128.6z"/>
<path class="st5" d="M180.8,28.3c-3,0-5.4-2.4-5.4-5.4V11.2c0-3,2.4-5.5,5.5-5.5c3,0,5.5,2.4,5.5,5.5l0,0v11.6
	C186.3,25.8,183.9,28.3,180.8,28.3L180.8,28.3z"/>
<path class="st6" d="M157.6,55.1c-81.4,0-147.5,66-147.5,147.4C10,283.9,76,350,157.4,350c81.4,0,147.5-66,147.5-147.4
	c0,0,0,0,0-0.1C304.9,121.2,238.9,55.2,157.6,55.1z"/>
<path class="st3" d="M10.1,202.5c0.1,81.4,66.1,147.4,147.5,147.5V55.1C76.2,55.2,10.2,121.1,10.1,202.5L10.1,202.5z"/>
<path class="st7" d="M157.6,269.6c-37,0-67-30-67-67s30-67,67-67s67,30,67,67C224.5,239.5,194.6,269.5,157.6,269.6z M157.6,92.8
	c-60.6,0-109.8,49.1-109.8,109.8s49.1,109.8,109.8,109.8s109.8-49.1,109.8-109.8C267.3,141.9,218.2,92.8,157.6,92.8z"/>
<path class="st8" d="M90.6,202.5c0.1-37,30-67,67-67V92.8c-60.6,0-109.8,49.1-109.8,109.7c0,60.6,49.1,109.8,109.7,109.8
	c0,0,0,0,0.1,0v-42.8C120.6,269.5,90.6,239.5,90.6,202.5z"/>
<path class="st9" d="M47.8,202.5v5.4h42.8v-5.4c0.1-37,30-67,67-67V92.8C97,92.8,47.9,141.9,47.8,202.5L47.8,202.5z"/>
<path class="st10" d="M157.6,208c-1.4,0-2.8-0.6-3.8-1.6L90,142.6c-2.1-2.2-2-5.6,0.2-7.7c2.1-2,5.4-2,7.5,0l63.8,63.8
	c2.1,2.1,2.1,5.6,0,7.7C160.4,207.4,159,208,157.6,208L157.6,208z"/>
<path class="st2" d="M157.6,165.2c-20.6,0-37.3,16.7-37.3,37.3s16.7,37.3,37.3,37.3c20.6,0,37.3-16.7,37.3-37.3l0,0
	C194.9,181.9,178.2,165.3,157.6,165.2z"/>
<g>
	<defs>
		<rect id="SVGID_1_" y="0" width="305" height="350"/>
	</defs>
	<clipPath id="SVGID_2_">
		<use xlink:href="#SVGID_1_"  style="overflow:visible;"/>
	</clipPath>
	<g class="st11">
		<path class="st5" d="M175,208c-3,0-5.4-2.4-5.4-5.4c0-6.6-5.4-12-12-12c-3,0-5.5-2.4-5.5-5.5c0-3,2.4-5.5,5.5-5.5
			c12.6,0,22.8,10.2,22.8,22.8C180.4,205.5,178,207.9,175,208L175,208z"/>
		<path class="st12" d="M5.4,129.7c-3,0-5.4-2.4-5.4-5.4c0-0.9,0.2-1.7,0.6-2.5c8.4-16.2,19.3-31.1,32.2-44
			c18.3-18.4,40.5-32.6,65-41.3c2.8-1,5.9,0.6,6.9,3.4c0.9,2.8-0.5,5.8-3.2,6.8c-22.9,8.2-43.7,21.5-60.9,38.8
			c-12.2,12.1-22.4,26.1-30.2,41.3C9.4,128.6,7.5,129.7,5.4,129.7L5.4,129.7z"/>
	</g>
</g>
<path class="st12" d="M6.4,83.4c-3,0-5.4-2.4-5.4-5.4c0-1.3,0.4-2.5,1.2-3.5c16.7-20.2,37-36.9,60-49.5c2.6-1.5,5.9-0.6,7.4,2
	c1.5,2.6,0.6,5.9-2,7.4c-0.1,0-0.1,0.1-0.2,0.1c-21.8,11.9-41,27.8-56.8,46.8C9.6,82.6,8,83.4,6.4,83.4z"/>
</svg>
