<?xml version="1.0" encoding="utf-8"?>
<!-- Generator: Adobe Illustrator 21.1.0, SVG Export Plug-In . SVG Version: 6.00 Build 0)  -->
<svg version="1.1" id="Capa_1" xmlns="http://www.w3.org/2000/svg" xmlns:xlink="http://www.w3.org/1999/xlink" x="0px" y="0px"
	 viewBox="0 0 28 30.4" style="enable-background:new 0 0 28 30.4;" xml:space="preserve">
<style type="text/css">
	.st0{fill:#5D5D5D;}
</style>
<path class="st0" d="M14.5,30h8.4c1.5,0,2.6-1.2,2.6-2.7V8.5l0,0c0-0.1,0-0.1,0-0.2V8.3c0-0.1-7.9-7.9-7.9-7.9l0,0
	C17.2,0,17.1,0,16.9,0.1h-12c-1.5,0-2.7,1.1-2.8,2.6c0,0,0,0,0,0v24.4c0,1.6,1.2,2.8,2.8,2.9c0,0,0,0,0,0h8.2 M17.8,2.3l5.5,5.6
	h-5.6C17.7,5.1,17.7,3.4,17.8,2.3L17.8,2.3z M4.9,28.6c-0.8,0-1.5-0.7-1.5-1.5V2.7C3.4,2,4,1.4,4.8,1.4c0,0,0,0,0,0h11.7
	c0,1.4,0,4.8,0,7.1c0,0.2,0.1,0.3,0.2,0.5c0.1,0.1,0.3,0.2,0.5,0.2h7.1v18.1c0,0.7-0.6,1.4-1.4,1.4H4.9z"/>
</svg>
