<?xml version="1.0" encoding="utf-8"?>
<!-- Generator: Adobe Illustrator 21.1.0, SVG Export Plug-In . SVG Version: 6.00 Build 0)  -->
<svg version="1.1" id="Capa_1" xmlns="http://www.w3.org/2000/svg" xmlns:xlink="http://www.w3.org/1999/xlink" x="0px" y="0px"
	 viewBox="0 0 253 350" style="enable-background:new 0 0 253 350;" xml:space="preserve">
<style type="text/css">
	.st0{fill:#DD5151;}
	.st1{fill:#F5F6FB;}
	.st2{fill:#D2D4E6;}
	.st3{fill:#BBBED5;}
	.st4{fill:#E56F0E;}
	.st5{fill:#BDC0D6;}
	.st6{fill:#D3D5E7;}
</style>
<title>PERMISOS</title>
<path class="st0" d="M228.9,350H24.1C10.8,350,0,339.2,0,325.9V48.7c0-13.3,10.8-24,24.1-24h204.8c13.3,0,24.1,10.8,24.1,24.1v277.1
	C253,339.2,242.2,350,228.9,350"/>
<path class="st1" d="M228.9,331.9H24.1c-3.3,0-6-2.7-6-6l0,0V48.7c0-3.3,2.7-6,6-6h204.8c3.3,0,6,2.7,6,6v0v277.1
	C235,329.2,232.3,331.9,228.9,331.9L228.9,331.9"/>
<path class="st2" d="M126.5,24.7c-3.3,0-6-2.7-6-6s2.7-6,6-6c3.3,0,6,2.7,6,6S129.8,24.7,126.5,24.7L126.5,24.7z M162.7,24.7h-18.1
	v-6.1c0.3-10-7.6-18.3-17.5-18.6c-10-0.3-18.3,7.6-18.6,17.5c0,0.4,0,0.7,0,1.1v6.1H90.4c-6.7,0-12,5.4-12,12l0,0v12h96.3V36.7
	C174.6,30.1,169.3,24.7,162.7,24.7z"/>
<path class="st3" d="M174.7,54.7H78.4c-3.3,0.2-6.2-2.4-6.3-5.7c-0.2-3.3,2.4-6.2,5.7-6.3c0.2,0,0.4,0,0.6,0h96.3
	c3.3-0.2,6.2,2.4,6.3,5.7c0.2,3.3-2.4,6.2-5.7,6.3C175.1,54.7,174.9,54.7,174.7,54.7z"/>
<path class="st4" d="M66.3,139.1c-1.6,0-3.1-0.6-4.3-1.8l-18.1-18.1c-2.4-2.4-2.4-6.2,0-8.5c2.4-2.4,6.2-2.4,8.5,0l13.8,13.8
	l25.9-25.9c2.4-2.3,6.2-2.2,8.5,0.2c2.2,2.3,2.2,6,0,8.3l-30.1,30.1C69.4,138.5,67.9,139.1,66.3,139.1L66.3,139.1z"/>
<path class="st5" d="M168.7,115h-48.2c-3.3,0.2-6.2-2.4-6.3-5.7c-0.2-3.3,2.4-6.2,5.7-6.3c0.2,0,0.4,0,0.6,0h48.2
	c3.3-0.2,6.2,2.4,6.3,5.7s-2.4,6.2-5.7,6.3C169.1,115,168.9,115,168.7,115"/>
<path class="st6" d="M198.8,139.1h-78.3c-3.3,0.2-6.2-2.4-6.3-5.7c-0.2-3.3,2.4-6.2,5.7-6.3c0.2,0,0.4,0,0.6,0h78.3
	c3.3-0.2,6.2,2.4,6.3,5.7s-2.4,6.2-5.7,6.3C199.2,139.1,199,139.1,198.8,139.1"/>
<path class="st4" d="M66.3,283.7c-1.6,0-3.1-0.6-4.3-1.8l-18.1-18c-2.4-2.4-2.4-6.2,0-8.5c2.4-2.4,6.2-2.4,8.5,0l13.8,13.8
	l25.9-25.9c2.4-2.3,6.2-2.2,8.5,0.2c2.2,2.3,2.2,6,0,8.3l-30.1,30.1C69.4,283.1,67.9,283.7,66.3,283.7L66.3,283.7z"/>
<path class="st5" d="M168.7,259.6h-48.2c-3.3,0.2-6.2-2.4-6.3-5.7c-0.2-3.3,2.4-6.2,5.7-6.3c0.2,0,0.4,0,0.6,0h48.2
	c3.3-0.2,6.2,2.4,6.3,5.7c0.2,3.3-2.4,6.2-5.7,6.3C169.1,259.6,168.9,259.6,168.7,259.6"/>
<path class="st6" d="M198.8,283.7h-78.3c-3.3,0.2-6.2-2.4-6.3-5.7c-0.2-3.3,2.4-6.2,5.7-6.3c0.2,0,0.4,0,0.6,0h78.3
	c3.3-0.2,6.2,2.4,6.3,5.7c0.2,3.3-2.4,6.2-5.7,6.3C199.2,283.7,199,283.7,198.8,283.7"/>
<path class="st4" d="M66.3,211.4c-1.6,0-3.1-0.6-4.3-1.8l-18.1-18.1c-2.4-2.4-2.4-6.2,0-8.5s6.2-2.4,8.5,0l0,0l13.8,13.8L92.1,171
	c2.4-2.3,6.2-2.2,8.5,0.2c2.2,2.3,2.2,6,0,8.3l-30.1,30.1C69.4,210.8,67.9,211.4,66.3,211.4L66.3,211.4z"/>
<path class="st5" d="M168.7,187.4h-48.2c-3.3,0.2-6.2-2.4-6.3-5.7c-0.2-3.3,2.4-6.2,5.7-6.3c0.2,0,0.4,0,0.6,0h48.2
	c3.3-0.2,6.2,2.4,6.3,5.7c0.2,3.3-2.4,6.2-5.7,6.3C169.1,187.4,168.9,187.4,168.7,187.4"/>
<path class="st6" d="M198.8,211.4h-78.3c-3.3,0.2-6.2-2.4-6.3-5.7c-0.2-3.3,2.4-6.2,5.7-6.3c0.2,0,0.4,0,0.6,0h78.3
	c3.3,0.2,5.9,3,5.7,6.3C204.4,208.8,201.9,211.2,198.8,211.4"/>
</svg>
